<svg width="122" height="66" viewBox="0 0 122 66" fill="none" xmlns="http://www.w3.org/2000/svg">
<path d="M1.58185 45.5143V51.5081H1.62489C2.08223 50.997 2.59337 50.5665 3.16908 50.2383C3.74478 49.9101 4.35815 49.7433 5.01995 49.7433C5.445 49.7433 5.85929 49.8025 6.25206 49.9209C6.65022 50.0392 6.99995 50.2329 7.30663 50.4966C7.61331 50.7602 7.86081 51.1099 8.04375 51.5296C8.22668 51.9547 8.31815 52.4766 8.31815 53.0953V61.4242H6.73092V53.1384C6.73092 52.3797 6.56413 51.8471 6.22516 51.5565C5.8862 51.2606 5.43424 51.1153 4.85853 51.1153C4.56261 51.1153 4.25592 51.1691 3.94386 51.2821C3.62641 51.3897 3.33049 51.535 3.03995 51.6964C2.75478 51.8686 2.48038 52.0569 2.2275 52.256C1.96924 52.4658 1.75402 52.6595 1.57647 52.8532V61.4189H0V45.5143" fill="white"/>
<path d="M10.9384 52.1645C11.3043 51.5081 11.8423 50.9378 12.5472 50.4589C13.252 49.9801 14.1505 49.7433 15.232 49.7433C15.7162 49.7433 16.1951 49.8025 16.6632 49.9316C17.1367 50.0554 17.5564 50.2545 17.933 50.5289C18.3042 50.7979 18.6109 51.1476 18.8477 51.5834C19.079 52.0139 19.2028 52.5519 19.2028 53.1814V58.9492C19.2028 59.5841 19.2297 60.0791 19.2835 60.4396C19.3319 60.8001 19.3911 61.1283 19.4664 61.4189H17.8361L17.6586 59.8316C17.2658 60.2782 16.7547 60.6817 16.1198 61.0691C15.4849 61.4511 14.737 61.6395 13.8708 61.6395C13.4296 61.6395 13.0099 61.5749 12.6117 61.4458C12.2136 61.3113 11.8692 61.1176 11.5787 60.8485C11.2828 60.5795 11.0514 60.2567 10.8739 59.8693C10.6963 59.4819 10.6102 59.0192 10.6102 58.4919C10.6102 57.857 10.734 57.2974 10.9868 56.824C11.2343 56.3505 11.6433 55.9254 12.1974 55.5488C12.757 55.1722 13.478 54.8493 14.3658 54.5696C15.2535 54.2898 16.335 54.0423 17.6155 53.8217V53.2029C17.6155 52.4443 17.3949 51.9009 16.9591 51.5834C16.5126 51.266 15.9476 51.1153 15.2589 51.1153C14.8123 51.1153 14.4303 51.1638 14.1021 51.2821C13.7739 51.3897 13.4887 51.5296 13.252 51.7072C13.0153 51.8847 12.8216 52.0784 12.6709 52.2936C12.5149 52.5089 12.4019 52.7079 12.332 52.9016M17.6155 55.2367C14.0053 55.8609 12.1974 56.9585 12.1974 58.5188C12.1974 58.7878 12.2566 59.0246 12.375 59.2505C12.4934 59.4711 12.6386 59.6595 12.8162 59.8101C12.9937 59.9608 13.1928 60.0845 13.4242 60.1652C13.6502 60.2459 13.8761 60.289 14.0967 60.289C14.3765 60.289 14.6778 60.2405 15.0007 60.1437C15.3235 60.0522 15.6409 59.9123 15.9476 59.7348C16.2543 59.5572 16.5556 59.3582 16.8354 59.1322C17.1259 58.9008 17.3842 58.6587 17.6209 58.3897V55.2421L17.6155 55.2367Z" fill="white"/>
<path d="M30.5124 49.9639L26.4771 62.4358C26.2727 63.0814 26.0252 63.6087 25.74 64.0176C25.4495 64.4319 25.1374 64.7601 24.8038 64.9968C24.4648 65.2443 24.1097 65.4111 23.7331 65.508C23.3618 65.6048 22.9852 65.6479 22.6193 65.6479C22.3557 65.6479 22.1405 65.6371 21.9737 65.6048C21.8015 65.5726 21.6347 65.551 21.4733 65.5188V64.2167C21.5863 64.2274 21.7154 64.249 21.8553 64.2597C21.9952 64.2759 22.1512 64.2866 22.3288 64.2866C22.5655 64.2866 22.8292 64.2597 23.1251 64.2059C23.4157 64.1575 23.7008 64.0338 23.9806 63.8508C24.2604 63.6679 24.524 63.3935 24.7608 63.033C25.0029 62.6725 25.1912 62.1829 25.3257 61.548L21.3334 49.9585H23.0067L26.0951 58.7071H26.1382L28.8284 49.9585" fill="white"/>
<path d="M32.0082 52.1645C32.3741 51.5081 32.9067 50.9378 33.617 50.4589C34.3218 49.9801 35.2257 49.7433 36.3072 49.7433C36.7914 49.7433 37.2703 49.8025 37.7437 49.9316C38.2118 50.0554 38.6315 50.2545 39.0081 50.5289C39.3794 50.7979 39.6861 51.1476 39.9228 51.5834C40.1596 52.0139 40.2779 52.5519 40.2779 53.1814V58.9492C40.2779 59.5841 40.3048 60.0791 40.3586 60.4396C40.4071 60.8001 40.4662 61.1283 40.5416 61.4189H38.9113L38.7391 59.8316C38.3356 60.2782 37.8245 60.6817 37.1949 61.0691C36.5601 61.4511 35.8122 61.6395 34.9513 61.6395C34.5047 61.6395 34.0958 61.5749 33.6923 61.4458C33.2995 61.3113 32.9498 61.1176 32.6592 60.8485C32.3687 60.5795 32.132 60.2567 31.9544 59.8693C31.7768 59.4819 31.6908 59.0192 31.6908 58.4919C31.6908 57.857 31.8145 57.2974 32.062 56.824C32.3149 56.3505 32.7184 55.9254 33.2726 55.5488C33.8322 55.1722 34.5585 54.8493 35.4463 54.5696C36.3341 54.2898 37.4155 54.0423 38.6961 53.8217V53.2029C38.6961 52.4443 38.4755 51.9009 38.0397 51.5834C37.5931 51.266 37.0281 51.1153 36.3395 51.1153C35.9036 51.1153 35.5109 51.1638 35.1827 51.2821C34.8491 51.3897 34.5693 51.5296 34.3326 51.7072C34.1012 51.8847 33.9075 52.0784 33.7461 52.2936C33.5954 52.5089 33.4771 52.7079 33.4071 52.9016M38.6961 55.2367C35.0804 55.8609 33.2726 56.9585 33.2726 58.5188C33.2726 58.7878 33.3318 59.0246 33.4502 59.2505C33.5739 59.4711 33.7192 59.6595 33.8967 59.8101C34.0743 59.9608 34.2734 60.0845 34.5047 60.1652C34.7307 60.2459 34.9567 60.289 35.1719 60.289C35.4517 60.289 35.7476 60.2405 36.0704 60.1437C36.3986 60.0522 36.7107 59.9123 37.0174 59.7348C37.3295 59.5572 37.6254 59.3582 37.9105 59.1322C38.1957 58.9008 38.4593 58.6587 38.6907 58.3897V55.2421L38.6961 55.2367Z" fill="white"/>
<path d="M43.9312 49.9693V46.203H45.5131V49.9693H48.1549V51.3359H45.5131V59.4873C45.5131 59.7509 45.6153 59.9446 45.8144 60.0791C46.0081 60.2136 46.3471 60.2782 46.8152 60.2782C47.0788 60.2782 47.3263 60.2674 47.5684 60.2405C47.7998 60.2136 48.0204 60.1921 48.2302 60.1652V61.4619C48.0849 61.5049 47.859 61.548 47.5469 61.5857C47.2402 61.6233 46.8528 61.6395 46.3793 61.6395C45.5131 61.6395 44.889 61.5049 44.507 61.2413C44.1303 60.9777 43.9366 60.4773 43.9366 59.7455V51.3305H42.0642V49.9639" fill="white"/>
<path d="M50.1403 52.1645C50.5061 51.5081 51.0388 50.9378 51.749 50.4589C52.4539 49.9801 53.347 49.7433 54.4392 49.7433C54.9235 49.7433 55.4023 49.8025 55.8704 49.9316C56.3439 50.0554 56.7636 50.2545 57.1402 50.5289C57.5115 50.7979 57.8181 51.1476 58.0549 51.5834C58.2862 52.0139 58.41 52.5519 58.41 53.1814V58.9492C58.41 59.5841 58.4369 60.0791 58.4853 60.4396C58.5391 60.8001 58.5983 61.1283 58.6736 61.4189H57.0434L56.8658 59.8316C56.473 60.2782 55.9619 60.6817 55.327 61.0691C54.6921 61.4565 53.9442 61.6395 53.0834 61.6395C52.6368 61.6395 52.2171 61.5749 51.8243 61.4458C51.4262 61.3113 51.0818 61.1176 50.7913 60.8485C50.5008 60.5795 50.264 60.2567 50.0865 59.8693C49.9089 59.4819 49.8228 59.0192 49.8228 58.4919C49.8228 57.857 49.9466 57.2974 50.1941 56.824C50.4416 56.3505 50.8505 55.9254 51.4047 55.5488C51.9642 55.1722 52.6906 54.8493 53.5784 54.5696C54.4661 54.2898 55.5476 54.0423 56.8281 53.8217V53.2029C56.8281 52.4443 56.6076 51.9009 56.1717 51.5834C55.7252 51.266 55.1602 51.1153 54.4715 51.1153C54.0249 51.1153 53.6429 51.1638 53.3147 51.2821C52.9811 51.3897 52.7014 51.5296 52.4646 51.7072C52.2333 51.8847 52.0396 52.0784 51.8781 52.2936C51.7275 52.5089 51.6091 52.7079 51.5392 52.9016M56.8281 55.2367C53.2125 55.8609 51.4047 56.9585 51.4047 58.5188C51.4047 58.7878 51.4639 59.0246 51.5822 59.2505C51.706 59.4711 51.8512 59.6595 52.0288 59.8101C52.2064 59.9608 52.4054 60.0845 52.6314 60.1652C52.8628 60.2459 53.0887 60.289 53.3093 60.289C53.5891 60.289 53.8851 60.2405 54.2079 60.1437C54.5307 60.0522 54.8481 59.9123 55.1548 59.7348C55.4669 59.5572 55.7628 59.3582 56.048 59.1322C56.3331 58.9008 56.5914 58.6587 56.8281 58.3897V55.2367Z" fill="white"/>
<path d="M71.6028 45.5143V58.9062C71.6028 59.3312 71.6028 59.7509 71.5921 60.1652C71.5867 60.5741 71.6243 60.9884 71.6943 61.4189H70.2416L70.021 60.2943C69.752 60.6602 69.3592 60.9777 68.8319 61.2413C68.3046 61.5103 67.6912 61.6395 67.0025 61.6395C66.4914 61.6395 65.9534 61.5426 65.3992 61.3543C64.8504 61.166 64.35 60.8432 63.8873 60.3912C63.4353 59.9339 63.0587 59.3259 62.7574 58.5565C62.4507 57.7924 62.3054 56.8401 62.3054 55.6995C62.3054 54.5588 62.4507 53.6441 62.7574 52.8909C63.0587 52.1322 63.4299 51.5242 63.8765 51.0615C64.3285 50.5988 64.8235 50.2598 65.3669 50.0608C65.9103 49.8509 66.4215 49.7487 66.9057 49.7487C67.4491 49.7487 67.9818 49.8724 68.4929 50.1146C69.0041 50.3513 69.4829 50.658 69.9241 51.0239L70.0156 51.0669V45.5197M70.0156 52.6972C69.5852 52.2291 69.1171 51.8471 68.6059 51.5565C68.0948 51.2606 67.5998 51.1153 67.1263 51.1153C66.6528 51.1153 66.2278 51.196 65.835 51.3521C65.4476 51.5189 65.1086 51.7771 64.8127 52.1484C64.5168 52.5142 64.2854 52.9985 64.1294 53.5903C63.968 54.1876 63.8873 54.9139 63.8873 55.7855C63.8873 57.2544 64.1832 58.3682 64.7589 59.1322C65.3346 59.8962 66.1255 60.2836 67.1263 60.2836C67.6374 60.2836 68.1109 60.1598 68.536 59.9285C68.961 59.6971 69.4506 59.299 70.0156 58.7394V52.6972Z" fill="white"/>
<path d="M83.1062 58.9708C82.9125 59.2936 82.6973 59.6164 82.4659 59.9339C82.2292 60.2513 81.9386 60.5311 81.5943 60.7893C81.2499 61.0422 80.841 61.2521 80.3729 61.4027C79.9048 61.5587 79.3453 61.6341 78.6942 61.6341C78.0432 61.6341 77.4298 61.5211 76.838 61.2951C76.2408 61.0691 75.7135 60.7086 75.2508 60.2244C74.788 59.7455 74.4168 59.1214 74.137 58.3735C73.8572 57.6257 73.7173 56.7325 73.7173 55.6887C73.7173 54.7633 73.8249 53.9293 74.0455 53.1922C74.2715 52.4604 74.5836 51.8363 74.9925 51.3198C75.4068 50.8086 75.8964 50.4213 76.4721 50.1468C77.0424 49.8724 77.6827 49.7379 78.3875 49.7379C78.974 49.7379 79.5336 49.8348 80.0609 50.0339C80.5881 50.2276 81.0509 50.5396 81.449 50.9593C81.8472 51.379 82.1592 51.917 82.396 52.5788C82.6273 53.2406 82.7511 54.0261 82.7511 54.9354V55.9954H75.3046C75.3046 56.6303 75.3906 57.206 75.5682 57.7225C75.7458 58.2444 75.9879 58.6964 76.2999 59.0676C76.612 59.4442 76.9671 59.7348 77.376 59.95C77.7903 60.1652 78.2261 60.2728 78.6942 60.2728C79.3991 60.2728 80.0232 60.0953 80.5612 59.7563C81.0993 59.412 81.5297 58.9331 81.8687 58.3305M81.1639 54.6288C81.1639 53.5688 80.9271 52.7187 80.4483 52.073C79.9748 51.4274 79.2968 51.0992 78.436 51.0992C77.4675 51.0992 76.7304 51.4274 76.2192 52.073C75.7135 52.7187 75.4229 53.5688 75.3476 54.6288H81.1639Z" fill="white"/>
<path d="M86.017 58.5027C86.3936 59.0515 86.8564 59.4819 87.4052 59.7993C87.9486 60.1114 88.5781 60.2674 89.2991 60.2674C90.1492 60.2674 90.7787 60.0737 91.1715 59.681C91.5696 59.2936 91.7687 58.8524 91.7687 58.3735C91.7687 57.8947 91.5965 57.5073 91.2575 57.2383C90.924 56.9692 90.5043 56.7433 90.0039 56.5711C89.5035 56.3935 88.9655 56.2321 88.3844 56.0761C87.8087 55.9201 87.2653 55.7156 86.7756 55.4681C86.2806 55.2206 85.8771 54.8924 85.5543 54.4889C85.2315 54.0799 85.0808 53.5258 85.1077 52.8209C85.14 51.8255 85.5005 51.0561 86.1946 50.5235C86.894 49.9854 87.7925 49.7272 88.8955 49.7379C89.2614 49.7379 89.6434 49.7917 90.0308 49.894C90.4128 49.9962 90.7841 50.1361 91.1338 50.3136C91.4728 50.4912 91.7956 50.6956 92.0915 50.9378C92.3821 51.1799 92.6296 51.4489 92.8179 51.7395L91.7149 52.7079C91.2791 52.1645 90.8325 51.7664 90.3698 51.4973C89.9178 51.2337 89.3852 51.0992 88.761 51.0992C88.0831 51.0992 87.572 51.2498 87.2222 51.5619C86.8725 51.874 86.6949 52.2775 86.6949 52.7994C86.6949 53.2083 86.8617 53.5311 87.1899 53.7679C87.5235 54.0046 87.9324 54.2037 88.4274 54.3759C88.9224 54.5427 89.4551 54.7041 90.0254 54.8709C90.5958 55.0377 91.1284 55.2475 91.618 55.5219C92.113 55.7963 92.522 56.146 92.8555 56.5818C93.1837 57.0123 93.3559 57.588 93.3559 58.2874C93.3559 58.847 93.2429 59.3366 93.0223 59.7563C92.8017 60.176 92.5058 60.5203 92.1292 60.8055C91.7579 61.0853 91.3275 61.2897 90.8433 61.4296C90.359 61.5695 89.8586 61.6448 89.3421 61.6448C88.449 61.6448 87.5935 61.4565 86.781 61.0799C85.9632 60.7086 85.2906 60.1652 84.7634 59.4604" fill="white"/>
<path d="M96.0892 49.9693V46.203H97.6764V49.9693H100.318V51.3359H97.6764V59.4873C97.6764 59.7509 97.7733 59.9446 97.9777 60.0791C98.1714 60.2136 98.5104 60.2782 98.9785 60.2782C99.2421 60.2782 99.4896 60.2674 99.721 60.2405C99.9577 60.2136 100.178 60.1921 100.388 60.1652V61.4619C100.243 61.5049 100.012 61.548 99.7048 61.5857C99.3928 61.6233 99.0108 61.6395 98.5373 61.6395C97.671 61.6395 97.0415 61.5049 96.6649 61.2413C96.2829 60.9777 96.0892 60.4773 96.0892 59.7455V51.3305H94.2222V49.9639" fill="white"/>
<path d="M111.149 58.9708C110.961 59.2936 110.745 59.6164 110.509 59.9339C110.277 60.2513 109.987 60.5311 109.637 60.7893C109.298 61.0422 108.884 61.2521 108.416 61.4027C107.948 61.5587 107.388 61.6341 106.742 61.6341C106.097 61.6341 105.478 61.5211 104.881 61.2951C104.284 61.0691 103.762 60.7086 103.299 60.2244C102.831 59.7455 102.465 59.1214 102.185 58.3735C101.905 57.6257 101.766 56.7325 101.766 55.6887C101.766 54.7633 101.873 53.9293 102.094 53.1922C102.32 52.4604 102.626 51.8363 103.041 51.3198C103.45 50.8086 103.939 50.4213 104.52 50.1468C105.091 49.8724 105.731 49.7379 106.436 49.7379C107.022 49.7379 107.582 49.8348 108.109 50.0339C108.636 50.2276 109.099 50.5396 109.497 50.9593C109.89 51.379 110.207 51.917 110.444 52.5788C110.676 53.2406 110.789 54.0261 110.789 54.9354V55.9954H103.347C103.347 56.6303 103.433 57.206 103.611 57.7225C103.789 58.2444 104.031 58.6964 104.343 59.0676C104.649 59.4442 105.005 59.7348 105.419 59.95C105.828 60.1652 106.269 60.2728 106.737 60.2728C107.442 60.2728 108.066 60.0953 108.599 59.7563C109.137 59.412 109.573 58.9331 109.912 58.3305M109.207 54.6288C109.207 53.5688 108.965 52.7187 108.491 52.073C108.018 51.4274 107.34 51.0992 106.479 51.0992C105.505 51.0992 104.768 51.4274 104.262 52.073C103.756 52.7187 103.466 53.5688 103.39 54.6288H109.207Z" fill="white"/>
<path d="M112.898 45.5143H114.485V55.764H114.528L119.155 49.9639H121.071L117.702 54.1983L121.512 61.4189H119.639L116.599 55.5596L114.485 57.9861V61.4189H112.898" fill="white"/>
<path d="M61.9772 41.1346C50.8128 41.8771 41.1603 33.4298 40.4178 22.2654C39.6753 11.101 48.1172 1.45929 59.2816 0.711411C70.4353 -0.0310891 80.0931 8.41081 80.841 19.5698C81.5835 30.7342 73.1309 40.3867 61.9772 41.1346Z" fill="white"/>
<path d="M75.7727 23.3469C74.901 22.5506 74.0025 21.7166 73.0555 20.9741C72.0494 20.1886 69.8972 18.1817 69.2247 18.5207C68.536 18.8704 69.4399 19.5107 69.9241 19.9787C70.5967 20.6298 72.539 22.3192 72.8242 22.8788C73.0502 23.3308 70.516 21.2754 69.5636 20.5491C68.6274 19.8227 66.3408 17.918 65.8135 18.1871C65.0656 18.5691 65.4046 19.0157 66.0018 19.6774C66.6313 20.3823 71.4414 23.7612 71.1401 24.084C71.054 24.1809 69.2946 23.0833 67.8096 22.2062C66.3192 21.3292 64.194 19.6559 63.5268 19.6613C62.8596 19.6721 62.4507 20.3231 62.8004 20.9526C62.9995 21.3185 65.2916 22.6959 66.981 23.8688C68.1916 24.6974 69.3215 25.4937 69.1924 25.6605C69.1063 25.7735 66.7981 24.7082 65.1463 23.815C63.4999 22.9272 62.3646 21.9964 61.6114 22.4376C60.8581 22.8788 61.3961 23.5621 62.3485 24.1809C63.3008 24.805 67.4922 27.1885 68.2831 27.7481C69.074 28.2969 71.0002 29.8088 70.7581 31.0086C70.5698 31.9556 66.9218 31.2669 65.948 31.6866C64.9795 32.1224 64.5114 32.5259 64.5222 33.1393C64.5329 33.7473 65.2431 33.8495 66.4806 33.5536C67.7235 33.2523 70.5752 33.376 73.104 33.559C74.2608 33.6397 75.1055 33.6666 76.2246 33.8495C77.7688 31.9825 78.9794 29.868 79.7865 27.5436C78.931 26.4568 77.6558 25.0955 75.7727 23.3469Z" fill="#FF4D00"/>
<path d="M45.7068 18.2032C46.5838 19.0156 47.4716 19.8389 48.4293 20.5867C49.4301 21.3723 51.5822 23.3792 52.2548 23.0402C52.9542 22.6905 52.0396 22.0502 51.5661 21.5821C50.8935 20.9311 48.9404 19.247 48.6606 18.6767C48.4347 18.2301 50.9742 20.2747 51.9158 21.0118C52.8628 21.7328 55.1441 23.6428 55.6714 23.3738C56.4192 22.9918 56.0695 22.5452 55.483 21.8888C54.8535 21.184 50.0434 17.8104 50.3501 17.4768C50.4308 17.3854 52.1848 18.4776 53.6806 19.36C55.1495 20.237 57.3016 21.9103 57.9634 21.8942C58.6252 21.8888 59.0341 21.2324 58.6844 20.6083C58.4799 20.2424 56.1933 18.8596 54.5038 17.6974C53.2932 16.8581 52.1633 16.0672 52.2924 15.9004C52.3893 15.7874 54.6921 16.8527 56.3385 17.7512C57.9796 18.6336 59.1202 19.5645 59.8789 19.1233C60.6214 18.6767 60.0941 17.9934 59.1417 17.38C58.184 16.7559 53.9927 14.3616 53.2017 13.8182C52.4162 13.2586 50.4846 11.7521 50.7321 10.5468C50.9204 9.61603 54.5737 10.2993 55.5476 9.86891C56.5053 9.43848 56.9896 9.02956 56.968 8.42695C56.9573 7.81358 56.2524 7.71136 55.0096 8.0019C53.7721 8.31397 50.9151 8.19022 48.3862 8.00728C47.2133 7.93195 46.3363 8.0019 45.1849 7.81897C43.6622 9.60527 42.4678 11.6391 41.6392 13.8612C42.5054 14.9749 43.8828 16.5191 45.7176 18.2032" fill="#FF4D00"/>
</svg>
