<svg width="143" height="78" viewBox="0 0 143 78" fill="none" xmlns="http://www.w3.org/2000/svg">
<path d="M1.14815 68.5625C2.24284 69.573 3.50595 70.3309 4.34803 71.4256C5.94797 73.615 7.71633 73.615 9.90572 72.4361C14.874 69.7414 18.4949 65.6995 21.2737 60.8996C27.084 50.6263 27.5051 41.4477 27.5893 29.9113C27.5893 29.7429 27.4209 29.5745 27.084 28.985C25.8209 30.9218 24.8104 32.6902 23.5473 34.2901C19.9264 39.0899 17.5686 41.7004 13.7793 46.3318C11.7583 48.858 8.81102 50.0369 5.61114 48.858C2.15864 47.6791 0.474487 44.9844 0.221865 41.2793C-0.28338 35.3006 0.895524 29.5745 2.49547 23.9326C4.76907 16.0171 5.61114 12.9856 7.96895 5.15433C8.5584 3.04914 9.56889 2.37548 11.5057 3.89122C12.0951 4.39646 12.853 4.64908 13.5266 5.07012C15.0424 6.08061 15.4634 7.25951 14.7055 9.11207C10.3268 18.9643 9.14785 24.4378 7.21108 35.048C6.79004 37.4058 6.70584 39.7636 6.53742 42.1214C6.79004 42.2898 7.12687 42.4582 7.3795 42.6266C9.40048 40.4372 11.5057 38.3321 13.274 35.9742C19.1685 28.3956 22.8737 24.3536 26.9998 15.6803C27.5893 14.5014 27.5893 12.5646 29.8629 13.2382C33.3154 14.1645 35.2522 15.7645 35.1679 17.8696C34.4943 28.0587 35.3364 34.1217 33.989 44.2266C32.8101 54.1631 28.9366 63.3417 22.1158 70.8361C18.7475 74.7097 14.5371 77.6569 8.97944 77.6569C6.11639 77.6569 3.59016 76.7306 1.56918 74.7097C-0.114965 73.0255 -0.28338 70.7519 1.14815 68.5625Z" fill="white"/>
<path d="M49.0602 42.4582C56.0494 36.7321 60.0072 29.7429 63.0386 22.1642C64.5544 18.4591 65.5649 14.5856 66.7438 10.712C67.1648 9.28049 67.8385 8.69104 69.4384 9.11207C74.2382 10.291 74.8277 11.4699 73.8172 16.2697C72.133 24.6062 70.7857 32.9428 72.3857 41.5319C72.7225 43.3003 71.4594 44.395 69.9436 43.6371C68.3437 42.8793 66.9964 41.5319 65.9859 40.1004C65.1438 39.0057 65.0596 37.4058 64.5544 35.8058C62.5334 38.2478 60.6808 40.6057 58.7441 42.795C57.1441 44.6476 55.3758 46.3318 53.6916 48.1001C51.7548 50.1211 49.397 50.7105 46.7866 49.7843C43.8393 48.7738 41.6499 47.0054 41.9026 43.6371C42.1552 38.8373 42.492 33.9533 43.3341 29.1534C44.5972 22.2484 46.4498 15.4276 48.0497 8.60683C48.8076 5.57536 49.0602 5.49116 52.0917 6.58586C56.5547 8.10158 56.4705 8.52263 55.2915 13.0698C53.0179 21.7432 51.0812 30.585 49.1444 39.3425C48.8918 40.1004 49.0602 41.0267 49.0602 42.4582Z" fill="white"/>
<path d="M95.2967 37.4058C98.4965 28.143 101.444 19.638 104.475 11.0488C104.559 10.6278 104.644 10.291 104.728 9.86994C105.149 8.52263 104.054 6.08061 107.086 6.67006C110.875 7.34372 112.812 9.11207 111.97 11.8067C110.37 17.2802 108.265 22.6695 106.58 28.143C104.559 34.7953 101.444 41.0267 100.77 48.0159C100.686 49.4474 99.9281 50.0369 98.4965 50.1211C95.9703 50.2895 93.6967 49.0264 92.5178 46.7528C87.0443 35.5532 83.5918 23.68 80.813 11.5541C80.1393 8.77524 80.813 8.35421 83.5918 9.11207C86.7917 9.95415 87.9706 11.8909 88.6443 15.0908C90.2442 21.9116 92.3494 28.564 94.2862 35.3848C94.3704 35.89 94.7914 36.3953 95.2967 37.4058Z" fill="white"/>
<path d="M131.87 33.6164C129.007 38.3321 126.565 42.6266 123.955 46.837C121.765 50.2895 119.492 51.3842 116.46 50.5421C113.008 49.6159 110.903 47.0054 110.987 43.1319C110.987 36.7321 112.503 30.585 114.776 24.6062C117.808 16.9434 121.681 9.70153 126.734 3.13335C128.839 0.3545 130.355 0.101881 133.891 1.53341C136.67 2.71231 137.765 4.56487 137.26 7.68055C137.007 9.28049 136.67 10.9646 135.996 12.4804C135.744 13.2382 134.397 14.2487 133.975 14.0803C132.965 13.6593 131.786 12.733 131.449 11.8067C131.112 10.712 131.618 9.3647 131.786 8.1858C126.818 12.0593 119.408 29.9955 119.071 40.1846C121.26 36.4795 123.534 32.9428 125.555 29.1534C127.239 26.122 128.67 22.9221 130.27 19.7222C130.439 19.3854 130.607 18.7959 130.776 18.7959C132.628 18.9643 134.649 18.8801 136.418 19.4696C137.344 19.8064 138.354 21.1537 138.523 22.1642C139.617 30.4166 140.459 38.6689 141.47 46.9212C141.723 48.3527 142.144 49.7001 142.565 51.1316C143.154 52.9841 142.396 53.9104 140.544 54.1631C138.017 54.4157 135.323 52.3105 134.902 49.8685C133.891 44.6476 132.965 39.3425 131.87 33.6164Z" fill="white"/>
</svg>
