<svg width="238" height="231" viewBox="0 0 238 231" fill="none" xmlns="http://www.w3.org/2000/svg">
<path d="M12.4518 120.968C17.4177 119.216 21.3621 118.192 24.8679 116.294C37.4286 109.867 49.1147 102.126 56.7094 89.5651C58.3166 86.7893 60.0683 86.3507 62.844 88.5435C69.7087 93.5094 69.8557 94.2395 65.1812 101.396C59.9238 109.429 52.182 114.686 44.1488 119.361C38.3057 122.575 34.6554 125.787 33.7783 133.09C31.7326 151.347 28.0823 169.459 26.0366 187.863C25.1595 195.166 26.7666 202.908 27.6437 210.502C28.0823 214.153 26.7666 214.591 23.8464 214.3C18.2948 213.57 14.353 209.187 14.0614 202.469C13.6229 194.874 13.4784 187.133 14.353 179.538C15.9601 164.787 18.4418 150.034 20.6346 135.283C20.7816 133.823 20.7816 132.216 20.9261 130.755C17.7118 130.172 14.5 130.172 11.7242 129.148C3.39692 125.787 -0.108919 121.698 0.476654 113.665C1.20672 104.316 2.52236 94.8225 3.54394 85.4762C3.83546 82.7004 5.44262 81.9704 7.77984 82.5559C13.3288 83.8716 16.2516 88.6905 15.3746 94.3865C14.2059 101.251 13.3288 108.116 12.4543 114.98C12.3073 116.441 12.4543 118.048 12.4543 120.968H12.4518Z" fill="white"/>
<path d="M64.1825 195.99C68.2714 189.125 72.7988 182.261 76.4516 175.249C84.4849 159.765 92.2266 143.993 100.113 128.509C100.551 127.341 101.134 126.319 101.428 125.151C102.306 122.813 102.012 119.163 105.956 119.746C110.775 120.329 116.179 125.734 115.158 128.948C109.315 146.913 111.799 165.17 111.799 183.427C111.946 185.764 111.946 188.246 111.946 190.583C111.946 193.212 112.238 197.009 108.44 196.426C105.956 196.134 103.327 193.797 101.576 191.751C100.407 190.436 100.845 187.807 100.698 185.908C100.115 177.437 99.5298 169.112 97.9227 160.348C95.7325 164.584 93.5397 168.82 91.205 173.056C85.8005 182.405 80.396 191.751 74.7 200.953C71.6327 205.919 67.3968 209.425 60.8237 207.965C54.2505 206.505 51.4748 201.539 50.3062 195.549C48.4075 184.595 48.846 173.495 51.4748 162.686C54.9806 148.079 59.0695 133.62 63.0139 119.014C63.891 115.946 64.621 111.857 69.7315 113.756C75.5745 115.802 78.6418 120.474 76.7432 125.004C70.6086 140.049 66.0812 155.677 63.4524 171.743C62.1368 179.485 62.1368 187.371 61.7008 195.257C62.4308 195.549 63.3079 195.696 64.185 195.987L64.1825 195.99Z" fill="white"/>
<path d="M150.939 181.558C153.859 170.311 157.073 159.066 159.702 147.674C163.938 128.978 167.88 109.992 172.116 91.1494C172.263 90.1278 173.429 88.6651 174.308 88.5207C180.443 87.4991 186.869 94.6552 185.262 100.643C176.937 132.776 168.61 164.909 160.287 196.895C159.849 198.793 159.263 200.545 158.974 202.446C158.242 205.367 157.806 208.434 153.57 208.581C149.481 208.728 145.098 206.535 144.076 202.885C140.426 191.201 136.92 179.515 133.853 167.685C129.617 151.91 125.673 135.99 121.584 120.071C121.292 118.611 120.854 117.15 120.707 115.543C120.124 111.893 122.022 110.286 125.673 111.16C132.246 112.62 134.145 115.249 135.605 122.114C139.841 141.978 144.66 161.695 149.187 181.414C149.77 181.561 150.356 181.561 150.939 181.561V181.558Z" fill="white"/>
<path d="M211.06 130.52C210.477 130.373 210.038 130.373 209.6 130.373C203.612 148.046 197.916 165.865 194.263 184.851C200.69 183.1 206.094 181.492 211.79 180.324C215.149 179.741 215.732 178.278 215.293 175.211C214.419 168.929 213.98 162.65 213.395 156.516C212.52 147.752 211.79 139.136 211.057 130.517L211.06 130.52ZM216.759 188.651C209.164 191.28 202.008 193.617 194.996 196.393C193.536 196.976 192.367 199.022 191.929 200.482C191.199 203.258 191.199 206.178 190.905 209.101C190.613 212.898 188.567 214.358 184.917 213.484C178.491 212.023 176.592 209.539 176.739 203.113C177.322 187.338 180.828 172.149 185.356 157.104C191.052 137.97 197.625 119.128 203.759 100.141C205.222 95.6135 206.827 91.2305 208.142 86.5586C209.164 82.7613 211.21 82.4697 214.568 83.7828C220.267 85.973 222.749 89.0403 223.04 95.7605C224.064 121.173 226.107 146.589 228.006 171.857C228.445 178.283 230.637 184.273 231.073 190.844C231.806 202.527 235.018 213.922 237.355 225.314C238.23 229.697 236.625 231.302 232.389 230.427C226.838 229.406 224.647 226.63 223.479 220.934C221.436 210.416 219.098 199.901 216.761 188.654L216.759 188.651Z" fill="white"/>
<path d="M167.474 51.8222C170.133 60.479 172.26 67.2803 170.394 75.6102C167.264 89.5879 155.927 97.0888 152.868 98.9799C144.436 101.434 131.523 104.194 115.726 103.571C103.246 103.079 94.0315 102.714 84.4266 96.8936C71.729 89.1975 62.8922 74.8522 61.4752 59.3358C59.3509 36.0802 74.8039 20.5739 78.5202 16.845C82.6901 12.6572 96.4448 -1.14558 115.726 0.0762682C133.714 1.21446 145.156 14.7131 152.394 23.2482C162.082 34.6783 165.717 46.1033 167.474 51.8222Z" fill="#CF9863"/>
<path d="M113.964 73.3693C111.875 73.3693 109.804 73.2729 107.733 73.0777C106.846 72.9941 106.05 72.9383 105.348 72.8876C102.486 72.6823 100.597 72.5454 98.9062 71.0016C97.8365 70.0257 97.4943 69.1613 96.6704 67.0775C96.3383 66.2359 95.9251 65.1915 95.3345 63.7948C94.2673 61.2674 93.5397 59.7642 93.0581 58.7705C92.3483 57.3078 92.0264 56.6386 91.8515 55.2824C91.4281 51.9768 92.4015 48.471 94.7438 44.8663C94.8249 44.7395 94.9289 44.628 95.0455 44.5342C98.1026 42.1083 101.048 39.4542 103.801 36.6505C106.194 34.2119 108.488 31.6085 110.618 28.9139C111.188 28.1914 112.035 27.7503 112.94 27.7047C113.837 27.6591 114.727 28.0089 115.366 28.668C117.85 31.2257 120.598 33.5123 123.528 35.4616C126.096 37.1677 128.831 38.6329 131.655 39.8167C132.966 40.3668 133.78 41.7661 133.63 43.2211C133.333 46.1287 133.539 48.874 134.243 51.376C134.586 52.5979 134.958 53.4725 135.351 54.3952C135.922 55.7412 136.512 57.1304 136.895 59.4321C137.313 61.9493 137.886 65.3943 136.218 68.1245C135.148 69.8761 133.323 71.0473 126.763 72.2083C122.362 72.9865 118.129 73.3743 113.964 73.3743V73.3693ZM96.9568 46.5672C95.0708 49.5357 94.2825 52.3469 94.612 54.925C94.7286 55.8299 94.9035 56.195 95.5626 57.5537C96.0569 58.5753 96.8047 60.1166 97.8973 62.7098C98.5006 64.137 98.9189 65.1991 99.2586 66.0534C100.039 68.0307 100.207 68.4185 100.782 68.9458C101.712 69.795 102.734 69.9091 105.548 70.1119C106.265 70.1626 107.076 70.2209 107.991 70.3071C113.936 70.8647 119.916 70.5884 126.276 69.4629C132.337 68.3906 133.336 67.4933 133.84 66.6694C134.968 64.824 134.512 62.0862 134.147 59.8859C133.818 57.9111 133.338 56.7831 132.786 55.4776C132.378 54.5118 131.952 53.5155 131.561 52.1239C130.763 49.2822 130.527 46.1895 130.859 42.9321C130.885 42.6913 130.765 42.4581 130.578 42.3795C127.589 41.1298 124.699 39.5784 121.984 37.776C118.887 35.7177 115.989 33.3044 113.366 30.6047C113.262 30.4982 113.153 30.4779 113.079 30.483C113.006 30.4881 112.897 30.5159 112.8 30.6376C110.608 33.4109 108.25 36.0878 105.786 38.5974C103.008 41.4289 100.039 44.1083 96.9568 46.5672Z" fill="white"/>
<path d="M103.854 81.6991C103.644 81.6991 103.423 81.694 103.195 81.6814C98.4575 81.4405 92.4472 78.6749 90.6372 74.0233C90.0111 72.4111 90.0973 71.1664 90.1784 69.9598C90.2696 68.6416 90.3558 67.3944 89.5903 65.5261C88.9236 63.8987 88.153 63.232 87.2607 62.4639C86.5255 61.8302 85.6915 61.1103 84.8626 59.7946C81.4987 54.4509 82.277 45.9969 86.561 41.3351C87.8184 39.9688 88.7943 39.5936 89.8286 39.1981C90.7817 38.8331 91.8641 38.4199 93.4992 37.0789C95.8592 35.1498 96.7667 33.4134 98.2725 30.5413C99.0228 29.109 99.9557 27.327 101.287 25.119C105.654 17.8691 108.286 13.4912 111.538 13.7523C113.12 13.8791 113.761 15.0933 114.828 17.1035C115.652 18.6574 116.78 20.7893 118.859 23.5524C121.343 26.8555 123.69 29.9735 127.784 32.4172C129.485 33.4337 130.641 33.8241 131.762 34.2043C133.141 34.6733 134.444 35.1143 136.378 36.6455C138.026 37.951 141.093 40.3794 142.064 44.3847C142.348 45.5558 142.272 46.1718 142.132 47.2872C142.008 48.2733 141.823 49.7638 141.76 52.5877C141.638 58.0759 142.175 59.318 142.353 59.7287C142.954 61.1179 143.64 61.7567 144.305 62.3727C144.987 63.0064 145.633 63.6072 145.924 64.8138C146.885 68.7861 142.477 72.7964 140.596 74.5075C136.614 78.1299 132.162 80.1503 127.364 80.5128C124.306 80.7434 122.542 80.1959 120.836 79.6661C119.117 79.1337 117.498 78.6293 114.506 78.8752C111.68 79.1084 110.192 79.7954 108.752 80.4595C107.37 81.0958 106.06 81.7016 103.857 81.7016L103.854 81.6991ZM111.284 14.9792C108.838 14.9792 106.103 19.5193 102.349 25.7553C101.036 27.9354 100.113 29.6997 99.3701 31.1167C97.8466 34.0268 96.8402 35.9483 94.285 38.0371C92.4928 39.5023 91.2608 39.9738 90.2722 40.3541C89.3013 40.7267 88.5332 41.0208 87.4736 42.1716C83.6053 46.3822 82.8727 54.3115 85.9095 59.1355C86.6396 60.294 87.3646 60.9201 88.0668 61.526C88.9971 62.327 89.9578 63.1534 90.7361 65.0572C91.6081 67.1916 91.5042 68.7075 91.4129 70.0434C91.3318 71.212 91.2633 72.2209 91.7906 73.5721C93.413 77.7395 98.9088 80.2238 103.259 80.4443C105.571 80.5635 106.744 80.0184 108.232 79.3315C109.697 78.6546 111.36 77.8891 114.402 77.6381C117.629 77.372 119.447 77.9373 121.201 78.4797C122.869 78.9969 124.446 79.4886 127.27 79.2732C131.787 78.931 135.99 77.0171 139.762 73.5847C141.334 72.155 145.509 68.3577 144.72 65.0952C144.515 64.2485 144.074 63.8379 143.461 63.27C142.774 62.6312 141.919 61.8378 141.215 60.2103C140.989 59.6907 140.393 58.3091 140.52 52.5523C140.583 49.665 140.776 48.1389 140.9 47.1275C141.037 46.0324 141.088 45.6217 140.857 44.6711C139.985 41.0791 137.136 38.823 135.605 37.6113C133.838 36.212 132.69 35.8241 131.359 35.3729C130.233 34.9901 128.958 34.5592 127.146 33.4768C122.844 30.9089 120.314 27.545 117.865 24.2926C115.726 21.451 114.572 19.2709 113.731 17.679C112.696 15.727 112.296 15.0502 111.436 14.9818C111.386 14.9767 111.333 14.9767 111.282 14.9767L111.284 14.9792Z" fill="white"/>
<path d="M119.959 67.1308C119.026 67.1308 118.136 67.0471 117.12 66.9533C115.581 66.8088 113.67 66.6314 110.747 66.6745C110.184 66.6821 109.672 66.6973 109.206 66.7125C106.77 66.786 105.299 66.8291 103.832 65.6427C102.184 64.3094 101.705 62.3625 101.322 60.7959C100.627 57.9669 101.031 55.6043 101.383 53.5206C101.608 52.1923 101.935 50.8741 102.354 49.599C102.549 49.0033 102.896 48.4685 103.36 48.0477C104.909 46.6382 106.288 45.1249 107.462 43.5507C107.662 43.282 107.852 43.0183 108.037 42.7572C109.168 41.1855 110.232 39.7001 112.283 38.9852C112.745 38.823 113.705 38.4884 114.93 38.6303C116.458 38.8078 117.203 39.6012 117.992 40.4428C118.585 41.0765 119.259 41.7939 120.479 42.5722C121.962 43.5177 122.735 44.083 123.807 44.8638C124.096 45.0742 124.405 45.2998 124.755 45.5533C125.427 46.0374 125.85 46.7929 125.914 47.6269C126.063 49.561 126.507 51.3583 127.234 52.968C127.559 53.6879 127.873 54.2279 128.18 54.7526C128.72 55.6804 129.229 56.5549 129.559 58.0531C129.817 59.2293 130.36 61.6806 129.113 63.7365C128.565 64.6414 127.465 65.7898 123.797 66.6516C122.261 67.0116 121.079 67.1308 119.962 67.1308H119.959ZM111.644 64.8113C114.151 64.8113 115.875 64.971 117.292 65.1028C119.432 65.3031 120.846 65.4349 123.371 64.8417C126.75 64.0483 127.333 63.0875 127.523 62.7732C128.385 61.3536 127.967 59.4651 127.744 58.4511C127.475 57.2368 127.077 56.5524 126.573 55.6855C126.261 55.1481 125.906 54.5397 125.541 53.731C124.725 51.9236 124.228 49.9185 124.061 47.7688C124.038 47.4824 123.896 47.2238 123.665 47.059C123.313 46.803 123.001 46.5774 122.709 46.3644C121.665 45.6014 120.91 45.0513 119.477 44.1388C118.063 43.2363 117.272 42.3922 116.636 41.7153C115.875 40.9042 115.533 40.5721 114.714 40.4758C113.916 40.3845 113.277 40.6076 112.894 40.7394C111.398 41.2616 110.58 42.4023 109.543 43.8422C109.35 44.1109 109.155 44.3821 108.947 44.661C107.702 46.3315 106.242 47.9336 104.607 49.4216C104.382 49.6269 104.212 49.8906 104.116 50.1795C103.725 51.3659 103.421 52.5954 103.211 53.8299C102.871 55.8274 102.521 57.8959 103.122 60.3523C103.472 61.782 103.834 63.2574 104.995 64.1978C105.882 64.9152 106.754 64.9279 109.145 64.8544C109.621 64.8392 110.141 64.824 110.714 64.8163C111.033 64.8113 111.34 64.8087 111.637 64.8087L111.644 64.8113Z" fill="white"/>
<path d="M95.0582 85.139C95.0024 85.139 94.9441 85.1314 94.8883 85.1162C86.5914 82.7511 82.4443 80.0945 82.206 76.9942C82.1375 76.1095 82.4011 75.344 82.6775 74.5328C83.0146 73.5518 83.3949 72.4389 83.2554 70.8242C83.0983 69.0015 82.3859 67.7569 81.6305 66.4362C81.5367 66.2739 81.4429 66.1117 81.3517 65.9469C77.5442 59.1837 76.6722 54.5143 76.6113 51.7892C76.5201 47.6978 78.0917 44.6965 79.4784 42.05C82.5279 36.2297 87.1187 32.6833 90.4344 30.7339C90.731 30.5616 91.1087 30.6579 91.2811 30.9545C91.4535 31.2511 91.3571 31.6288 91.0606 31.8012C87.8843 33.6694 83.4861 37.0637 80.5735 42.6254C79.2553 45.1401 77.7622 47.9919 77.8458 51.7639C77.9042 54.347 78.7458 58.8009 82.429 65.3411C82.5203 65.5033 82.6116 65.663 82.7028 65.8227C83.4912 67.1992 84.3049 68.6238 84.4849 70.7177C84.6471 72.5936 84.201 73.8915 83.8461 74.9333C83.5901 75.6786 83.3898 76.2667 83.4379 76.8979C83.5698 78.6065 85.7219 81.2149 95.2255 83.9248C95.555 84.0186 95.7451 84.3608 95.6513 84.6903C95.5728 84.9616 95.3269 85.139 95.0556 85.139H95.0582Z" fill="white"/>
<path d="M152.158 49.0135C152.077 49.0135 151.996 48.9983 151.917 48.9653C149.74 48.0426 148.221 46.7269 147.407 45.0539C146.817 43.8396 146.794 42.8333 146.766 41.4365C146.751 40.7267 146.736 39.9231 146.647 38.8914C146.406 36.0472 146.246 34.1688 145.433 32.5997C144 29.8366 140.882 28.7263 136.568 27.1876C134.7 26.5209 133.209 26.1609 132.013 25.8719C129.85 25.3472 128.289 24.9695 126.661 23.3091C125.891 22.5232 125.579 21.9402 124.75 20.3812C124.54 19.9858 124.294 19.5244 123.997 18.9743C122.507 16.229 120.907 13.4963 119.239 10.8523C119.057 10.5634 119.143 10.1806 119.432 9.99806C119.721 9.81554 120.103 9.90173 120.286 10.1907C121.967 12.8575 123.581 15.613 125.085 18.3837C125.384 18.9363 125.632 19.4002 125.843 19.7982C126.654 21.3217 126.9 21.783 127.546 22.4421C128.925 23.849 130.198 24.1583 132.307 24.6678C133.531 24.9644 135.055 25.3345 136.984 26.0215C141.392 27.5931 144.872 28.8353 146.53 32.0293C147.458 33.819 147.625 35.7962 147.879 38.7875C147.97 39.8572 147.988 40.7191 148.001 41.4112C148.028 42.7395 148.044 43.543 148.518 44.5114C149.197 45.9056 150.503 47.021 152.399 47.8246C152.713 47.9589 152.86 48.3214 152.726 48.6358C152.627 48.8715 152.396 49.0135 152.155 49.0135H152.158Z" fill="white"/>
<path d="M126.405 93.2965C126.094 93.2965 125.825 93.0608 125.792 92.7439C125.754 92.4042 126 92.1 126.339 92.062C128.167 91.8643 144.406 89.7324 151.377 76.1957C153.522 72.0308 154.518 67.3893 154.338 62.4005C154.325 62.0583 154.591 61.7719 154.934 61.7592C155.268 61.7491 155.562 62.0127 155.575 62.3549C155.763 67.5566 154.721 72.4035 152.477 76.761C145.212 90.8731 128.37 93.0836 126.474 93.2914C126.451 93.2914 126.428 93.294 126.405 93.294V93.2965Z" fill="white"/>
</svg>
