<svg width="75" height="76" viewBox="0 0 75 76" fill="none" xmlns="http://www.w3.org/2000/svg">
<path d="M9.375 20.1882C9.375 14.5791 13.9221 10.032 19.5312 10.032H55.4688C61.0778 10.032 65.625 14.5791 65.625 20.1882V56.1257C65.625 61.7348 61.0778 66.282 55.4688 66.282H19.5312C13.9221 66.282 9.375 61.7348 9.375 56.1257V20.1882ZM19.5312 14.7195C16.5109 14.7195 14.0625 17.1679 14.0625 20.1882V35.032H60.9375V20.1882C60.9375 17.1679 58.4891 14.7195 55.4688 14.7195H19.5312ZM14.0625 44.6676L17.7736 39.7195H14.0625V44.6676ZM17.7736 47.532H28.0529L30.006 39.7195H23.633L17.7736 47.532ZM14.0625 52.2195V56.1257C14.0625 59.146 16.5109 61.5945 19.5312 61.5945H24.5373L26.881 52.2195H14.0625ZM31.7128 52.2195L29.3691 61.5945H47.0562L44.1266 52.2195H31.7128ZM49.0375 52.2195L51.9672 61.5945H55.4688C58.4891 61.5945 60.9375 59.146 60.9375 56.1257V52.2195H49.0375ZM57.2266 47.532L51.3672 39.7195H45.1313L47.5725 47.532H57.2266ZM42.6616 47.532L40.2203 39.7195H34.8378L32.8847 47.532H42.6616ZM60.9375 44.6676V39.7195H57.2266L60.9375 44.6676Z" fill="#212121"/>
</svg>
