<svg width="54" height="86" viewBox="0 0 54 86" fill="none" xmlns="http://www.w3.org/2000/svg">
<path d="M14.9582 34.1777C12.9945 35.4293 11.0829 36.6144 9.21232 37.8609C8.23737 38.5105 7.3033 39.2313 6.4066 39.9863C5.05938 41.1206 3.5441 41.7756 1.78016 41.8299C1.20974 41.8475 0.748131 41.7217 0.709502 41.0086C0.672478 40.3252 1.05421 40.0546 1.64925 40.0387C3.38933 39.9922 4.61379 38.9926 5.95826 38.0207C8.75731 35.9972 11.689 34.1513 14.623 32.3237C15.7276 31.6357 17.1776 32.1131 17.9363 33.1755C18.6846 34.2233 18.5913 35.6566 17.6451 36.5953C17.0854 37.1506 16.4397 37.619 15.6339 38.2926C16.75 38.2926 17.6582 38.2926 18.5663 38.2926C20.3323 38.2926 22.0984 38.2923 23.8644 38.2927C26.399 38.2933 27.3076 39.1847 27.3256 41.758C28.7207 41.9814 29.784 42.6744 29.9769 44.1919C30.1587 45.6225 29.351 46.5276 28.1552 47.1116C28.2995 49.4591 27.743 50.2351 25.5054 50.8556C25.6624 53.2669 24.6961 54.2975 22.2683 54.2992C18.8055 54.3016 15.3384 54.4016 11.8818 54.2556C10.2238 54.1856 8.58719 53.6388 6.93811 53.3225C5.55551 53.0574 4.17104 52.8002 2.78254 52.5686C2.41137 52.5067 2.01991 52.5775 1.64223 52.5411C1.0613 52.4851 0.550625 52.2111 0.751614 51.5662C0.859547 51.22 1.37034 50.7345 1.66751 50.7558C3.3444 50.876 5.09432 50.8811 6.66224 51.4001C8.86572 52.1294 11.041 52.571 13.3594 52.5164C16.2665 52.4481 19.1764 52.5004 22.0852 52.4992C22.362 52.4991 22.7029 52.5883 22.9013 52.4607C23.2321 52.2478 23.6863 51.8939 23.6872 51.598C23.6881 51.3208 23.1807 50.8177 22.8759 50.8011C21.2529 50.713 19.6212 50.7921 17.9968 50.7186C17.1929 50.6823 15.8436 51.2004 15.8405 49.8608C15.8372 48.4449 17.226 48.9633 18.0594 48.9404C20.2737 48.8794 22.4907 48.9198 24.7067 48.9195C24.9491 48.9195 25.247 49.0068 25.4222 48.8978C25.7828 48.6733 26.0778 48.3435 26.3998 48.0571C26.073 47.7799 25.7554 47.2766 25.4179 47.2628C23.4127 47.1809 21.4028 47.2116 19.3945 47.2059C18.6327 47.2038 17.8709 47.2025 17.1091 47.2063C16.4308 47.2097 15.7782 47.0835 15.7976 46.25C15.8155 45.4773 16.4424 45.3832 17.0821 45.3843C20.1983 45.3897 23.3146 45.3946 26.4307 45.3752C27.1108 45.371 28.0918 45.6447 28.1314 44.5618C28.1743 43.3836 27.1438 43.639 26.4333 43.6341C23.3525 43.6125 20.2715 43.6216 17.1906 43.6274C16.5342 43.6286 15.8191 43.6064 15.797 42.7689C15.7732 41.8662 16.5005 41.8174 17.2064 41.8208C19.5264 41.832 21.8465 41.8196 24.1666 41.8283C24.8372 41.8309 25.4949 41.7821 25.4806 40.9085C25.4668 40.0666 24.7913 40.0924 24.1888 40.0936C20.5532 40.101 16.9176 40.1134 13.282 40.1159C12.8687 40.1162 12.4057 40.1709 12.0569 40.0066C11.7465 39.8605 11.3675 39.4389 11.3774 39.1513C11.3875 38.8614 11.7942 38.4149 12.1048 38.3337C13.9484 37.8514 14.9945 36.2894 16.401 35.2264C16.5731 35.0963 16.5079 34.2632 16.4137 34.2359C15.9784 34.11 15.494 34.1537 14.9582 34.1777Z" fill="white"/>
<path d="M53.3591 4.40536C51.0646 4.5744 48.9526 4.24375 46.8619 3.47222C45.6543 3.02662 44.3195 2.76021 43.0334 2.72503C39.435 2.62661 35.8322 2.69045 32.2311 2.69028C32.1965 2.69028 32.1618 2.69151 32.1272 2.69063C31.522 2.6752 30.954 2.7899 30.9532 3.53055C30.9525 4.22665 31.4504 4.44256 32.0888 4.44126C33.8893 4.43761 35.6898 4.46044 37.4901 4.44724C38.162 4.44231 38.8589 4.49267 38.8725 5.31433C38.8871 6.19924 38.1475 6.27221 37.4488 6.27159C34.8175 6.26925 32.1862 6.27293 29.5548 6.26916C28.9358 6.26827 28.3049 6.27503 28.2968 7.11795C28.2886 7.97161 28.9376 7.97543 29.5454 7.97687C32.0384 7.98279 34.5314 7.98331 37.0245 7.98586C37.2668 7.98611 37.5093 7.98166 37.7516 7.98805C38.377 8.00456 38.9008 8.25182 38.8796 8.92961C38.8584 9.60635 38.3243 9.80682 37.6956 9.80595C34.5795 9.80164 31.4633 9.79333 28.3475 9.82107C27.619 9.82756 26.5091 9.47618 26.5241 10.7073C26.5378 11.827 27.5948 11.5524 28.3043 11.558C31.2463 11.5815 34.1886 11.5678 37.1308 11.568C37.3732 11.568 37.6745 11.4784 37.846 11.5891C38.2328 11.8388 38.5554 12.188 38.9041 12.4967C38.5387 12.7858 38.186 13.3033 37.8057 13.3245C36.1487 13.4168 34.4838 13.3647 32.8218 13.365C32.0946 13.3652 31.3675 13.3627 30.6403 13.3658C29.9824 13.3686 29.1911 13.2676 29.1824 14.2309C29.1736 15.2155 29.9866 15.0959 30.6323 15.095C34.2675 15.09 37.9026 15.0721 41.5378 15.0626C41.8142 15.0619 42.1472 15.0012 42.3545 15.1293C42.7177 15.3537 43.0037 15.7028 43.3221 15.9997C43.0109 16.2983 42.7239 16.6297 42.3794 16.883C42.1752 17.0332 41.8328 16.9987 41.6344 17.1527C40.5683 17.9804 39.4893 18.7998 38.5045 19.7184C38.2441 19.9614 38.3015 20.5451 38.213 20.9724C38.647 21.0229 39.2132 21.2761 39.4948 21.0926C42.4462 19.1694 45.3875 17.2259 48.2555 15.1813C49.6473 14.1891 51.0683 13.4323 52.7949 13.3623C53.34 13.3402 53.8546 13.3947 53.9309 14.1137C54.0092 14.8503 53.5827 15.1351 52.9511 15.1539C51.2464 15.2046 50.0531 16.1962 48.7367 17.1397C45.9023 19.1713 42.9502 21.0451 39.9857 22.8858C38.8955 23.5628 37.4167 23.0394 36.6913 21.9704C35.9515 20.8802 36.1212 19.3898 37.1261 18.4786C37.6758 17.9801 38.2743 17.5354 39.0586 16.8974C36.1335 16.8974 33.4827 16.8977 30.8318 16.8974C28.1849 16.897 27.3585 16.0939 27.3081 13.4139C25.8806 13.2056 24.8545 12.4596 24.68 10.9472C24.5209 9.56852 25.3169 8.68015 26.472 8.09977C26.4598 5.59101 26.9011 4.97094 28.9954 4.37741C29.183 3.59177 29.2323 2.80782 29.5576 2.16307C30.0074 1.27138 30.8733 0.887663 31.8921 0.889764C35.8047 0.897831 39.7183 0.853395 43.6295 0.92999C44.7154 0.951255 45.862 1.158 46.8621 1.56873C48.793 2.36177 50.7456 2.7536 52.8254 2.65862C53.1691 2.64292 53.7885 2.92522 53.823 3.14255C53.8839 3.5255 53.5922 3.96453 53.3591 4.40536Z" fill="white"/>
<path d="M4.21823 16.9875C4.2971 16.2464 4.73282 15.8893 5.2814 16.12C5.60118 16.2544 5.90875 16.8375 5.91706 17.2253C5.97261 19.8183 5.94086 22.4131 5.95216 25.0072C5.95379 25.3826 5.94456 25.8038 6.10661 26.118C6.23564 26.3683 6.62322 26.6326 6.88694 26.6236C7.1405 26.615 7.48656 26.3102 7.60317 26.0507C7.75061 25.7226 7.73894 25.3089 7.74064 24.9318C7.75109 22.6124 7.74592 20.2929 7.74603 17.9735C7.74604 17.7311 7.74561 17.4888 7.74715 17.2465C7.75096 16.6439 7.88297 16.0955 8.61117 16.0663C9.42144 16.0337 9.55694 16.6451 9.56707 17.2669C9.58849 18.5821 9.57469 19.8978 9.57488 21.2133C9.57516 23.1513 9.57639 25.0893 9.57431 27.0274C9.57364 27.6623 9.52118 28.4144 10.3986 28.4181C11.3085 28.4218 11.3157 27.6705 11.3141 26.9781C11.3068 23.8971 11.3108 20.816 11.3111 17.7349C11.3111 17.4926 11.2235 17.192 11.3343 17.0202C11.5648 16.6627 11.9011 16.3733 12.1939 16.056C12.4947 16.3688 12.8511 16.6472 13.0745 17.0079C13.1995 17.2097 13.1059 17.5481 13.107 17.825C13.1155 20.0749 13.1181 22.3249 13.1341 24.5748C13.1385 25.1886 13.2049 25.8488 14.0342 25.792C14.8132 25.7386 14.8625 25.1086 14.8607 24.479C14.8507 20.8787 14.8515 17.2784 14.85 13.6781C14.8498 13.2974 14.7545 12.8733 14.8906 12.5476C15.0412 12.1875 15.3853 11.7006 15.6859 11.67C15.9784 11.6402 16.5249 12.0636 16.6106 12.382C17.1059 14.2232 18.6485 15.2839 19.7198 16.6874C19.8445 16.8507 20.4424 16.8664 20.6296 16.7145C20.8677 16.5214 20.9931 16.0916 21.0095 15.7562C21.0209 15.5232 20.7837 15.2655 20.6284 15.0387C18.5999 12.0759 16.5787 9.10803 14.5279 6.16069C13.6742 4.93379 13.1795 3.60739 13.1107 2.11241C13.0814 1.47555 13.2723 0.896375 13.9401 0.959903C14.2796 0.992199 14.794 1.56636 14.8351 1.93908C15.0061 3.48739 15.7437 4.68436 16.6358 5.92691C18.7093 8.81493 20.6519 11.8007 22.5547 14.8057C23.2922 15.9704 22.8396 17.4219 21.7406 18.2009C20.6125 19.0005 19.1473 18.8298 18.178 17.7583C17.7201 17.2521 17.3059 16.7064 16.6796 15.9447C16.6796 17.3257 16.6796 18.4418 16.6796 19.558C16.6796 21.185 16.6873 22.8122 16.6776 24.4392C16.6642 26.6886 15.5138 27.7327 13.2032 27.5349C12.9194 28.9224 12.3073 30.0679 10.6888 30.2219C9.28848 30.3551 8.40941 29.6116 7.84044 28.4441C5.46458 28.5629 4.73753 28.0438 4.07666 25.7576C3.84947 25.7782 3.61467 25.8119 3.3791 25.8188C1.89725 25.8619 0.720652 24.7432 0.717215 23.252C0.707562 19.0631 0.674127 14.8736 0.743643 10.6859C0.759856 9.70912 1.02678 8.69078 1.38957 7.77526C2.08981 6.00818 2.50356 4.21995 2.39783 2.316C2.35916 1.61945 2.42804 0.887646 3.35175 0.923653C4.19353 0.956467 4.20187 1.66565 4.22133 2.31604C4.28113 4.31467 3.8665 6.2068 3.21756 8.09941C2.76595 9.41654 2.48118 10.8464 2.43566 12.2362C2.3258 15.5906 2.39953 18.9511 2.40068 22.3091C2.40078 22.5858 2.31214 22.9271 2.44019 23.1246C2.65499 23.456 2.97885 23.8448 3.31968 23.9184C3.52553 23.9629 3.93288 23.5014 4.09663 23.1875C4.24402 22.9049 4.2074 22.5136 4.20935 22.1701C4.21895 20.4739 4.21439 18.7776 4.21823 16.9875Z" fill="white"/>
<path d="M52.2421 32.1861C51.9225 31.8033 51.6056 31.5126 51.2887 31.2218C51.0379 31.5702 50.5891 31.9082 50.5703 32.2687C50.4838 33.9262 50.518 35.59 50.5072 37.2515C50.5052 37.5628 50.5997 37.9327 50.4652 38.1719C50.2583 38.5398 49.9292 39.0267 49.5847 39.0887C48.9613 39.2007 48.7109 38.6909 48.7118 38.0846C48.7158 35.4534 48.7162 32.8221 48.7097 30.1909C48.7088 29.8477 48.7587 29.4495 48.6062 29.1769C48.4484 28.8949 48.0718 28.5682 47.7925 28.5697C47.5278 28.5712 47.154 28.9241 47.0297 29.21C46.8729 29.571 46.8869 30.0206 46.8851 30.4322C46.8741 32.9249 46.8758 35.4178 46.8824 37.9105C46.8839 38.5037 46.8344 39.0851 46.0833 39.1189C45.2812 39.155 45.1467 38.5783 45.1473 37.9264C45.1499 34.8817 45.1472 31.8369 45.1465 28.7922C45.1464 28.5153 45.1464 28.2383 45.1477 27.9613C45.1506 27.3472 44.9685 26.7893 44.2786 26.7685C43.5104 26.7454 43.3457 27.3343 43.3464 27.9888C43.3495 30.8617 43.3474 33.7347 43.3472 36.6076C43.3472 37.0231 43.3454 37.4386 43.3474 37.854C43.3502 38.4775 43.2961 39.1029 42.4828 39.1192C41.6525 39.1358 41.6097 38.5206 41.6125 37.8862C41.6219 35.7743 41.6171 33.6623 41.6149 31.5504C41.6146 31.2391 41.6315 30.9229 41.5842 30.6177C41.4948 30.0409 41.459 29.3375 40.6316 29.3955C39.8596 29.4497 39.7831 30.0661 39.7855 30.701C39.794 32.9514 39.7886 35.2019 39.7885 37.4523C39.7884 39.0795 39.7803 40.7068 39.7924 42.334C39.7969 42.941 39.6939 43.4915 38.9847 43.5659C38.2572 43.6422 38.0689 43.1133 37.982 42.5105C37.9487 42.2795 37.8807 42.0205 37.741 41.8432C36.906 40.7835 36.0867 39.705 35.1645 38.7245C34.9314 38.4767 34.3426 38.5633 33.9172 38.4963C33.8659 38.8993 33.6235 39.4264 33.7924 39.6862C35.7126 42.6401 37.6338 45.5976 39.6894 48.4574C40.6456 49.7878 41.3729 51.139 41.5598 52.7651C41.5755 52.9021 41.6249 53.0799 41.5617 53.1733C41.3012 53.5586 41.0033 53.9187 40.7192 54.288C40.4064 53.9463 39.8534 53.6252 39.8221 53.2595C39.6854 51.6567 38.877 50.4614 37.9673 49.1941C35.894 46.3054 33.9605 43.3124 32.0641 40.3026C31.3704 39.2017 31.8515 37.7601 32.9164 36.9962C34.0014 36.218 35.4448 36.346 36.4113 37.3502C36.8852 37.8424 37.2935 38.3977 37.8898 39.1149C37.9361 38.6133 37.9837 38.3329 37.9844 38.0525C37.9904 35.6636 37.983 33.2746 37.9892 30.8857C37.9954 28.4955 39.0892 27.482 41.5322 27.6517C41.6947 26.2794 42.3145 25.2239 43.7977 24.9941C45.2696 24.766 46.2509 25.4766 46.8202 26.7859C49.0278 26.5484 49.9108 27.1453 50.5771 29.3656C50.851 29.3656 51.1519 29.3542 51.4518 29.3676C52.8742 29.4312 53.9217 30.4705 53.9263 31.8994C53.9401 36.1232 53.9685 40.3478 53.8916 44.5703C53.8732 45.5804 53.5894 46.6318 53.2132 47.579C52.5367 49.2824 52.1578 51.0069 52.2467 52.8372C52.2799 53.5203 52.2707 54.2864 51.3404 54.2662C50.4261 54.2464 50.4651 53.4647 50.4451 52.7944C50.3867 50.8309 50.7953 48.9718 51.4431 47.114C51.8902 45.832 52.1717 44.4342 52.2105 43.0791C52.3136 39.4814 52.245 35.8788 52.2421 32.1861Z" fill="white"/>
<path d="M29.0472 22.1394C30.5181 21.1708 31.9663 21.0719 33.3854 22.0117C34.9607 23.055 35.5066 24.6295 35.306 26.432C35.0827 28.4379 34.0566 30.1257 32.6585 31.4909C31.233 32.8829 29.6199 34.0888 28.0359 35.3073C27.7569 35.522 27.1133 35.577 26.8145 35.4029C23.8311 33.6658 21.2931 31.4575 19.85 28.229C19.0713 26.4867 19.0512 24.7228 20.168 23.0924C21.6279 20.961 24.4169 20.7893 26.2622 22.6864C26.6192 23.0534 26.9357 23.4597 27.1624 23.7223C27.787 23.1945 28.3855 22.6889 29.0472 22.1394ZM33.0648 24.1828C31.8662 22.8413 30.7395 22.7738 29.5791 24.1026C29.0468 24.7123 28.7599 25.53 28.2852 26.199C28.0338 26.5533 27.6409 26.9736 27.2694 27.0194C27.0086 27.0516 26.6219 26.5398 26.3866 26.2041C25.8567 25.448 25.4963 24.544 24.8677 23.8923C23.6291 22.608 21.7367 23.0887 21.338 24.8306C21.1375 25.7068 21.2198 26.7986 21.5724 27.6225C22.6548 30.152 24.6615 31.9192 26.9291 33.3898C27.1262 33.5176 27.5546 33.5056 27.7571 33.375C29.969 31.9483 31.8612 30.2018 33.0489 27.8011C33.6115 26.6639 33.7904 25.5011 33.0648 24.1828Z" fill="white"/>
<path d="M48.8034 64.9162C49.3909 66.1813 49.9751 67.3568 50.4689 68.5691C50.6033 68.899 50.4651 69.3398 50.4521 69.7298C49.9679 69.5903 49.2671 69.6027 49.0421 69.2816C48.4753 68.473 48.1284 67.5113 47.681 66.6171C47.568 66.3911 47.4088 66.1882 47.0777 66.0194C47.0777 66.9638 47.0614 67.9086 47.084 68.8525C47.0971 69.3974 47.0228 69.8261 46.346 69.8291C45.7427 69.8318 45.4763 69.5291 45.4743 68.9323C45.4639 65.8226 45.4421 62.7129 45.4292 59.6032C45.4269 59.049 45.6281 58.6668 46.2676 58.6622C46.9583 58.6572 47.15 59.038 47.134 59.6595C47.1106 60.5691 47.1279 61.4797 47.3704 62.4728C47.8255 61.5421 48.2428 60.5899 48.7532 59.6906C48.974 59.3016 49.3454 58.9514 49.7309 58.7229C49.9164 58.613 50.3561 58.7513 50.5595 58.9218C50.677 59.0204 50.6235 59.4379 50.5261 59.6585C50.0242 60.7937 49.4259 61.8895 48.981 63.0451C48.7711 63.5904 48.8293 64.2388 48.8034 64.9162Z" fill="white"/>
<path d="M39.1852 59.2124C39.6197 58.9958 40.0405 58.7755 40.4508 58.7935C40.5931 58.7998 40.817 59.3957 40.8202 59.7241C40.8404 61.7655 40.7937 63.8075 40.8038 65.8492C40.8065 66.3959 40.844 66.9738 41.0297 67.4768C41.1443 67.7873 41.578 68.1868 41.8525 68.175C42.1427 68.1625 42.5467 67.7577 42.6632 67.4378C42.8472 66.9326 42.8915 66.3551 42.8918 65.8082C42.8931 63.8013 42.8525 61.7944 42.8262 59.7876C42.8184 59.1953 42.8558 58.6451 43.6668 58.6595C44.4311 58.6731 44.5503 59.1511 44.5308 59.7824C44.4571 62.1688 44.4566 64.559 44.3209 66.9416C44.1991 69.0783 42.8607 70.179 41.1072 69.7234C40.0678 69.4534 39.3665 68.8164 39.3327 67.7057C39.2474 64.9055 39.2188 62.1035 39.1852 59.2124Z" fill="white"/>
<path d="M31.83 69.4473C29.6578 70.3454 28.0597 69.3776 27.9845 67.11C27.9019 64.6195 27.9319 62.1254 27.8997 59.6331C27.8916 59.009 28.0923 58.6266 28.7875 58.6634C29.4887 58.7005 29.6006 59.1413 29.5939 59.7345C29.5684 61.9839 29.544 64.2338 29.5732 66.4828C29.5822 67.1781 29.5199 68.1333 30.4929 68.1958C31.5959 68.2666 31.5506 67.2128 31.5736 66.5227C31.6393 64.5532 31.5788 62.5793 31.5648 60.6072C31.5621 60.2267 31.4276 59.7942 31.5669 59.4802C31.714 59.1487 32.116 58.7221 32.4065 58.7222C32.6864 58.7222 33.2109 59.2169 33.208 59.4897C33.1792 62.1517 33.1279 64.8178 32.9247 67.4707C32.8735 68.1389 32.2557 68.7637 31.83 69.4473Z" fill="white"/>
<path d="M26.3425 74.6912C26.5083 75.2415 26.638 75.7598 26.6752 76.2848C26.7198 76.915 26.6857 77.5508 26.6857 78.1842C26.7772 78.208 26.8686 78.2319 26.96 78.2557C27.3534 77.4444 27.7375 76.6284 28.1445 75.8241C28.314 75.4892 28.461 75.0436 28.7471 74.8927C29.0888 74.7124 29.5686 74.7939 29.9886 74.7621C29.9687 75.0746 30.0306 75.4221 29.9144 75.6934C29.4396 76.8018 28.8302 77.8589 28.4354 78.9924C28.2401 79.5531 28.2417 80.2955 28.4384 80.8559C28.836 81.9885 29.4637 83.0383 29.9168 84.1545C30.0508 84.4847 29.918 84.9232 29.9075 85.3121C29.4313 85.1588 28.7548 85.1497 28.5194 84.8229C27.9835 84.079 27.6676 83.1774 27.2541 82.344C27.1508 82.1356 27.0163 81.9427 26.6759 81.7608C26.6759 82.6202 26.6636 83.4798 26.6803 84.3388C26.6912 84.8996 26.6696 85.4077 25.9165 85.4071C25.2088 85.4065 25.0844 84.9578 25.0836 84.3686C25.0801 81.4673 25.077 78.5659 25.0408 75.665C25.0294 74.7569 25.4419 74.4891 26.3425 74.6912Z" fill="white"/>
<path d="M13.6832 69.7207C12.4718 69.8677 11.7275 69.2514 11.311 68.3234C10.0918 65.6062 10.0801 62.8375 11.2572 60.1014C11.6258 59.2447 12.2855 58.609 13.3101 58.5972C14.3829 58.585 15.067 59.2423 15.4476 60.1365C16.5977 62.8386 16.6054 65.5894 15.39 68.2566C15.114 68.8621 14.3163 69.23 13.6832 69.7207ZM14.2833 67.2995C14.8643 65.2334 14.9338 63.1514 14.3087 61.0951C14.1826 60.6803 13.6704 60.3829 13.3362 60.0315C13.0041 60.3849 12.5017 60.684 12.3687 61.1009C11.7013 63.1929 11.7789 65.3156 12.4474 67.3949C12.565 67.7607 12.9966 68.2401 13.3129 68.2635C13.5963 68.2844 13.9207 67.7489 14.2833 67.2995Z" fill="white"/>
<path d="M34.526 83.5205C34.876 83.676 35.1717 83.8744 35.4505 83.853C35.7936 83.8266 36.1225 83.617 36.4576 83.4866C36.277 83.19 36.1662 82.7908 35.9048 82.613C33.7523 81.149 32.646 79.2743 33.3454 76.5993C33.7141 75.189 34.6611 74.3893 35.9005 74.5094C37.1243 74.628 37.85 75.4654 37.9323 76.9654C37.9718 77.6859 37.9701 78.4314 37.821 79.1302C37.7425 79.4985 37.3314 80.0379 37.0278 80.0679C36.3073 80.139 36.4545 79.4898 36.4524 79.0157C36.4492 78.2914 36.5032 77.5547 36.3838 76.8485C36.3272 76.514 35.9255 76.2378 35.6801 75.9352C35.415 76.2212 35.0063 76.4659 34.91 76.8006C34.5221 78.1485 34.6834 79.4146 35.8138 80.3963C36.3092 80.8265 36.8586 81.1944 37.3542 81.6245C38.1319 82.2994 38.3553 83.2986 37.9594 84.1577C37.5594 85.0256 36.3528 85.5701 35.2111 85.398C34.1415 85.2367 33.2648 84.4854 33.1882 83.5993C33.1674 83.3588 33.3284 83.1026 33.4059 82.8536C33.7587 83.0577 34.1115 83.2618 34.526 83.5205Z" fill="white"/>
<path d="M21.6805 64.1859C21.2746 65.2369 20.6516 65.9171 19.5336 65.9555C18.9342 65.9761 18.786 66.3124 18.8043 66.8432C18.827 67.499 18.8994 68.1744 18.773 68.8059C18.6991 69.1756 18.2797 69.4762 18.0158 69.8079C17.7501 69.4704 17.264 69.1388 17.2547 68.7943C17.1956 66.6194 17.2517 64.4415 17.2494 62.2647C17.2485 61.4013 17.1946 60.538 17.1667 59.6746C17.1455 59.0159 17.4623 58.6645 18.1141 58.5382C19.6502 58.2405 20.9882 58.8403 21.3818 60.3484C21.6945 61.5467 21.6093 62.849 21.6805 64.1859ZM20.2558 61.9339C20.0573 61.3615 19.8834 60.7785 19.643 60.2244C19.5829 60.0857 19.241 59.9231 19.1478 59.9771C18.9816 60.0735 18.8143 60.3236 18.8083 60.5145C18.7768 61.5093 18.7637 62.5075 18.8211 63.5001C18.8347 63.7359 19.1175 64.1042 19.3235 64.1398C19.5337 64.1761 19.9483 63.9251 20.0153 63.7168C20.1788 63.2083 20.1933 62.6517 20.2558 61.9339Z" fill="white"/>
<path d="M16.0975 80.0596C16.3888 80.0999 16.631 80.08 16.7853 80.1869C17.0169 80.3475 17.1869 80.597 17.3831 80.8086C17.1503 80.9754 16.9382 81.194 16.6799 81.2965C16.3121 81.4424 15.6307 81.423 15.5758 81.6151C15.4109 82.1918 15.4349 82.8421 15.4995 83.4515C15.5163 83.6104 15.9359 83.7843 16.1957 83.8469C16.6622 83.9593 17.1646 83.9391 17.6177 84.0826C17.8276 84.1491 17.9568 84.4703 18.1226 84.676C17.9244 84.8326 17.7422 85.0949 17.5254 85.1274C16.6388 85.2606 15.7391 85.3989 14.8498 85.3695C14.56 85.3599 14.0494 84.851 14.0428 84.5613C13.9733 81.5177 13.9645 78.472 14.011 75.428C14.0152 75.1521 14.4986 74.6827 14.7973 74.6502C15.6505 74.5574 16.526 74.6093 17.3863 74.6806C17.6371 74.7014 17.8667 74.9786 18.106 75.1383C17.9203 75.3974 17.7672 75.6922 17.5365 75.9017C17.4031 76.0228 17.147 76.0245 16.9424 76.0488C15.4651 76.2244 15.4649 76.2219 15.4778 77.7506C15.4821 78.2697 15.4298 78.798 15.5132 79.304C15.5578 79.5746 15.8363 79.8067 16.0975 80.0596Z" fill="white"/>
<path d="M4.19503 60.0519C3.73816 59.1348 3.91995 58.7237 4.77781 58.7028C6.16187 58.6691 7.5489 58.6683 8.93141 58.7285C9.23458 58.7418 9.52403 59.0698 9.81979 59.2529C9.56302 59.5378 9.29788 60.0747 9.05084 60.0665C7.53155 60.016 7.55375 60.9657 7.57289 62.0443C7.61222 64.2596 7.59028 66.476 7.59253 68.6919C7.59307 69.2195 7.64003 69.8135 6.88208 69.8268C6.11152 69.8403 6.03317 69.2739 6.0375 68.675C6.05353 66.4593 6.08889 64.2434 6.07272 62.0279C6.05938 60.1987 6.03168 60.1989 4.19503 60.0519Z" fill="white"/>
<path d="M34.1903 60.9576C34.1801 60.4407 34.1755 60.0252 34.1647 59.6099C34.1499 59.0443 34.3428 58.6677 34.9818 58.6583C35.6582 58.6484 35.8755 58.9983 35.8636 59.6386C35.8169 62.1308 35.825 64.6243 35.753 67.1157C35.7288 67.9561 35.9634 68.3561 36.8507 68.245C37.0832 68.216 37.3752 68.2209 37.5587 68.3377C37.9025 68.5566 38.187 68.8686 38.4961 69.1419C38.1362 69.3209 37.7927 69.5879 37.4126 69.6587C36.8062 69.7716 36.1727 69.7294 35.5555 69.7968C34.5051 69.9116 34.1972 69.6498 34.1946 68.5371C34.1886 66.0445 34.1929 63.5518 34.1903 60.9576Z" fill="white"/>
<path d="M26.7526 69.6561C25.84 69.7187 25.0126 69.7445 24.1902 69.823C23.3449 69.9037 22.9698 69.5409 22.9691 68.7074C22.9666 65.7035 22.9569 62.6997 22.9413 59.6958C22.9382 59.1089 23.0642 58.6656 23.7755 58.6582C24.548 58.6502 24.6531 59.1176 24.6412 59.7526C24.5956 62.2037 24.6022 64.6559 24.5335 67.1062C24.5105 67.9278 24.7099 68.3415 25.6155 68.2526C25.9785 68.217 26.4 68.2812 26.723 68.4432C27.3146 68.7402 27.615 69.1648 26.7526 69.6561Z" fill="white"/>
<path d="M22.3037 84.8899C21.9708 85.1018 21.5853 85.397 21.3544 85.3048C21.1061 85.2057 20.8631 84.7453 20.8584 84.4389C20.8231 82.1228 20.8271 79.8056 20.8623 77.4894C20.8764 76.5653 20.7134 75.9419 19.5746 75.9939C19.3137 76.0058 19.0326 75.5771 18.7608 75.3511C19.0684 75.1177 19.3653 74.7019 19.6856 74.6829C20.9604 74.6074 22.2437 74.6262 23.521 74.6792C23.8331 74.6921 24.1342 74.9671 24.4404 75.1216C24.2038 75.4102 23.9636 75.95 23.7312 75.9467C22.2001 75.9246 22.2979 76.904 22.3146 77.9567C22.3506 80.2381 22.3216 82.5205 22.3037 84.8899Z" fill="white"/>
<path d="M30.8449 76.3568C30.9668 75.6405 30.406 74.6402 31.6395 74.6255C32.8605 74.6109 32.4578 75.587 32.4625 76.229C32.4821 78.8837 32.4597 81.5388 32.452 84.1937C32.4501 84.8541 32.3949 85.5888 31.4898 85.3192C31.1857 85.2285 30.8939 84.5349 30.8841 84.1103C30.8253 81.5598 30.8502 79.0073 30.8449 76.3568Z" fill="white"/>
<path d="M39.1354 79.8567C39.1006 78.4091 39.0646 77.0649 39.0326 75.7207C39.0183 75.1224 39.0857 74.6019 39.8928 74.6201C40.6525 74.6372 40.6587 75.1293 40.6551 75.6862C40.6371 78.5139 40.6316 81.3417 40.624 84.1694C40.6225 84.7249 40.7062 85.383 39.8944 85.3801C39.0442 85.3771 39.0927 84.6963 39.098 84.0981C39.1101 82.7188 39.1231 81.3394 39.1354 79.8567Z" fill="white"/>
<path d="M31.0125 73.045C31.0935 72.6011 31.2116 72.229 31.3298 71.8569C31.65 71.9777 32.0693 72.0163 32.2595 72.2452C32.4148 72.4321 32.2966 72.8463 32.2996 73.1598C31.883 73.1454 31.4664 73.1311 31.0125 73.045Z" fill="white"/>
<path d="M40.5603 72.3096C40.417 72.725 40.2937 73.129 40.0256 73.3753C39.9362 73.4574 39.3085 73.1991 39.2266 72.9829C39.1192 72.6992 39.3085 72.3032 39.3702 71.9555C39.7548 72.0493 40.1393 72.143 40.5603 72.3096Z" fill="white"/>
</svg>
