<svg width="73" height="73" viewBox="0 0 73 73" fill="none" xmlns="http://www.w3.org/2000/svg">
<path fill-rule="evenodd" clip-rule="evenodd" d="M72.0089 0.792969V12.7351H34.1921V4.77369C34.1921 3.71794 34.6115 2.70542 35.358 1.95889C36.1045 1.21236 37.117 0.792969 38.1728 0.792969H72.0089ZM38.1728 4.77369H68.0282V8.75441H38.1728V4.77369ZM14.2885 67.9676V68.4572C14.2885 69.513 13.8691 70.5255 13.1226 71.272C12.376 72.0186 11.3635 72.438 10.3078 72.438H4.33668C3.28092 72.438 2.26841 72.0186 1.52188 71.272C0.775353 70.5255 0.355957 69.513 0.355957 68.4572V46.5732C0.355957 45.5175 0.775353 44.505 1.52188 43.7584C2.26841 43.0119 3.28092 42.5925 4.33668 42.5925H10.3078C11.2043 42.5921 12.0746 42.8944 12.778 43.4503C13.4813 44.0063 13.9763 44.7833 14.183 45.6557C16.8182 44.7063 19.8973 43.5758 20.8388 43.1458C21.6389 42.7816 22.5624 42.6582 23.3307 42.6124C24.1236 42.574 24.9181 42.5879 25.7092 42.6542C26.5949 42.7248 27.4769 42.8364 28.3524 42.9886L28.3981 42.9966L28.4121 42.9986H28.418L28.4539 43.0065L41.7694 45.9921L41.851 46.0199L41.8729 46.0279L41.9644 46.0557C42.5389 46.2241 43.1191 46.3722 43.704 46.4996C44.8485 46.7484 46.2915 46.9813 47.635 46.9813C48.877 46.9813 50.1627 47.445 50.8474 48.7029C51.4366 49.7817 51.2992 50.968 51.0803 51.788C50.8036 52.811 50.2344 53.8858 49.5119 54.7994C50.4872 54.4312 51.556 53.9953 52.7024 53.5256L52.9472 53.426C56.1776 52.0985 60.007 50.5261 63.3867 49.9688C67.248 49.3299 70.0564 50.7311 71.3302 53.2171C72.4647 55.4303 72.202 58.3343 70.4943 60.0838C70.0663 60.5237 69.4135 60.9854 68.7587 61.4094C68.0581 61.8652 67.1962 62.3767 66.2389 62.9221C64.0395 64.1536 61.8131 65.3362 59.5612 66.4689C54.8401 68.8633 49.892 71.192 48.3197 71.7672C46.4965 72.434 44.538 72.4977 42.6571 72.4002C41.5212 72.3296 40.3871 72.2334 39.2556 72.1115C38.4271 72.0258 37.5978 71.9495 36.7676 71.8827C32.9302 71.5921 29.9845 70.6546 27.2736 69.7928L26.9432 69.6873C24.1408 68.7996 21.5334 68.0094 18.0801 67.8701C17.2919 67.8382 15.7156 67.8999 14.2885 67.9676ZM22.4888 46.7683C22.6181 46.7086 22.9565 46.623 23.5596 46.5872C24.1248 46.5533 24.7697 46.5752 25.4007 46.623C26.1126 46.6795 26.8218 46.7665 27.5264 46.8837L27.598 46.8977L27.6537 46.9076H27.6597L40.7304 49.8394L40.82 49.8673C41.4923 50.0652 42.1714 50.2391 42.8561 50.3888C44.0205 50.6435 45.5829 50.9102 47.1732 50.956C47.0312 51.3391 46.8406 51.7023 46.606 52.0368C46.2875 52.4985 45.9392 52.8548 45.6526 53.0598C44.8246 53.6529 44.1558 53.8998 43.7498 54.0052C43.6115 54.0431 43.4704 54.0698 43.3278 54.0849H43.284L32.6117 53.9575L32.2336 57.9063L32.3391 57.9263L33.7502 58.1751C34.6797 58.3383 35.9555 58.5572 37.3448 58.7841C40.0796 59.2299 43.3756 59.7236 45.2465 59.837C46.5403 59.9166 48.045 59.5185 49.4442 59.0508C50.9031 58.5632 52.5531 57.8884 54.2131 57.2077C57.6306 55.8065 61.1117 54.3794 64.0355 53.8958C66.5633 53.4778 67.4649 54.4013 67.7874 55.0323C68.2511 55.9379 68.0003 56.943 67.6441 57.3053C67.5585 57.3948 67.246 57.6476 66.5931 58.0715C65.9841 58.4636 65.1979 58.9354 64.2744 59.4588C62.1293 60.6597 59.958 61.8131 57.7619 62.9181C53.001 65.3324 48.2639 67.5477 46.9503 68.0293C45.8874 68.4194 44.5718 68.513 42.8621 68.4254C41.8549 68.3661 40.8494 68.2805 39.8467 68.1686C38.9217 68.0713 37.9954 67.9864 37.0681 67.9139C33.7005 67.6591 31.1409 66.8451 28.3961 65.9733L28.1474 65.8937C25.3051 64.992 22.2639 64.0546 18.2413 63.8934C17.3357 63.8575 15.7235 63.9133 14.2885 63.9809V49.8474C17.0849 48.8462 21.2289 47.3435 22.4888 46.7683ZM10.3078 46.5713H4.33668V68.4553H10.3078V46.5713Z" fill="#212121"/>
<path d="M36.1824 16.7154C35.6546 16.7154 35.1483 16.9251 34.7751 17.2984C34.4018 17.6717 34.1921 18.1779 34.1921 18.7058C34.1921 19.2337 34.4018 19.7399 34.7751 20.1132C35.1483 20.4865 35.6546 20.6962 36.1824 20.6962H48.1246C48.6525 20.6962 49.1587 20.4865 49.532 20.1132C49.9053 19.7399 50.115 19.2337 50.115 18.7058C50.115 18.1779 49.9053 17.6717 49.532 17.2984C49.1587 16.9251 48.6525 16.7154 48.1246 16.7154H36.1824ZM42.1535 25.0192C42.6814 25.0192 43.1877 25.2289 43.5609 25.6022C43.9342 25.9755 44.1439 26.4817 44.1439 27.0096V30.9903C44.1439 31.5182 43.9342 32.0244 43.5609 32.3977C43.1877 32.771 42.6814 32.9807 42.1535 32.9807C41.6257 32.9807 41.1194 32.771 40.7461 32.3977C40.3729 32.0244 40.1632 31.5182 40.1632 30.9903V27.0096C40.1632 26.4817 40.3729 25.9755 40.7461 25.6022C41.1194 25.2289 41.6257 25.0192 42.1535 25.0192ZM50.3558 25.2601C49.9804 24.8975 49.4776 24.6969 48.9558 24.7014C48.4339 24.706 47.9347 24.9153 47.5657 25.2843C47.1967 25.6533 46.9873 26.1525 46.9828 26.6744C46.9783 27.1963 47.1789 27.699 47.5414 28.0744L50.3558 30.8888C50.5406 31.0737 50.76 31.2204 51.0015 31.3206C51.243 31.4207 51.5018 31.4723 51.7633 31.4724C52.0247 31.4725 52.2836 31.4211 52.5252 31.3211C52.7667 31.2212 52.9862 31.0746 53.1712 30.8898C53.3561 30.705 53.5028 30.4856 53.6029 30.2441C53.7031 30.0026 53.7547 29.7438 53.7547 29.4823C53.7548 29.2209 53.7034 28.962 53.6035 28.7204C53.5035 28.4789 53.357 28.2594 53.1722 28.0744L50.3558 25.2601ZM30.7945 31.2311C30.4214 30.8579 30.2118 30.3517 30.2118 29.824C30.2118 29.2962 30.4214 28.79 30.7945 28.4168L33.6089 25.6004C33.9824 25.2272 34.4888 25.0176 35.0168 25.0178C35.5448 25.018 36.0511 25.2279 36.4243 25.6014C36.7975 25.9749 37.007 26.4813 37.0069 27.0093C37.0067 27.5373 36.7968 28.0436 36.4233 28.4168L33.6089 31.2311C33.2357 31.6043 32.7295 31.8139 32.2017 31.8139C31.674 31.8139 31.1678 31.6043 30.7945 31.2311ZM44.1439 36.9614C44.1439 36.4335 43.9342 35.9273 43.5609 35.554C43.1877 35.1807 42.6814 34.971 42.1535 34.971C41.6257 34.971 41.1194 35.1807 40.7461 35.554C40.3729 35.9273 40.1632 36.4335 40.1632 36.9614V38.9518C40.1632 39.4796 40.3729 39.9859 40.7461 40.3591C41.1194 40.7324 41.6257 40.9421 42.1535 40.9421C42.6814 40.9421 43.1877 40.7324 43.5609 40.3591C43.9342 39.9859 44.1439 39.4796 44.1439 38.9518V36.9614ZM54.5077 32.2263C54.8809 31.8532 55.3871 31.6436 55.9149 31.6436C56.4427 31.6436 56.9488 31.8532 57.3221 32.2263L60.1364 35.0407C60.499 35.4161 60.6996 35.9188 60.6951 36.4407C60.6905 36.9626 60.4812 37.4618 60.1122 37.8308C59.7432 38.1998 59.244 38.4092 58.7221 38.4137C58.2002 38.4182 57.6974 38.2176 57.3221 37.8551L54.5077 35.0407C54.1346 34.6674 53.9249 34.1613 53.9249 33.6335C53.9249 33.1057 54.1346 32.5996 54.5077 32.2263ZM23.8283 34.8854C23.4657 35.2608 23.2651 35.7636 23.2696 36.2855C23.2742 36.8073 23.4835 37.3065 23.8525 37.6756C24.2216 38.0446 24.7208 38.2539 25.2426 38.2585C25.7645 38.263 26.2673 38.0624 26.6427 37.6998L29.457 34.8854C29.6419 34.7007 29.7887 34.4812 29.8888 34.2397C29.9889 33.9983 30.0405 33.7394 30.0406 33.478C30.0407 33.2165 29.9893 32.9577 29.8893 32.7161C29.7894 32.4745 29.6428 32.255 29.458 32.0701C29.2732 31.8852 29.0538 31.7384 28.8123 31.6383C28.5708 31.5382 28.312 31.4866 28.0505 31.4865C27.7891 31.4864 27.5302 31.5378 27.2887 31.6378C27.0471 31.7377 26.8276 31.8843 26.6427 32.0691L23.8283 34.8854Z" fill="#212121"/>
</svg>
