<svg width="163" height="82" viewBox="0 0 163 82" fill="none" xmlns="http://www.w3.org/2000/svg">
<path d="M84.9757 12.9667C88.2954 16.5219 89.473 20.8621 90.9983 25.0005C92.0076 27.7258 93.2189 30.4847 92.9946 33.266C92.6917 37.1128 89.63 40.5222 85.7384 42.9222C81.8467 45.3223 77.1364 46.8812 72.4933 48.3952C70.2615 49.1242 67.9848 49.8644 65.5287 50.0551C60.5156 50.4364 55.6258 48.4849 51.1285 46.6008C46.8219 44.7952 42.291 42.8213 39.8685 39.6026C37.8498 36.9222 37.5807 33.7259 37.9395 30.7202C39.1059 20.8509 46.2163 12.204 53.136 3.9497C53.9884 2.92913 54.8856 1.87491 56.265 1.26929C57.8576 0.562738 59.8875 0.540308 61.7268 0.899192C67.6708 2.04313 67.3007 6.22637 71.2597 8.05444C72.74 8.73856 76.5195 8.22267 78.5158 8.88436C81.0729 9.73671 83.3495 11.2395 84.9645 12.9667" fill="#9ACD66"/>
<path d="M79.4692 20.8156C81.2973 23.496 81.6338 26.4792 82.2282 29.3615C82.6207 31.2569 83.1366 33.2083 82.7104 35.0139C82.1272 37.5261 79.7608 39.4663 76.9458 40.6551C74.1308 41.8552 70.8672 42.3935 67.6485 42.9318C66.1008 43.1898 64.5195 43.4477 62.8821 43.3243C59.5288 43.0776 56.5119 41.2944 53.7305 39.5897C51.0726 37.9635 48.28 36.2027 47.0015 33.8364C45.936 31.8625 46.0818 29.7316 46.6202 27.7802C48.3809 21.3876 53.9436 16.3968 59.3493 11.6416C60.011 11.0584 60.7176 10.4528 61.6821 10.1837C62.8036 9.86964 64.1494 10.0715 65.327 10.4865C69.1289 11.8435 68.4672 14.5688 70.9009 16.1725C71.8093 16.7669 74.3552 16.8118 75.6112 17.4511C77.215 18.2698 78.572 19.4922 79.458 20.7932" fill="#4F9E45"/>
<path d="M46.9677 32.7734C46.9677 32.7734 46.9677 32.7734 46.9796 32.7734C46.9796 32.7734 47.0035 32.7734 47.0035 32.7615L46.9677 32.7854V32.7734Z" fill="white"/>
<path d="M112.61 37.8535C112.217 39.446 110.95 40.6124 109.952 40.2984C109.122 40.0404 108.281 38.1787 108.516 37.0684C108.718 36.0927 110.154 35.4534 111.444 35.7562C112.464 35.9918 112.89 36.7544 112.61 37.8535Z" fill="white"/>
<path d="M160.868 56.5493C158.412 56.5268 155.956 56.5605 153.489 56.5268C149.765 56.4707 146.031 56.4483 142.307 56.2801C138.719 56.1119 138.057 54.8333 139.907 51.738C141.668 48.7996 143.99 46.3435 146.782 44.3584C147.713 43.6967 148.678 43.0687 149.306 42.0257C147.859 42.5864 146.502 43.293 145.257 44.1565C143.922 45.0762 142.655 46.0968 141.433 47.1734C140.322 48.1491 139.324 49.2482 138.147 50.437C138.034 49.9435 137.956 49.7977 137.99 49.6744C139.234 44.0332 140.446 38.3808 141.747 32.7508C142.061 31.3825 142.677 30.0928 143.081 28.7358C143.474 27.4124 142.835 26.7507 141.455 26.874C140.233 26.975 139.84 27.8161 139.47 28.7582C137.395 34.0293 136.016 39.5135 135.006 45.0538C134.098 50.0221 131.788 54.1716 128.928 58.153C128.715 58.4446 128.333 58.6128 127.907 58.9269C127.044 55.8539 126.573 52.9828 127.145 49.9884C127.459 48.3286 127.672 46.6463 127.885 44.964C128.098 43.293 127.582 42.6089 125.945 42.3397C125.53 42.2724 125.092 42.3285 124.677 42.2388C124.251 42.149 123.758 42.0481 123.444 41.7901C122.109 40.7023 121.066 40.792 120.225 42.3285C119.451 43.7416 118.789 45.2332 118.195 46.736C116.692 50.5267 114.371 53.7903 111.78 56.8745C111.275 57.4801 110.591 57.9287 109.929 58.4895C108.662 56.4483 108.012 54.4969 108.292 52.4221C108.55 50.4819 109.088 48.5865 109.57 46.6799C109.896 45.4126 110.782 44.2687 110.412 42.8668C108.617 42.3397 108.348 42.3509 107.675 43.7752C106.901 45.4238 106.284 47.1622 105.69 48.8893C104.535 52.2651 102.415 54.8894 99.5778 57.1212C99.174 56.8745 98.7703 56.7063 98.4899 56.4259C96.2918 54.2053 95.7534 49.2482 97.4133 46.5454C100.901 40.8705 103.727 34.8929 105.365 28.4105C105.645 27.3226 105.858 26.1899 105.903 25.0796C105.97 23.5319 105.14 22.8254 103.638 23.2628C102.841 23.4871 102 24.1376 101.552 24.8329C100.52 26.4254 99.6226 28.1189 98.8488 29.8573C95.9777 36.3172 93.5553 42.9229 92.8599 50.0445C92.8151 50.5267 92.7814 51.0987 92.501 51.4576C91.0094 53.4202 89.473 55.3492 87.9028 57.2446C87.3757 57.8839 86.6804 57.7044 86.2991 57.0988C85.8729 56.4035 85.4131 55.596 85.3794 54.8221C85.3234 53.5772 85.514 52.2987 85.7607 51.0651C86.1757 48.9903 86.7925 46.9603 87.1626 44.8855C87.4767 43.1472 86.6355 42.4855 84.9757 43.0911C84.3252 43.3266 83.7533 43.7752 83.1476 44.1341C82.643 44.4369 82.1383 44.7622 81.3308 45.2781C81.5663 44.4257 81.6784 43.9547 81.8355 43.5061C83.4504 38.8406 85.0766 34.1863 86.6804 29.5208C87.0168 28.5227 87.3421 27.5021 87.4767 26.4591C87.6337 25.3151 86.7813 24.6871 85.7495 25.203C85.2112 25.4722 84.729 26.1338 84.5047 26.7282C81.8579 33.7938 79.2784 40.8705 76.6429 47.9473C75.1625 51.9174 73.626 55.8651 71.0577 59.2857C70.4745 60.0596 69.768 60.7998 68.9605 61.3269C67.3904 62.3587 66.0446 61.6858 65.7642 59.8241C65.652 59.0614 65.5623 58.2652 65.6857 57.5025C67.7044 44.5154 68.9493 42.1042 69.2745 33.4685L75.4092 33.3564C76.4298 33.39 77.4616 33.4237 78.5606 33.4237H78.4934C78.6952 33.4237 78.942 33.4349 79.2448 33.233C79.5812 33.0199 79.7382 32.5152 79.7382 32.2349C79.7607 31.9545 79.6709 31.2704 79.4579 30.99C79.256 30.7096 77.0466 30.7208 77.0466 30.7208C77.0466 30.7208 70.811 30.5302 69.3194 30.5302C67.9175 30.1376 69.6334 25.6852 69.2072 19.6179C69.1063 18.2496 68.8932 16.3767 67.525 16.3879C66.2577 16.3879 65.7978 18.0477 65.7193 19.3151C65.4277 24.0142 65.4053 27.6703 65.338 30.9451C63.981 31.0012 62.4333 31.0909 61.4127 31.147L56.6127 31.4498C55.0089 31.5059 53.4051 31.7526 51.8014 31.9545L49.4125 32.2909L48.2237 32.4704C47.8312 32.504 47.3602 32.5713 46.9452 32.8293C46.7546 32.9078 46.5527 33.0311 46.3845 33.2442C46.205 33.4573 46.1041 33.7713 46.0929 34.0517V34.1414C46.1265 34.377 46.2275 34.6237 46.3733 34.7919C46.519 34.9377 46.6873 35.0499 46.8891 35.1844C48.2013 35.4088 49.3565 35.42 50.6126 35.6106C50.6126 35.6106 54.2799 36.0817 54.2911 36.0817C56.3659 36.3508 58.4856 36.7882 60.3585 37.7864C61.8165 38.5602 64.609 40.6574 64.2165 42.6313C63.6445 45.4238 62.2987 47.9809 60.9193 50.4594C59.4949 53.0053 58.1379 55.7642 56.1753 58.0184C55.2444 59.0951 51.6219 62.897 50.7247 59.9138C50.4556 59.0166 50.4331 58.1306 50.9602 57.2558C51.7902 55.8651 52.6425 54.4745 53.3266 53.0165C54.1902 51.1884 53.7752 50.3361 51.9247 49.551C51.2406 49.2594 50.5677 48.9118 49.9621 48.6314C50.164 47.2407 50.3658 46.0743 50.5004 44.8855C50.635 43.6743 50.0406 42.721 48.9864 42.3733C48.0219 42.0593 46.9004 42.0032 45.891 42.1378C44.59 42.306 44.2536 42.9005 44.3882 44.2014C44.5788 45.9958 45.2069 47.6781 46.3396 49.0576C47.2929 50.2239 47.192 51.166 46.3957 52.2651C45.9807 52.837 45.6443 53.4539 45.2517 54.0371C43.962 55.9661 42.2124 57.0988 39.8685 57.3455C38.1189 57.525 37.4684 57.1324 37.3899 55.4277C37.3563 54.7548 37.5357 54.0371 37.76 53.3754C38.2199 52.052 38.8591 50.7847 39.2629 49.4389C39.6666 48.1267 39.8797 46.7472 40.1825 45.379C38.5114 45.1659 38.4217 45.222 36.9638 45.9846C36.3694 46.2874 35.6965 46.6014 35.0572 46.6014C30.3244 46.6351 25.7935 50.1118 24.5935 54.6875C24.4253 55.3492 24.1673 56.067 23.7187 56.5493C20.6794 59.7792 17.6513 63.0428 14.455 66.1158C12.9971 67.5176 11.2026 68.5831 9.48672 69.6822C8.86989 70.0859 8.03997 70.2878 7.28856 70.3326C5.85302 70.4111 5.04553 69.4354 5.38199 68.0335C5.62872 67.013 6.04368 66.026 6.49228 65.0727C9.41943 58.8484 13.7933 53.6894 18.5261 48.8108C21.4757 45.7715 24.5374 42.8444 27.5879 39.9172C28.6534 38.8967 29.3151 37.6742 29.6291 36.2947C29.7524 35.7452 29.6964 34.848 29.3487 34.5676C28.9001 34.2087 28.0141 34.0854 27.4421 34.2536C26.601 34.5115 25.7823 35.0274 25.1094 35.6106C23.8982 36.6761 22.8327 37.9209 21.6439 39.02C18.8401 41.5995 16.0364 44.1678 13.1653 46.6687C12.1896 47.5211 11.0793 48.3061 9.36335 48.4519C9.37457 47.6444 9.28485 46.9715 9.40821 46.3323C10.1372 42.6201 12.212 39.592 14.4662 36.6873C14.8363 36.2162 15.1952 35.7676 15.5541 35.3415C19.513 30.5526 23.2589 27.3114 28.0365 23.3525C29.6964 21.973 33.5656 19.5169 32.6908 18.7431C32.6347 18.7094 32.5674 18.6982 32.4777 18.6982C32.0964 18.4291 26.9711 20.6721 24.7841 22.5338C14.2756 31.4835 11.3821 35.8237 10.7765 36.5639C8.57829 39.2892 7.01939 42.3509 5.95396 45.6706C5.25862 47.8575 5.539 49.8426 7.12033 51.581C7.53529 52.0408 7.9166 52.5342 8.35399 53.0614C7.59136 54.1716 6.8736 55.2034 6.15583 56.2464C4.10346 59.2185 2.46605 62.4148 1.34454 65.8578C0.503408 68.4373 0.593129 70.8261 2.45484 72.9906C3.81187 74.5719 5.10161 75.0093 7.14276 74.4262C9.56523 73.7308 11.6512 72.4523 13.6027 70.9046C17.4158 67.8877 20.5448 64.2989 22.9 60.0484C23.3598 59.2072 23.9767 58.4558 24.5711 57.5698C24.9636 57.9399 25.2103 58.0857 25.3449 58.31C27.1954 61.3493 29.4833 61.1923 32.1749 59.5998C32.7581 59.2521 33.3189 58.8708 33.9581 58.467C35.203 60.1605 36.2124 61.8316 38.3544 62.4148C42.347 59.5661 45.4985 55.8203 48.1677 51.5249C48.8294 51.8613 49.3004 52.0969 49.9509 52.4333C49.3453 53.4539 48.7957 54.3399 48.2798 55.2483C47.1471 57.2558 46.9116 59.3642 47.5508 61.5736C48.6051 65.1849 51.8687 63.4466 54.2351 62.4708C58.7211 60.6316 62.1417 60.0708 62.9268 62.3699C63.7791 64.8484 67.7941 64.983 70.5082 63.1886C71.5288 62.5045 73.0877 60.7774 73.7942 59.8129C75.2522 57.839 76.4858 55.6969 77.641 53.5324C78.5943 51.7492 79.8055 50.2351 81.4654 49.1024C82.6542 48.2949 83.3383 48.6538 83.3046 50.1118C83.271 51.3791 83.0355 52.6352 82.856 53.8913C82.6542 55.2483 82.7439 56.5493 83.3046 57.8278C84.2355 59.9811 85.5365 60.3848 87.4318 58.9717C88.329 58.2988 89.1141 57.4689 89.8991 56.6614C90.8188 55.7193 91.6936 54.7324 92.7141 53.6333C93.23 55.1025 93.5777 56.381 94.1272 57.5586C94.7104 58.8147 95.3721 60.082 96.8076 60.6876C99.9703 59.196 102.213 56.6502 104.748 53.9586C105.006 54.8782 105.118 55.4614 105.331 56.0221C105.791 57.267 106.139 58.6128 106.834 59.7119C107.731 61.1362 109.29 60.968 110.412 59.7343C111.544 58.4783 112.89 57.4128 114.068 56.325C114.438 57.6147 114.628 58.8035 115.111 59.8689C115.761 61.3381 116.692 61.3605 117.544 60.0259C118.027 59.2633 118.386 58.3997 118.767 57.581C119.597 55.7978 120.393 53.9922 121.257 52.209C121.47 51.7604 121.873 51.4127 122.199 51.0202C122.535 52.0408 122.524 52.938 122.49 53.824C122.412 55.8539 122.86 57.7941 123.836 59.5213C125.283 62.0783 126.718 61.9886 128.109 60.3512C129.522 58.6913 130.834 56.953 132.203 55.2483C132.517 54.867 132.842 54.4969 133.347 53.9137C133.38 55.1474 133.436 56.1792 133.548 57.0427C133.582 57.3343 133.627 57.6035 133.672 57.8614C133.717 58.0969 133.761 58.3212 133.818 58.5343C133.874 58.7586 133.93 58.9717 133.997 59.1624C133.997 59.1736 133.997 59.1848 134.008 59.2072C134.412 60.3736 134.827 64.5569 135.758 65.0279C136.173 63.94 136.79 59.3306 137.216 58.2091C140.502 59.9811 142.251 60.3287 146.345 60.082C151.291 59.7904 156.091 58.6353 160.88 57.4801C161.194 57.4016 161.474 57.2222 162.181 56.9081C161.452 56.7511 161.149 56.6278 160.846 56.6278M102.539 29.947C101.967 33.5583 100.643 36.9116 98.8264 40.0742C99.4993 36.4854 100.711 33.0984 102.539 29.947ZM29.4721 56.5493C29.1468 56.7623 28.3618 56.5717 27.9917 56.2913C27.7225 56.0894 27.5767 55.3268 27.7449 55.0016C29.158 52.2875 31.2328 50.3697 34.6535 49.5959C34.1488 53.2184 31.9282 55.0016 29.4721 56.5493ZM48.3808 47.05C47.8312 46.108 47.405 45.3678 46.9789 44.6388C47.663 43.7528 48.3135 43.9995 48.7845 44.5827C49.3789 45.3117 49.2668 46.0743 48.3808 47.05ZM60.123 34.9714C58.6762 34.4667 54.9304 34.1639 53.4724 33.8723C54.7509 33.7153 58.3286 33.547 59.6183 33.4237L62.8931 33.1433C63.6333 33.0872 64.5081 33.1209 65.3156 33.1209C65.2707 34.3657 65.2034 35.5658 65.1025 36.777C63.7118 35.6443 61.7267 35.5433 60.1342 34.9601" fill="white"/>
<path d="M111.903 80.6269C111.511 80.9521 111.062 81.1989 110.535 81.3671C110.019 81.5353 109.492 81.625 108.976 81.625C108.572 81.625 108.202 81.569 107.899 81.4568C107.585 81.3447 107.327 81.1876 107.125 80.997C106.912 80.8063 106.755 80.582 106.654 80.3353C106.553 80.0886 106.497 79.8306 106.497 79.5727C106.497 79.2362 106.553 78.9334 106.666 78.6642C106.778 78.3951 106.935 78.1596 107.137 77.9353C107.339 77.7222 107.585 77.5203 107.877 77.3296C108.168 77.1502 108.482 76.9595 108.841 76.7801C108.561 76.3876 108.337 76.0287 108.157 75.6922C107.978 75.3558 107.888 75.0081 107.888 74.638C107.888 74.2679 107.955 73.9315 108.101 73.6735C108.247 73.4156 108.426 73.1913 108.651 73.023C108.875 72.8548 109.133 72.7314 109.425 72.6529C109.716 72.5744 109.997 72.5408 110.288 72.5408C110.591 72.5408 110.871 72.5744 111.129 72.6417C111.387 72.709 111.612 72.8099 111.802 72.9445C111.993 73.0791 112.139 73.2361 112.251 73.438C112.352 73.6399 112.408 73.8642 112.408 74.1333C112.408 74.5595 112.273 74.9408 112.004 75.2885C111.735 75.6362 111.309 75.9838 110.737 76.3539C111.062 76.8025 111.398 77.2175 111.746 77.6324C112.094 78.0474 112.441 78.4512 112.8 78.8661C113.025 78.5969 113.271 78.2493 113.541 77.8343C113.81 77.4194 114.079 76.9147 114.348 76.3427C114.471 76.4773 114.595 76.6119 114.707 76.7464C114.819 76.8698 114.942 76.9932 115.066 77.1053C114.774 77.5539 114.483 77.9465 114.18 78.3054C113.877 78.6642 113.563 79.0231 113.249 79.3932C113.383 79.5614 113.541 79.7297 113.709 79.9203C113.877 80.0998 114.045 80.2904 114.213 80.4699C114.382 80.6605 114.55 80.84 114.718 81.0082C114.886 81.1764 115.043 81.3334 115.189 81.4568C114.864 81.4568 114.584 81.4456 114.326 81.4344C114.079 81.4344 113.821 81.4344 113.585 81.4344C113.406 81.4344 113.238 81.4344 113.058 81.4344C112.879 81.4344 112.699 81.4344 112.52 81.4568L111.892 80.6381L111.903 80.6269ZM108.247 78.8661C108.247 79.0792 108.292 79.3035 108.37 79.5166C108.449 79.7297 108.572 79.9203 108.74 80.0998C108.909 80.2792 109.111 80.4138 109.346 80.5259C109.582 80.6381 109.851 80.6942 110.142 80.6942C110.4 80.6942 110.658 80.6493 110.905 80.5596C111.152 80.4699 111.365 80.3465 111.533 80.1895C111.14 79.7072 110.748 79.2362 110.367 78.7652C109.974 78.2941 109.593 77.8007 109.223 77.3072C108.92 77.5315 108.673 77.767 108.505 78.0138C108.325 78.2605 108.247 78.5521 108.247 78.8885V78.8661ZM109.582 74.0772C109.582 74.3464 109.66 74.638 109.828 74.9632C109.985 75.2773 110.176 75.5913 110.4 75.8941C110.501 75.8156 110.613 75.7147 110.737 75.5913C110.86 75.4679 110.972 75.3333 111.073 75.1763C111.174 75.0193 111.264 74.8511 111.331 74.6716C111.398 74.4922 111.432 74.3016 111.432 74.0997C111.432 73.8081 111.331 73.5838 111.14 73.4043C110.95 73.2249 110.737 73.1464 110.501 73.1464C110.243 73.1464 110.03 73.2249 109.851 73.3931C109.671 73.5501 109.582 73.7857 109.582 74.0885V74.0772Z" fill="white"/>
<path d="M126.225 80.3124C126.157 80.5479 126.112 80.7722 126.09 81.0077C125.215 81.4563 124.105 81.6806 122.77 81.6806C121.828 81.6806 120.987 81.546 120.236 81.2769C119.495 81.0077 118.867 80.6376 118.352 80.1554C117.836 79.6731 117.443 79.1012 117.174 78.4395C116.905 77.7778 116.77 77.06 116.77 76.2862C116.77 75.1534 116.95 74.2002 117.297 73.4151C117.645 72.63 118.116 71.9908 118.71 71.4973C119.305 71.0038 119.989 70.645 120.774 70.4094C121.559 70.1851 122.378 70.073 123.23 70.073C123.51 70.073 123.813 70.0954 124.127 70.1403C124.441 70.1851 124.744 70.2412 125.036 70.3085C125.327 70.3758 125.608 70.4655 125.877 70.5552C126.146 70.645 126.37 70.7571 126.55 70.8693C126.438 71.1384 126.359 71.4188 126.303 71.688C126.247 71.9683 126.202 72.2487 126.18 72.5291H125.955C125.54 72.0132 125.125 71.6319 124.688 71.4188C124.251 71.1945 123.746 71.0824 123.163 71.0824C122.725 71.0824 122.288 71.1833 121.851 71.3739C121.413 71.5646 121.01 71.8674 120.651 72.2711C120.292 72.6749 120 73.1908 119.776 73.8076C119.552 74.4357 119.439 75.1759 119.439 76.0506C119.439 76.9254 119.552 77.5983 119.776 78.1927C120 78.7871 120.303 79.2694 120.662 79.6395C121.021 80.0096 121.436 80.29 121.896 80.4582C122.355 80.6376 122.815 80.7161 123.286 80.7161C123.544 80.7161 123.813 80.6825 124.082 80.6264C124.352 80.5703 124.621 80.4806 124.879 80.3797C125.137 80.2787 125.383 80.1442 125.619 79.9984C125.854 79.8414 126.056 79.6731 126.225 79.4937L126.438 79.6283C126.348 79.8526 126.269 80.0881 126.213 80.3236L126.225 80.3124Z" fill="white"/>
<path d="M127.268 77.766C127.268 77.037 127.38 76.409 127.604 75.8594C127.828 75.3211 128.12 74.8613 128.49 74.5024C128.86 74.1435 129.286 73.8632 129.769 73.6837C130.251 73.5043 130.744 73.4146 131.26 73.4146C132.528 73.4146 133.514 73.7734 134.21 74.4912C134.905 75.209 135.253 76.1847 135.253 77.4071C135.253 78.0688 135.152 78.6632 134.961 79.2015C134.771 79.7399 134.49 80.1885 134.142 80.5586C133.795 80.9287 133.369 81.209 132.886 81.3997C132.393 81.5791 131.866 81.6801 131.271 81.6801C130.778 81.6801 130.307 81.6128 129.836 81.4894C129.365 81.3549 128.939 81.1418 128.557 80.8277C128.176 80.5137 127.873 80.11 127.638 79.6165C127.402 79.1118 127.29 78.5062 127.29 77.7772L127.268 77.766ZM132.83 77.1604C132.83 76.2071 132.707 75.4669 132.471 74.9398C132.236 74.4127 131.832 74.1547 131.283 74.1547C130.778 74.1547 130.385 74.4463 130.105 75.0295C129.813 75.6127 129.679 76.5324 129.679 77.7772C129.679 78.237 129.701 78.652 129.757 79.0445C129.813 79.4371 129.903 79.7735 130.027 80.0651C130.15 80.3567 130.318 80.581 130.52 80.738C130.722 80.9062 130.969 80.9848 131.271 80.9848C132.314 80.9848 132.83 79.7062 132.83 77.1604Z" fill="white"/>
<path d="M136.711 80.3918C136.711 80.0217 136.845 79.7077 137.103 79.4497C137.361 79.1918 137.675 79.0572 138.045 79.0572C138.415 79.0572 138.729 79.1918 138.987 79.4497C139.245 79.7077 139.38 80.0217 139.38 80.3918C139.38 80.7619 139.245 81.0647 138.987 81.3114C138.729 81.5582 138.415 81.6815 138.045 81.6815C137.675 81.6815 137.361 81.5582 137.103 81.3114C136.845 81.0647 136.711 80.7619 136.711 80.3918Z" fill="white"/>
</svg>
