<svg width="74" height="75" viewBox="0 0 74 75" fill="none" xmlns="http://www.w3.org/2000/svg">
<path d="M34.04 7.55698C29.378 8.00098 24.864 9.51798 20.868 11.997L17.168 5.59598C22.0297 2.51211 27.5635 0.64635 33.3 0.156982M57.461 15.882C54.094 12.7 50.061 10.258 45.658 8.77798L48.1 1.59998C53.65 3.26498 58.793 6.29898 62.9 10.443M12.358 20.174C9.78237 23.9695 8.08834 28.293 7.4 32.828L0 31.792C0.74 26.057 2.923 20.507 6.29 15.808M74 37.157V39.599L66.6 39.007V37.157C66.6 33.161 65.897 29.239 64.343 25.539L71.114 22.579C73.075 27.204 74 32.162 74 37.157ZM14.8 56.767L9.25 61.614C5.44151 57.2543 2.65984 52.0956 1.11 46.518L8.029 44.557C9.361 49.071 11.692 53.252 14.8 56.767ZM37.518 74.157H37C31.45 74.157 25.9 72.973 20.868 70.716L24.161 63.945C28.194 65.832 32.56 66.757 37 66.757H37.703M55.5 70.457H48.1V48.257H70.3V55.657H60.754L70.818 65.869L65.601 71.086L55.5 61.207" fill="#1C1D1D"/>
</svg>
