<svg width="1146" height="417" viewBox="0 0 1146 417" fill="none" xmlns="http://www.w3.org/2000/svg">
<path d="M0.705078 34.0346H0.205078C0.205078 34.3107 0.428936 34.5346 0.705078 34.5346L0.705078 34.0346ZM1145.3 34.0346V34.5346C1145.57 34.5346 1145.8 34.3107 1145.8 34.0346H1145.3ZM50.4699 416.375H49.9699V416.875H50.4699V416.375ZM1095.53 416.375V416.875H1096.03V416.375H1095.53ZM1095.53 34.0346H1096.03V33.5346H1095.53V34.0346ZM982.631 67.2815V66.7815H982.131V67.2815H982.631ZM1071.38 67.2815H1071.88V66.7815H1071.38V67.2815ZM1071.38 266.763V267.263H1071.88V266.763H1071.38ZM982.631 266.763H982.131V267.263H982.631V266.763ZM987.607 72.2686V71.7686H987.107V72.2686H987.607ZM1066.4 72.2686H1066.9V71.7686H1066.4V72.2686ZM1066.4 261.776V262.276H1066.9V261.776H1066.4ZM987.607 261.776H987.107V262.276H987.607V261.776ZM992.584 77.2556V76.7556H992.084V77.2556H992.584ZM1061.42 77.2556H1061.92V76.7556H1061.42V77.2556ZM1061.42 256.789V257.289H1061.92V256.789H1061.42ZM992.584 256.789H992.084V257.289H992.584V256.789ZM665.894 266.763V267.263H666.394V266.763H665.894ZM577.147 266.763H576.647V267.263H577.147V266.763ZM577.147 67.2815V66.7815H576.647V67.2815H577.147ZM665.894 67.2815H666.394V66.7815H665.894V67.2815ZM660.918 261.776V262.276H661.418V261.776H660.918ZM582.124 261.776H581.624V262.276H582.124V261.776ZM582.124 72.2686V71.7686H581.624V72.2686H582.124ZM660.918 72.2686H661.418V71.7686H660.918V72.2686ZM655.941 256.789V257.289H656.441V256.789H655.941ZM587.1 256.789H586.6V257.289H587.1V256.789ZM587.1 77.2556V76.7556H586.6V77.2556H587.1ZM655.941 77.2556H656.441V76.7556H655.941V77.2556ZM575.488 266.763V267.263H575.988V266.763H575.488ZM486.741 266.763H486.241V267.263H486.741V266.763ZM486.741 67.2815V66.7815H486.241V67.2815H486.741ZM575.488 67.2815H575.988V66.7815H575.488V67.2815ZM567.194 258.452V258.952H567.694V258.452H567.194ZM495.035 258.452H494.535V258.952H495.035V258.452ZM495.035 75.5933V75.0933H494.535V75.5933H495.035ZM567.194 75.5933H567.694V75.0933H567.194V75.5933ZM562.218 253.464V253.964H562.718V253.464H562.218ZM500.012 253.464H499.512V253.964H500.012V253.464ZM500.012 80.5803V80.0803H499.512V80.5803H500.012ZM562.218 80.5803H562.718V80.0803H562.218V80.5803ZM82.6677 150.399L82.1677 150.399L82.1673 150.899H82.6677V150.399ZM82.734 67.2815V66.7815H82.2344L82.234 67.2811L82.734 67.2815ZM271.907 67.2815L272.407 67.2819L272.407 66.7815H271.907V67.2815ZM263.546 142.087V142.587H264.045L264.046 142.088L263.546 142.087ZM90.9618 142.087L90.4618 142.087L90.4613 142.587H90.9618V142.087ZM91.0282 75.5933V75.0933H90.5287L90.5282 75.5928L91.0282 75.5933ZM263.612 75.5933L264.112 75.5938L264.113 75.0933H263.612V75.5933ZM258.57 137.1V137.6H259.069L259.07 137.101L258.57 137.1ZM95.9383 137.1L95.4383 137.1L95.4377 137.6H95.9383V137.1ZM96.0046 80.5803V80.0803H95.5052L95.5046 80.5797L96.0046 80.5803ZM258.636 80.5803L259.136 80.5809L259.137 80.0803H258.636V80.5803ZM50.7163 416.375C50.7163 416.651 50.9402 416.875 51.2163 416.875C51.4925 416.875 51.7163 416.651 51.7163 416.375H50.7163ZM51.7163 34.0346C51.7163 33.7584 51.4925 33.5346 51.2163 33.5346C50.9402 33.5346 50.7163 33.7584 50.7163 34.0346H51.7163ZM71.2526 416.375C71.2526 416.651 71.4765 416.875 71.7526 416.875C72.0287 416.875 72.2526 416.651 72.2526 416.375H71.2526ZM72.2526 34.0346C72.2526 33.7584 72.0287 33.5346 71.7526 33.5346C71.4765 33.5346 71.2526 33.7584 71.2526 34.0346H72.2526ZM91.7889 416.375C91.7889 416.651 92.0127 416.875 92.2889 416.875C92.565 416.875 92.7889 416.651 92.7889 416.375H91.7889ZM92.7889 150.399C92.7889 150.123 92.565 149.899 92.2889 149.899C92.0127 149.899 91.7889 150.123 91.7889 150.399H92.7889ZM91.7889 67.2815C91.7889 67.5577 92.0127 67.7815 92.2889 67.7815C92.565 67.7815 92.7889 67.5577 92.7889 67.2815H91.7889ZM92.7889 34.0346C92.7889 33.7584 92.565 33.5346 92.2889 33.5346C92.0127 33.5346 91.7889 33.7584 91.7889 34.0346H92.7889ZM112.325 416.375C112.325 416.651 112.549 416.875 112.825 416.875C113.101 416.875 113.325 416.651 113.325 416.375H112.325ZM113.325 150.399C113.325 150.123 113.101 149.899 112.825 149.899C112.549 149.899 112.325 150.123 112.325 150.399H113.325ZM112.325 67.2815C112.325 67.5577 112.549 67.7815 112.825 67.7815C113.101 67.7815 113.325 67.5577 113.325 67.2815H112.325ZM113.325 34.0346C113.325 33.7584 113.101 33.5346 112.825 33.5346C112.549 33.5346 112.325 33.7584 112.325 34.0346H113.325ZM132.861 416.375C132.861 416.651 133.085 416.875 133.361 416.875C133.638 416.875 133.861 416.651 133.861 416.375H132.861ZM133.861 150.399C133.861 150.123 133.638 149.899 133.361 149.899C133.085 149.899 132.861 150.123 132.861 150.399H133.861ZM132.861 67.2815C132.861 67.5577 133.085 67.7815 133.361 67.7815C133.638 67.7815 133.861 67.5577 133.861 67.2815H132.861ZM133.861 34.0346C133.861 33.7584 133.638 33.5346 133.361 33.5346C133.085 33.5346 132.861 33.7584 132.861 34.0346H133.861ZM153.398 416.375C153.398 416.651 153.622 416.875 153.898 416.875C154.174 416.875 154.398 416.651 154.398 416.375H153.398ZM154.398 150.399C154.398 150.123 154.174 149.899 153.898 149.899C153.622 149.899 153.398 150.123 153.398 150.399H154.398ZM153.398 67.2815C153.398 67.5577 153.622 67.7815 153.898 67.7815C154.174 67.7815 154.398 67.5577 154.398 67.2815H153.398ZM154.398 34.0346C154.398 33.7584 154.174 33.5346 153.898 33.5346C153.622 33.5346 153.398 33.7584 153.398 34.0346H154.398ZM173.934 416.375C173.934 416.651 174.158 416.875 174.434 416.875C174.71 416.875 174.934 416.651 174.934 416.375H173.934ZM174.934 150.399C174.934 150.123 174.71 149.899 174.434 149.899C174.158 149.899 173.934 150.123 173.934 150.399H174.934ZM173.934 67.2815C173.934 67.5577 174.158 67.7815 174.434 67.7815C174.71 67.7815 174.934 67.5577 174.934 67.2815H173.934ZM174.934 34.0346C174.934 33.7584 174.71 33.5346 174.434 33.5346C174.158 33.5346 173.934 33.7584 173.934 34.0346H174.934ZM194.47 416.375C194.47 416.651 194.694 416.875 194.97 416.875C195.246 416.875 195.47 416.651 195.47 416.375H194.47ZM195.47 150.399C195.47 150.123 195.246 149.899 194.97 149.899C194.694 149.899 194.47 150.123 194.47 150.399H195.47ZM194.47 67.2815C194.47 67.5577 194.694 67.7815 194.97 67.7815C195.246 67.7815 195.47 67.5577 195.47 67.2815H194.47ZM195.47 34.0346C195.47 33.7584 195.246 33.5346 194.97 33.5346C194.694 33.5346 194.47 33.7584 194.47 34.0346H195.47ZM215.006 416.375C215.006 416.651 215.23 416.875 215.506 416.875C215.783 416.875 216.006 416.651 216.006 416.375H215.006ZM216.006 150.399C216.006 150.123 215.783 149.899 215.506 149.899C215.23 149.899 215.006 150.123 215.006 150.399H216.006ZM215.006 67.2815C215.006 67.5577 215.23 67.7815 215.506 67.7815C215.783 67.7815 216.006 67.5577 216.006 67.2815H215.006ZM216.006 34.0346C216.006 33.7584 215.783 33.5346 215.506 33.5346C215.23 33.5346 215.006 33.7584 215.006 34.0346H216.006ZM235.543 416.375C235.543 416.651 235.767 416.875 236.043 416.875C236.319 416.875 236.543 416.651 236.543 416.375H235.543ZM236.543 150.399C236.543 150.123 236.319 149.899 236.043 149.899C235.767 149.899 235.543 150.123 235.543 150.399H236.543ZM235.543 67.2815C235.543 67.5577 235.767 67.7815 236.043 67.7815C236.319 67.7815 236.543 67.5577 236.543 67.2815H235.543ZM236.543 34.0346C236.543 33.7584 236.319 33.5346 236.043 33.5346C235.767 33.5346 235.543 33.7584 235.543 34.0346H236.543ZM256.079 416.375C256.079 416.651 256.303 416.875 256.579 416.875C256.855 416.875 257.079 416.651 257.079 416.375H256.079ZM257.079 150.399C257.079 150.123 256.855 149.899 256.579 149.899C256.303 149.899 256.079 150.123 256.079 150.399H257.079ZM256.079 67.2815C256.079 67.5577 256.303 67.7815 256.579 67.7815C256.855 67.7815 257.079 67.5577 257.079 67.2815H256.079ZM257.079 34.0346C257.079 33.7584 256.855 33.5346 256.579 33.5346C256.303 33.5346 256.079 33.7584 256.079 34.0346H257.079ZM276.615 416.375C276.615 416.651 276.839 416.875 277.115 416.875C277.391 416.875 277.615 416.651 277.615 416.375H276.615ZM277.615 34.0346C277.615 33.7584 277.391 33.5346 277.115 33.5346C276.839 33.5346 276.615 33.7584 276.615 34.0346H277.615ZM297.152 416.375C297.152 416.651 297.375 416.875 297.652 416.875C297.928 416.875 298.152 416.651 298.152 416.375H297.152ZM298.152 34.0346C298.152 33.7584 297.928 33.5346 297.652 33.5346C297.375 33.5346 297.152 33.7584 297.152 34.0346H298.152ZM317.688 416.375C317.688 416.651 317.912 416.875 318.188 416.875C318.464 416.875 318.688 416.651 318.688 416.375H317.688ZM318.688 34.0346C318.688 33.7584 318.464 33.5346 318.188 33.5346C317.912 33.5346 317.688 33.7584 317.688 34.0346H318.688ZM338.224 416.375C338.224 416.651 338.448 416.875 338.724 416.875C339 416.875 339.224 416.651 339.224 416.375H338.224ZM339.224 34.0346C339.224 33.7584 339 33.5346 338.724 33.5346C338.448 33.5346 338.224 33.7584 338.224 34.0346H339.224ZM358.76 416.375C358.76 416.651 358.984 416.875 359.26 416.875C359.536 416.875 359.76 416.651 359.76 416.375H358.76ZM359.76 34.0346C359.76 33.7584 359.536 33.5346 359.26 33.5346C358.984 33.5346 358.76 33.7584 358.76 34.0346H359.76ZM379.297 416.375C379.297 416.651 379.52 416.875 379.797 416.875C380.073 416.875 380.297 416.651 380.297 416.375H379.297ZM380.297 34.0346C380.297 33.7584 380.073 33.5346 379.797 33.5346C379.52 33.5346 379.297 33.7584 379.297 34.0346H380.297ZM399.833 416.375C399.833 416.651 400.057 416.875 400.333 416.875C400.609 416.875 400.833 416.651 400.833 416.375H399.833ZM400.833 34.0346C400.833 33.7584 400.609 33.5346 400.333 33.5346C400.057 33.5346 399.833 33.7584 399.833 34.0346H400.833ZM420.369 416.375C420.369 416.651 420.593 416.875 420.869 416.875C421.145 416.875 421.369 416.651 421.369 416.375H420.369ZM421.369 34.0346C421.369 33.7584 421.145 33.5346 420.869 33.5346C420.593 33.5346 420.369 33.7584 420.369 34.0346H421.369ZM440.905 416.375C440.905 416.651 441.129 416.875 441.405 416.875C441.682 416.875 441.905 416.651 441.905 416.375H440.905ZM441.905 34.0346C441.905 33.7584 441.682 33.5346 441.405 33.5346C441.129 33.5346 440.905 33.7584 440.905 34.0346H441.905ZM461.442 416.375C461.442 416.651 461.666 416.875 461.942 416.875C462.218 416.875 462.442 416.651 462.442 416.375H461.442ZM462.442 34.0346C462.442 33.7584 462.218 33.5346 461.942 33.5346C461.666 33.5346 461.442 33.7584 461.442 34.0346H462.442ZM481.978 416.375C481.978 416.651 482.202 416.875 482.478 416.875C482.754 416.875 482.978 416.651 482.978 416.375H481.978ZM482.978 34.0346C482.978 33.7584 482.754 33.5346 482.478 33.5346C482.202 33.5346 481.978 33.7584 481.978 34.0346H482.978ZM502.514 416.375C502.514 416.651 502.738 416.875 503.014 416.875C503.29 416.875 503.514 416.651 503.514 416.375H502.514ZM503.514 266.763C503.514 266.487 503.29 266.263 503.014 266.263C502.738 266.263 502.514 266.487 502.514 266.763H503.514ZM502.514 67.2815C502.514 67.5577 502.738 67.7815 503.014 67.7815C503.29 67.7815 503.514 67.5577 503.514 67.2815H502.514ZM503.514 34.0346C503.514 33.7584 503.29 33.5346 503.014 33.5346C502.738 33.5346 502.514 33.7584 502.514 34.0346H503.514ZM523.05 416.375C523.05 416.651 523.274 416.875 523.55 416.875C523.827 416.875 524.05 416.651 524.05 416.375H523.05ZM524.05 266.763C524.05 266.487 523.827 266.263 523.55 266.263C523.274 266.263 523.05 266.487 523.05 266.763H524.05ZM523.05 67.2815C523.05 67.5577 523.274 67.7815 523.55 67.7815C523.827 67.7815 524.05 67.5577 524.05 67.2815H523.05ZM524.05 34.0346C524.05 33.7584 523.827 33.5346 523.55 33.5346C523.274 33.5346 523.05 33.7584 523.05 34.0346H524.05ZM543.587 416.375C543.587 416.651 543.811 416.875 544.087 416.875C544.363 416.875 544.587 416.651 544.587 416.375H543.587ZM544.587 266.763C544.587 266.487 544.363 266.263 544.087 266.263C543.811 266.263 543.587 266.487 543.587 266.763H544.587ZM543.587 67.2815C543.587 67.5577 543.811 67.7815 544.087 67.7815C544.363 67.7815 544.587 67.5577 544.587 67.2815H543.587ZM544.587 34.0346C544.587 33.7584 544.363 33.5346 544.087 33.5346C543.811 33.5346 543.587 33.7584 543.587 34.0346H544.587ZM564.123 416.375C564.123 416.651 564.347 416.875 564.623 416.875C564.899 416.875 565.123 416.651 565.123 416.375H564.123ZM565.123 266.763C565.123 266.487 564.899 266.263 564.623 266.263C564.347 266.263 564.123 266.487 564.123 266.763H565.123ZM564.123 67.2815C564.123 67.5577 564.347 67.7815 564.623 67.7815C564.899 67.7815 565.123 67.5577 565.123 67.2815H564.123ZM565.123 34.0346C565.123 33.7584 564.899 33.5346 564.623 33.5346C564.347 33.5346 564.123 33.7584 564.123 34.0346H565.123ZM584.659 416.375C584.659 416.651 584.883 416.875 585.159 416.875C585.435 416.875 585.659 416.651 585.659 416.375H584.659ZM585.659 266.763C585.659 266.487 585.435 266.263 585.159 266.263C584.883 266.263 584.659 266.487 584.659 266.763H585.659ZM584.659 67.2815C584.659 67.5577 584.883 67.7815 585.159 67.7815C585.435 67.7815 585.659 67.5577 585.659 67.2815H584.659ZM585.659 34.0346C585.659 33.7584 585.435 33.5346 585.159 33.5346C584.883 33.5346 584.659 33.7584 584.659 34.0346H585.659ZM605.196 416.375C605.196 416.651 605.419 416.875 605.696 416.875C605.972 416.875 606.196 416.651 606.196 416.375H605.196ZM606.196 266.763C606.196 266.487 605.972 266.263 605.696 266.263C605.419 266.263 605.196 266.487 605.196 266.763H606.196ZM605.196 67.2815C605.196 67.5577 605.419 67.7815 605.696 67.7815C605.972 67.7815 606.196 67.5577 606.196 67.2815H605.196ZM606.196 34.0346C606.196 33.7584 605.972 33.5346 605.696 33.5346C605.419 33.5346 605.196 33.7584 605.196 34.0346H606.196ZM625.732 416.375C625.732 416.651 625.956 416.875 626.232 416.875C626.508 416.875 626.732 416.651 626.732 416.375H625.732ZM626.732 266.763C626.732 266.487 626.508 266.263 626.232 266.263C625.956 266.263 625.732 266.487 625.732 266.763H626.732ZM625.732 67.2815C625.732 67.5577 625.956 67.7815 626.232 67.7815C626.508 67.7815 626.732 67.5577 626.732 67.2815H625.732ZM626.732 34.0346C626.732 33.7584 626.508 33.5346 626.232 33.5346C625.956 33.5346 625.732 33.7584 625.732 34.0346H626.732ZM646.268 416.375C646.268 416.651 646.492 416.875 646.768 416.875C647.044 416.875 647.268 416.651 647.268 416.375H646.268ZM647.268 266.763C647.268 266.487 647.044 266.263 646.768 266.263C646.492 266.263 646.268 266.487 646.268 266.763H647.268ZM646.268 67.2815C646.268 67.5577 646.492 67.7815 646.768 67.7815C647.044 67.7815 647.268 67.5577 647.268 67.2815H646.268ZM647.268 34.0346C647.268 33.7584 647.044 33.5346 646.768 33.5346C646.492 33.5346 646.268 33.7584 646.268 34.0346H647.268ZM666.804 416.375C666.804 416.651 667.028 416.875 667.304 416.875C667.58 416.875 667.804 416.651 667.804 416.375H666.804ZM667.804 34.0346C667.804 33.7584 667.58 33.5346 667.304 33.5346C667.028 33.5346 666.804 33.7584 666.804 34.0346H667.804ZM687.341 416.375C687.341 416.651 687.564 416.875 687.841 416.875C688.117 416.875 688.341 416.651 688.341 416.375H687.341ZM688.341 34.0346C688.341 33.7584 688.117 33.5346 687.841 33.5346C687.564 33.5346 687.341 33.7584 687.341 34.0346H688.341ZM707.877 416.375C707.877 416.651 708.101 416.875 708.377 416.875C708.653 416.875 708.877 416.651 708.877 416.375H707.877ZM708.877 34.0346C708.877 33.7584 708.653 33.5346 708.377 33.5346C708.101 33.5346 707.877 33.7584 707.877 34.0346H708.877ZM728.413 416.375C728.413 416.651 728.637 416.875 728.913 416.875C729.189 416.875 729.413 416.651 729.413 416.375H728.413ZM729.413 34.0346C729.413 33.7584 729.189 33.5346 728.913 33.5346C728.637 33.5346 728.413 33.7584 728.413 34.0346H729.413ZM748.949 416.375C748.949 416.651 749.173 416.875 749.449 416.875C749.726 416.875 749.949 416.651 749.949 416.375H748.949ZM749.949 34.0346C749.949 33.7584 749.726 33.5346 749.449 33.5346C749.173 33.5346 748.949 33.7584 748.949 34.0346H749.949ZM769.486 416.375C769.486 416.651 769.71 416.875 769.986 416.875C770.262 416.875 770.486 416.651 770.486 416.375H769.486ZM770.486 34.0346C770.486 33.7584 770.262 33.5346 769.986 33.5346C769.71 33.5346 769.486 33.7584 769.486 34.0346H770.486ZM790.022 416.375C790.022 416.651 790.246 416.875 790.522 416.875C790.798 416.875 791.022 416.651 791.022 416.375H790.022ZM791.022 34.0346C791.022 33.7584 790.798 33.5346 790.522 33.5346C790.246 33.5346 790.022 33.7584 790.022 34.0346H791.022ZM810.558 416.375C810.558 416.651 810.782 416.875 811.058 416.875C811.334 416.875 811.558 416.651 811.558 416.375H810.558ZM811.558 34.0346C811.558 33.7584 811.334 33.5346 811.058 33.5346C810.782 33.5346 810.558 33.7584 810.558 34.0346H811.558ZM831.094 416.375C831.094 416.651 831.318 416.875 831.594 416.875C831.871 416.875 832.094 416.651 832.094 416.375H831.094ZM832.094 34.0346C832.094 33.7584 831.871 33.5346 831.594 33.5346C831.318 33.5346 831.094 33.7584 831.094 34.0346H832.094ZM851.631 416.375C851.631 416.651 851.855 416.875 852.131 416.875C852.407 416.875 852.631 416.651 852.631 416.375H851.631ZM852.631 34.0346C852.631 33.7584 852.407 33.5346 852.131 33.5346C851.855 33.5346 851.631 33.7584 851.631 34.0346H852.631ZM872.167 416.375C872.167 416.651 872.391 416.875 872.667 416.875C872.943 416.875 873.167 416.651 873.167 416.375H872.167ZM873.167 34.0346C873.167 33.7584 872.943 33.5346 872.667 33.5346C872.391 33.5346 872.167 33.7584 872.167 34.0346H873.167ZM892.703 416.375C892.703 416.651 892.927 416.875 893.203 416.875C893.479 416.875 893.703 416.651 893.703 416.375H892.703ZM893.703 34.0346C893.703 33.7584 893.479 33.5346 893.203 33.5346C892.927 33.5346 892.703 33.7584 892.703 34.0346H893.703ZM913.24 416.375C913.24 416.651 913.463 416.875 913.74 416.875C914.016 416.875 914.24 416.651 914.24 416.375H913.24ZM914.24 34.0346C914.24 33.7584 914.016 33.5346 913.74 33.5346C913.463 33.5346 913.24 33.7584 913.24 34.0346H914.24ZM933.776 416.375C933.776 416.651 934 416.875 934.276 416.875C934.552 416.875 934.776 416.651 934.776 416.375H933.776ZM934.776 34.0346C934.776 33.7584 934.552 33.5346 934.276 33.5346C934 33.5346 933.776 33.7584 933.776 34.0346H934.776ZM954.312 416.375C954.312 416.651 954.536 416.875 954.812 416.875C955.088 416.875 955.312 416.651 955.312 416.375H954.312ZM955.312 34.0346C955.312 33.7584 955.088 33.5346 954.812 33.5346C954.536 33.5346 954.312 33.7584 954.312 34.0346H955.312ZM974.848 416.375C974.848 416.651 975.072 416.875 975.348 416.875C975.624 416.875 975.848 416.651 975.848 416.375H974.848ZM975.848 34.0346C975.848 33.7584 975.624 33.5346 975.348 33.5346C975.072 33.5346 974.848 33.7584 974.848 34.0346H975.848ZM995.385 416.375C995.385 416.651 995.608 416.875 995.885 416.875C996.161 416.875 996.385 416.651 996.385 416.375H995.385ZM996.385 266.763C996.385 266.487 996.161 266.263 995.885 266.263C995.608 266.263 995.385 266.487 995.385 266.763H996.385ZM995.385 67.2815C995.385 67.5577 995.608 67.7815 995.885 67.7815C996.161 67.7815 996.385 67.5577 996.385 67.2815H995.385ZM996.385 34.0346C996.385 33.7584 996.161 33.5346 995.885 33.5346C995.608 33.5346 995.385 33.7584 995.385 34.0346H996.385ZM1015.92 416.375C1015.92 416.651 1016.14 416.875 1016.42 416.875C1016.7 416.875 1016.92 416.651 1016.92 416.375H1015.92ZM1016.92 266.763C1016.92 266.487 1016.7 266.263 1016.42 266.263C1016.14 266.263 1015.92 266.487 1015.92 266.763H1016.92ZM1015.92 67.2815C1015.92 67.5577 1016.14 67.7815 1016.42 67.7815C1016.7 67.7815 1016.92 67.5577 1016.92 67.2815H1015.92ZM1016.92 34.0346C1016.92 33.7584 1016.7 33.5346 1016.42 33.5346C1016.14 33.5346 1015.92 33.7584 1015.92 34.0346H1016.92ZM1036.46 416.375C1036.46 416.651 1036.68 416.875 1036.96 416.875C1037.23 416.875 1037.46 416.651 1037.46 416.375H1036.46ZM1037.46 266.763C1037.46 266.487 1037.23 266.263 1036.96 266.263C1036.68 266.263 1036.46 266.487 1036.46 266.763H1037.46ZM1036.46 67.2815C1036.46 67.5577 1036.68 67.7815 1036.96 67.7815C1037.23 67.7815 1037.46 67.5577 1037.46 67.2815H1036.46ZM1037.46 34.0346C1037.46 33.7584 1037.23 33.5346 1036.96 33.5346C1036.68 33.5346 1036.46 33.7584 1036.46 34.0346H1037.46ZM1056.99 416.375C1056.99 416.651 1057.22 416.875 1057.49 416.875C1057.77 416.875 1057.99 416.651 1057.99 416.375H1056.99ZM1057.99 266.763C1057.99 266.487 1057.77 266.263 1057.49 266.263C1057.22 266.263 1056.99 266.487 1056.99 266.763H1057.99ZM1056.99 67.2815C1056.99 67.5577 1057.22 67.7815 1057.49 67.7815C1057.77 67.7815 1057.99 67.5577 1057.99 67.2815H1056.99ZM1057.99 34.0346C1057.99 33.7584 1057.77 33.5346 1057.49 33.5346C1057.22 33.5346 1056.99 33.7584 1056.99 34.0346H1057.99ZM1077.53 416.375C1077.53 416.651 1077.75 416.875 1078.03 416.875C1078.31 416.875 1078.53 416.651 1078.53 416.375H1077.53ZM1078.53 34.0346C1078.53 33.7584 1078.31 33.5346 1078.03 33.5346C1077.75 33.5346 1077.53 33.7584 1077.53 34.0346H1078.53ZM1145.3 0.787598H1145.8C1145.8 0.511455 1145.57 0.287598 1145.3 0.287598V0.787598ZM0.705078 0.787598V0.287598C0.57247 0.287598 0.445293 0.340276 0.351525 0.434044C0.257757 0.527812 0.205078 0.654989 0.205078 0.787598L0.705078 0.787598ZM82.7009 67.2815V66.7815C82.4247 66.7815 82.2009 67.0054 82.2009 67.2815H82.7009ZM271.873 67.2815H272.373C272.373 67.0054 272.15 66.7815 271.873 66.7815V67.2815ZM271.873 150.399V150.899C272.15 150.899 272.373 150.675 272.373 150.399H271.873ZM82.7009 150.399H82.2009C82.2009 150.675 82.4247 150.899 82.7009 150.899V150.399ZM263.629 75.5933L264.129 75.5939C264.129 75.4612 264.077 75.3338 263.983 75.2399C263.889 75.146 263.762 75.0933 263.629 75.0933V75.5933ZM258.653 80.5803L259.153 80.581C259.153 80.4483 259.1 80.3209 259.006 80.227C258.913 80.1331 258.785 80.0803 258.653 80.0803V80.5803ZM50.4699 33.5346H0.705078V34.5346H50.4699V33.5346ZM1.20508 34.0346V17.4111H0.205078V34.0346H1.20508ZM0.705078 17.9111H1145.3V16.9111H0.705078V17.9111ZM1144.8 17.4111V34.0346H1145.8V17.4111H1144.8ZM1145.3 33.5346H50.4699V34.5346H1145.3V33.5346ZM49.9699 34.0346V416.375H50.9699V34.0346H49.9699ZM50.4699 416.875H1095.53V415.875H50.4699V416.875ZM1096.03 416.375V34.0346H1095.03V416.375H1096.03ZM1095.53 33.5346H50.4699V34.5346H1095.53V33.5346ZM982.631 67.7815H1071.38V66.7815H982.631V67.7815ZM1070.88 67.2815V266.763H1071.88V67.2815H1070.88ZM1071.38 266.263H982.631V267.263H1071.38V266.263ZM983.131 266.763V67.2815H982.131V266.763H983.131ZM987.607 72.7686H1066.4V71.7686H987.607V72.7686ZM1065.9 72.2686V261.776H1066.9V72.2686H1065.9ZM1066.4 261.276H987.607V262.276H1066.4V261.276ZM988.107 261.776V72.2686H987.107V261.776H988.107ZM992.584 77.7556H1061.42V76.7556H992.584V77.7556ZM1060.92 77.2556V256.789H1061.92V77.2556H1060.92ZM1061.42 256.289H992.584V257.289H1061.42V256.289ZM993.084 256.789V77.2556H992.084V256.789H993.084ZM665.894 266.263H577.147V267.263H665.894V266.263ZM577.647 266.763V67.2815H576.647V266.763H577.647ZM577.147 67.7815H665.894V66.7815H577.147V67.7815ZM665.394 67.2815V266.763H666.394V67.2815H665.394ZM660.918 261.276H582.124V262.276H660.918V261.276ZM582.624 261.776V72.2686H581.624V261.776H582.624ZM582.124 72.7686H660.918V71.7686H582.124V72.7686ZM660.418 72.2686V261.776H661.418V72.2686H660.418ZM655.941 256.289H587.1V257.289H655.941V256.289ZM587.6 256.789V77.2556H586.6V256.789H587.6ZM587.1 77.7556H655.941V76.7556H587.1V77.7556ZM655.441 77.2556V256.789H656.441V77.2556H655.441ZM575.488 266.263H486.741V267.263H575.488V266.263ZM487.241 266.763V67.2815H486.241V266.763H487.241ZM486.741 67.7815H575.488V66.7815H486.741V67.7815ZM574.988 67.2815V266.763H575.988V67.2815H574.988ZM567.194 257.952H495.035V258.952H567.194V257.952ZM495.535 258.452V75.5933H494.535V258.452H495.535ZM495.035 76.0933H567.194V75.0933H495.035V76.0933ZM566.694 75.5933V258.452H567.694V75.5933H566.694ZM562.218 252.964H500.012V253.964H562.218V252.964ZM500.512 253.464V80.5803H499.512V253.464H500.512ZM500.012 81.0803H562.218V80.0803H500.012V81.0803ZM561.718 80.5803V253.464H562.718V80.5803H561.718ZM271.857 149.899H82.6677V150.899H271.857V149.899ZM83.1677 150.399L83.234 67.2819L82.234 67.2811L82.1677 150.399L83.1677 150.399ZM82.734 67.7815H271.907V66.7815H82.734V67.7815ZM271.407 67.2811L271.34 150.399L272.34 150.399L272.407 67.2819L271.407 67.2811ZM263.546 141.587H90.9618V142.587H263.546V141.587ZM91.4618 142.088L91.5282 75.5938L90.5282 75.5928L90.4618 142.087L91.4618 142.088ZM91.0282 76.0933H263.612V75.0933H91.0282V76.0933ZM263.112 75.5928L263.046 142.087L264.046 142.088L264.112 75.5938L263.112 75.5928ZM258.57 136.6H95.9383V137.6H258.57V136.6ZM96.4383 137.101L96.5046 80.5809L95.5046 80.5797L95.4383 137.1L96.4383 137.101ZM96.0046 81.0803H258.636V80.0803H96.0046V81.0803ZM258.136 80.5797L258.07 137.1L259.07 137.101L259.136 80.5809L258.136 80.5797ZM51.7163 416.375V34.0346H50.7163V416.375H51.7163ZM72.2526 416.375V34.0346H71.2526V416.375H72.2526ZM92.7889 416.375V150.399H91.7889V416.375H92.7889ZM92.7889 67.2815V34.0346H91.7889V67.2815H92.7889ZM113.325 416.375V150.399H112.325V416.375H113.325ZM113.325 67.2815V34.0346H112.325V67.2815H113.325ZM133.861 416.375V150.399H132.861V416.375H133.861ZM133.861 67.2815V34.0346H132.861V67.2815H133.861ZM154.398 416.375V150.399H153.398V416.375H154.398ZM154.398 67.2815V34.0346H153.398V67.2815H154.398ZM174.934 416.375V150.399H173.934V416.375H174.934ZM174.934 67.2815V34.0346H173.934V67.2815H174.934ZM195.47 416.375V150.399H194.47V416.375H195.47ZM195.47 67.2815V34.0346H194.47V67.2815H195.47ZM216.006 416.375V150.399H215.006V416.375H216.006ZM216.006 67.2815V34.0346H215.006V67.2815H216.006ZM236.543 416.375V150.399H235.543V416.375H236.543ZM236.543 67.2815V34.0346H235.543V67.2815H236.543ZM257.079 416.375V150.399H256.079V416.375H257.079ZM257.079 67.2815V34.0346H256.079V67.2815H257.079ZM277.615 416.375V34.0346H276.615V416.375H277.615ZM298.152 416.375V34.0346H297.152V416.375H298.152ZM318.688 416.375V34.0346H317.688V416.375H318.688ZM339.224 416.375V34.0346H338.224V416.375H339.224ZM359.76 416.375V34.0346H358.76V416.375H359.76ZM380.297 416.375V34.0346H379.297V416.375H380.297ZM400.833 416.375V34.0346H399.833V416.375H400.833ZM421.369 416.375V34.0346H420.369V416.375H421.369ZM441.905 416.375V34.0346H440.905V416.375H441.905ZM462.442 416.375V34.0346H461.442V416.375H462.442ZM482.978 416.375V34.0346H481.978V416.375H482.978ZM503.514 416.375V266.763H502.514V416.375H503.514ZM503.514 67.2815V34.0346H502.514V67.2815H503.514ZM524.05 416.375V266.763H523.05V416.375H524.05ZM524.05 67.2815V34.0346H523.05V67.2815H524.05ZM544.587 416.375V266.763H543.587V416.375H544.587ZM544.587 67.2815V34.0346H543.587V67.2815H544.587ZM565.123 416.375V266.763H564.123V416.375H565.123ZM565.123 67.2815V34.0346H564.123V67.2815H565.123ZM585.659 416.375V266.763H584.659V416.375H585.659ZM585.659 67.2815V34.0346H584.659V67.2815H585.659ZM606.196 416.375V266.763H605.196V416.375H606.196ZM606.196 67.2815V34.0346H605.196V67.2815H606.196ZM626.732 416.375V266.763H625.732V416.375H626.732ZM626.732 67.2815V34.0346H625.732V67.2815H626.732ZM647.268 416.375V266.763H646.268V416.375H647.268ZM647.268 67.2815V34.0346H646.268V67.2815H647.268ZM667.804 416.375V34.0346H666.804V416.375H667.804ZM688.341 416.375V34.0346H687.341V416.375H688.341ZM708.877 416.375V34.0346H707.877V416.375H708.877ZM729.413 416.375V34.0346H728.413V416.375H729.413ZM749.949 416.375V34.0346H748.949V416.375H749.949ZM770.486 416.375V34.0346H769.486V416.375H770.486ZM791.022 416.375V34.0346H790.022V416.375H791.022ZM811.558 416.375V34.0346H810.558V416.375H811.558ZM832.094 416.375V34.0346H831.094V416.375H832.094ZM852.631 416.375V34.0346H851.631V416.375H852.631ZM873.167 416.375V34.0346H872.167V416.375H873.167ZM893.703 416.375V34.0346H892.703V416.375H893.703ZM914.24 416.375V34.0346H913.24V416.375H914.24ZM934.776 416.375V34.0346H933.776V416.375H934.776ZM955.312 416.375V34.0346H954.312V416.375H955.312ZM975.848 416.375V34.0346H974.848V416.375H975.848ZM996.385 416.375V266.763H995.385V416.375H996.385ZM996.385 67.2815V34.0346H995.385V67.2815H996.385ZM1016.92 416.375V266.763H1015.92V416.375H1016.92ZM1016.92 67.2815V34.0346H1015.92V67.2815H1016.92ZM1037.46 416.375V266.763H1036.46V416.375H1037.46ZM1037.46 67.2815V34.0346H1036.46V67.2815H1037.46ZM1057.99 416.375V266.763H1056.99V416.375H1057.99ZM1057.99 67.2815V34.0346H1056.99V67.2815H1057.99ZM1078.53 416.375V34.0346H1077.53V416.375H1078.53ZM1145.8 17.4111V0.787598H1144.8V17.4111H1145.8ZM1145.3 0.287598H0.705078V1.2876H1145.3V0.287598ZM0.205078 0.787598L0.205078 17.4111L1.20508 17.4111L1.20508 0.787598L0.205078 0.787598ZM82.7009 67.7815H271.873V66.7815H82.7009V67.7815ZM271.373 67.2815V150.399H272.373V67.2815H271.373ZM271.873 149.899H82.7009V150.899H271.873V149.899ZM83.2009 150.399V67.2815H82.2009V150.399H83.2009ZM91.0282 76.0933H263.629V75.0933H91.0282V76.0933ZM263.129 75.5926L263.046 142.087L264.046 142.088L264.129 75.5939L263.129 75.5926ZM96.0046 81.0803H258.653V80.0803H96.0046V81.0803ZM258.153 80.5796L258.07 137.099L259.07 137.101L259.153 80.581L258.153 80.5796Z" fill="black"/>
</svg>
