<svg width="45" height="68" viewBox="0 0 45 68" fill="none" xmlns="http://www.w3.org/2000/svg">
<path d="M0.333496 67.5959V65.2919C0.333496 62.7959 0.877496 60.4919 1.9655 58.3799C3.0535 56.2039 4.5255 54.2199 6.3815 52.4279C8.2375 50.5719 10.3175 48.8119 12.6215 47.1479C14.9255 45.4199 17.2935 43.7239 19.7255 42.0599C23.4375 39.5639 26.7655 37.1319 29.7095 34.7639C32.7175 32.3959 35.1175 29.8679 36.9095 27.1799C38.7015 24.4279 39.5975 21.3559 39.5975 17.9639C39.5975 15.1479 38.9575 12.7479 37.6775 10.7639C36.3975 8.77989 34.5735 7.27589 32.2055 6.25189C29.8375 5.22789 26.9575 4.71589 23.5655 4.71589C19.0215 4.71589 15.4695 5.51589 12.9095 7.11589C10.3495 8.71589 8.5255 10.7319 7.4375 13.1639C6.4135 15.5959 5.9015 18.0279 5.9015 20.4599V24.3959H1.3895C1.3255 24.0759 1.2615 23.5639 1.1975 22.8599C1.1335 22.1559 1.1015 21.3879 1.1015 20.5559C1.1015 15.8199 2.1575 12.0119 4.2695 9.13189C6.3815 6.18789 9.1655 4.04389 12.6215 2.69989C16.1415 1.29189 19.9175 0.587891 23.9495 0.587891C26.7015 0.587891 29.2935 0.90789 31.7255 1.54789C34.2215 2.18789 36.4295 3.21189 38.3495 4.61989C40.2695 6.02789 41.7735 7.85189 42.8615 10.0919C43.9495 12.2679 44.4935 14.8919 44.4935 17.9639C44.4935 20.9719 43.9495 23.6919 42.8615 26.1239C41.8375 28.5559 40.3655 30.8279 38.4455 32.9399C36.5255 34.9879 34.2855 37.0039 31.7255 38.9879C29.1655 40.9079 26.3815 42.8599 23.3735 44.8439C20.6855 46.6359 17.9975 48.5879 15.3095 50.6999C12.6855 52.7479 10.4455 54.8279 8.5895 56.9399C6.7335 59.0519 5.7095 61.0679 5.5175 62.9879H44.8775V67.5959H0.333496Z" fill="#E1784B"/>
</svg>
