<svg width="46" height="68" viewBox="0 0 46 68" fill="none" xmlns="http://www.w3.org/2000/svg">
<path d="M0.5 67.8088V65.5048C0.5 63.0088 1.044 60.7048 2.132 58.5928C3.22 56.4168 4.692 54.4328 6.548 52.6408C8.404 50.7848 10.484 49.0248 12.788 47.3608C15.092 45.6328 17.46 43.9368 19.892 42.2728C23.604 39.7768 26.932 37.3448 29.876 34.9768C32.884 32.6088 35.284 30.0808 37.076 27.3928C38.868 24.6408 39.764 21.5688 39.764 18.1768C39.764 15.3608 39.124 12.9608 37.844 10.9768C36.564 8.99278 34.74 7.48878 32.372 6.46478C30.004 5.44078 27.124 4.92878 23.732 4.92878C19.188 4.92878 15.636 5.72878 13.076 7.32878C10.516 8.92878 8.692 10.9448 7.604 13.3768C6.58 15.8088 6.068 18.2408 6.068 20.6728V24.6088H1.556C1.492 24.2888 1.428 23.7768 1.364 23.0728C1.3 22.3688 1.268 21.6008 1.268 20.7688C1.268 16.0328 2.324 12.2248 4.436 9.34478C6.548 6.40078 9.332 4.25678 12.788 2.91278C16.308 1.50478 20.084 0.800781 24.116 0.800781C26.868 0.800781 29.46 1.12078 31.892 1.76078C34.388 2.40078 36.596 3.42478 38.516 4.83278C40.436 6.24078 41.94 8.06478 43.028 10.3048C44.116 12.4808 44.66 15.1048 44.66 18.1768C44.66 21.1848 44.116 23.9048 43.028 26.3368C42.004 28.7688 40.532 31.0408 38.612 33.1528C36.692 35.2008 34.452 37.2168 31.892 39.2008C29.332 41.1208 26.548 43.0728 23.54 45.0568C20.852 46.8488 18.164 48.8008 15.476 50.9128C12.852 52.9608 10.612 55.0408 8.756 57.1528C6.9 59.2648 5.876 61.2808 5.684 63.2008H45.044V67.8088H0.5Z" fill="#E1784B"/>
</svg>
