<svg width="48" height="69" viewBox="0 0 48 69" fill="none" xmlns="http://www.w3.org/2000/svg">
<path d="M24.1865 68.7479C19.0025 68.7479 14.6505 68.0119 11.1305 66.5399C7.6745 65.0679 5.0505 62.9239 3.2585 60.1079C1.5305 57.2919 0.666504 53.8999 0.666504 49.9319V48.9719H5.1785V49.7399C5.1785 54.5399 6.7465 58.2199 9.8825 60.7799C13.0825 63.3399 17.4665 64.6199 23.0345 64.6199C28.8585 64.6199 33.5305 63.4359 37.0505 61.0679C40.5705 58.6999 42.3305 54.8919 42.3305 49.6439C42.3305 46.1239 41.4025 43.4039 39.5465 41.4839C37.6905 39.4999 35.2905 38.1239 32.3465 37.3559C29.4025 36.5879 26.3305 36.2039 23.1305 36.2039H14.5865V32.0759H23.4185C26.4265 32.0759 29.2425 31.6279 31.8665 30.7319C34.4905 29.8359 36.6025 28.3639 38.2025 26.3159C39.8665 24.2039 40.6985 21.3879 40.6985 17.8679C40.6985 14.9239 39.9625 12.4919 38.4905 10.5719C37.0185 8.65189 35.0665 7.21189 32.6345 6.25189C30.2025 5.22789 27.5465 4.71589 24.6665 4.71589C21.4665 4.71589 18.5225 5.29189 15.8345 6.44389C13.1465 7.53189 11.0025 9.16389 9.4025 11.3399C7.8025 13.4519 7.0025 16.0759 7.0025 19.2119V20.2679H2.2025V19.3079C2.2025 15.6599 3.1625 12.4279 5.0825 9.61189C7.0025 6.79589 9.6265 4.58789 12.9545 2.98789C16.3465 1.38789 20.1865 0.587891 24.4745 0.587891C28.5065 0.587891 32.1225 1.25989 35.3225 2.60389C38.5225 3.88389 41.0185 5.80389 42.8105 8.36389C44.6665 10.9239 45.5945 14.0919 45.5945 17.8679C45.5945 20.8759 45.0185 23.4359 43.8665 25.5479C42.7145 27.5959 41.2745 29.2599 39.5465 30.5399C37.8185 31.8199 36.0265 32.7799 34.1705 33.4199V33.8039C37.8825 34.8279 40.9865 36.6839 43.4825 39.3719C45.9785 42.0599 47.2265 45.5799 47.2265 49.9319C47.2265 53.8359 46.2345 57.1959 44.2505 60.0119C42.2665 62.8279 39.5145 65.0039 35.9945 66.5399C32.5385 68.0119 28.6025 68.7479 24.1865 68.7479Z" fill="#E1784B"/>
</svg>
