<svg width="48" height="69" viewBox="0 0 48 69" fill="none" xmlns="http://www.w3.org/2000/svg">
<path d="M24.02 68.9608C18.836 68.9608 14.484 68.2248 10.964 66.7528C7.508 65.2808 4.884 63.1368 3.092 60.3208C1.364 57.5048 0.5 54.1128 0.5 50.1448V49.1848H5.012V49.9528C5.012 54.7528 6.58 58.4328 9.716 60.9928C12.916 63.5528 17.3 64.8328 22.868 64.8328C28.692 64.8328 33.364 63.6488 36.884 61.2808C40.404 58.9128 42.164 55.1048 42.164 49.8568C42.164 46.3368 41.236 43.6168 39.38 41.6968C37.524 39.7128 35.124 38.3368 32.18 37.5688C29.236 36.8008 26.164 36.4168 22.964 36.4168H14.42V32.2888H23.252C26.26 32.2888 29.076 31.8408 31.7 30.9448C34.324 30.0488 36.436 28.5768 38.036 26.5288C39.7 24.4168 40.532 21.6008 40.532 18.0808C40.532 15.1368 39.796 12.7048 38.324 10.7848C36.852 8.86478 34.9 7.42478 32.468 6.46478C30.036 5.44078 27.38 4.92878 24.5 4.92878C21.3 4.92878 18.356 5.50478 15.668 6.65678C12.98 7.74478 10.836 9.37678 9.236 11.5528C7.636 13.6648 6.836 16.2888 6.836 19.4248V20.4808H2.036V19.5208C2.036 15.8728 2.996 12.6408 4.916 9.82478C6.836 7.00878 9.46 4.80078 12.788 3.20078C16.18 1.60078 20.02 0.800781 24.308 0.800781C28.34 0.800781 31.956 1.47278 35.156 2.81678C38.356 4.09678 40.852 6.01678 42.644 8.57678C44.5 11.1368 45.428 14.3048 45.428 18.0808C45.428 21.0888 44.852 23.6488 43.7 25.7608C42.548 27.8088 41.108 29.4728 39.38 30.7528C37.652 32.0328 35.86 32.9928 34.004 33.6328V34.0168C37.716 35.0408 40.82 36.8968 43.316 39.5848C45.812 42.2728 47.06 45.7928 47.06 50.1448C47.06 54.0488 46.068 57.4088 44.084 60.2248C42.1 63.0408 39.348 65.2168 35.828 66.7528C32.372 68.2248 28.436 68.9608 24.02 68.9608Z" fill="#E1784B"/>
</svg>
