<svg width="47" height="68" viewBox="0 0 47 68" fill="none" xmlns="http://www.w3.org/2000/svg">
<path d="M32.544 67.5959V49.7399H0V45.5159C2.816 40.4599 5.344 35.4999 7.584 30.6359C9.888 25.7719 11.872 20.8759 13.536 15.9479C15.264 10.9559 16.64 5.83589 17.664 0.587891H22.752C21.92 4.23589 20.928 7.94789 19.776 11.7239C18.624 15.4999 17.344 19.1799 15.936 22.7639C14.592 26.3479 13.248 29.6759 11.904 32.7479C10.56 35.8199 9.28 38.4759 8.064 40.7159C6.912 42.8919 5.952 44.5239 5.184 45.6119H32.544V19.5959C32.736 18.8279 32.928 18.0279 33.12 17.1959C33.312 16.2999 33.504 15.4359 33.696 14.6039C33.888 13.7719 34.048 13.0039 34.176 12.2999C34.368 11.5959 34.496 10.9559 34.56 10.3799H37.152V45.6119H46.56V49.7399H37.152V67.5959H32.544Z" fill="#E1784B"/>
</svg>
