<svg width="48" height="68" viewBox="0 0 48 68" fill="none" xmlns="http://www.w3.org/2000/svg">
<path d="M33.044 67.8088V49.9528H0.5V45.7288C3.316 40.6728 5.844 35.7128 8.084 30.8488C10.388 25.9848 12.372 21.0888 14.036 16.1608C15.764 11.1688 17.14 6.04878 18.164 0.800781H23.252C22.42 4.44878 21.428 8.16078 20.276 11.9368C19.124 15.7128 17.844 19.3928 16.436 22.9768C15.092 26.5608 13.748 29.8888 12.404 32.9608C11.06 36.0328 9.78 38.6888 8.564 40.9288C7.412 43.1048 6.452 44.7368 5.684 45.8248H33.044V19.8088C33.236 19.0408 33.428 18.2408 33.62 17.4088C33.812 16.5128 34.004 15.6488 34.196 14.8168C34.388 13.9848 34.548 13.2168 34.676 12.5128C34.868 11.8088 34.996 11.1688 35.06 10.5928H37.652V45.8248H47.06V49.9528H37.652V67.8088H33.044Z" fill="#E1784B"/>
</svg>
