<svg width="103" height="103" viewBox="0 0 103 103" fill="none" xmlns="http://www.w3.org/2000/svg">
<path d="M42.2122 8.72964C42.6951 8.89393 43.1669 9.08933 43.6244 9.3146L49.1297 12.025C50.6236 12.7606 52.3746 12.7606 53.8686 12.025L59.3739 9.3146C65.2213 6.43549 72.2961 8.84209 75.175 14.6898L75.4904 15.3865L75.7599 16.1021L77.7362 21.9113C78.2727 23.4879 79.5108 24.7261 81.0872 25.2624L86.8964 27.2385C93.0674 29.3377 96.3681 36.0419 94.269 42.2127C94.1046 42.6956 93.9094 43.1673 93.6841 43.6248L90.9735 49.1302C90.2379 50.6241 90.2379 52.3751 90.9735 53.869L93.6841 59.3744C96.5633 65.2218 94.1566 72.2966 88.3088 75.1755C87.8513 75.4008 87.3796 75.5965 86.8964 75.7604L81.0872 77.7367C79.5108 78.2732 78.2727 79.5113 77.7362 81.0877L75.7599 86.8969C73.6609 93.0678 66.9569 96.3686 60.7859 94.2695C60.3031 94.1051 59.8314 93.9099 59.3739 93.6846L53.8686 90.9739C52.3746 90.2384 50.6236 90.2384 49.1297 90.9739L43.6244 93.6846C37.7767 96.5638 30.7021 94.1571 27.823 88.3092C27.5977 87.8517 27.4023 87.3801 27.238 86.8969L25.2619 81.0877C24.7256 79.5113 23.4874 78.2732 21.9108 77.7367L16.1016 75.7604C9.93074 73.6614 6.63002 66.9573 8.72916 60.7864C8.89344 60.3035 9.08884 59.8319 9.31411 59.3744L12.0245 53.869C12.7601 52.3751 12.7601 50.6241 12.0245 49.1302L9.31411 43.6248C6.435 37.7771 8.8416 30.7026 14.6893 27.8235C15.147 27.5982 15.6187 27.4028 16.1016 27.2385L21.9108 25.2624C23.4874 24.7261 24.7256 23.4879 25.2619 21.9113L27.238 16.1021C29.3372 9.93123 36.0414 6.6305 42.2122 8.72964ZM33.3326 18.1753L31.3564 23.9845C30.1765 27.4531 27.4526 30.177 23.984 31.3569L18.1748 33.333C17.9553 33.4077 17.7409 33.4966 17.5329 33.599C14.8748 34.9076 13.7809 38.1233 15.0896 40.7814L17.8 46.2865C19.4183 49.5735 19.4183 53.4257 17.8 56.7127L15.0896 62.2176C14.9872 62.4258 14.8983 62.6404 14.8237 62.8597C13.8695 65.6647 15.3699 68.7118 18.1748 69.6662L23.984 71.6421C27.4526 72.8223 30.1765 75.5463 31.3564 79.0148L33.3326 84.824C33.4072 85.0433 33.4961 85.2579 33.5985 85.4656C34.9071 88.1238 38.1228 89.2178 40.7809 87.9093L46.286 85.1986C49.573 83.5803 53.4252 83.5803 56.7122 85.1986L62.2171 87.9093C62.4253 88.0114 62.6399 88.1002 62.8592 88.1749C65.6642 89.129 68.7113 87.6286 69.6658 84.824L71.6416 79.0148C72.8218 75.5463 75.5458 72.8223 79.0143 71.6421L84.8235 69.6662C85.0428 69.5916 85.2574 69.5027 85.4651 69.4002C88.1234 68.0916 89.2173 64.8759 87.9088 62.2176L85.1982 56.7127C83.5798 53.4257 83.5798 49.5735 85.1982 46.2865L87.9088 40.7814C88.0109 40.5734 88.0998 40.359 88.1744 40.1395C89.1285 37.3345 87.6281 34.2872 84.8235 33.333L79.0143 31.3569C75.5458 30.177 72.8218 27.4531 71.6416 23.9845L69.6658 18.1753L69.543 17.85L69.3997 17.5334L69.1327 17.0535C67.6912 14.7479 64.7093 13.8632 62.2171 15.0901L56.7122 17.8005C53.4252 19.4188 49.573 19.4188 46.286 17.8005L40.7809 15.0901C40.5729 14.9877 40.3585 14.8988 40.139 14.8242C37.3341 13.87 34.2867 15.3704 33.3326 18.1753ZM43.1321 61.752L66.3899 38.4944C67.647 37.2374 69.6846 37.2374 70.9417 38.4944C72.0845 39.6372 72.1884 41.4253 71.2532 42.6854L70.9417 43.0463L45.1917 68.7963C43.9651 70.0233 42.0152 70.0418 40.7655 68.9161L40.443 68.5809L29.7139 55.7059C28.5758 54.3403 28.7603 52.3107 30.126 51.1726C31.3675 50.1383 33.1577 50.1967 34.328 51.2417L34.6593 51.585L43.1321 61.752Z" fill="#212121"/>
</svg>
