<svg width="162" height="82" viewBox="0 0 162 82" fill="none" xmlns="http://www.w3.org/2000/svg">
<path d="M84.1408 12.4022C87.4605 15.9574 88.6381 20.2977 90.1634 24.436C91.1727 27.1613 92.3839 29.9202 92.1596 32.7016C91.8568 36.5484 88.7951 39.9578 84.9035 42.3578C81.0118 44.7578 76.3015 46.3167 71.6584 47.8308C69.4266 48.5598 67.1499 49.3 64.6938 49.4906C59.6807 49.8719 54.7909 47.9205 50.2936 46.0364C45.987 44.2307 41.4561 42.2569 39.0336 39.0381C37.0149 36.3577 36.7457 33.1614 37.1046 30.1557C38.271 20.2864 45.3814 11.6396 52.3011 3.38525C53.1535 2.36468 54.0507 1.31045 55.4301 0.704838C57.0227 -0.00171493 59.0526 -0.0241452 60.8919 0.334739C66.8359 1.47868 66.4658 5.66192 70.4247 7.48999C71.9051 8.17411 75.6846 7.65821 77.6809 8.3199C80.238 9.17225 82.5146 10.6751 84.1296 12.4022" fill="#9ACD66"/>
<path d="M78.6342 20.2511C80.4623 22.9315 80.7987 25.9147 81.3931 28.797C81.7857 30.6923 82.3016 32.6438 81.8754 34.4494C81.2922 36.9616 78.9258 38.9018 76.1108 40.0906C73.2958 41.2906 70.0322 41.8289 66.8135 42.3673C65.2658 42.6252 63.6845 42.8832 62.0471 42.7598C58.6937 42.5131 55.6769 40.7299 52.8955 39.0252C50.2375 37.399 47.445 35.6382 46.1664 33.2718C45.101 31.2979 45.2468 29.1671 45.7851 27.2156C47.5459 20.823 53.1086 15.8323 58.5143 11.0771C59.176 10.4939 59.8825 9.88828 60.847 9.61912C61.9685 9.3051 63.3144 9.50697 64.4919 9.92193C68.2939 11.279 67.6322 14.0042 70.0659 15.608C70.9743 16.2024 73.5201 16.2473 74.7762 16.8865C76.38 17.7052 77.737 18.9277 78.623 20.2286" fill="#4F9E45"/>
<path d="M46.1328 32.2092C46.1328 32.2092 46.1328 32.2092 46.1448 32.2092C46.1448 32.2092 46.1687 32.2092 46.1687 32.1973L46.1328 32.2212V32.2092Z" fill="#231F20"/>
<path d="M111.775 37.2892C111.382 38.8817 110.115 40.0481 109.117 39.7341C108.287 39.4761 107.446 37.6144 107.681 36.5041C107.883 35.5284 109.319 34.8891 110.608 35.1919C111.629 35.4275 112.055 36.1901 111.775 37.2892Z" fill="#1F1F1F"/>
<path d="M160.033 55.9846C157.577 55.9622 155.121 55.9959 152.654 55.9622C148.93 55.9061 145.196 55.8837 141.472 55.7155C137.884 55.5473 137.222 54.2687 139.072 51.1734C140.833 48.235 143.155 45.7789 145.947 43.7938C146.878 43.1321 147.843 42.5041 148.471 41.4611C147.024 42.0218 145.667 42.7284 144.422 43.5919C143.087 44.5116 141.82 45.5321 140.598 46.6088C139.487 47.5845 138.489 48.6836 137.312 49.8724C137.199 49.3789 137.121 49.2331 137.155 49.1098C138.399 43.4686 139.611 37.8161 140.912 32.1862C141.226 30.8179 141.843 29.5282 142.246 28.1711C142.639 26.8478 142 26.1861 140.62 26.3094C139.398 26.4104 139.005 27.2515 138.635 28.1936C136.56 33.4647 135.181 38.9489 134.171 44.4891C133.263 49.4574 130.953 53.607 128.093 57.5884C127.88 57.88 127.498 58.0482 127.072 58.3622C126.209 55.2893 125.738 52.4182 126.31 49.4238C126.624 47.764 126.837 46.0817 127.05 44.3994C127.263 42.7284 126.747 42.0442 125.11 41.7751C124.695 41.7078 124.257 41.7639 123.842 41.6741C123.416 41.5844 122.923 41.4835 122.609 41.2255C121.274 40.1377 120.231 40.2274 119.39 41.7639C118.616 43.177 117.954 44.6686 117.36 46.1714C115.857 49.9621 113.536 53.2257 110.945 56.3099C110.44 56.9155 109.756 57.3641 109.094 57.9249C107.827 55.8837 107.177 53.9323 107.457 51.8575C107.715 49.9173 108.253 48.0219 108.735 46.1153C109.061 44.848 109.947 43.7041 109.577 42.3022C107.782 41.7751 107.513 41.7863 106.84 43.2106C106.066 44.8592 105.449 46.5976 104.855 48.3247C103.7 51.7005 101.58 54.3248 98.7428 56.5566C98.3391 56.3099 97.9353 56.1417 97.655 55.8613C95.4568 53.6407 94.9185 48.6836 96.5783 45.9807C100.066 40.3059 102.892 34.3282 104.53 27.8459C104.81 26.758 105.023 25.6253 105.068 24.515C105.135 22.9673 104.306 22.2608 102.803 22.6982C102.006 22.9225 101.165 23.5729 100.717 24.2683C99.6849 25.8608 98.7877 27.5543 98.0138 29.2927C95.1428 35.7526 92.7203 42.3583 92.025 49.4799C91.9801 49.9621 91.9465 50.5341 91.6661 50.893C90.1745 52.8556 88.638 54.7846 87.0679 56.68C86.5408 57.3192 85.8454 57.1398 85.4641 56.5342C85.0379 55.8388 84.5781 55.0314 84.5445 54.2575C84.4884 53.0126 84.6791 51.7341 84.9258 50.5004C85.3407 48.4256 85.9576 46.3957 86.3277 44.3209C86.6417 42.5826 85.8006 41.9209 84.1407 42.5265C83.4903 42.762 82.9183 43.2106 82.3127 43.5695C81.808 43.8723 81.3033 44.1975 80.4958 44.7134C80.7313 43.8611 80.8435 43.3901 81.0005 42.9415C82.6155 38.276 84.2417 33.6217 85.8454 28.9562C86.1819 27.9581 86.5071 26.9375 86.6417 25.8945C86.7987 24.7505 85.9464 24.1225 84.9146 24.6384C84.3763 24.9075 83.894 25.5692 83.6697 26.1636C81.0229 33.2292 78.4435 40.3059 75.8079 47.3826C74.3275 51.3528 72.791 55.3005 70.2228 58.7211C69.6396 59.495 68.933 60.2352 68.1255 60.7623C66.5554 61.7941 65.2096 61.1212 64.9292 59.2595C64.8171 58.4968 64.7274 57.7006 64.8507 56.9379C66.8694 43.9508 68.1143 41.5396 68.4396 32.9039L74.5742 32.7918C75.5948 32.8254 76.6266 32.8591 77.7257 32.8591H77.6584C77.8603 32.8591 78.107 32.8703 78.4098 32.6684C78.7463 32.4553 78.9033 31.9506 78.9033 31.6703C78.9257 31.3899 78.836 30.7058 78.6229 30.4254C78.421 30.145 76.2116 30.1562 76.2116 30.1562C76.2116 30.1562 69.976 29.9656 68.4844 29.9656C67.0825 29.573 68.7984 25.1206 68.3723 19.0532C68.2713 17.685 68.0582 15.8121 66.69 15.8233C65.4227 15.8233 64.9629 17.4831 64.8844 18.7504C64.5928 23.4496 64.5703 27.1057 64.5031 30.3805C63.146 30.4366 61.5983 30.5263 60.5778 30.5824L55.7777 30.8852C54.1739 30.9413 52.5702 31.188 50.9664 31.3899L48.5776 31.7263L47.3888 31.9058C46.9963 31.9394 46.5252 32.0067 46.1103 32.2647C45.9196 32.3432 45.7177 32.4665 45.5495 32.6796C45.3701 32.8927 45.2691 33.2067 45.2579 33.4871V33.532V33.5768C45.2916 33.8123 45.3925 34.0591 45.5383 34.2273C45.6841 34.3731 45.8523 34.4853 46.0542 34.6198C47.3664 34.8441 48.5215 34.8554 49.7776 35.046C49.7776 35.046 53.4449 35.517 53.4562 35.517C55.531 35.7862 57.6506 36.2236 59.5235 37.2217C60.9815 37.9956 63.7741 40.0928 63.3815 42.0667C62.8096 44.8592 61.4638 47.4163 60.0843 49.8948C58.66 52.4407 57.3029 55.1996 55.3403 57.4538C54.4094 58.5305 50.787 62.3324 49.8898 59.3492C49.6206 58.452 49.5982 57.566 50.1253 56.6912C50.9552 55.3005 51.8075 53.9098 52.4917 52.4519C53.3552 50.6238 52.9403 49.7715 51.0898 48.9864C50.4056 48.6948 49.7327 48.3471 49.1271 48.0668C49.329 46.6761 49.5309 45.5097 49.6655 44.3209C49.8 43.1097 49.2056 42.1564 48.1514 41.8087C47.1869 41.4947 46.0654 41.4386 45.056 41.5732C43.7551 41.7414 43.4186 42.3358 43.5532 43.6368C43.7439 45.4312 44.3719 47.1135 45.5046 48.4929C46.4579 49.6593 46.357 50.6014 45.5607 51.7005C45.1458 52.2724 44.8093 52.8893 44.4168 53.4725C43.127 55.4015 41.3775 56.5342 39.0335 56.7809C37.284 56.9604 36.6335 56.5678 36.555 54.8631C36.5213 54.1902 36.7008 53.4725 36.9251 52.8108C37.3849 51.4874 38.0242 50.2201 38.4279 48.8743C38.8316 47.5621 39.0447 46.1826 39.3475 44.8144C37.6765 44.6013 37.5868 44.6574 36.1288 45.42C35.5344 45.7228 34.8615 46.0368 34.2222 46.0368C29.4895 46.0705 24.9585 49.5472 23.7585 54.1229C23.5903 54.7846 23.3324 55.5024 22.8837 55.9846C19.8444 59.2146 16.8164 62.4782 13.6201 65.5511C12.1621 66.953 10.3677 68.0185 8.65176 69.1175C8.03493 69.5213 7.20501 69.7232 6.4536 69.768C5.01806 69.8465 4.21057 68.8708 4.54702 67.4689C4.79376 66.4483 5.20872 65.4614 5.65732 64.5081C8.58447 58.2837 12.9584 53.1248 17.6911 48.2462C20.6407 45.2069 23.7025 42.2798 26.753 39.3526C27.8184 38.332 28.4801 37.1096 28.7941 35.7301C28.9175 35.1806 28.8614 34.2834 28.5137 34.003C28.0651 33.6441 27.1791 33.5208 26.6072 33.689C25.766 33.9469 24.9473 34.4628 24.2744 35.046C23.0632 36.1114 21.9978 37.3563 20.809 38.4554C18.0052 41.0349 15.2014 43.6031 12.3303 46.1041C11.3546 46.9565 10.2443 47.7415 8.52839 47.8873C8.53961 47.0798 8.44989 46.4069 8.57325 45.7677C9.30224 42.0555 11.377 39.0274 13.6313 36.1227C14.0014 35.6516 14.3603 35.203 14.7191 34.7768C18.6781 29.988 22.4239 26.7468 27.2016 22.7879C28.8614 21.4084 32.7306 18.9523 31.8558 18.1785C31.7998 18.1448 31.7325 18.1336 31.6428 18.1336C31.2614 17.8644 26.1361 20.1075 23.9492 21.9692C13.4406 30.9188 10.5471 35.2591 9.9415 35.9993C7.74333 38.7246 6.18443 41.7863 5.119 45.106C4.42366 47.2929 4.70404 49.278 6.28537 51.0163C6.70033 51.4762 7.08164 51.9696 7.51903 52.4967C6.7564 53.607 6.03864 54.6388 5.32087 55.6818C3.2685 58.6538 1.63109 61.8501 0.509581 65.2932C-0.331553 67.8727 -0.241832 70.2615 1.61988 72.426C2.97691 74.0073 4.26665 74.4447 6.3078 73.8615C8.73026 73.1662 10.8163 71.8877 12.7677 70.34C16.5808 67.3231 19.7099 63.7343 22.065 59.4838C22.5249 58.6426 23.1417 57.8912 23.7361 57.0052C24.1286 57.3753 24.3754 57.5211 24.5099 57.7454C26.3604 60.7847 28.6483 60.6277 31.3399 59.0352C31.9231 58.6875 32.4839 58.3062 33.1232 57.9024C34.368 59.5959 35.3774 61.267 37.5195 61.8501C41.5121 59.0015 44.6635 55.2557 47.3327 50.9603C47.9944 51.2967 48.4654 51.5322 49.1159 51.8687C48.5103 52.8893 47.9608 53.7753 47.4449 54.6837C46.3121 56.6912 46.0766 58.7996 46.7159 61.009C47.7701 64.6203 51.0337 62.8819 53.4001 61.9062C57.8861 60.0669 61.3067 59.5062 62.0918 61.8053C62.9442 64.2838 66.9592 64.4184 69.6732 62.624C70.6938 61.9399 72.2527 60.2127 72.9593 59.2482C74.4172 57.2744 75.6509 55.1323 76.806 52.9678C77.7593 51.1846 78.9706 49.6705 80.6304 48.5378C81.8192 47.7303 82.5033 48.0892 82.4697 49.5472C82.436 50.8145 82.2005 52.0706 82.0211 53.3267C81.8192 54.6837 81.9089 55.9846 82.4697 57.2632C83.4005 59.4165 84.7015 59.8202 86.5968 58.4071C87.4941 57.7342 88.2791 56.9043 89.0642 56.0968C89.9838 55.1547 90.8586 54.1678 91.8792 53.0687C92.3951 54.5379 92.7427 55.8164 93.2923 56.994C93.8755 58.2501 94.5372 59.5174 95.9727 60.123C99.1354 58.6314 101.378 56.0856 103.913 53.3939C104.171 54.3136 104.283 54.8968 104.496 55.4575C104.956 56.7024 105.304 58.0482 105.999 59.1473C106.896 60.5716 108.455 60.4034 109.577 59.1697C110.709 57.9136 112.055 56.8482 113.233 55.7603C113.603 57.0501 113.794 58.2389 114.276 59.3043C114.926 60.7735 115.857 60.7959 116.709 59.4613C117.192 58.6987 117.551 57.8351 117.932 57.0164C118.762 55.2332 119.558 53.4276 120.422 51.6444C120.635 51.1958 121.038 50.8481 121.364 50.4556C121.7 51.4762 121.689 52.3734 121.655 53.2594C121.577 55.2893 122.025 57.2295 123.001 58.9566C124.448 61.5137 125.883 61.424 127.274 59.7866C128.687 58.1267 129.999 56.3884 131.368 54.6837C131.682 54.3024 132.007 53.9323 132.512 53.3491C132.545 54.5827 132.601 55.6145 132.713 56.4781C132.747 56.7697 132.792 57.0389 132.837 57.2968C132.882 57.5323 132.927 57.7566 132.983 57.9697C133.039 58.194 133.095 58.4071 133.162 58.5978C133.162 58.609 133.162 58.6202 133.173 58.6426C133.577 59.809 133.992 63.9922 134.923 64.4633C135.338 63.3754 135.955 58.766 136.381 57.6445C139.667 59.4165 141.416 59.7641 145.51 59.5174C150.456 59.2258 155.256 58.0707 160.045 56.9155C160.359 56.837 160.639 56.6575 161.346 56.3435C160.617 56.1865 160.314 56.0631 160.011 56.0631M101.704 29.3824C101.132 32.9936 99.8083 36.347 97.9914 39.5096C98.6643 35.9208 99.8756 32.5338 101.704 29.3824ZM28.6371 55.9846C28.3119 56.1977 27.5268 56.0071 27.1567 55.7267C26.8875 55.5248 26.7417 54.7622 26.91 54.437C28.3231 51.7229 30.3979 49.8051 33.8185 49.0313C33.3138 52.6537 31.0932 54.437 28.6371 55.9846ZM47.5458 46.4854C46.9963 45.5434 46.5701 44.8032 46.1439 44.0742C46.828 43.1882 47.4785 43.4349 47.9495 44.0181C48.5439 44.7471 48.4318 45.5097 47.5458 46.4854ZM59.288 34.4067C57.8413 33.9021 54.0954 33.5993 52.6375 33.3077C53.916 33.1507 57.4936 32.9824 58.7833 32.8591L62.0582 32.5787C62.7984 32.5226 63.6731 32.5563 64.4806 32.5563C64.4358 33.8011 64.3685 35.0011 64.2675 36.2124C62.8769 35.0797 60.8918 34.9787 59.2992 34.3955" fill="#1F1F1F"/>
<path d="M111.068 80.0627C110.676 80.3879 110.227 80.6346 109.7 80.8029C109.184 80.9711 108.657 81.0608 108.141 81.0608C107.737 81.0608 107.367 81.0047 107.064 80.8926C106.75 80.7804 106.493 80.6234 106.291 80.4328C106.078 80.2421 105.921 80.0178 105.82 79.7711C105.719 79.5243 105.663 79.2664 105.663 79.0084C105.663 78.672 105.719 78.3692 105.831 78.1C105.943 77.8309 106.1 77.5953 106.302 77.371C106.504 77.158 106.75 76.9561 107.042 76.7654C107.334 76.586 107.648 76.3953 108.007 76.2159C107.726 75.8234 107.502 75.4645 107.322 75.128C107.143 74.7916 107.053 74.4439 107.053 74.0738C107.053 73.7037 107.121 73.3672 107.266 73.1093C107.412 72.8513 107.592 72.627 107.816 72.4588C108.04 72.2906 108.298 72.1672 108.59 72.0887C108.881 72.0102 109.162 71.9766 109.453 71.9766C109.756 71.9766 110.036 72.0102 110.294 72.0775C110.552 72.1448 110.777 72.2457 110.967 72.3803C111.158 72.5149 111.304 72.6719 111.416 72.8738C111.517 73.0756 111.573 73.3 111.573 73.5691C111.573 73.9953 111.438 74.3766 111.169 74.7243C110.9 75.0719 110.474 75.4196 109.902 75.7897C110.227 76.2383 110.564 76.6533 110.911 77.0682C111.259 77.4832 111.607 77.8869 111.965 78.3019C112.19 78.0327 112.437 77.6851 112.706 77.2701C112.975 76.8551 113.244 76.3505 113.513 75.7785C113.637 75.9131 113.76 76.0477 113.872 76.1822C113.984 76.3056 114.108 76.429 114.231 76.5411C113.939 76.9897 113.648 77.3823 113.345 77.7411C113.042 78.1 112.728 78.4589 112.414 78.829C112.549 78.9972 112.706 79.1655 112.874 79.3561C113.042 79.5356 113.21 79.7262 113.379 79.9057C113.547 80.0963 113.715 80.2758 113.883 80.444C114.052 80.6122 114.209 80.7692 114.354 80.8926C114.029 80.8926 113.749 80.8814 113.491 80.8702C113.244 80.8702 112.986 80.8702 112.751 80.8702C112.571 80.8702 112.403 80.8702 112.223 80.8702C112.044 80.8702 111.865 80.8702 111.685 80.8926L111.057 80.0739L111.068 80.0627ZM107.412 78.3019C107.412 78.515 107.457 78.7393 107.536 78.9524C107.614 79.1655 107.737 79.3561 107.906 79.5356C108.074 79.715 108.276 79.8496 108.511 79.9617C108.747 80.0739 109.016 80.13 109.308 80.13C109.565 80.13 109.823 80.0851 110.07 79.9954C110.317 79.9057 110.53 79.7823 110.698 79.6253C110.306 79.143 109.913 78.672 109.532 78.201C109.139 77.7299 108.758 77.2365 108.388 76.743C108.085 76.9673 107.838 77.2028 107.67 77.4495C107.491 77.6963 107.412 77.9879 107.412 78.3243V78.3019ZM108.747 73.513C108.747 73.7822 108.825 74.0738 108.993 74.399C109.151 74.7131 109.341 75.0271 109.565 75.3299C109.666 75.2514 109.779 75.1504 109.902 75.0271C110.025 74.9037 110.137 74.7691 110.238 74.6121C110.339 74.4551 110.429 74.2869 110.496 74.1074C110.564 73.928 110.597 73.7373 110.597 73.5355C110.597 73.2439 110.496 73.0196 110.306 72.8401C110.115 72.6607 109.902 72.5822 109.666 72.5822C109.408 72.5822 109.195 72.6607 109.016 72.8289C108.836 72.9859 108.747 73.2214 108.747 73.5243V73.513Z" fill="#1F1F1F"/>
<path d="M125.389 79.7482C125.322 79.9837 125.277 80.208 125.255 80.4435C124.38 80.8921 123.27 81.1164 121.935 81.1164C120.993 81.1164 120.152 80.9819 119.401 80.7127C118.66 80.4435 118.032 80.0734 117.516 79.5912C117 79.1089 116.608 78.537 116.339 77.8753C116.07 77.2136 115.935 76.4958 115.935 75.722C115.935 74.5892 116.115 73.636 116.462 72.8509C116.81 72.0658 117.281 71.4266 117.875 70.9331C118.47 70.4396 119.154 70.0808 119.939 69.8452C120.724 69.6209 121.543 69.5088 122.395 69.5088C122.675 69.5088 122.978 69.5312 123.292 69.5761C123.606 69.6209 123.909 69.677 124.201 69.7443C124.492 69.8116 124.773 69.9013 125.042 69.991C125.311 70.0808 125.535 70.1929 125.715 70.3051C125.602 70.5742 125.524 70.8546 125.468 71.1238C125.412 71.4041 125.367 71.6845 125.345 71.9649H125.12C124.705 71.449 124.29 71.0677 123.853 70.8546C123.416 70.6303 122.911 70.5182 122.328 70.5182C121.89 70.5182 121.453 70.6191 121.016 70.8097C120.578 71.0004 120.174 71.3032 119.815 71.707C119.457 72.1107 119.165 72.6266 118.941 73.2434C118.716 73.8715 118.604 74.6117 118.604 75.4864C118.604 76.3612 118.716 77.0341 118.941 77.6285C119.165 78.2229 119.468 78.7052 119.827 79.0753C120.186 79.4454 120.601 79.7258 121.06 79.894C121.52 80.0734 121.98 80.1519 122.451 80.1519C122.709 80.1519 122.978 80.1183 123.247 80.0622C123.516 80.0061 123.786 79.9164 124.044 79.8155C124.302 79.7146 124.548 79.58 124.784 79.4342C125.019 79.2772 125.221 79.1089 125.389 78.9295L125.602 79.0641C125.513 79.2884 125.434 79.5239 125.378 79.7594L125.389 79.7482Z" fill="#1F1F1F"/>
<path d="M126.433 77.202C126.433 76.4731 126.545 75.845 126.769 75.2955C126.993 74.7572 127.285 74.2973 127.655 73.9384C128.025 73.5796 128.451 73.2992 128.934 73.1197C129.416 72.9403 129.909 72.8506 130.425 72.8506C131.693 72.8506 132.679 73.2095 133.375 73.9272C134.07 74.645 134.418 75.6207 134.418 76.8432C134.418 77.5049 134.317 78.0993 134.126 78.6376C133.936 79.1759 133.655 79.6245 133.307 79.9946C132.96 80.3647 132.534 80.6451 132.051 80.8357C131.558 81.0152 131.031 81.1161 130.436 81.1161C129.943 81.1161 129.472 81.0488 129.001 80.9255C128.53 80.7909 128.104 80.5778 127.722 80.2638C127.341 79.9498 127.038 79.546 126.803 79.0525C126.567 78.5479 126.455 77.9422 126.455 77.2133L126.433 77.202ZM131.995 76.5964C131.995 75.6431 131.872 74.903 131.636 74.3758C131.401 73.8487 130.997 73.5908 130.448 73.5908C129.943 73.5908 129.55 73.8824 129.27 74.4656C128.978 75.0487 128.844 75.9684 128.844 77.2133C128.844 77.6731 128.866 78.088 128.922 78.4806C128.978 78.8731 129.068 79.2096 129.192 79.5012C129.315 79.7927 129.483 80.017 129.685 80.1741C129.887 80.3423 130.134 80.4208 130.436 80.4208C131.479 80.4208 131.995 79.1423 131.995 76.5964Z" fill="#1F1F1F"/>
<path d="M135.875 79.8278C135.875 79.4577 136.01 79.1436 136.268 78.8857C136.526 78.6277 136.84 78.4932 137.21 78.4932C137.58 78.4932 137.894 78.6277 138.152 78.8857C138.41 79.1436 138.545 79.4577 138.545 79.8278C138.545 80.1979 138.41 80.5007 138.152 80.7474C137.894 80.9941 137.58 81.1175 137.21 81.1175C136.84 81.1175 136.526 80.9941 136.268 80.7474C136.01 80.5007 135.875 80.1979 135.875 79.8278Z" fill="#1F1F1F"/>
</svg>
