<svg width="179" height="179" viewBox="0 0 179 179" fill="none" xmlns="http://www.w3.org/2000/svg">
<path d="M68.6857 74.9295C65.3214 77.0738 62.0463 79.1041 58.8413 81.2397C57.171 82.3528 55.5706 83.5877 54.0343 84.8812C51.7261 86.8245 49.13 87.9468 46.1079 88.0399C45.1306 88.07 44.3397 87.8544 44.2735 86.6328C44.2101 85.4619 44.8641 84.9983 45.8836 84.9711C48.8649 84.8913 50.9627 83.1787 53.2662 81.5135C58.0618 78.0468 63.0846 74.8841 68.1115 71.753C70.0039 70.5742 72.4882 71.3921 73.7881 73.2123C75.0702 75.0075 74.9103 77.4632 73.2892 79.0715C72.3303 80.0228 71.2239 80.8254 69.8434 81.9795C71.7556 81.9795 73.3115 81.9795 74.8675 81.9795C77.8932 81.9795 80.9189 81.9789 83.9446 81.9796C88.2871 81.9807 89.8438 83.5079 89.8747 87.9167C92.2649 88.2993 94.0867 89.4868 94.4171 92.0866C94.7286 94.5376 93.3448 96.0883 91.296 97.089C91.5432 101.111 90.5898 102.44 86.7561 103.504C87.025 107.635 85.3696 109.401 81.21 109.403C75.2772 109.407 69.3371 109.579 63.4149 109.329C60.5743 109.209 57.7703 108.272 54.945 107.73C52.5762 107.276 50.2041 106.835 47.8252 106.438C47.1893 106.332 46.5186 106.454 45.8716 106.391C44.8763 106.295 44.0013 105.826 44.3457 104.721C44.5306 104.128 45.4057 103.296 45.9149 103.333C48.7879 103.539 51.786 103.547 54.4723 104.436C58.2475 105.686 61.9744 106.442 65.9464 106.349C70.9272 106.232 75.9128 106.322 80.8963 106.32C81.3706 106.319 81.9547 106.472 82.2945 106.253C82.8613 105.889 83.6395 105.282 83.6411 104.776C83.6425 104.3 82.7732 103.439 82.2511 103.41C79.4703 103.259 76.6747 103.395 73.8916 103.269C72.5144 103.207 70.2027 104.094 70.1973 101.799C70.1917 99.3732 72.5712 100.262 73.999 100.222C77.7927 100.118 81.5912 100.187 85.3877 100.186C85.803 100.186 86.3135 100.336 86.6137 100.149C87.2315 99.7647 87.7369 99.1996 88.2886 98.7088C87.7286 98.234 87.1845 97.3717 86.6062 97.348C83.1707 97.2077 79.7272 97.2603 76.2864 97.2506C74.9812 97.2469 73.676 97.2448 72.3708 97.2513C71.2088 97.257 70.0906 97.0408 70.1238 95.6127C70.1545 94.2889 71.2285 94.1277 72.3245 94.1296C77.6635 94.1388 83.0027 94.1473 88.3415 94.114C89.5067 94.1067 91.1875 94.5758 91.2552 92.7203C91.3288 90.7018 89.5632 91.1395 88.346 91.1309C83.0677 91.094 77.7889 91.1095 72.5104 91.1195C71.3859 91.1216 70.1606 91.0835 70.1228 89.6487C70.082 88.102 71.3281 88.0184 72.5376 88.0243C76.5124 88.0435 80.4875 88.0223 84.4624 88.0372C85.6113 88.0415 86.7382 87.958 86.7137 86.4613C86.69 85.0187 85.5327 85.0629 84.5005 85.065C78.2716 85.0777 72.0427 85.099 65.8138 85.1033C65.1057 85.1038 64.3125 85.1974 63.7149 84.9161C63.1831 84.6657 62.5338 83.9434 62.5508 83.4506C62.568 82.9539 63.2649 82.189 63.797 82.0498C66.9557 81.2235 68.7479 78.5474 71.1576 76.7262C71.4526 76.5033 71.3407 75.0759 71.1794 75.0292C70.4336 74.8133 69.6037 74.8883 68.6857 74.9295Z" fill="#1C1C1C"/>
<path d="M134.478 23.9206C130.546 24.2102 126.928 23.6437 123.346 22.3218C121.277 21.5584 118.99 21.1019 116.787 21.0417C110.621 20.873 104.449 20.9824 98.2791 20.9821C98.2198 20.9821 98.1604 20.9842 98.1011 20.9827C97.0642 20.9563 96.091 21.1528 96.0897 22.4217C96.0885 23.6144 96.9415 23.9843 98.0354 23.9821C101.12 23.9758 104.205 24.0149 107.289 23.9923C108.44 23.9839 109.634 24.0701 109.658 25.4779C109.683 26.994 108.416 27.119 107.219 27.1179C102.71 27.1139 98.2021 27.1202 93.6938 27.1138C92.6333 27.1123 91.5524 27.1238 91.5385 28.568C91.5245 30.0306 92.6363 30.0371 93.6777 30.0396C97.949 30.0497 102.22 30.0506 106.492 30.055C106.907 30.0554 107.322 30.0478 107.737 30.0587C108.809 30.087 109.706 30.5106 109.67 31.6719C109.634 32.8314 108.719 33.1748 107.641 33.1733C102.303 33.1659 96.9637 33.1517 91.6253 33.1992C90.3773 33.2104 88.4756 32.6083 88.5013 34.7176C88.5247 36.636 90.3357 36.1655 91.5513 36.1752C96.5919 36.2153 101.633 36.1919 106.674 36.1922C107.089 36.1922 107.605 36.0388 107.899 36.2285C108.562 36.6563 109.114 37.2545 109.712 37.7833C109.086 38.2786 108.482 39.1653 107.83 39.2016C104.991 39.3597 102.139 39.2706 99.291 39.2711C98.0452 39.2713 96.7994 39.267 95.5536 39.2723C94.4265 39.2772 93.0707 39.1041 93.0558 40.7545C93.0407 42.4414 94.4337 42.2366 95.5398 42.235C101.768 42.2264 107.996 42.1957 114.224 42.1795C114.698 42.1783 115.268 42.0743 115.623 42.2938C116.246 42.6782 116.736 43.2764 117.281 43.7851C116.748 44.2966 116.256 44.8644 115.666 45.2984C115.316 45.5557 114.73 45.4967 114.39 45.7605C112.563 47.1786 110.714 48.5825 109.027 50.1563C108.581 50.5726 108.679 51.5727 108.528 52.3047C109.271 52.3912 110.241 52.825 110.724 52.5107C115.781 49.2157 120.82 45.8858 125.734 42.3828C128.118 40.6829 130.553 39.3864 133.511 39.2664C134.445 39.2285 135.326 39.322 135.457 40.5538C135.591 41.8157 134.861 42.3037 133.779 42.3359C130.858 42.4229 128.813 44.1217 126.558 45.7381C121.702 49.2189 116.644 52.4293 111.565 55.583C109.697 56.7428 107.163 55.8461 105.921 54.0145C104.653 52.1468 104.944 49.5933 106.666 48.0321C107.607 47.178 108.633 46.4161 109.977 45.3231C104.965 45.3231 100.423 45.3236 95.8817 45.323C91.3467 45.3224 89.9309 43.9464 89.8445 39.3548C87.3987 38.998 85.6407 37.7198 85.3418 35.1286C85.0693 32.7666 86.433 31.2445 88.412 30.2502C88.3912 25.9519 89.1472 24.8896 92.7353 23.8727C93.0567 22.5266 93.1412 21.1835 93.6985 20.0789C94.4693 18.5511 95.9527 17.8937 97.6983 17.8973C104.402 17.9111 111.107 17.835 117.808 17.9662C119.668 18.0027 121.633 18.3569 123.346 19.0606C126.654 20.4193 130 21.0906 133.563 20.9279C134.152 20.901 135.213 21.3846 135.272 21.757C135.377 22.4131 134.877 23.1653 134.478 23.9206Z" fill="#1C1C1C"/>
<path d="M50.2849 45.4774C50.42 44.2077 51.1665 43.5958 52.1064 43.991C52.6543 44.2214 53.1812 45.2204 53.1955 45.8847C53.2907 50.3273 53.2363 54.773 53.2556 59.2175C53.2584 59.8606 53.2426 60.5823 53.5202 61.1207C53.7413 61.5493 54.4053 62.0022 54.8572 61.9868C55.2916 61.972 55.8845 61.4499 56.0843 61.0053C56.3369 60.4432 56.3169 59.7343 56.3198 59.0883C56.3377 55.1144 56.3288 51.1405 56.329 47.1666C56.3291 46.7514 56.3283 46.3362 56.331 45.9211C56.3375 44.8887 56.5637 43.9492 57.8113 43.8991C59.1995 43.8433 59.4317 44.8908 59.449 45.9561C59.4857 48.2093 59.4621 50.4636 59.4624 52.7174C59.4629 56.0378 59.465 59.3582 59.4614 62.6786C59.4603 63.7664 59.3704 65.055 60.8737 65.0613C62.4326 65.0677 62.445 63.7804 62.4421 62.5942C62.4296 57.3155 62.4366 52.0367 62.4371 46.758C62.4371 46.3428 62.287 45.8278 62.4768 45.5333C62.8717 44.9208 63.4478 44.4252 63.9495 43.8815C64.4649 44.4174 65.0756 44.8943 65.4583 45.5124C65.6723 45.858 65.5121 46.4379 65.5139 46.9122C65.5284 50.767 65.533 54.6219 65.5604 58.4766C65.5679 59.5283 65.6816 60.6594 67.1026 60.562C68.4371 60.4706 68.5216 59.3912 68.5186 58.3125C68.5014 52.1442 68.5028 45.9758 68.5002 39.8074C68.4999 39.1551 68.3366 38.4285 68.5698 37.8705C68.8278 37.2535 69.4173 36.4194 69.9324 36.367C70.4335 36.3159 71.3699 37.0413 71.5166 37.5868C72.3651 40.7413 75.0081 42.5586 76.8437 44.9632C77.0572 45.2429 78.0817 45.2698 78.4023 45.0097C78.8103 44.6788 79.0252 43.9425 79.0532 43.3678C79.0727 42.9685 78.6663 42.527 78.4004 42.1385C74.9249 37.0624 71.4619 31.9775 67.9483 26.9279C66.4857 24.8258 65.6381 22.5533 65.5202 19.992C65.47 18.9009 65.7971 17.9086 66.9412 18.0174C67.5229 18.0728 68.4042 19.0565 68.4747 19.695C68.7676 22.3477 70.0313 24.3985 71.5597 26.5273C75.1123 31.4754 78.4406 36.5909 81.7006 41.7393C82.9642 43.7349 82.1888 46.2216 80.3059 47.5563C78.373 48.9263 75.8627 48.6338 74.2021 46.798C73.4176 45.9307 72.7079 44.9957 71.6348 43.6907C71.6348 46.0568 71.6349 47.969 71.6348 49.8813C71.6348 52.669 71.6481 55.4567 71.6315 58.2443C71.6085 62.0982 69.6375 63.887 65.6788 63.5482C65.1925 65.9253 64.1438 67.8879 61.3708 68.1518C58.9717 68.38 57.4656 67.1062 56.4908 65.1058C52.4203 65.3093 51.1746 64.42 50.0423 60.5031C49.6531 60.5384 49.2508 60.5962 48.8472 60.6079C46.3084 60.6818 44.2925 58.7651 44.2866 56.2102C44.2701 49.0335 44.2128 41.8556 44.3319 34.6809C44.3597 33.0074 44.817 31.2627 45.4386 29.6941C46.6383 26.6666 47.3471 23.6028 47.166 20.3408C47.0997 19.1474 47.2178 17.8936 48.8004 17.9553C50.2426 18.0115 50.2569 19.2266 50.2902 20.3409C50.3926 23.7651 49.6823 27.0069 48.5704 30.2495C47.7967 32.5061 47.3088 34.9559 47.2308 37.337C47.0426 43.0841 47.1689 48.8415 47.1709 54.5948C47.1711 55.0688 47.0192 55.6536 47.2386 55.992C47.6066 56.5597 48.1615 57.2259 48.7454 57.352C49.0981 57.4282 49.796 56.6377 50.0766 56.0998C50.3291 55.6157 50.2663 54.9453 50.2697 54.3566C50.2861 51.4505 50.2783 48.5443 50.2849 45.4774Z" fill="#1C1C1C"/>
<path d="M132.564 71.5174C132.016 70.8616 131.473 70.3634 130.93 69.8653C130.501 70.4621 129.732 71.0413 129.699 71.6588C129.551 74.4986 129.61 77.3492 129.591 80.1959C129.588 80.7293 129.75 81.3631 129.519 81.7727C129.165 82.4031 128.601 83.2374 128.011 83.3435C126.943 83.5354 126.514 82.662 126.515 81.6233C126.522 77.1152 126.523 72.607 126.512 68.099C126.51 67.5111 126.596 66.8288 126.334 66.3617C126.064 65.8786 125.419 65.3189 124.94 65.3215C124.487 65.3239 123.846 65.9286 123.633 66.4185C123.365 67.037 123.389 67.8072 123.386 68.5124C123.367 72.7832 123.37 77.0542 123.381 81.325C123.384 82.3413 123.299 83.3374 122.012 83.3953C120.638 83.4571 120.407 82.4691 120.408 81.3521C120.413 76.1356 120.408 70.9192 120.407 65.7027C120.407 65.2282 120.407 64.7536 120.409 64.2791C120.414 63.227 120.102 62.2711 118.92 62.2355C117.604 62.1958 117.322 63.2048 117.323 64.3261C117.328 69.2483 117.325 74.1705 117.324 79.0928C117.324 79.8046 117.321 80.5164 117.324 81.2282C117.329 82.2964 117.237 83.3679 115.843 83.3958C114.421 83.4243 114.347 82.3701 114.352 81.2833C114.368 77.665 114.36 74.0465 114.356 70.4282C114.356 69.8949 114.385 69.3532 114.304 68.8303C114.15 67.842 114.089 66.6368 112.672 66.7363C111.349 66.829 111.218 67.8852 111.222 68.973C111.236 72.8286 111.227 76.6842 111.227 80.5399C111.227 83.3278 111.213 86.1159 111.234 88.9037C111.242 89.9436 111.065 90.8869 109.85 91.0143C108.603 91.145 108.281 90.2388 108.132 89.206C108.075 88.8103 107.958 88.3666 107.719 88.0629C106.288 86.2472 104.885 84.3994 103.305 82.7196C102.905 82.2949 101.897 82.4434 101.168 82.3286C101.08 83.019 100.665 83.9221 100.954 84.3672C104.244 89.4281 107.535 94.4952 111.057 99.3949C112.696 101.674 113.942 103.989 114.262 106.775C114.289 107.01 114.373 107.315 114.265 107.475C113.819 108.135 113.308 108.752 112.822 109.384C112.286 108.799 111.338 108.249 111.285 107.622C111.05 104.876 109.665 102.828 108.107 100.657C104.555 95.7078 101.242 90.58 97.9929 85.4234C96.8043 83.5371 97.6286 81.0673 99.4532 79.7585C101.312 78.4251 103.785 78.6445 105.441 80.3649C106.253 81.2083 106.952 82.1597 107.974 83.3884C108.053 82.529 108.135 82.0487 108.136 81.5682C108.146 77.4753 108.134 73.3823 108.144 69.2894C108.155 65.1943 110.029 63.458 114.214 63.7486C114.493 61.3975 115.555 59.5891 118.096 59.1953C120.618 58.8046 122.299 60.022 123.274 62.2652C127.057 61.8584 128.569 62.881 129.711 66.6851C130.18 66.6851 130.696 66.6654 131.21 66.6884C133.647 66.7974 135.441 68.5781 135.449 71.0261C135.473 78.2627 135.522 85.5008 135.39 92.7352C135.358 94.4657 134.872 96.267 134.227 97.8898C133.068 100.808 132.419 103.763 132.572 106.899C132.629 108.069 132.613 109.382 131.019 109.347C129.452 109.313 129.519 107.974 129.485 106.825C129.385 103.461 130.085 100.276 131.195 97.0932C131.961 94.8967 132.443 92.5019 132.51 90.1802C132.686 84.0163 132.569 77.844 132.564 71.5174Z" fill="#1C1C1C"/>
<path d="M92.8243 54.3037C95.3443 52.6442 97.8256 52.4748 100.257 54.0849C102.956 55.8723 103.891 58.5699 103.547 61.6581C103.165 65.0948 101.407 67.9865 99.0115 70.3255C96.5691 72.7104 93.8054 74.7765 91.0916 76.8642C90.6135 77.2319 89.511 77.3261 88.9989 77.028C83.8875 74.0516 79.5392 70.2682 77.0668 64.7369C75.7325 61.7518 75.6982 58.7298 77.6116 55.9364C80.1129 52.2848 84.8911 51.9905 88.0527 55.2408C88.6643 55.8695 89.2066 56.5657 89.595 57.0156C90.6652 56.1113 91.6905 55.2451 92.8243 54.3037ZM99.7076 57.8045C97.6541 55.5061 95.7236 55.3906 93.7356 57.6672C92.8235 58.7118 92.3321 60.1127 91.5187 61.259C91.088 61.8659 90.4149 62.5861 89.7784 62.6645C89.3316 62.7196 88.6689 61.8428 88.2659 61.2677C87.358 59.9723 86.7405 58.4234 85.6635 57.3068C83.5414 55.1064 80.2991 55.9301 79.6162 58.9144C79.2726 60.4157 79.4136 62.2862 80.0177 63.6978C81.8721 68.0315 85.3102 71.0592 89.1953 73.5789C89.533 73.7978 90.2669 73.7773 90.6139 73.5534C94.4035 71.1091 97.6454 68.1169 99.6803 64.0037C100.644 62.0555 100.951 60.0633 99.7076 57.8045Z" fill="#FF3D3D"/>
<path d="M126.672 127.593C127.679 129.761 128.68 131.774 129.526 133.851C129.756 134.417 129.519 135.172 129.497 135.84C128.667 135.601 127.467 135.622 127.081 135.072C126.11 133.687 125.516 132.039 124.749 130.507C124.556 130.12 124.283 129.772 123.716 129.483C123.716 131.101 123.688 132.72 123.727 134.337C123.749 135.271 123.622 136.005 122.462 136.01C121.428 136.015 120.972 135.496 120.969 134.474C120.951 129.146 120.913 123.818 120.891 118.49C120.887 117.541 121.232 116.886 122.328 116.878C123.511 116.869 123.84 117.522 123.812 118.587C123.772 120.145 123.802 121.705 124.217 123.407C124.997 121.812 125.712 120.181 126.586 118.64C126.965 117.974 127.601 117.374 128.261 116.982C128.579 116.794 129.333 117.031 129.681 117.323C129.882 117.492 129.791 118.207 129.624 118.585C128.764 120.53 127.739 122.407 126.977 124.387C126.617 125.321 126.717 126.432 126.672 127.593Z" fill="#1C1C1C"/>
<path d="M110.194 117.821C110.938 117.45 111.659 117.072 112.362 117.103C112.606 117.114 112.989 118.135 112.995 118.697C113.029 122.195 112.949 125.694 112.967 129.191C112.971 130.128 113.036 131.118 113.354 131.98C113.55 132.512 114.293 133.196 114.763 133.176C115.261 133.155 115.953 132.461 116.152 131.913C116.468 131.048 116.543 130.058 116.544 129.121C116.546 125.683 116.477 122.245 116.432 118.806C116.418 117.791 116.482 116.849 117.872 116.874C119.181 116.897 119.386 117.716 119.352 118.797C119.226 122.886 119.225 126.981 118.992 131.063C118.784 134.724 116.491 136.61 113.486 135.829C111.706 135.366 110.504 134.275 110.446 132.372C110.3 127.575 110.251 122.774 110.194 117.821Z" fill="#1C1C1C"/>
<path d="M97.5918 135.356C93.8703 136.895 91.1322 135.237 91.0034 131.352C90.8619 127.085 90.9132 122.812 90.8581 118.541C90.8443 117.472 91.188 116.817 92.3792 116.88C93.5805 116.944 93.7722 117.699 93.7607 118.715C93.7171 122.569 93.6753 126.424 93.7253 130.277C93.7408 131.468 93.634 133.105 95.3009 133.212C97.1907 133.333 97.1132 131.528 97.1526 130.345C97.2651 126.971 97.1614 123.589 97.1374 120.21C97.1328 119.559 96.9024 118.817 97.1411 118.28C97.3931 117.712 98.0818 116.981 98.5796 116.981C99.0591 116.981 99.9577 117.828 99.9527 118.296C99.9034 122.857 99.8155 127.424 99.4673 131.97C99.3796 133.114 98.3212 134.185 97.5918 135.356Z" fill="#1C1C1C"/>
<path d="M88.1902 144.34C88.4741 145.283 88.6963 146.171 88.7601 147.071C88.8366 148.15 88.7782 149.24 88.7782 150.325C88.9348 150.366 89.0915 150.407 89.2482 150.447C89.9221 149.058 90.5801 147.659 91.2776 146.281C91.5679 145.708 91.8198 144.944 92.31 144.686C92.8954 144.377 93.7175 144.516 94.437 144.462C94.4028 144.997 94.5089 145.593 94.3099 146.057C93.4964 147.956 92.4523 149.768 91.7759 151.71C91.4412 152.67 91.444 153.942 91.7811 154.902C92.4622 156.843 93.5376 158.641 94.3139 160.554C94.5435 161.12 94.3161 161.871 94.2981 162.537C93.4821 162.274 92.3231 162.259 91.9197 161.699C91.0016 160.425 90.4605 158.88 89.7521 157.452C89.575 157.095 89.3446 156.764 88.7614 156.453C88.7614 157.925 88.7403 159.398 88.7689 160.87C88.7876 161.83 88.7505 162.701 87.4602 162.7C86.2478 162.699 86.0346 161.93 86.0334 160.921C86.0273 155.95 86.022 150.979 85.9599 146.009C85.9404 144.453 86.6471 143.994 88.1902 144.34Z" fill="#1C1C1C"/>
<path d="M66.5011 135.825C64.4257 136.076 63.1503 135.021 62.4369 133.431C60.348 128.775 60.3278 124.032 62.3446 119.344C62.9761 117.876 64.1063 116.787 65.8618 116.767C67.6998 116.746 68.8719 117.872 69.524 119.404C71.4945 124.034 71.5076 128.747 69.4252 133.316C68.9524 134.354 67.5857 134.984 66.5011 135.825ZM67.5291 131.676C68.5247 128.136 68.6437 124.569 67.5727 121.046C67.3567 120.336 66.4791 119.826 65.9066 119.224C65.3376 119.83 64.4768 120.342 64.2489 121.056C63.1056 124.641 63.2385 128.277 64.3838 131.84C64.5853 132.467 65.3247 133.288 65.8667 133.328C66.3521 133.364 66.9079 132.446 67.5291 131.676Z" fill="#1C1C1C"/>
<path d="M102.211 159.468C102.811 159.734 103.317 160.074 103.795 160.037C104.383 159.992 104.946 159.633 105.52 159.41C105.211 158.902 105.021 158.218 104.573 157.913C100.885 155.405 98.99 152.193 100.188 147.61C100.82 145.193 102.442 143.823 104.566 144.029C106.663 144.232 107.906 145.667 108.047 148.237C108.115 149.471 108.112 150.749 107.856 151.946C107.722 152.577 107.017 153.501 106.497 153.552C105.263 153.674 105.515 152.562 105.511 151.75C105.506 150.509 105.598 149.247 105.394 148.037C105.297 147.464 104.609 146.99 104.188 146.472C103.734 146.962 103.034 147.381 102.869 147.955C102.204 150.264 102.481 152.433 104.417 154.115C105.266 154.852 106.207 155.483 107.056 156.219C108.389 157.376 108.772 159.088 108.093 160.559C107.408 162.046 105.341 162.979 103.385 162.684C101.552 162.408 100.05 161.121 99.9189 159.603C99.8833 159.191 100.159 158.752 100.292 158.325C100.896 158.675 101.501 159.025 102.211 159.468Z" fill="#1C1C1C"/>
<path d="M80.2029 126.342C79.5075 128.143 78.44 129.308 76.5246 129.374C75.4977 129.409 75.2438 129.985 75.2752 130.895C75.314 132.018 75.438 133.176 75.2215 134.257C75.0948 134.891 74.3764 135.406 73.9241 135.974C73.4689 135.396 72.6361 134.828 72.6201 134.238C72.5189 130.511 72.615 126.78 72.6111 123.05C72.6096 121.571 72.5173 120.092 72.4695 118.613C72.433 117.484 72.9759 116.882 74.0926 116.666C76.7244 116.156 79.0168 117.184 79.6911 119.767C80.2269 121.82 80.0809 124.051 80.2029 126.342ZM77.7619 122.484C77.4218 121.503 77.1239 120.504 76.7121 119.555C76.609 119.317 76.0232 119.039 75.8636 119.131C75.5789 119.296 75.2923 119.725 75.2819 120.052C75.2279 121.756 75.2056 123.466 75.3039 125.167C75.3272 125.571 75.8118 126.202 76.1646 126.263C76.5247 126.325 77.2351 125.895 77.3498 125.538C77.6301 124.667 77.6548 123.714 77.7619 122.484Z" fill="#1C1C1C"/>
<path d="M70.6376 153.538C71.1366 153.607 71.5516 153.573 71.816 153.756C72.2128 154.031 72.504 154.459 72.8401 154.821C72.4413 155.107 72.0778 155.482 71.6354 155.657C71.0052 155.907 69.8377 155.874 69.7436 156.203C69.4611 157.191 69.5022 158.305 69.6129 159.349C69.6418 159.622 70.3607 159.92 70.8058 160.027C71.605 160.219 72.4658 160.185 73.242 160.431C73.6016 160.545 73.823 161.095 74.107 161.447C73.7676 161.716 73.4553 162.165 73.0839 162.221C71.5649 162.449 70.0235 162.686 68.4998 162.636C68.0033 162.619 67.1285 161.747 67.1172 161.251C66.9981 156.036 66.9831 150.818 67.0628 145.603C67.07 145.13 67.8982 144.326 68.4099 144.27C69.8716 144.111 71.3716 144.2 72.8457 144.322C73.2754 144.358 73.6687 144.833 74.0787 145.107C73.7606 145.55 73.4982 146.056 73.1029 146.414C72.8745 146.622 72.4355 146.625 72.085 146.666C69.5541 146.967 69.5536 146.963 69.5757 149.582C69.5832 150.471 69.4935 151.377 69.6364 152.244C69.7129 152.707 70.1899 153.105 70.6376 153.538Z" fill="#1C1C1C"/>
<path d="M50.2452 119.259C49.4624 117.688 49.7739 116.983 51.2437 116.948C53.615 116.89 55.9914 116.888 58.36 116.992C58.8794 117.014 59.3753 117.576 59.8821 117.89C59.4421 118.378 58.9879 119.298 58.5646 119.284C55.9616 119.198 55.9997 120.825 56.0325 122.673C56.0998 126.468 56.0622 130.265 56.0661 134.062C56.067 134.966 56.1475 135.984 54.8489 136.006C53.5287 136.029 53.3945 135.059 53.4019 134.033C53.4293 130.237 53.4899 126.44 53.4622 122.644C53.4394 119.511 53.3919 119.511 50.2452 119.259Z" fill="#1C1C1C"/>
<path d="M101.636 120.811C101.618 119.925 101.61 119.213 101.592 118.502C101.567 117.533 101.897 116.888 102.992 116.871C104.151 116.854 104.523 117.454 104.503 118.551C104.423 122.821 104.437 127.093 104.313 131.361C104.272 132.801 104.674 133.487 106.194 133.296C106.592 133.246 107.093 133.255 107.407 133.455C107.996 133.83 108.483 134.365 109.013 134.833C108.396 135.14 107.808 135.597 107.157 135.718C106.118 135.912 105.032 135.839 103.975 135.955C102.175 136.152 101.648 135.703 101.643 133.797C101.633 129.526 101.64 125.255 101.636 120.811Z" fill="#1C1C1C"/>
<path d="M88.8927 135.714C87.3293 135.821 85.9116 135.865 84.5026 136C83.0545 136.138 82.4117 135.516 82.4106 134.088C82.4062 128.942 82.3897 123.795 82.3629 118.649C82.3576 117.643 82.5735 116.884 83.7922 116.871C85.1157 116.858 85.2957 117.658 85.2754 118.746C85.1971 122.946 85.2086 127.147 85.0909 131.345C85.0514 132.753 85.393 133.461 86.9447 133.309C87.5665 133.248 88.2887 133.358 88.842 133.636C89.8557 134.145 90.3704 134.872 88.8927 135.714Z" fill="#1C1C1C"/>
<path d="M81.2707 161.814C80.7004 162.177 80.0399 162.683 79.6443 162.525C79.2188 162.355 78.8024 161.566 78.7945 161.041C78.734 157.073 78.7408 153.103 78.8012 149.135C78.8253 147.551 78.5461 146.483 76.5949 146.572C76.1479 146.593 75.6663 145.858 75.2007 145.471C75.7277 145.071 76.2363 144.359 76.7851 144.326C78.9692 144.197 81.1679 144.229 83.3563 144.32C83.8909 144.342 84.4069 144.813 84.9315 145.078C84.5261 145.572 84.1146 146.497 83.7164 146.491C81.0932 146.454 81.2607 148.132 81.2893 149.935C81.3511 153.844 81.3014 157.754 81.2707 161.814Z" fill="#1C1C1C"/>
<path d="M95.9042 147.194C96.113 145.967 95.1523 144.253 97.2656 144.228C99.3576 144.203 98.6676 145.875 98.6757 146.975C98.7093 151.523 98.6708 156.072 98.6576 160.621C98.6543 161.753 98.5598 163.011 97.0091 162.549C96.4881 162.394 95.9882 161.206 95.9714 160.478C95.8706 156.108 95.9132 151.735 95.9042 147.194Z" fill="#1C1C1C"/>
<path d="M110.108 153.19C110.049 150.71 109.987 148.407 109.932 146.104C109.908 145.079 110.023 144.187 111.406 144.219C112.708 144.248 112.718 145.091 112.712 146.045C112.681 150.89 112.672 155.735 112.659 160.579C112.656 161.531 112.799 162.659 111.409 162.654C109.952 162.648 110.035 161.482 110.044 160.457C110.065 158.094 110.087 155.731 110.108 153.19Z" fill="#1C1C1C"/>
<path d="M96.1914 141.52C96.3301 140.759 96.5325 140.122 96.7349 139.484C97.2836 139.691 98.0019 139.757 98.3278 140.15C98.5939 140.47 98.3914 141.18 98.3966 141.717C97.6828 141.692 96.969 141.668 96.1914 141.52Z" fill="#1C1C1C"/>
<path d="M112.549 140.26C112.304 140.972 112.093 141.664 111.633 142.086C111.48 142.226 110.405 141.784 110.264 141.413C110.08 140.927 110.405 140.249 110.51 139.653C111.169 139.814 111.828 139.974 112.549 140.26Z" fill="#1C1C1C"/>
</svg>
