<svg width="75" height="75" viewBox="0 0 75 75" fill="none" xmlns="http://www.w3.org/2000/svg">
<path d="M40.6261 74.5562C38.2143 74.7908 35.7855 74.7908 33.3738 74.5562L34.0879 67.1899C36.0246 67.379 37.9752 67.379 39.9119 67.1899L40.6261 74.5562ZM26.2546 73.1466L28.4007 66.0652C26.5485 65.5031 24.7564 64.7595 23.0503 63.8453L19.5537 70.368C21.6739 71.5039 23.9161 72.4399 26.2546 73.1429V73.1466ZM13.5261 66.3316L18.2253 60.6154C16.7246 59.3835 15.3478 58.008 14.1144 56.5086L8.39769 61.1999C9.93325 63.072 11.6538 64.7924 13.5261 66.3316ZM4.36081 55.1767L10.8842 51.6841C9.96945 49.9771 9.22579 48.1838 8.6641 46.3305L1.582 48.4764C2.28519 50.7947 3.21599 53.0415 4.36081 55.1767ZM0.172235 41.3579L7.53925 40.6439C7.35065 38.7073 7.35065 36.757 7.53925 34.8204L0.175936 34.1064C-0.0586453 36.5179 -0.0586453 38.9464 0.175936 41.3579H0.172235ZM1.582 26.9879L8.6641 29.1338C9.23022 27.2654 9.97765 25.4747 10.8842 23.7839L4.36081 20.2876C3.21721 22.4242 2.28395 24.6685 1.582 26.9879ZM8.39769 14.2607L14.1144 18.9594C15.3464 17.4588 16.722 16.0821 18.2216 14.8489L13.5298 9.13274C11.6575 10.6682 9.93695 12.3886 8.39769 14.2607ZM19.5537 5.09626L23.0503 11.619C24.7563 10.7046 26.5485 9.96099 28.4007 9.39913L26.2546 2.31772C23.9361 3.02102 21.6891 3.95173 19.5537 5.09626ZM33.3738 0.908096C35.7855 0.673538 38.2143 0.673538 40.6261 0.908096L39.9119 8.27439C37.9752 8.0858 36.0247 8.0858 34.0879 8.27439L33.3738 0.911797V0.908096ZM47.7452 2.31772L45.5991 9.39913C47.4677 9.96519 49.2585 10.7126 50.9532 11.619L54.4462 5.09626C52.3094 3.95273 50.0648 3.01956 47.7452 2.31772ZM60.4737 9.13274L55.7745 14.8489C57.2768 16.081 58.6532 17.4573 59.8854 18.9557L65.6021 14.2607C64.0637 12.3885 62.346 10.6711 60.4737 9.13274ZM69.639 20.2876L63.1156 23.7839C64.0222 25.4747 64.7696 27.2654 65.3357 29.1338L72.4178 26.9879C71.7145 24.6696 70.7837 22.4228 69.639 20.2876ZM73.8276 34.1064L66.4606 34.8204C66.6496 36.757 66.6496 38.7073 66.4606 40.6439L73.8239 41.3617C74.0587 38.9489 74.0624 36.5191 73.8276 34.1064ZM72.4178 48.4764L65.3357 46.3305C64.7738 48.1838 64.0302 49.977 63.1156 51.6841L69.639 55.1767C70.7749 53.0567 71.7111 50.8146 72.4141 48.4764H72.4178ZM65.6021 61.2036L59.8854 56.5049C58.6534 58.0054 57.2778 59.3821 55.7782 60.6154L60.4737 66.3316C62.346 64.7961 64.0629 63.0757 65.6021 61.2036ZM54.4462 70.368L50.9532 63.8453C49.246 64.7598 47.4525 65.5033 45.5991 66.0652L47.7452 73.1466C50.0637 72.4433 52.3108 71.5126 54.4462 70.368Z" fill="#2E2B29"/>
<path fill-rule="evenodd" clip-rule="evenodd" d="M25.8994 37.732C25.8994 34.7882 27.0689 31.965 29.1507 29.8835C31.2324 27.802 34.0559 26.6326 36.9999 26.6326C39.9439 26.6326 42.7674 27.802 44.8491 29.8835C46.9309 31.965 48.1004 34.7882 48.1004 37.732C48.1004 40.6757 46.9309 43.4989 44.8491 45.5804C42.7674 47.6619 39.9439 48.8313 36.9999 48.8313C34.0559 48.8313 31.2324 47.6619 29.1507 45.5804C27.0689 43.4989 25.8994 40.6757 25.8994 37.732ZM36.9999 41.4317C36.0185 41.4317 35.0774 41.0419 34.3835 40.3481C33.6896 39.6543 33.2997 38.7132 33.2997 37.732C33.2997 36.7507 33.6896 35.8096 34.3835 35.1158C35.0774 34.422 36.0185 34.0322 36.9999 34.0322C37.9812 34.0322 38.9224 34.422 39.6163 35.1158C40.3102 35.8096 40.7 36.7507 40.7 37.732C40.7 38.7132 40.3102 39.6543 39.6163 40.3481C38.9224 41.0419 37.9812 41.4317 36.9999 41.4317Z" fill="#2E2B29"/>
<path fill-rule="evenodd" clip-rule="evenodd" d="M36.9998 15.5334C31.1117 15.5334 25.4648 17.8722 21.3013 22.0353C17.1379 26.1984 14.7988 31.8447 14.7988 37.7322C14.7988 43.6197 17.1379 49.266 21.3013 53.4291C25.4648 57.5922 31.1117 59.931 36.9998 59.931C42.8878 59.931 48.5347 57.5922 52.6982 53.4291C56.8617 49.266 59.2007 43.6197 59.2007 37.7322C59.2007 31.8447 56.8617 26.1984 52.6982 22.0353C48.5347 17.8722 42.8878 15.5334 36.9998 15.5334ZM22.1991 37.7322C22.1991 41.6572 23.7585 45.4214 26.5341 48.1968C29.3098 50.9722 33.0744 52.5314 36.9998 52.5314C40.9251 52.5314 44.6897 50.9722 47.4654 48.1968C50.2411 45.4214 51.8004 41.6572 51.8004 37.7322C51.8004 33.8072 50.2411 30.043 47.4654 27.2676C44.6897 24.4922 40.9251 22.933 36.9998 22.933C33.0744 22.933 29.3098 24.4922 26.5341 27.2676C23.7585 30.043 22.1991 33.8072 22.1991 37.7322Z" fill="#2E2B29"/>
</svg>
