<svg width="1526" height="1422" viewBox="0 0 1526 1422" fill="none" xmlns="http://www.w3.org/2000/svg">
<path d="M761.907 1.10645L762.438 584.438V838.673L761.934 1421.69" stroke="#DF9363" stroke-width="0.4" stroke-linecap="round" stroke-linejoin="round"/>
<path d="M382.5 1421.69L678.034 838.673V584.438L381.564 1.10645" stroke="#DF9363" stroke-width="0.4" stroke-linecap="round" stroke-linejoin="round"/>
<path d="M1142.25 1.10645L846.847 584.438V838.673L1141.36 1421.69" stroke="#DF9363" stroke-width="0.4" stroke-linecap="round" stroke-linejoin="round"/>
<path d="M85.6533 1066.91L547.816 838.675V584.437L85.7871 356.861" stroke="#DF9363" stroke-width="0.4" stroke-linecap="round" stroke-linejoin="round"/>
<path d="M42.6533 840.706L53.9777 838.673V584.438L42.6533 582.412" stroke="#DF9363" stroke-width="0.4" stroke-linecap="round" stroke-linejoin="round"/>
<path d="M42.6533 853.64L118.382 838.675V584.439L42.6533 569.514" stroke="#DF9363" stroke-width="0.4" stroke-linecap="round" stroke-linejoin="round"/>
<path d="M0.65332 869.438L140.786 838.673V584.438L0.65332 553.751" stroke="#DF9363" stroke-width="0.4" stroke-linecap="round" stroke-linejoin="round"/>
<path d="M85.6533 889.192L290.195 838.673V584.438L85.6533 534.052" stroke="#DF9363" stroke-width="0.4" stroke-linecap="round" stroke-linejoin="round"/>
<path d="M62.6533 914.581L331.599 838.673V584.438L62.6533 508.723" stroke="#DF9363" stroke-width="0.4" stroke-linecap="round" stroke-linejoin="round"/>
<path d="M22.6533 948.431L356.003 838.672V584.437L22.6533 474.955" stroke="#DF9363" stroke-width="0.4" stroke-linecap="round" stroke-linejoin="round"/>
<path d="M0.65332 995.828L398.414 838.675V584.437L0.65332 427.688" stroke="#DF9363" stroke-width="0.4" stroke-linecap="round" stroke-linejoin="round"/>
<path d="M42.6533 1185.34L569.22 838.675V584.438L42.6533 238.662" stroke="#DF9363" stroke-width="0.4" stroke-linecap="round" stroke-linejoin="round"/>
<path d="M23.0724 1421.69L613.631 838.673V584.438L22.6533 2.51172" stroke="#DF9363" stroke-width="0.4" stroke-linecap="round" stroke-linejoin="round"/>
<path d="M1482.23 840.706L1470.91 838.673V584.438L1482.23 582.412" stroke="#DF9363" stroke-width="0.4" stroke-linecap="round" stroke-linejoin="round"/>
<path d="M1482.23 853.64L1406.5 838.674V584.439L1482.23 569.507" stroke="#DF9363" stroke-width="0.4" stroke-linecap="round" stroke-linejoin="round"/>
<path d="M1525.23 869.452L1385.1 838.674V584.439L1525.23 553.743" stroke="#DF9363" stroke-width="0.4" stroke-linecap="round" stroke-linejoin="round"/>
<path d="M1440.23 889.212L1235.68 838.674V584.439L1440.23 534.03" stroke="#DF9363" stroke-width="0.4" stroke-linecap="round" stroke-linejoin="round"/>
<path d="M1462.23 914.616L1193.28 838.675V584.437L1462.23 508.689" stroke="#DF9363" stroke-width="0.4" stroke-linecap="round" stroke-linejoin="round"/>
<path d="M1502.23 474.9L1168.89 584.437L1168.88 838.675L1502.23 948.495" stroke="#DF9363" stroke-width="0.4" stroke-linecap="round" stroke-linejoin="round"/>
<path d="M1525.23 427.58L1127.47 584.439L1127.47 838.674L1525.35 995.98" stroke="#DF9363" stroke-width="0.4" stroke-linecap="round" stroke-linejoin="round"/>
<path d="M1440.34 356.543L978.072 584.438L978.065 838.673L1440.23 1067.1" stroke="#DF9363" stroke-width="0.4" stroke-linecap="round" stroke-linejoin="round"/>
<path d="M1482.34 238.187L955.663 584.437V838.675L1482.23 1185.73" stroke="#DF9363" stroke-width="0.4" stroke-linecap="round" stroke-linejoin="round"/>
<path d="M1502.23 1.47168L911.253 584.438V838.673L1500.8 1421.69" stroke="#DF9363" stroke-width="0.4" stroke-linecap="round" stroke-linejoin="round"/>
<path d="M1482.23 240.997H42.6533" stroke="#DF9363" stroke-width="0.4" stroke-linecap="round" stroke-linejoin="round"/>
<path d="M1482.23 470.766H42.6533" stroke="#DF9363" stroke-width="0.4" stroke-linecap="round" stroke-linejoin="round"/>
<path d="M1482.23 393.005H42.6533" stroke="#DF9363" stroke-width="0.4" stroke-linecap="round" stroke-linejoin="round"/>
<path d="M1482.23 305.577H42.6533" stroke="#DF9363" stroke-width="0.4" stroke-linecap="round" stroke-linejoin="round"/>
<path d="M1482.23 584.451H42.6533" stroke="#DF9363" stroke-width="0.4" stroke-linecap="round" stroke-linejoin="round"/>
<path d="M1482.23 151.965H42.6533" stroke="#DF9363" stroke-width="0.4" stroke-linecap="round" stroke-linejoin="round"/>
<path d="M1482.23 354.573H42.6533" stroke="#DF9363" stroke-width="0.4" stroke-linecap="round" stroke-linejoin="round"/>
<path d="M1482.23 423.97H42.6533" stroke="#DF9363" stroke-width="0.4" stroke-linecap="round" stroke-linejoin="round"/>
<path d="M1482.23 549.733H42.6533" stroke="#DF9363" stroke-width="0.4" stroke-linecap="round" stroke-linejoin="round"/>
<path d="M1482.23 529.875H42.6533" stroke="#DF9363" stroke-width="0.4" stroke-linecap="round" stroke-linejoin="round"/>
<path d="M1482.23 518.004H42.6533" stroke="#DF9363" stroke-width="0.4" stroke-linecap="round" stroke-linejoin="round"/>
<path d="M1482.23 540.383H42.6533" stroke="#DF9363" stroke-width="0.4" stroke-linecap="round" stroke-linejoin="round"/>
<path d="M1482.23 565.676H42.6533" stroke="#DF9363" stroke-width="0.4" stroke-linecap="round" stroke-linejoin="round"/>
<path d="M1482.23 558.118H42.6533" stroke="#DF9363" stroke-width="0.4" stroke-linecap="round" stroke-linejoin="round"/>
<path d="M1482.23 572.519H42.6533" stroke="#DF9363" stroke-width="0.4" stroke-linecap="round" stroke-linejoin="round"/>
<path d="M1482.23 578.754H42.6533" stroke="#DF9363" stroke-width="0.4" stroke-linecap="round" stroke-linejoin="round"/>
<path d="M1482.23 21.3704H42.6533" stroke="#DF9363" stroke-width="0.4" stroke-linecap="round" stroke-linejoin="round"/>
<path d="M1482.23 488.88H42.6533" stroke="#DF9363" stroke-width="0.4" stroke-linecap="round" stroke-linejoin="round"/>
<path d="M1482.23 449.442H42.6533" stroke="#DF9363" stroke-width="0.4" stroke-linecap="round" stroke-linejoin="round"/>
<path d="M1482.23 504.459H42.6533" stroke="#DF9363" stroke-width="0.4" stroke-linecap="round" stroke-linejoin="round"/>
<path d="M42.6533 838.674H1482.23" stroke="#DF9363" stroke-width="0.4" stroke-linecap="round" stroke-linejoin="round"/>
<path d="M42.6533 775.12H1482.23" stroke="#DF9363" stroke-width="0.4" stroke-linecap="round" stroke-linejoin="round"/>
<path d="M42.6533 711.567H1482.23" stroke="#DF9363" stroke-width="0.4" stroke-linecap="round" stroke-linejoin="round"/>
<path d="M42.6533 648.005H1482.23" stroke="#DF9363" stroke-width="0.4" stroke-linecap="round" stroke-linejoin="round"/>
<path d="M42.6533 584.451H1482.23" stroke="#DF9363" stroke-width="0.4" stroke-linecap="round" stroke-linejoin="round"/>
<path d="M1481.92 838.674H42.6533" stroke="#DF9363" stroke-width="0.4" stroke-linecap="round" stroke-linejoin="round"/>
<path d="M1482.23 844.386H42.6533" stroke="#DF9363" stroke-width="0.4" stroke-linecap="round" stroke-linejoin="round"/>
<path d="M1482.23 850.635H42.6533" stroke="#DF9363" stroke-width="0.4" stroke-linecap="round" stroke-linejoin="round"/>
<path d="M1482.23 857.504H42.6533" stroke="#DF9363" stroke-width="0.4" stroke-linecap="round" stroke-linejoin="round"/>
<path d="M1482.23 865.076H42.6533" stroke="#DF9363" stroke-width="0.4" stroke-linecap="round" stroke-linejoin="round"/>
<path d="M1482.23 873.483H42.6533" stroke="#DF9363" stroke-width="0.4" stroke-linecap="round" stroke-linejoin="round"/>
<path d="M1482.23 882.86H42.6533" stroke="#DF9363" stroke-width="0.4" stroke-linecap="round" stroke-linejoin="round"/>
<path d="M1482.23 893.395H42.6533" stroke="#DF9363" stroke-width="0.4" stroke-linecap="round" stroke-linejoin="round"/>
<path d="M1482.23 905.3H42.6533" stroke="#DF9363" stroke-width="0.4" stroke-linecap="round" stroke-linejoin="round"/>
<path d="M1482.23 918.874H42.6533" stroke="#DF9363" stroke-width="0.4" stroke-linecap="round" stroke-linejoin="round"/>
<path d="M1482.23 934.493H42.6533" stroke="#DF9363" stroke-width="0.4" stroke-linecap="round" stroke-linejoin="round"/>
<path d="M1482.23 952.662H42.6533" stroke="#DF9363" stroke-width="0.4" stroke-linecap="round" stroke-linejoin="round"/>
<path d="M1482.23 974.042H42.6533" stroke="#DF9363" stroke-width="0.4" stroke-linecap="round" stroke-linejoin="round"/>
<path d="M1482.23 999.583H42.6533" stroke="#DF9363" stroke-width="0.4" stroke-linecap="round" stroke-linejoin="round"/>
<path d="M1482.23 1030.63H42.3472" stroke="#DF9363" stroke-width="0.4" stroke-linecap="round" stroke-linejoin="round"/>
<path d="M1482.23 1069.17H42.6533" stroke="#DF9363" stroke-width="0.4" stroke-linecap="round" stroke-linejoin="round"/>
<path d="M1482.23 1118.29H42.6533" stroke="#DF9363" stroke-width="0.4" stroke-linecap="round" stroke-linejoin="round"/>
<path d="M1482.23 1183.06H42.6533" stroke="#DF9363" stroke-width="0.4" stroke-linecap="round" stroke-linejoin="round"/>
<path d="M1482.23 1272.34H42.6533" stroke="#DF9363" stroke-width="0.4" stroke-linecap="round" stroke-linejoin="round"/>
<path d="M1482.23 1403.31H42.6533" stroke="#DF9363" stroke-width="0.4" stroke-linecap="round" stroke-linejoin="round"/>
</svg>
