<svg width="156" height="85" viewBox="0 0 156 85" fill="none" xmlns="http://www.w3.org/2000/svg">
<path d="M2.02483 58.318V65.9903H2.07993C2.66534 65.336 3.31963 64.7851 4.05656 64.3649C4.79349 63.9448 5.57863 63.7313 6.42575 63.7313C6.96984 63.7313 7.50015 63.8071 8.00292 63.9586C8.51257 64.1101 8.96024 64.3581 9.35281 64.6955C9.74538 65.033 10.0622 65.4807 10.2964 66.0179C10.5305 66.562 10.6476 67.23 10.6476 68.022V78.6834H8.61588V68.0771C8.61588 67.106 8.40237 66.4242 7.96848 66.0523C7.53459 65.6735 6.95606 65.4876 6.21913 65.4876C5.84034 65.4876 5.44777 65.5564 5.04831 65.7011C4.64197 65.8388 4.26317 66.0248 3.89126 66.2314C3.52624 66.4518 3.175 66.6928 2.8513 66.9476C2.52071 67.2162 2.24522 67.4642 2.01795 67.7121V78.6765H0V58.318" fill="white"/>
<path d="M14.0017 66.8306C14.47 65.9903 15.1587 65.2603 16.0609 64.6473C16.9632 64.0344 18.1133 63.7313 19.4976 63.7313C20.1175 63.7313 20.7304 63.8071 21.3296 63.9724C21.9357 64.1308 22.4729 64.3856 22.955 64.7368C23.4302 65.0812 23.8228 65.5289 24.1258 66.0867C24.422 66.6377 24.5804 67.3264 24.5804 68.1322V75.5153C24.5804 76.328 24.6148 76.9616 24.6837 77.4231C24.7457 77.8845 24.8214 78.3046 24.9179 78.6765H22.831L22.6038 76.6448C22.101 77.2164 21.4467 77.733 20.634 78.2289C19.8213 78.7179 18.864 78.9589 17.7552 78.9589C17.1904 78.9589 16.6532 78.8763 16.1436 78.711C15.6339 78.5388 15.1931 78.2908 14.8212 77.9465C14.4424 77.6021 14.1463 77.1889 13.919 76.693C13.6917 76.1971 13.5815 75.6048 13.5815 74.9299C13.5815 74.1172 13.7399 73.4009 14.0636 72.7949C14.3805 72.1888 14.9039 71.6447 15.6133 71.1626C16.3295 70.6805 17.2524 70.2673 18.3888 69.9091C19.5252 69.551 20.9095 69.2342 22.5487 68.9518V68.1598C22.5487 67.1887 22.2663 66.4931 21.7084 66.0867C21.1368 65.6804 20.4136 65.4876 19.5321 65.4876C18.9604 65.4876 18.4714 65.5495 18.0513 65.7011C17.6312 65.8388 17.2662 66.0179 16.9632 66.2451C16.6601 66.4724 16.4122 66.7204 16.2193 66.9958C16.0196 67.2713 15.875 67.5262 15.7854 67.7741M22.5487 70.7631C17.9274 71.5621 15.6133 72.967 15.6133 74.9643C15.6133 75.3087 15.689 75.6117 15.8405 75.901C15.9921 76.1834 16.178 76.4244 16.4053 76.6173C16.6326 76.8101 16.8874 76.9685 17.1835 77.0718C17.4728 77.1751 17.7621 77.2302 18.0444 77.2302C18.4026 77.2302 18.7883 77.1682 19.2015 77.0443C19.6147 76.9272 20.0211 76.7481 20.4136 76.5208C20.8062 76.2936 21.1919 76.0387 21.55 75.7495C21.9219 75.4533 22.2525 75.1434 22.5556 74.799V70.77L22.5487 70.7631Z" fill="white"/>
<path d="M39.0573 64.0137L33.8919 79.9782C33.6302 80.8047 33.3133 81.4796 32.9483 82.003C32.5764 82.5334 32.177 82.9535 31.75 83.2565C31.3161 83.5733 30.8615 83.7868 30.3794 83.9108C29.9042 84.0348 29.4221 84.0899 28.9538 84.0899C28.6163 84.0899 28.3408 84.0761 28.1273 84.0348C27.9069 83.9934 27.6934 83.9659 27.4868 83.9246V82.2579C27.6314 82.2716 27.7967 82.2992 27.9758 82.313C28.1548 82.3336 28.3546 82.3474 28.5818 82.3474C28.8849 82.3474 29.2224 82.313 29.6011 82.2441C29.9731 82.1821 30.3381 82.0237 30.6962 81.7895C31.0543 81.5554 31.3918 81.2041 31.6949 80.7427C32.0048 80.2812 32.2458 79.6545 32.418 78.8418L27.3077 64.0068H29.4496L33.4029 75.2054H33.458L36.9016 64.0068" fill="white"/>
<path d="M40.9719 66.8306C41.4402 65.9903 42.1221 65.2603 43.0312 64.6473C43.9334 64.0344 45.0904 63.7313 46.4748 63.7313C47.0946 63.7313 47.7076 63.8071 48.3136 63.9724C48.9128 64.1308 49.45 64.3856 49.9321 64.7368C50.4074 65.0812 50.7999 65.5289 51.103 66.0867C51.406 66.6377 51.5575 67.3264 51.5575 68.1322V75.5153C51.5575 76.328 51.592 76.9616 51.6608 77.4231C51.7228 77.8845 51.7986 78.3046 51.895 78.6765H49.8082L49.5878 76.6448C49.0712 77.2164 48.417 77.733 47.6112 78.2289C46.7985 78.7179 45.8411 78.9589 44.7392 78.9589C44.1676 78.9589 43.6441 78.8763 43.1276 78.711C42.6248 78.5388 42.1772 78.2908 41.8053 77.9465C41.4333 77.6021 41.1303 77.1889 40.903 76.693C40.6758 76.1971 40.5656 75.6048 40.5656 74.9299C40.5656 74.1172 40.724 73.4009 41.0408 72.7949C41.3645 72.1888 41.881 71.6447 42.5904 71.1626C43.3067 70.6805 44.2364 70.2673 45.3728 69.9091C46.5092 69.551 47.8935 69.2342 49.5327 68.9518V68.1598C49.5327 67.1887 49.2503 66.4931 48.6924 66.0867C48.1208 65.6804 47.3977 65.4876 46.5161 65.4876C45.9582 65.4876 45.4555 65.5495 45.0353 65.7011C44.6083 65.8388 44.2502 66.0179 43.9472 66.2451C43.651 66.4724 43.4031 66.7204 43.1965 66.9958C43.0036 67.2713 42.8521 67.5262 42.7626 67.7741M49.5327 70.7631C44.9045 71.5621 42.5904 72.967 42.5904 74.9643C42.5904 75.3087 42.6662 75.6117 42.8177 75.901C42.9761 76.1834 43.162 76.4244 43.3893 76.6173C43.6166 76.8101 43.8714 76.9685 44.1676 77.0718C44.4568 77.1751 44.7461 77.2302 45.0216 77.2302C45.3797 77.2302 45.7585 77.1682 46.1717 77.0443C46.5919 76.9272 46.9913 76.7481 47.3839 76.5208C47.7833 76.2936 48.1621 76.0387 48.5272 75.7495C48.8922 75.4533 49.2296 75.1434 49.5258 74.799V70.77L49.5327 70.7631Z" fill="white"/>
<path d="M56.2339 64.0206V59.1995H58.2588V64.0206H61.6404V65.7699H58.2588V76.204C58.2588 76.5415 58.3896 76.7894 58.6444 76.9616C58.8924 77.1338 59.3263 77.2164 59.9255 77.2164C60.2629 77.2164 60.5797 77.2027 60.8897 77.1682C61.1858 77.1338 61.4682 77.1062 61.7368 77.0718V78.7316C61.5508 78.7867 61.2616 78.8418 60.8621 78.89C60.4695 78.9382 59.9737 78.9589 59.3676 78.9589C58.2588 78.9589 57.4598 78.7867 56.9708 78.4492C56.4887 78.1118 56.2408 77.4713 56.2408 76.5346V65.763H53.8441V64.0137" fill="white"/>
<path d="M64.1817 66.8306C64.6501 65.9903 65.3319 65.2603 66.241 64.6473C67.1432 64.0344 68.2865 63.7313 69.6846 63.7313C70.3045 63.7313 70.9174 63.8071 71.5166 63.9724C72.1227 64.1308 72.6599 64.3856 73.142 64.7368C73.6172 65.0812 74.0098 65.5289 74.3128 66.0867C74.6089 66.6377 74.7673 67.3264 74.7673 68.1322V75.5153C74.7673 76.328 74.8018 76.9616 74.8638 77.4231C74.9326 77.8845 75.0084 78.3046 75.1048 78.6765H73.018L72.7907 76.6448C72.288 77.2164 71.6337 77.733 70.821 78.2289C70.0083 78.7247 69.051 78.9589 67.949 78.9589C67.3774 78.9589 66.8402 78.8763 66.3374 78.711C65.8278 78.5388 65.387 78.2908 65.0151 77.9465C64.6432 77.6021 64.3401 77.1889 64.1129 76.693C63.8856 76.1971 63.7754 75.6048 63.7754 74.9299C63.7754 74.1172 63.9338 73.4009 64.2506 72.7949C64.5674 72.1888 65.0908 71.6447 65.8002 71.1626C66.5165 70.6805 67.4463 70.2673 68.5827 69.9091C69.719 69.551 71.1034 69.2342 72.7425 68.9518V68.1598C72.7425 67.1887 72.4601 66.4931 71.9023 66.0867C71.3306 65.6804 70.6075 65.4876 69.7259 65.4876C69.1543 65.4876 68.6653 65.5495 68.2452 65.7011C67.8182 65.8388 67.46 66.0179 67.157 66.2451C66.8609 66.4724 66.6129 66.7204 66.4063 66.9958C66.2135 67.2713 66.0619 67.5262 65.9724 67.7741M72.7425 70.7631C68.1143 71.5621 65.8002 72.967 65.8002 74.9643C65.8002 75.3087 65.876 75.6117 66.0275 75.901C66.1859 76.1834 66.3719 76.4244 66.5991 76.6173C66.8264 76.8101 67.0812 76.9685 67.3705 77.0718C67.6667 77.1751 67.9559 77.2302 68.2383 77.2302C68.5964 77.2302 68.9752 77.1682 69.3885 77.0443C69.8017 76.9272 70.208 76.7481 70.6006 76.5208C71.0001 76.2936 71.3789 76.0387 71.7439 75.7495C72.1089 75.4533 72.4395 75.1434 72.7425 74.799V70.7631Z" fill="white"/>
<path d="M91.6547 58.318V75.4602C91.6547 76.0043 91.6547 76.5415 91.641 77.0718C91.6341 77.5952 91.6823 78.1256 91.7718 78.6765H89.9123L89.6299 77.2371C89.2856 77.7054 88.7828 78.1118 88.1078 78.4492C87.4329 78.7936 86.6478 78.9589 85.7662 78.9589C85.1119 78.9589 84.4232 78.8349 83.7138 78.5939C83.0113 78.3528 82.3708 77.9396 81.7785 77.3611C81.2 76.7757 80.7179 75.9974 80.3322 75.0125C79.9396 74.0346 79.7537 72.8155 79.7537 71.3554C79.7537 69.8954 79.9396 68.7245 80.3322 67.7603C80.7179 66.7892 81.1931 66.011 81.7647 65.4187C82.3433 64.8264 82.9769 64.3925 83.6725 64.1377C84.3681 63.8691 85.0224 63.7382 85.6422 63.7382C86.3378 63.7382 87.0197 63.8966 87.674 64.2065C88.3282 64.5096 88.9412 64.9021 89.5059 65.3705L89.623 65.4256V58.3249M89.623 67.5124C89.0721 66.9132 88.4729 66.4242 87.8186 66.0523C87.1643 65.6735 86.5307 65.4876 85.9246 65.4876C85.3185 65.4876 84.7744 65.5909 84.2717 65.7906C83.7758 66.0041 83.3419 66.3347 82.9631 66.8099C82.5843 67.2782 82.2882 67.8981 82.0884 68.6557C81.8818 69.4201 81.7785 70.3499 81.7785 71.4656C81.7785 73.3458 82.1573 74.7715 82.8942 75.7495C83.6312 76.7275 84.6436 77.2233 85.9246 77.2233C86.5789 77.2233 87.185 77.0649 87.729 76.7688C88.2731 76.4726 88.8999 75.963 89.623 75.2467V67.5124Z" fill="white"/>
<path d="M106.38 75.5429C106.132 75.9561 105.856 76.3693 105.56 76.7757C105.257 77.182 104.885 77.5401 104.444 77.8707C104.003 78.1944 103.48 78.463 102.881 78.6559C102.282 78.8556 101.565 78.952 100.732 78.952C99.8987 78.952 99.1136 78.8074 98.356 78.5181C97.5915 78.2289 96.9166 77.7674 96.3243 77.1476C95.732 76.5346 95.2567 75.7357 94.8986 74.7784C94.5405 73.8211 94.3614 72.6778 94.3614 71.3417C94.3614 70.1571 94.4992 69.0896 94.7815 68.146C95.0708 67.2094 95.4703 66.4104 95.9937 65.7493C96.524 65.095 97.1507 64.5991 97.8877 64.2479C98.6177 63.8966 99.4373 63.7244 100.339 63.7244C101.09 63.7244 101.806 63.8484 102.481 64.1032C103.156 64.3512 103.749 64.7506 104.258 65.2878C104.768 65.825 105.167 66.5137 105.47 67.3609C105.767 68.208 105.925 69.2135 105.925 70.3775V71.7342H96.3931C96.3931 72.5469 96.5033 73.2839 96.7306 73.945C96.9579 74.6131 97.2678 75.1916 97.6673 75.6668C98.0667 76.1489 98.5213 76.5208 99.0447 76.7963C99.575 77.0718 100.133 77.2096 100.732 77.2096C101.634 77.2096 102.433 76.9823 103.122 76.5484C103.811 76.1076 104.362 75.4946 104.796 74.7233M103.893 69.9849C103.893 68.6281 103.59 67.5399 102.977 66.7135C102.371 65.887 101.503 65.4669 100.401 65.4669C99.1618 65.4669 98.2182 65.887 97.564 66.7135C96.9166 67.5399 96.5446 68.6281 96.4482 69.9849H103.893Z" fill="white"/>
<path d="M110.106 74.9437C110.588 75.6462 111.18 76.1971 111.882 76.6035C112.578 77.0029 113.384 77.2027 114.307 77.2027C115.395 77.2027 116.201 76.9547 116.703 76.452C117.213 75.9561 117.468 75.3913 117.468 74.7784C117.468 74.1654 117.248 73.6695 116.814 73.3252C116.387 72.9808 115.849 72.6916 115.209 72.4712C114.568 72.2439 113.88 72.0373 113.136 71.8375C112.399 71.6378 111.703 71.3761 111.077 71.0593C110.443 70.7425 109.926 70.3224 109.513 69.8058C109.1 69.2824 108.907 68.573 108.942 67.6708C108.983 66.3967 109.444 65.4118 110.333 64.73C111.228 64.0412 112.378 63.7107 113.79 63.7244C114.259 63.7244 114.747 63.7933 115.243 63.9242C115.732 64.055 116.208 64.2341 116.655 64.4614C117.089 64.6886 117.502 64.9503 117.881 65.2603C118.253 65.5702 118.57 65.9146 118.811 66.2865L117.399 67.5262C116.841 66.8306 116.27 66.3209 115.677 65.9765C115.099 65.6391 114.417 65.4669 113.618 65.4669C112.75 65.4669 112.096 65.6597 111.648 66.0592C111.201 66.4586 110.973 66.9752 110.973 67.6432C110.973 68.1667 111.187 68.5799 111.607 68.8829C112.034 69.186 112.557 69.4408 113.191 69.6612C113.825 69.8747 114.506 70.0813 115.236 70.2948C115.967 70.5083 116.648 70.7769 117.275 71.1282C117.909 71.4794 118.432 71.9271 118.859 72.4849C119.279 73.0359 119.5 73.7728 119.5 74.6682C119.5 75.3844 119.355 76.0112 119.073 76.5484C118.79 77.0856 118.411 77.5264 117.929 77.8914C117.454 78.2495 116.903 78.5112 116.283 78.6903C115.663 78.8694 115.023 78.9658 114.362 78.9658C113.219 78.9658 112.123 78.7247 111.084 78.2426C110.037 77.7674 109.176 77.0718 108.501 76.1696" fill="white"/>
<path d="M122.998 64.0206V59.1995H125.03V64.0206H128.412V65.7699H125.03V76.204C125.03 76.5415 125.154 76.7894 125.416 76.9616C125.664 77.1338 126.098 77.2164 126.697 77.2164C127.034 77.2164 127.351 77.2027 127.647 77.1682C127.95 77.1338 128.233 77.1062 128.501 77.0718V78.7316C128.315 78.7867 128.019 78.8418 127.627 78.89C127.227 78.9382 126.738 78.9589 126.132 78.9589C125.023 78.9589 124.217 78.7867 123.735 78.4492C123.246 78.1118 122.998 77.4713 122.998 76.5346V65.763H120.608V64.0137" fill="white"/>
<path d="M142.276 75.5429C142.035 75.9561 141.759 76.3693 141.456 76.7757C141.16 77.182 140.788 77.5401 140.34 77.8707C139.906 78.1944 139.376 78.463 138.777 78.6559C138.178 78.8556 137.461 78.952 136.635 78.952C135.809 78.952 135.016 78.8074 134.252 78.5181C133.488 78.2289 132.819 77.7674 132.227 77.1476C131.628 76.5346 131.16 75.7357 130.802 74.7784C130.443 73.8211 130.264 72.6778 130.264 71.3417C130.264 70.1571 130.402 69.0896 130.684 68.146C130.974 67.2094 131.366 66.4104 131.897 65.7493C132.42 65.095 133.047 64.5991 133.791 64.2479C134.521 63.8966 135.34 63.7244 136.242 63.7244C136.993 63.7244 137.709 63.8484 138.384 64.1032C139.059 64.3512 139.652 64.7506 140.161 65.2878C140.664 65.825 141.07 66.5137 141.373 67.3609C141.67 68.208 141.814 69.2135 141.814 70.3775V71.7342H132.289C132.289 72.5469 132.399 73.2839 132.627 73.945C132.854 74.6131 133.164 75.1916 133.563 75.6668C133.956 76.1489 134.41 76.5208 134.941 76.7963C135.464 77.0718 136.029 77.2096 136.628 77.2096C137.53 77.2096 138.329 76.9823 139.011 76.5484C139.7 76.1076 140.258 75.4946 140.692 74.7233M139.789 69.9849C139.789 68.6281 139.479 67.5399 138.873 66.7135C138.267 65.887 137.399 65.4669 136.298 65.4669C135.051 65.4669 134.107 65.887 133.46 66.7135C132.813 67.5399 132.441 68.6281 132.344 69.9849H139.789Z" fill="white"/>
<path d="M144.514 58.318H146.546V71.4381H146.601L152.524 64.0137H154.976L150.664 69.4339L155.54 78.6765H153.144L149.252 71.1764L146.546 74.2825V78.6765H144.514" fill="white"/>
<path d="M79.3336 52.7118C65.0426 53.6622 52.687 42.8494 51.7366 28.5584C50.7862 14.2675 61.5922 1.92566 75.8831 0.968342C90.1602 0.0179099 102.523 10.8239 103.48 25.108C104.43 39.3989 93.6107 51.7545 79.3336 52.7118Z" fill="white"/>
<path d="M96.9923 29.9428C95.8766 28.9235 94.7264 27.8559 93.5143 26.9055C92.2264 25.9 89.4715 23.3311 88.6106 23.7649C87.729 24.2126 88.8861 25.0322 89.5059 25.6314C90.3668 26.4647 92.8531 28.6273 93.2181 29.3436C93.5074 29.9221 90.2635 27.2912 89.0445 26.3614C87.8461 25.4316 84.9191 22.9936 84.2441 23.3379C83.2868 23.8269 83.7207 24.3986 84.4852 25.2457C85.291 26.1479 91.4481 30.4731 91.0624 30.8863C90.9523 31.0103 88.7001 29.6053 86.7993 28.4827C84.8915 27.3601 82.1711 25.2181 81.3171 25.225C80.4631 25.2388 79.9396 26.0722 80.3873 26.878C80.6421 27.3463 83.5761 29.1094 85.7386 30.6108C87.2883 31.6714 88.7346 32.6907 88.5693 32.9043C88.4591 33.0489 85.5045 31.6852 83.3901 30.5419C81.2826 29.4056 79.8294 28.2141 78.8652 28.7788C77.901 29.3436 78.5897 30.2182 79.8088 31.0103C81.0278 31.8092 86.3929 34.8602 87.4054 35.5765C88.4178 36.279 90.8834 38.2143 90.5735 39.7501C90.3324 40.9623 85.6629 40.0807 84.4163 40.6179C83.1766 41.1758 82.5774 41.6923 82.5912 42.4774C82.605 43.2557 83.5141 43.3866 85.0981 43.0078C86.6891 42.6221 90.3393 42.7805 93.5763 43.0146C95.057 43.118 96.1383 43.1524 97.5708 43.3866C99.5475 40.9967 101.097 38.29 102.13 35.3148C101.035 33.9236 99.4028 32.1811 96.9923 29.9428Z" fill="#FF4D00"/>
<path d="M58.5067 23.3586C59.6293 24.3986 60.7657 25.4523 61.9916 26.4096C63.2726 27.4152 66.0275 29.9841 66.8884 29.5502C67.7837 29.1025 66.6129 28.2829 66.0068 27.6838C65.1459 26.8504 62.6459 24.6947 62.2878 23.9647C61.9985 23.393 65.2493 26.0102 66.4545 26.9537C67.6667 27.8766 70.5868 30.3216 71.2618 29.9772C72.2191 29.4882 71.7714 28.9166 71.0207 28.0763C70.2149 27.1741 64.0578 22.8558 64.4503 22.4288C64.5536 22.3117 66.7989 23.7098 68.7135 24.8393C70.5937 25.962 73.3486 28.1039 74.1957 28.0832C75.0428 28.0763 75.5663 27.2361 75.1186 26.4372C74.8569 25.9688 71.9298 24.1988 69.7673 22.7112C68.2176 21.6368 66.7713 20.6244 66.9366 20.4109C67.0606 20.2663 70.0083 21.6299 72.1158 22.7801C74.2164 23.9096 75.6765 25.1011 76.6476 24.5363C77.598 23.9647 76.923 23.09 75.704 22.3049C74.4781 21.5059 69.113 18.4411 68.1005 17.7455C67.095 17.0293 64.6225 15.1009 64.9393 13.5581C65.1804 12.3666 69.8568 13.2413 71.1034 12.6903C72.3293 12.1394 72.9491 11.6159 72.9216 10.8446C72.9078 10.0594 72.0056 9.92858 70.4146 10.3005C68.8306 10.6999 65.1735 10.5415 61.9365 10.3074C60.4351 10.211 59.3125 10.3005 57.8386 10.0663C55.8896 12.3529 54.3606 14.9562 53.3 17.8006C54.4088 19.2263 56.1719 21.2029 58.5205 23.3586" fill="#FF4D00"/>
</svg>
