<svg width="143" height="77" viewBox="0 0 143 77" fill="none" xmlns="http://www.w3.org/2000/svg">
<path d="M1.04463 67.9056C2.13933 68.9161 3.40244 69.674 4.24451 70.7687C5.84445 72.958 7.61281 72.958 9.8022 71.7791C14.7704 69.0845 18.3914 65.0425 21.1702 60.2427C26.9805 49.9694 27.4016 40.7908 27.4858 29.2544C27.4858 29.086 27.3174 28.9176 26.9805 28.3281C25.7174 30.2649 24.7069 32.0332 23.4438 33.6332C19.8229 38.433 17.4651 41.0434 13.6757 45.6748C11.6548 48.2011 8.70751 49.38 5.50763 48.2011C2.05512 47.0222 0.370972 44.3275 0.118349 40.6224C-0.386895 34.6437 0.792009 28.9176 2.39195 23.2757C4.66555 15.3602 5.50763 12.3287 7.86543 4.49741C8.45489 2.39222 9.46537 1.71856 11.4021 3.2343C11.9916 3.73954 12.7495 3.99216 13.4231 4.4132C14.9389 5.42369 15.3599 6.60259 14.602 8.45515C10.2232 18.3074 9.04434 23.7809 7.10757 34.391C6.68653 36.7489 6.60232 39.1067 6.43391 41.4645C6.68653 41.6329 7.02336 41.8013 7.27598 41.9697C9.29696 39.7803 11.4021 37.6751 13.1705 35.3173C19.065 27.7387 22.7701 23.6967 26.8963 15.0233C27.4858 13.8444 27.4858 11.9077 29.7594 12.5813C33.2119 13.5076 35.1486 15.1075 35.0644 17.2127C34.3908 27.4018 35.2328 33.4648 33.8855 43.5697C32.7066 53.5061 28.8331 62.6847 22.0123 70.1792C18.644 74.0527 14.4336 77 8.87592 77C6.01287 77 3.48665 76.0737 1.46567 74.0527C-0.21848 72.3686 -0.386895 70.095 1.04463 67.9056Z" fill="white"/>
<path d="M48.9567 41.8013C55.9459 36.0752 59.9037 29.086 62.9351 21.5073C64.4509 17.8022 65.4613 13.9286 66.6402 10.0551C67.0613 8.62357 67.7349 8.03412 69.3349 8.45515C74.1347 9.63406 74.7242 10.813 73.7137 15.6128C72.0295 23.9493 70.6822 32.2859 72.2821 40.875C72.619 42.6434 71.3559 43.7381 69.8401 42.9802C68.2402 42.2223 66.8929 40.875 65.8824 39.4435C65.0403 38.3488 64.9561 36.7489 64.4509 35.1489C62.4299 37.5909 60.5773 39.9487 58.6405 42.1381C57.0406 43.9907 55.2722 45.6748 53.5881 47.4432C51.6513 49.4642 49.2935 50.0536 46.6831 49.1273C43.7358 48.1169 41.5464 46.3485 41.7991 42.9802C42.0517 38.1804 42.3885 33.2963 43.2306 28.4965C44.4937 21.5915 46.3463 14.7707 47.9462 7.94991C48.7041 4.91844 48.9567 4.83424 51.9882 5.92893C56.4511 7.44466 56.3669 7.8657 55.188 12.4129C52.9144 21.0863 50.9777 29.9281 49.0409 38.6856C48.7883 39.4435 48.9567 40.3698 48.9567 41.8013Z" fill="white"/>
<path d="M95.1931 36.7489C98.393 27.486 101.34 18.9811 104.372 10.3919C104.456 9.97089 104.54 9.63406 104.624 9.21302C105.045 7.8657 103.951 5.42369 106.982 6.01314C110.772 6.6868 112.708 8.45515 111.866 11.1498C110.266 16.6233 108.161 22.0126 106.477 27.486C104.456 34.1384 101.34 40.3698 100.667 47.359C100.582 48.7905 99.8245 49.38 98.393 49.4642C95.8668 49.6326 93.5932 48.3695 92.4143 46.0959C86.9408 34.8963 83.4883 23.023 80.7095 10.8972C80.0358 8.11832 80.7095 7.69729 83.4883 8.45515C86.6882 9.29723 87.8671 11.234 88.5408 14.4339C90.1407 21.2547 92.2459 27.9071 94.1826 34.7279C94.2669 35.2331 94.6879 35.7384 95.1931 36.7489Z" fill="white"/>
<path d="M131.767 32.9595C128.904 37.6751 126.462 41.9697 123.851 46.1801C121.662 49.6326 119.388 50.7273 116.357 49.8852C112.904 48.9589 110.799 46.3485 110.883 42.475C110.883 36.0752 112.399 29.928 114.673 23.9493C117.704 16.2864 121.578 9.04461 126.63 2.47643C128.735 -0.302421 130.251 -0.55504 133.788 0.876488C136.567 2.05539 137.661 3.90795 137.156 7.02363C136.903 8.62357 136.567 10.3077 135.893 11.8235C135.64 12.5813 134.293 13.5918 133.872 13.4234C132.861 13.0024 131.683 12.0761 131.346 11.1498C131.009 10.0551 131.514 8.70778 131.683 7.52887C126.714 11.4024 119.304 29.3386 118.967 39.5277C121.157 35.8226 123.43 32.2859 125.451 28.4965C127.135 25.4651 128.567 22.2652 130.167 19.0653C130.335 18.7285 130.504 18.139 130.672 18.139C132.525 18.3074 134.546 18.2232 136.314 18.8127C137.24 19.1495 138.251 20.4968 138.419 21.5073C139.514 29.7596 140.356 38.012 141.366 46.2643C141.619 47.6958 142.04 49.0431 142.461 50.4747C143.051 52.3272 142.293 53.2535 140.44 53.5061C137.914 53.7588 135.219 51.6536 134.798 49.2116C133.788 43.9907 132.861 38.6856 131.767 32.9595Z" fill="white"/>
</svg>
