<svg width="153" height="7" viewBox="0 0 153 7" fill="none" xmlns="http://www.w3.org/2000/svg">
<path d="M152.807 3.67285C152.807 2.00851 151.457 0.659303 149.793 0.659303C148.129 0.659303 146.779 2.00851 146.779 3.67285C146.779 5.33719 148.129 6.6864 149.793 6.6864C151.457 6.6864 152.807 5.33719 152.807 3.67285ZM149.793 3.10781L148.663 3.10781L148.663 4.23789L149.793 4.23789L149.793 3.10781ZM146.403 3.10781L144.143 3.10781L144.143 4.23789L146.403 4.23789L146.403 3.10781ZM141.882 3.10781L139.622 3.10781L139.622 4.23789L141.882 4.23789L141.882 3.10781ZM137.362 3.10781L135.102 3.10781L135.102 4.23789L137.362 4.23789L137.362 3.10781ZM132.842 3.10781L130.582 3.10781L130.582 4.23789L132.842 4.23789L132.842 3.10781ZM128.321 3.10781L126.061 3.10781L126.061 4.23789L128.321 4.23789L128.321 3.10781ZM123.801 3.10781L121.541 3.10781L121.541 4.23789L123.801 4.23789L123.801 3.10781ZM119.281 3.10781L117.021 3.10781L117.021 4.23789L119.281 4.23789L119.281 3.10781ZM114.76 3.10781L112.5 3.10781L112.5 4.2379L114.76 4.23789L114.76 3.10781ZM110.24 3.10781L107.98 3.10781L107.98 4.2379L110.24 4.2379L110.24 3.10781ZM105.72 3.10781L103.46 3.10782L103.46 4.2379L105.72 4.2379L105.72 3.10781ZM101.199 3.10782L98.9393 3.10782L98.9393 4.2379L101.199 4.2379L101.199 3.10782ZM96.6792 3.10782L94.419 3.10782L94.419 4.2379L96.6792 4.2379L96.6792 3.10782ZM92.1588 3.10782L89.8987 3.10782L89.8987 4.2379L92.1588 4.2379L92.1588 3.10782ZM87.6385 3.10782L85.3783 3.10782L85.3783 4.2379L87.6385 4.2379L87.6385 3.10782ZM83.1182 3.10782L80.858 3.10782L80.858 4.2379L83.1182 4.2379L83.1182 3.10782ZM78.5979 3.10782L76.3377 3.10782L76.3377 4.2379L78.5979 4.2379L78.5979 3.10782ZM74.0775 3.10782L71.8174 3.10782L71.8174 4.2379L74.0775 4.2379L74.0775 3.10782ZM69.5572 3.10782L67.2971 3.10782L67.2971 4.2379L69.5572 4.2379L69.5572 3.10782ZM65.0369 3.10782L62.7767 3.10782L62.7767 4.2379L65.0369 4.2379L65.0369 3.10782ZM60.5166 3.10782L58.2564 3.10782L58.2564 4.2379L60.5166 4.2379L60.5166 3.10782ZM55.9962 3.10782L53.7361 3.10782L53.7361 4.2379L55.9962 4.2379L55.9962 3.10782ZM51.4759 3.10782L49.2158 3.10782L49.2158 4.2379L51.4759 4.2379L51.4759 3.10782ZM46.9556 3.10782L44.6954 3.10782L44.6954 4.2379L46.9556 4.2379L46.9556 3.10782ZM42.4353 3.10782L40.1751 3.10782L40.1751 4.2379L42.4353 4.2379L42.4353 3.10782ZM37.9149 3.10782L35.6548 3.10782L35.6548 4.2379L37.9149 4.2379L37.9149 3.10782ZM33.3946 3.10782L31.1345 3.10782L31.1345 4.2379L33.3946 4.2379L33.3946 3.10782ZM28.8743 3.10782L26.6141 3.10782L26.6141 4.2379L28.8743 4.2379L28.8743 3.10782ZM24.354 3.10782L22.0938 3.10782L22.0938 4.2379L24.354 4.2379L24.354 3.10782ZM19.8336 3.10782L17.5735 3.10782L17.5735 4.2379L19.8336 4.2379L19.8336 3.10782ZM15.3133 3.10782L13.0532 3.10782L13.0532 4.2379L15.3133 4.2379L15.3133 3.10782ZM10.793 3.10782L8.53284 3.10782L8.53284 4.2379L10.793 4.2379L10.793 3.10782ZM6.27267 3.10782L4.01251 3.10782L4.01251 4.2379L6.27267 4.2379L6.27267 3.10782ZM1.75235 3.10782L0.622299 3.10782L0.622299 4.2379L1.75235 4.2379L1.75235 3.10782Z" fill="white"/>
</svg>
