<svg width="84" height="8" viewBox="0 0 84 8" fill="none" xmlns="http://www.w3.org/2000/svg">
<path d="M0.478639 3.99756C0.478639 5.6619 1.82785 7.01111 3.49219 7.01111C5.15652 7.01111 6.50574 5.6619 6.50574 3.99756C6.50574 2.33322 5.15652 0.98401 3.49219 0.98401C1.82785 0.98401 0.478639 2.33322 0.478639 3.99756ZM3.49219 4.5626H4.60657V3.43252H3.49219V4.5626ZM6.83534 4.5626H9.06411V3.43252H6.83534V4.5626ZM11.2929 4.5626H13.5217V3.43252H11.2929V4.5626ZM15.7504 4.5626H17.9792V3.43252H15.7504V4.5626ZM20.208 4.5626H22.4367V3.43252H20.208V4.5626ZM24.6655 4.5626H26.8943V3.43252H24.6655V4.5626ZM29.1231 4.5626H31.3518V3.43252H29.1231V4.5626ZM33.5806 4.5626H35.8094V3.43252H33.5806V4.5626ZM38.0381 4.5626H40.2669V3.43252H38.0381V4.5626ZM42.4957 4.5626H44.7244V3.43252H42.4957V4.5626ZM46.9532 4.5626H49.182V3.43252H46.9532V4.5626ZM51.4108 4.5626H53.6395V3.43252H51.4108V4.5626ZM55.8683 4.5626H58.0971V3.43252H55.8683V4.5626ZM60.3258 4.5626H62.5546V3.43252H60.3258V4.5626ZM64.7834 4.5626H67.0122V3.43252H64.7834V4.5626ZM69.2409 4.5626H71.4697V3.43252H69.2409V4.5626ZM73.6985 4.5626H75.9272V3.43252H73.6985V4.5626ZM78.156 4.5626H80.3848V3.43252H78.156V4.5626ZM82.6135 4.5626H83.7279V3.43252H82.6135V4.5626Z" fill="white"/>
</svg>
