<svg width="66" height="7" viewBox="0 0 66 7" fill="none" xmlns="http://www.w3.org/2000/svg">
<path d="M0.559694 3.59961C0.559693 5.26395 1.90891 6.61316 3.57324 6.61316C5.23758 6.61316 6.58679 5.26395 6.58679 3.59961C6.58679 1.93527 5.23758 0.586061 3.57324 0.586061C1.90891 0.586061 0.559694 1.93527 0.559694 3.59961ZM3.57324 4.16465L4.68314 4.16465L4.68314 3.03457L3.57324 3.03457L3.57324 4.16465ZM6.90294 4.16465L9.12275 4.16465L9.12275 3.03457L6.90294 3.03457L6.90294 4.16465ZM11.3425 4.16465L13.5624 4.16465L13.5624 3.03457L11.3425 3.03457L11.3425 4.16465ZM15.7822 4.16465L18.002 4.16465L18.002 3.03457L15.7822 3.03457L15.7822 4.16465ZM20.2218 4.16465L22.4416 4.16465L22.4416 3.03457L20.2218 3.03457L20.2218 4.16465ZM24.6614 4.16465L26.8812 4.16465L26.8812 3.03457L24.6614 3.03457L24.6614 4.16465ZM29.101 4.16465L31.3208 4.16465L31.3208 3.03457L29.101 3.03457L29.101 4.16465ZM33.5406 4.16465L35.7604 4.16465L35.7604 3.03457L33.5406 3.03457L33.5406 4.16465ZM37.9802 4.16465L40.2 4.16465L40.2 3.03457L37.9802 3.03457L37.9802 4.16465ZM42.4198 4.16465L44.6396 4.16465L44.6396 3.03457L42.4198 3.03457L42.4198 4.16465ZM46.8594 4.16465L49.0792 4.16465L49.0792 3.03457L46.8594 3.03457L46.8594 4.16465ZM51.299 4.16465L53.5188 4.16465L53.5188 3.03457L51.299 3.03457L51.299 4.16465ZM55.7386 4.16465L57.9584 4.16465L57.9584 3.03457L55.7386 3.03457L55.7386 4.16465ZM60.1782 4.16465L62.398 4.16465L62.398 3.03457L60.1782 3.03457L60.1782 4.16465ZM64.6178 4.16466L65.7277 4.16466L65.7277 3.03457L64.6178 3.03457L64.6178 4.16466Z" fill="white"/>
</svg>
