<svg width="147" height="7" viewBox="0 0 147 7" fill="none" xmlns="http://www.w3.org/2000/svg">
<path d="M146.725 3.73389C146.725 2.06955 145.376 0.720338 143.712 0.720338C142.048 0.720338 140.698 2.06955 140.698 3.73389C140.698 5.39822 142.048 6.74744 143.712 6.74744C145.376 6.74744 146.725 5.39822 146.725 3.73389ZM143.712 3.16885L142.591 3.16885L142.591 4.29893L143.712 4.29893L143.712 3.16885ZM140.348 3.16885L138.106 3.16885L138.106 4.29893L140.348 4.29893L140.348 3.16885ZM135.863 3.16885L133.621 3.16885L133.621 4.29893L135.863 4.29893L135.863 3.16885ZM131.378 3.16885L129.136 3.16885L129.136 4.29893L131.378 4.29893L131.378 3.16885ZM126.893 3.16885L124.651 3.16885L124.651 4.29893L126.893 4.29893L126.893 3.16885ZM122.408 3.16885L120.166 3.16885L120.166 4.29893L122.408 4.29893L122.408 3.16885ZM117.923 3.16885L115.681 3.16885L115.681 4.29893L117.923 4.29893L117.923 3.16885ZM113.438 3.16885L111.196 3.16885L111.196 4.29893L113.438 4.29893L113.438 3.16885ZM108.953 3.16885L106.711 3.16885L106.711 4.29893L108.953 4.29893L108.953 3.16885ZM104.468 3.16885L102.226 3.16885L102.226 4.29893L104.468 4.29893L104.468 3.16885ZM99.9831 3.16885L97.7406 3.16885L97.7406 4.29893L99.9831 4.29893L99.9831 3.16885ZM95.4981 3.16885L93.2556 3.16885L93.2556 4.29893L95.4981 4.29893L95.4981 3.16885ZM91.0131 3.16885L88.7706 3.16885L88.7706 4.29893L91.0131 4.29893L91.0131 3.16885ZM86.5281 3.16885L84.2856 3.16885L84.2856 4.29893L86.5281 4.29893L86.5281 3.16885ZM82.043 3.16885L79.8005 3.16885L79.8005 4.29893L82.043 4.29893L82.043 3.16885ZM77.558 3.16885L75.3155 3.16885L75.3155 4.29893L77.558 4.29893L77.558 3.16885ZM73.073 3.16885L70.8305 3.16885L70.8305 4.29893L73.073 4.29893L73.073 3.16885ZM68.588 3.16885L66.3455 3.16885L66.3455 4.29893L68.588 4.29893L68.588 3.16885ZM64.103 3.16885L61.8605 3.16885L61.8605 4.29893L64.103 4.29893L64.103 3.16885ZM59.618 3.16885L57.3755 3.16885L57.3755 4.29893L59.618 4.29893L59.618 3.16885ZM55.133 3.16885L52.8905 3.16885L52.8905 4.29894L55.133 4.29893L55.133 3.16885ZM50.6479 3.16885L48.4054 3.16885L48.4054 4.29894L50.6479 4.29894L50.6479 3.16885ZM46.1629 3.16885L43.9204 3.16886L43.9204 4.29894L46.1629 4.29894L46.1629 3.16885ZM41.6779 3.16886L39.4354 3.16886L39.4354 4.29894L41.6779 4.29894L41.6779 3.16886ZM37.1929 3.16886L34.9504 3.16886L34.9504 4.29894L37.1929 4.29894L37.1929 3.16886ZM32.7079 3.16886L30.4654 3.16886L30.4654 4.29894L32.7079 4.29894L32.7079 3.16886ZM28.2229 3.16886L25.9804 3.16886L25.9804 4.29894L28.2229 4.29894L28.2229 3.16886ZM23.7379 3.16886L21.4953 3.16886L21.4953 4.29894L23.7379 4.29894L23.7379 3.16886ZM19.2528 3.16886L17.0103 3.16886L17.0103 4.29894L19.2528 4.29894L19.2528 3.16886ZM14.7678 3.16886L12.5253 3.16886L12.5253 4.29894L14.7678 4.29894L14.7678 3.16886ZM10.2828 3.16886L8.0403 3.16886L8.0403 4.29894L10.2828 4.29894L10.2828 3.16886ZM5.79779 3.16886L3.55528 3.16886L3.55528 4.29894L5.79779 4.29894L5.79779 3.16886ZM1.31277 3.16886L0.19165 3.16886L0.19165 4.29894L1.31277 4.29894L1.31277 3.16886Z" fill="white"/>
</svg>
