<svg width="122" height="7" viewBox="0 0 122 7" fill="none" xmlns="http://www.w3.org/2000/svg">
<path d="M121.807 3.13623C121.807 1.47189 120.457 0.122682 118.793 0.122682C117.129 0.122682 115.779 1.47189 115.779 3.13623C115.779 4.80057 117.129 6.14978 118.793 6.14978C120.457 6.14978 121.807 4.80057 121.807 3.13623ZM118.793 2.57119H117.652V3.70127H118.793V2.57119ZM115.37 2.57119L113.088 2.57119V3.70127L115.37 3.70127V2.57119ZM110.806 2.57119L108.524 2.57119V3.70127L110.806 3.70127V2.57119ZM106.243 2.57119H103.961V3.70127H106.243V2.57119ZM101.679 2.57119H99.3969V3.70127H101.679V2.57119ZM97.115 2.57119H94.8331V3.70127H97.115V2.57119ZM92.5512 2.57119L90.2693 2.57119V3.70127L92.5512 3.70127V2.57119ZM87.9874 2.57119L85.7055 2.57119V3.70127L87.9874 3.70127V2.57119ZM83.4236 2.57119H81.1417V3.70127H83.4236V2.57119ZM78.8598 2.57119L76.5779 2.57119V3.70127L78.8598 3.70127V2.57119ZM74.296 2.57119L72.0141 2.57119V3.70127L74.296 3.70127V2.57119ZM69.7322 2.57119H67.4503V3.70127H69.7322V2.57119ZM65.1684 2.57119L62.8866 2.57119V3.70127L65.1684 3.70127V2.57119ZM60.6047 2.57119L58.3228 2.57119V3.70127L60.6047 3.70127V2.57119ZM56.0409 2.57119L53.759 2.57119V3.70127L56.0409 3.70127V2.57119ZM51.4771 2.57119L49.1952 2.57119V3.70127L51.4771 3.70127V2.57119ZM46.9133 2.57119H44.6314V3.70127H46.9133V2.57119ZM42.3495 2.57119L40.0676 2.57119V3.70127L42.3495 3.70127V2.57119ZM37.7857 2.57119L35.5038 2.57119V3.70127L37.7857 3.70127V2.57119ZM33.222 2.57119H30.9401V3.70127H33.222V2.57119ZM28.6582 2.57119L26.3763 2.57119V3.70127L28.6582 3.70127V2.57119ZM24.0944 2.57119L21.8125 2.57119V3.70127L24.0944 3.70127V2.57119ZM19.5306 2.57119L17.2487 2.57119V3.70127L19.5306 3.70127V2.57119ZM14.9668 2.57119H12.6849V3.70127H14.9668V2.57119ZM10.403 2.57119H8.12115V3.70127H10.403V2.57119ZM5.83926 2.57119L3.55737 2.57119V3.70127L5.83926 3.70127V2.57119ZM1.27548 2.57119L0.134476 2.57119V3.70127L1.27548 3.70127V2.57119Z" fill="white"/>
</svg>
