<svg width="195" height="7" viewBox="0 0 195 7" fill="none" xmlns="http://www.w3.org/2000/svg">
<path d="M194.051 3.56738C194.051 1.90305 192.701 0.553834 191.037 0.553834C189.373 0.553834 188.024 1.90305 188.024 3.56738C188.024 5.23172 189.373 6.58093 191.037 6.58093C192.701 6.58093 194.051 5.23172 194.051 3.56738ZM191.037 3.00234H189.9V4.13242H191.037V3.00234ZM187.627 3.00234L185.353 3.00234V4.13242L187.627 4.13242V3.00234ZM183.079 3.00234L180.806 3.00234V4.13242H183.079V3.00234ZM178.532 3.00234H176.259V4.13242H178.532V3.00234ZM173.985 3.00234H171.711V4.13242L173.985 4.13242V3.00234ZM169.438 3.00234H167.164V4.13242H169.438V3.00234ZM164.891 3.00234L162.617 3.00234V4.13242H164.891V3.00234ZM160.343 3.00234L158.07 3.00234V4.13242H160.343V3.00234ZM155.796 3.00234H153.522V4.13242H155.796V3.00234ZM151.249 3.00234L148.975 3.00234V4.13242H151.249V3.00234ZM146.702 3.00234L144.428 3.00234V4.13242H146.702V3.00234ZM142.154 3.00234H139.881V4.13242H142.154V3.00234ZM137.607 3.00234H135.334V4.13242L137.607 4.13242V3.00234ZM133.06 3.00234H130.786V4.13242H133.06V3.00234ZM128.513 3.00234L126.239 3.00234V4.13242H128.513V3.00234ZM123.965 3.00234L121.692 3.00234V4.13242L123.965 4.13242V3.00234ZM119.418 3.00234H117.145V4.13242H119.418V3.00234ZM114.871 3.00234L112.597 3.00234V4.13242L114.871 4.13242V3.00234ZM110.324 3.00234L108.05 3.00234V4.13242L110.324 4.13242V3.00234ZM105.777 3.00234H103.503V4.13242H105.777V3.00234ZM101.229 3.00234L98.9558 3.00234V4.13242L101.229 4.13242V3.00234ZM96.6821 3.00234L94.4085 3.00234V4.13242H96.6821V3.00234ZM92.1349 3.00234L89.8613 3.00234V4.13242H92.1349V3.00234ZM87.5877 3.00234L85.3141 3.00234V4.13242L87.5877 4.13242V3.00234ZM83.0405 3.00234H80.7668V4.13242H83.0405V3.00234ZM78.4932 3.00234L76.2196 3.00234V4.13242H78.4932V3.00234ZM73.946 3.00234L71.6724 3.00234V4.13242H73.946V3.00234ZM69.3988 3.00234H67.1252V4.13242H69.3988V3.00234ZM64.8516 3.00234L62.5779 3.00234V4.13242L64.8516 4.13242V3.00234ZM60.3043 3.00234L58.0307 3.00234V4.13242H60.3043V3.00234ZM55.7571 3.00234L53.4835 3.00234V4.13242H55.7571V3.00234ZM51.2098 3.00234L48.9362 3.00234V4.13242L51.2098 4.13242V3.00234ZM46.6626 3.00234H44.389V4.13242H46.6626V3.00234ZM42.1153 3.00234L39.8417 3.00234V4.13242L42.1153 4.13242V3.00234ZM37.5681 3.00234L35.2945 3.00234V4.13242L37.5681 4.13242V3.00234ZM33.0209 3.00234H30.7473V4.13242H33.0209V3.00234ZM28.4736 3.00234L26.2 3.00234V4.13242L28.4736 4.13242V3.00234ZM23.9264 3.00234L21.6528 3.00234V4.13242H23.9264V3.00234ZM19.3792 3.00234L17.1055 3.00234V4.13242H19.3792V3.00234ZM14.8319 3.00234L12.5583 3.00234V4.13242L14.8319 4.13242V3.00234ZM10.2847 3.00234H8.01103V4.13242H10.2847V3.00234ZM5.73741 3.00234L3.46381 3.00234V4.13242H5.73741V3.00234ZM1.19019 3.00234L0.0534668 3.00234V4.13242H1.19019V3.00234Z" fill="white"/>
</svg>
