<svg width="146" height="7" viewBox="0 0 146 7" fill="none" xmlns="http://www.w3.org/2000/svg">
<path d="M145.457 3.84375C145.457 2.17941 144.108 0.830201 142.443 0.830201C140.779 0.830201 139.43 2.17941 139.43 3.84375C139.43 5.50809 140.779 6.8573 142.443 6.8573C144.108 6.8573 145.457 5.50809 145.457 3.84375ZM142.443 3.27871H141.331V4.40879H142.443V3.27871ZM139.106 3.27871L136.881 3.27871V4.40879L139.106 4.40879V3.27871ZM134.656 3.27871L132.432 3.27871V4.40879H134.656V3.27871ZM130.207 3.27871L127.982 3.27871V4.40879H130.207V3.27871ZM125.757 3.27871L123.532 3.27871V4.40879L125.757 4.40879V3.27871ZM121.307 3.27871H119.082V4.40879H121.307V3.27871ZM116.858 3.27871L114.633 3.27871V4.40879H116.858V3.27871ZM112.408 3.27871L110.183 3.27871V4.40879H112.408V3.27871ZM107.958 3.27871H105.733V4.40879H107.958V3.27871ZM103.509 3.27871H101.284V4.40879L103.509 4.40879V3.27871ZM99.0589 3.27871H96.834V4.40879H99.0589V3.27871ZM94.6092 3.27871L92.3843 3.27871V4.40879H94.6092V3.27871ZM90.1595 3.27871L87.9346 3.27871V4.40879L90.1595 4.40879V3.27871ZM85.7098 3.27871H83.4849V4.40879H85.7098V3.27871ZM81.2601 3.27871L79.0352 3.27871V4.40879L81.2601 4.40879V3.27871ZM76.8104 3.27871L74.5855 3.27871V4.40879H76.8104V3.27871ZM72.3607 3.27871L70.1358 3.27871V4.40879H72.3607V3.27871ZM67.911 3.27871L65.6862 3.27871V4.40879L67.911 4.40879V3.27871ZM63.4613 3.27871H61.2365V4.40879H63.4613V3.27871ZM59.0116 3.27871L56.7868 3.27871V4.40879H59.0116V3.27871ZM54.5619 3.27871L52.3371 3.27871V4.40879H54.5619V3.27871ZM50.1122 3.27871H47.8874V4.40879H50.1122V3.27871ZM45.6625 3.27871H43.4377V4.40879L45.6625 4.40879V3.27871ZM41.2129 3.27871H38.988V4.40879H41.2129V3.27871ZM36.7632 3.27871L34.5383 3.27871V4.40879H36.7632V3.27871ZM32.3135 3.27871L30.0886 3.27871V4.40879L32.3135 4.40879V3.27871ZM27.8638 3.27871H25.6389V4.40879H27.8638V3.27871ZM23.4141 3.27871L21.1892 3.27871V4.40879L23.4141 4.40879V3.27871ZM18.9644 3.27871L16.7395 3.27871V4.40879H18.9644V3.27871ZM14.5147 3.27871L12.2899 3.27871V4.40879H14.5147V3.27871ZM10.065 3.27871L7.84015 3.27871V4.40879H10.065V3.27871ZM5.6153 3.27871H3.39044V4.40879H5.6153V3.27871ZM1.16559 3.27871H0.0531769V4.40879H1.16559V3.27871Z" fill="white"/>
</svg>
