<svg width="172" height="159" viewBox="0 0 172 159" fill="none" xmlns="http://www.w3.org/2000/svg">
<path d="M124.46 25.6C126.999 25.6 129.538 25.6 132.253 25.6C132.253 27.3032 132.253 28.8712 132.095 30.5564C130.829 30.6736 129.721 30.6736 128.593 30.6736C128.593 38.8612 128.593 46.7758 128.593 54.6903C128.575 58.165 128.533 61.6401 128.572 65.1142C128.577 65.5362 128.919 66.0717 129.268 66.3542C132.208 68.7337 135.187 71.0659 138.152 73.4141C138.524 73.7082 138.887 74.013 139.323 74.3693C137.832 76.1938 136.384 77.9657 134.868 79.8212C133.302 78.5807 131.78 77.3752 130.004 75.9683C130.004 85.0462 130.004 93.9107 130.014 103.014C130.043 108.634 130.062 114.015 130.076 119.516C130.069 125.893 130.088 132.149 130.044 138.405C130.037 139.426 130.324 139.765 131.368 139.742C134.152 139.681 136.939 139.711 139.725 139.75C140.212 139.757 140.696 139.982 141.181 140.106C139.749 141.206 138.316 142.307 136.716 143.404C136.486 143.398 136.425 143.396 136.243 143.369C132.384 143.336 128.646 143.331 124.908 143.317C114.467 143.276 104.025 143.201 93.5841 143.198C85.0577 143.196 76.5313 143.3 68.0048 143.318C58.606 143.337 49.2071 143.31 39.8083 143.311C39.3796 143.311 38.9508 143.39 38.5221 143.432C36.9708 142.346 35.4194 141.26 33.9165 140.061C34.2135 139.884 34.4617 139.765 34.7107 139.764C38.2285 139.743 41.7465 139.728 45.2643 139.738C46.1219 139.741 46.9792 139.842 47.955 139.896C52.1757 139.895 56.2781 139.911 60.3801 139.878C60.8845 139.874 61.3867 139.602 61.9437 139.415C62.1903 139.537 62.3831 139.698 62.7032 139.844C67.1112 139.806 71.3919 139.783 75.7507 139.84C76.0878 139.934 76.347 139.96 76.6063 139.962C78.4893 139.979 78.4731 139.977 78.4733 138.145C78.4737 134.334 78.5122 130.523 78.4999 126.713C78.4858 122.385 78.4332 118.057 78.4388 113.608C78.4801 112.457 78.4801 111.428 78.4801 110.337C87.246 110.337 95.8527 110.337 104.581 110.337C104.581 111.528 104.581 112.608 104.568 113.805C104.551 120.169 104.546 126.415 104.518 132.725C104.552 132.852 104.609 132.914 104.79 133.009C111.602 133.043 118.292 133.043 125.04 133.043C125.062 132.54 125.094 132.158 125.094 131.776C125.096 113.923 125.096 96.069 125.091 78.2153C125.091 77.7832 125.034 77.3512 125.04 76.7983C125.088 75.505 125.168 74.3271 125.077 73.1627C125.039 72.6859 124.744 72.0969 124.373 71.7981C113.81 63.2929 103.22 54.8217 92.6415 46.3351C91.0352 45.0464 91.0533 45.0239 89.4976 46.6562C79.3256 55.0018 69.2347 63.318 59.1647 71.6593C58.9299 71.8538 58.93 72.3309 58.8003 72.7782C58.8012 73.0866 58.8224 73.2929 58.8227 73.5926C58.8018 73.8772 58.8017 74.0684 58.7791 74.3611C58.7896 74.6667 58.8227 74.8707 58.8267 75.1916C58.7931 93.4719 58.7886 111.635 58.6959 129.836C56.7493 130.397 55.3147 131.545 54.0416 132.837C53.9527 132.087 53.809 131.447 53.8063 130.807C53.7871 126.397 53.7991 121.987 53.7975 117.578C53.7968 115.736 53.7875 113.894 53.8112 111.934C53.8146 106.957 53.789 102.097 53.7899 97.1484C53.8206 96.9342 53.8248 96.8098 53.8806 96.5999C53.8935 95.7885 53.8549 95.0623 53.8083 94.2713C53.7926 94.1635 53.7849 94.1206 53.7852 93.9605C53.7895 93.1395 53.7858 92.4356 53.7857 91.6093C53.7892 86.4358 53.7892 81.3847 53.7892 76.0967C52.2093 77.3936 50.8514 78.5083 49.6164 79.5221C48.1874 78.1607 46.8135 76.8518 45.3973 75.4683C45.1258 75.098 44.8966 74.8024 44.6081 74.4303C46.2384 73.0358 47.7981 71.7018 49.4341 70.3247C50.7738 69.2287 52.0356 68.1742 53.3001 67.1228C60.6868 60.9816 68.0741 54.8411 75.5407 48.6627C76.3513 48.0101 77.0785 47.3906 77.8138 46.7808C81.9577 43.3441 86.1044 39.9107 90.248 36.4736C90.7778 36.0342 91.2346 35.7222 91.9407 36.3051C96.2262 39.8428 100.544 43.3418 104.852 46.8512C106.553 48.2359 108.258 49.6145 110.162 51.1593C110.2 50.4355 110.241 50.0214 110.241 49.6073C110.251 44.3553 110.259 39.1032 110.255 33.8512C110.255 32.8999 110.567 31.5831 110.076 31.0961C109.544 30.5677 108.234 30.855 107.279 30.6961C106.939 30.6396 106.384 30.3325 106.371 30.114C106.289 28.7023 106.329 27.2836 106.329 25.7909C106.922 25.7648 107.348 25.7303 107.773 25.7297C112.079 25.7239 116.384 25.7326 120.69 25.7163C121.947 25.7116 123.203 25.6406 124.46 25.6ZM100.918 113.711C95.4567 113.687 89.9951 113.658 84.5337 113.66C84.3102 113.661 83.8914 113.956 83.8937 114.109C83.9173 115.684 84.009 117.257 84.328 118.845C86.43 118.844 88.532 118.844 90.8775 118.853C93.9091 118.861 96.941 118.848 99.9721 118.892C100.816 118.905 101.136 118.622 101.096 117.773C101.036 116.478 101.06 115.18 100.918 113.711ZM84.332 139.709C89.4672 139.718 94.6024 139.73 99.7375 139.734C100.368 139.735 101.087 139.902 101.078 138.84C101.05 135.366 101.087 131.891 101.03 128.417C101.024 128.099 100.527 127.529 100.25 127.524C99.294 127.507 99.1822 126.993 99.2385 126.257C99.2972 125.488 98.9208 124.456 100.212 124.382C101.022 124.336 101.113 123.896 101.083 123.262C101.05 122.569 101.048 121.874 101.018 120.97C100.717 120.868 100.416 120.679 100.114 120.678C94.9907 120.662 89.8675 120.668 84.7442 120.676C84.495 120.676 84.2459 120.732 83.9356 120.77C83.8986 121.072 83.8416 121.322 83.8412 121.572C83.8343 127.335 83.83 133.098 83.8424 138.861C83.843 139.137 84.0018 139.412 84.332 139.709ZM124.258 43.0939C124.258 39.4049 124.28 35.7155 124.229 32.0272C124.223 31.5908 123.827 30.7896 123.593 30.7829C120.608 30.6978 117.62 30.7267 114.672 30.7267C114.57 31.0032 114.489 31.122 114.488 31.2409C114.472 37.9678 114.453 44.6947 114.491 51.4213C114.492 51.6948 115.048 52.1863 115.332 52.1761C115.626 52.1657 116.061 51.7106 116.151 51.3742C116.29 50.8574 116.188 50.2758 116.188 49.6427C116.626 49.6769 117.146 49.6353 117.174 49.7326C117.398 50.5244 117.53 51.3423 117.719 52.295C119.515 52.295 121.333 52.2599 123.15 52.3103C124.021 52.3344 124.282 51.9942 124.271 51.1666C124.237 48.563 124.258 45.9587 124.258 43.0939ZM116.104 139.944C117.512 139.944 118.92 139.944 120.334 139.944C120.334 139.059 120.334 138.426 120.334 137.831C120.187 137.752 120.113 137.677 120.038 137.677C116.524 137.659 113.01 137.656 109.496 137.631C108.492 137.624 108.741 138.347 108.686 138.909C108.62 139.578 108.795 139.966 109.593 139.952C111.675 139.916 113.759 139.942 116.104 139.944ZM117.673 136.571C119.758 136.571 121.845 136.534 123.929 136.588C124.832 136.612 125.132 136.33 125.137 135.41C125.142 134.466 124.79 134.234 123.912 134.248C121.088 134.293 118.264 134.266 115.44 134.272C113.399 134.276 113.326 134.377 113.829 136.57C114.999 136.57 116.205 136.57 117.673 136.571ZM119.762 53.3845C118.242 53.3889 116.723 53.377 115.204 53.4136C114.948 53.4198 114.549 53.5825 114.483 53.7679C114.405 53.9836 114.541 54.3898 114.726 54.5635C115.448 55.243 116.172 55.8509 117.326 55.7768C119.012 55.6686 120.71 55.7505 122.403 55.7445C124.318 55.7378 124.487 55.4822 123.867 53.3839C122.611 53.3839 121.317 53.3839 119.762 53.3845ZM105.717 136.573C107.621 136.572 109.526 136.54 111.429 136.584C112.333 136.604 112.375 136.11 112.358 135.43C112.342 134.777 112.348 134.238 111.43 134.26C109.483 134.306 107.535 134.286 105.588 134.283C104.952 134.282 104.467 134.408 104.505 135.202C104.537 135.877 104.34 136.687 105.717 136.573ZM82.0062 134.367C82.0062 136.094 82.0062 137.82 82.0062 139.547C82.1214 139.542 82.2366 139.536 82.3518 139.531C82.3518 130.883 82.3518 122.235 82.3518 113.587C82.2366 113.587 82.1214 113.587 82.0062 113.587C82.0062 120.427 82.0062 127.267 82.0062 134.367ZM121.486 138.337C121.486 138.832 121.486 139.328 121.486 139.944C122.254 139.944 122.809 139.943 123.365 139.945C125.287 139.952 125.469 139.688 124.789 137.449C123.722 137.663 122.614 137.884 121.486 138.337ZM105.455 139.945C107.813 139.947 107.91 139.836 107.342 137.609C106.784 137.609 106.176 137.537 105.598 137.635C105.221 137.699 104.582 138.022 104.589 138.21C104.611 138.814 103.991 139.761 105.455 139.945ZM123.863 59.3655C123.886 58.6312 124.204 57.5085 123.865 57.2521C123.333 56.8507 122.358 57.035 121.599 56.9734C121.147 59.4758 121.161 59.494 123.366 59.4465C123.453 59.4447 123.539 59.4345 123.863 59.3655ZM119.699 58.7045C119.891 58.2095 120.083 57.7145 120.33 57.0781C119.287 57.0781 118.627 57.0781 117.686 57.0781C118.44 57.7 118.988 58.1524 119.699 58.7045ZM122.306 61.0765C122.894 61.5346 123.482 61.9926 124.07 62.4507C124.258 61.8325 124.276 61.0401 124.055 60.9672C123.498 60.7829 122.833 60.9223 122.306 61.0765Z" fill="#3D2024"/>
<path d="M10.6726 41.0454C11.533 40.1944 12.3284 39.4001 13.207 38.69C13.2344 39.4197 13.1987 40.0676 13.1198 40.7103C12.7175 43.9871 12.4127 47.2569 13.274 50.5177C14.436 54.9174 18.4474 58.6276 22.9001 59.1051C25.0206 59.3324 27.1858 59.1441 29.495 59.1441C29.495 60.8052 29.5544 62.5354 29.4617 64.2574C29.4306 64.8365 29.1321 65.4969 28.749 65.9436C27.6208 67.2589 26.302 68.4159 25.215 69.7613C22.6651 72.9172 20.9867 76.5385 20.2617 80.5104C19.8632 82.6932 19.8025 84.9605 19.8156 87.1883C19.8275 89.2106 20.1456 91.2311 20.2374 93.2418C12.2877 89.7385 6.43201 84.21 2.89298 76.3264C1.67933 72.8683 0.804888 69.3344 0.764763 65.6522C0.66901 56.8704 3.90467 49.317 9.40239 42.6156C9.8114 42.1171 10.2061 41.6069 10.6726 41.0454Z" fill="#4A625A"/>
<path d="M130.37 147.574C121.412 152.714 111.8 155.998 101.586 157.454C79.9991 160.531 59.7989 156.631 41.1174 145.279C40.8948 145.144 40.6822 144.992 40.5435 144.763C50.9166 144.678 61.2111 144.678 71.5057 144.678C70.0831 144.395 68.6572 144.431 67.2353 144.372C66.8358 144.355 66.448 144.06 66.1749 143.889C67.3713 143.8 68.447 143.645 69.5237 143.64C74.5616 143.613 79.5998 143.617 84.6377 143.649C84.9816 143.651 85.3233 143.974 85.5435 144.149C84.0436 144.151 82.6663 144.151 81.289 144.151C81.2909 144.183 81.2927 144.215 81.2946 144.247C83.0399 144.408 84.7853 144.569 86.4984 144.819C86.5534 145.319 86.6407 145.731 86.7445 146.249C87.0061 146.489 87.245 146.722 87.4973 146.738C89.4006 146.854 91.3064 147 93.2117 147.004C105.087 147.029 116.962 147.012 128.837 147.045C129.349 147.046 129.859 147.39 130.37 147.574ZM59.9447 146.5C59.1782 146.5 58.4117 146.5 57.6452 146.5C57.6516 146.608 57.6581 146.715 57.6645 146.823C66.7186 146.823 75.7727 146.823 84.8268 146.823C84.8267 146.715 84.8266 146.607 84.8265 146.499C76.6177 146.499 68.4087 146.499 59.9447 146.5ZM89.4368 148.311C83.5866 148.311 77.7364 148.311 71.8862 148.311C71.8867 148.377 71.8871 148.443 71.8876 148.51C78.552 148.51 85.2164 148.51 91.8809 148.51C91.8814 148.444 91.8819 148.377 91.8825 148.311C91.1519 148.311 90.4214 148.311 89.4368 148.311Z" fill="#D2734A"/>
<path d="M131.978 102.992C131.552 97.5524 135.567 94.5377 140.304 93.8092C142.816 93.4229 145.238 93.7363 147.544 94.8034C148.398 95.1987 148.954 95.0634 149.505 94.2528C151.695 91.0317 154.945 88.9381 158.241 87.2058C162.182 85.1344 166.266 86.1635 170.059 88.2392C170.363 88.4056 170.645 88.6121 171.022 88.8304C171.127 89.1375 171.146 89.4142 171.149 89.8604C171.135 90.0756 171.139 90.1213 171.143 90.167C170.14 94.0237 169.24 97.9109 168.099 101.727C167.343 104.255 166.243 106.68 165.165 109.136C163.868 108.459 162.596 108.354 161.504 109.046C160.221 109.858 159.085 110.473 157.739 109.134C157.55 109.027 157.409 108.979 157.222 108.853C156.696 108.564 156.218 108.352 155.739 108.139C155.695 108.266 155.651 108.392 155.607 108.518C156.156 108.662 156.704 108.806 157.3 109.009C157.489 109.115 157.63 109.163 157.787 109.306C158.949 110.656 158.621 111.998 157.928 113.355C154.176 112.642 150.625 113.038 147.056 114.329C146.721 113.686 146.388 113.089 146.094 112.474C144.1 108.301 140.78 105.775 136.366 104.537C134.876 104.12 133.439 103.513 131.978 102.992Z" fill="#EBA168"/>
<path d="M32.5076 6.94209C34.9367 6.75631 37.2696 6.53443 39.6076 6.44724C42.995 6.32083 46.3859 6.27037 49.7758 6.23656C50.6144 6.22819 51.168 6.03668 51.7265 5.30582C54.0441 2.27352 57.1036 0.384548 60.9586 0.0474949C69.0961 -0.663984 74.0502 6.7692 72.6049 12.2075C71.9196 14.7862 70.2186 16.1135 67.5702 16.1144C54.2523 16.1186 40.9343 16.1208 27.4946 16.1509C26.6739 16.1656 25.9749 16.1533 25.0471 16.1265C24.2837 16.1281 23.7492 16.1442 23.2145 16.1603C21.8967 16.334 21.6165 15.6282 21.8417 14.3343C21.8645 14.1047 21.8614 14.0569 21.8582 14.0092C22.824 10.8537 24.9664 9.09095 28.2363 8.73734C29.251 8.62758 30.139 8.43632 30.8903 7.64144C31.2419 7.26937 31.8964 7.18237 32.5076 6.94209ZM56.2406 5.9232C56.1992 5.92043 56.1577 5.91766 56.0015 5.96827C55.9293 6.0194 55.8813 6.08749 55.7793 6.21304C55.8195 6.21358 55.8597 6.21409 56.0166 6.16382C56.0902 6.11286 56.1375 6.04391 56.2406 5.9232ZM66.0573 6.78853C65.8059 6.58336 65.5545 6.37822 65.2046 6.01539C64.0102 5.09317 62.6954 4.99289 61.296 5.46011C62.6162 5.71294 63.9364 5.96579 65.2925 6.38504C65.5457 6.58661 65.7988 6.78814 66.0792 7.16117C66.2346 7.42017 66.39 7.67913 66.5453 7.9381C66.6412 7.87013 66.737 7.80214 66.8328 7.73417C66.5828 7.47597 66.3327 7.21774 66.0573 6.78853ZM59.5157 1.76224C59.9496 1.75966 60.3871 1.79229 60.8169 1.74887C64.0197 1.42503 66.7088 2.38735 68.8153 4.86699C68.9859 5.0677 69.2558 5.18424 69.6326 5.44633C68.1795 2.26944 63.0069 0.0656399 59.1282 1.76424C59.0029 1.78761 58.8775 1.81101 58.7522 1.8344C58.7736 1.89126 58.795 1.94808 58.8165 2.0049C58.9679 1.92236 59.1193 1.83985 59.5157 1.76224ZM55.0577 7.85823C53.9754 7.99874 52.8944 8.24784 51.8106 8.26044C47.7198 8.30797 43.628 8.2705 39.5366 8.2896C39.0905 8.29167 38.6451 8.45342 38.1993 8.54112C38.2231 8.67797 38.2469 8.81485 38.2707 8.95174C39.0964 8.90373 39.9221 8.81696 40.748 8.81425C45.0571 8.80021 49.3662 8.81062 53.6753 8.80378C54.2664 8.80282 54.9624 8.94343 55.0577 7.85823ZM62.259 3.83549C64.6076 3.63156 66.2661 5.03485 68.014 6.27629C66.8419 4.65336 65.2843 3.56277 63.3121 3.34786C60.9393 3.08938 58.7146 3.60763 56.8874 5.08464C58.5815 4.67198 60.2989 4.25366 62.259 3.83549ZM71.2072 7.98744C71.1013 7.98327 70.9955 7.97913 70.8896 7.97499C70.9321 8.08826 70.9745 8.20155 71.017 8.31481C71.0932 8.24787 71.1695 8.18092 71.2072 7.98744ZM55.3977 7.12313C55.4019 7.02237 55.4061 6.92165 55.4103 6.82093C55.3688 6.823 55.2921 6.8208 55.2913 6.82774C55.279 6.92818 55.277 7.02982 55.3977 7.12313ZM70.1272 5.88776C70.0341 5.88566 69.941 5.88356 69.8479 5.88143C69.8483 5.92017 69.8455 5.99237 69.8495 5.99275C69.942 6.00154 70.0353 6.00256 70.1272 5.88776ZM70.3735 6.79597C70.3555 6.77882 70.3374 6.76166 70.3735 6.79597Z" fill="#EBA269"/>
<path d="M141.192 140.087C140.696 139.982 140.212 139.757 139.725 139.75C136.94 139.711 134.152 139.681 131.368 139.742C130.324 139.765 130.037 139.426 130.044 138.405C130.088 132.149 130.069 125.893 130.197 119.511C133.069 119.109 135.472 119.818 137.21 121.887C137.786 121.593 138.18 121.233 138.598 121.203C141.047 121.029 143.485 121.068 145.652 122.455C146.524 123.014 147.333 123.672 148.178 124.293C148.186 124.302 148.232 124.325 148.291 124.392C148.619 124.676 148.887 124.894 149.153 125.168C149.237 125.261 149.323 125.297 149.45 125.318C149.49 125.303 149.491 125.192 149.491 125.192C149.491 125.192 149.373 125.154 149.32 125.142C149.267 125.13 149.16 125.108 149.16 125.026C149.153 124.836 149.145 124.728 149.136 124.525C148.788 124.054 148.441 123.676 148.1 123.29C148.107 123.282 148.097 123.299 148.107 123.203C148.378 122.903 148.639 122.7 148.899 122.5C148.897 122.501 148.899 122.497 148.925 122.556C149.001 122.688 149.069 122.738 149.156 122.763C149.158 122.762 149.155 122.766 149.155 122.861C149.511 123.319 149.868 123.683 150.289 124.056C150.353 124.067 150.481 124.093 150.507 124.127C150.532 124.161 150.644 124.146 150.644 124.146C150.644 124.146 150.683 124.029 150.691 123.936C150.603 123.497 150.507 123.15 150.467 122.737C150.679 122.602 150.834 122.533 151.001 122.473C151.013 122.483 151.025 122.511 151.047 122.563C151.195 122.611 151.321 122.606 151.521 122.544C152.38 121.702 153.033 120.551 153.976 120.218C155.64 119.629 157.478 119.584 159.159 120.506C156.342 125.294 152.778 129.498 148.852 133.391C146.569 135.653 144.112 137.739 141.604 139.897C141.382 139.934 141.288 139.979 141.195 140.024C141.195 140.024 141.202 140.067 141.192 140.087ZM146.009 125.549C146.128 125.598 146.247 125.648 146.365 125.697C146.263 125.576 146.16 125.455 145.969 125.196C145.778 125.103 145.587 125.009 145.395 124.915C145.361 124.99 145.327 125.066 145.293 125.141C145.517 125.235 145.741 125.329 146.009 125.549ZM136.264 123.947C136.397 124.071 136.527 124.299 136.664 124.303C139.377 124.392 142.091 124.455 144.553 124.517C143.221 123.71 142.246 123.614 136.264 123.947Z" fill="#4B6158"/>
<path d="M150.481 124.093C150.481 124.093 150.353 124.067 150.271 123.973C149.844 123.508 149.499 123.137 149.155 122.766C149.155 122.766 149.158 122.762 149.135 122.701C149.041 122.593 148.97 122.545 148.899 122.497C148.899 122.497 148.897 122.501 148.865 122.419C146.269 119.601 140.85 118.342 138.858 120.227C139.405 120.295 139.805 120.355 140.207 120.392C140.983 120.463 141.766 120.482 142.536 120.59C144.679 120.89 146.403 122.069 148.097 123.299C148.097 123.299 148.107 123.282 148.113 123.411C148.136 123.789 148.153 124.037 148.171 124.285C147.333 123.672 146.524 123.014 145.652 122.455C143.484 121.068 141.047 121.028 138.598 121.203C138.18 121.233 137.786 121.593 137.21 121.887C135.472 119.818 133.069 119.109 130.202 119.39C130.062 114.015 130.044 108.634 130.041 103.139C130.617 103.025 131.177 103.024 131.857 103.008C133.439 103.513 134.876 104.12 136.365 104.537C140.78 105.775 144.1 108.301 146.094 112.474C146.388 113.089 146.721 113.686 147.056 114.329C150.624 113.038 154.176 112.642 158.026 113.375C159.683 113.827 161.134 114.26 162.585 114.692C161.492 116.593 160.399 118.494 159.233 120.45C157.478 119.584 155.64 119.629 153.976 120.218C153.033 120.551 152.38 121.702 151.453 122.522C151.215 122.542 151.12 122.526 151.025 122.511C151.025 122.511 151.013 122.483 150.975 122.392C149.173 119.648 145.287 117.565 143.255 118.524C146.482 118.901 148.54 120.708 150.411 122.803C150.507 123.15 150.603 123.497 150.639 123.949C150.58 124.054 150.481 124.093 150.481 124.093Z" fill="#D3754C"/>
<path d="M23.5688 130.454C24.9297 129.58 26.2061 128.588 28.1396 128.72C30.5355 128.563 32.3149 129.372 33.8359 130.865C34.3326 131.353 34.879 131.799 35.3381 130.757C35.3774 130.747 35.4543 130.774 35.5195 130.849C37.0515 131.357 38.4813 131.836 39.4984 133.103C39.679 133.328 40.1105 133.361 40.4328 133.462C41.7209 133.865 43.4599 133.331 44.2448 134.72C45.3334 136.646 47.2717 136.593 48.9491 137.198C49.1118 137.257 49.2623 137.349 49.3762 137.502C48.8348 138.352 48.3358 139.125 47.8367 139.898C46.9793 139.842 46.122 139.741 45.2644 139.738C41.7465 139.728 38.2286 139.743 34.7108 139.764C34.4618 139.765 34.2136 139.884 33.8597 139.988C30.3569 136.865 26.9593 133.702 23.5688 130.454ZM27.64 130.612C28.6073 130.548 29.5745 130.483 30.7672 130.403C29.4694 129.921 28.3992 129.822 27.2193 130.561C27.153 130.609 27.0867 130.657 27.0204 130.705C27.1555 130.678 27.2905 130.651 27.64 130.612ZM31.1464 130.711L31.1965 130.736C31.1965 130.736 31.1877 130.686 31.1464 130.711Z" fill="#4B6158"/>
<path d="M85.6662 144.147C85.3235 143.974 84.9817 143.651 84.6379 143.649C79.6 143.616 74.5618 143.613 69.5238 143.64C68.4472 143.645 67.3715 143.8 66.0739 143.893C65.3163 143.974 64.7801 144.049 64.2112 144.026C63.737 143.828 63.2957 143.64 62.8539 143.639C55.4992 143.62 48.1446 143.62 40.7899 143.635C40.3352 143.636 39.8809 143.794 39.3856 143.917C39.3449 143.955 39.2709 144.037 39.2709 144.037C39.0474 143.884 38.8239 143.731 38.5615 143.505C38.9513 143.39 39.38 143.311 39.8088 143.311C49.2076 143.31 58.6065 143.337 68.0053 143.318C76.5318 143.3 85.0582 143.196 93.5846 143.198C104.026 143.201 114.467 143.276 124.908 143.317C128.646 143.331 132.384 143.336 136.235 143.432C136.332 143.603 136.327 143.687 136.334 143.771C136.142 143.905 135.951 144.039 135.614 144.136C133.61 144.07 131.751 144.01 129.892 144.017C120.542 144.054 111.192 144.139 101.841 144.143C97.8521 144.145 93.8629 143.992 89.75 143.902C88.4788 143.978 87.3312 144.061 86.0974 144.146C85.8962 144.147 85.7812 144.147 85.6662 144.147Z" fill="#BB704F"/>
<path d="M89.8736 143.91C93.8628 143.992 97.8519 144.145 101.841 144.143C111.191 144.139 120.542 144.054 129.892 144.018C131.751 144.01 133.609 144.07 135.531 144.167C135.209 144.548 134.824 144.86 134.325 145.082C133.82 144.884 133.428 144.685 133.036 144.683C128.044 144.665 123.052 144.674 117.987 144.679C117.781 144.737 117.65 144.792 117.397 144.852C107.028 144.814 96.7793 144.772 86.5307 144.73C84.7853 144.569 83.0399 144.408 81.2946 144.247C81.2927 144.215 81.2909 144.183 81.2891 144.151C82.6663 144.151 84.0436 144.151 85.5435 144.149C85.781 144.147 85.896 144.148 86.1778 144.218C87.5349 144.292 88.7864 144.862 89.8736 143.91Z" fill="#582505"/>
<path d="M130.458 147.566C129.859 147.389 129.349 147.046 128.837 147.045C116.962 147.012 105.087 147.029 93.2115 147.004C91.3062 147 89.4004 146.854 87.4971 146.737C87.2448 146.722 87.0059 146.489 86.8633 146.271C89.9997 146.217 93.0336 146.272 96.0675 146.277C102.361 146.289 108.654 146.279 114.947 146.261C115.723 146.259 116.499 146.149 117.333 146.186C117.892 146.356 118.392 146.478 118.894 146.491C123.159 146.6 127.425 146.688 131.691 146.783C131.309 147.041 130.928 147.3 130.458 147.566Z" fill="#582505"/>
<path d="M131.778 146.76C127.425 146.688 123.16 146.6 118.894 146.491C118.392 146.478 117.893 146.356 117.401 146.137C117.632 145.626 117.854 145.262 118.072 144.843C118.069 144.787 118.06 144.677 118.06 144.677C123.052 144.674 128.044 144.665 133.036 144.683C133.428 144.685 133.82 144.884 134.241 145.093C133.468 145.708 132.666 146.222 131.778 146.76Z" fill="#D2734A"/>
<path d="M162.651 114.64C161.134 114.26 159.683 113.827 158.134 113.376C158.621 111.999 158.949 110.656 157.791 109.301C157.779 109.203 157.786 109.193 157.786 109.193C159.084 110.473 160.221 109.858 161.504 109.046C162.596 108.354 163.868 108.459 165.102 109.205C164.353 111.056 163.536 112.822 162.651 114.64Z" fill="#582505"/>
<path d="M64.2433 144.124C64.7796 144.049 65.3159 143.974 65.9533 143.896C66.4477 144.06 66.8355 144.355 67.235 144.372C68.6569 144.431 70.0828 144.395 71.5054 144.678C61.2109 144.678 50.9163 144.678 40.4922 144.686C40.2365 144.656 40.1105 144.616 39.9554 144.433C39.9263 144.236 39.9262 144.181 40.0496 144.134C48.1965 144.135 56.2199 144.129 64.2433 144.124Z" fill="#582505"/>
<path d="M23.2915 16.2167C23.749 16.1443 24.2836 16.1282 24.9304 16.1369C24.4847 16.1989 23.9267 16.236 23.2915 16.2167Z" fill="#FEECCE"/>
<path d="M39.927 144.128C39.9271 144.182 39.9273 144.236 39.9281 144.371C39.7469 144.351 39.5649 144.249 39.3268 144.092C39.2707 144.037 39.3448 143.955 39.458 143.927C39.6898 143.975 39.8084 144.051 39.927 144.128Z" fill="#BB704F"/>
<path d="M136.396 143.757C136.327 143.687 136.332 143.603 136.356 143.457C136.425 143.396 136.487 143.398 136.633 143.438C136.631 143.564 136.545 143.653 136.396 143.757Z" fill="#582505"/>
<path d="M141.299 140.062C141.288 139.979 141.382 139.934 141.52 139.92C141.51 140.001 141.456 140.05 141.299 140.062Z" fill="#3D2024"/>
<path d="M171.178 90.1428C171.139 90.1213 171.135 90.0756 171.153 89.9646C171.253 89.9628 171.266 90.036 171.178 90.1428Z" fill="#FEECCE"/>
<path d="M21.8228 14.0336C21.8614 14.057 21.8645 14.1047 21.8392 14.2185C21.7397 14.2139 21.7319 14.1385 21.8228 14.0336Z" fill="#FEECCE"/>
<path d="M75.4614 48.7004C68.0743 54.8411 60.687 60.9816 53.3004 67.1228C52.0359 68.1742 50.774 69.2287 49.3394 70.2783C48.9171 70.2134 48.6694 70.1313 48.4151 70.0936C46.0207 69.7384 43.5997 69.5102 41.2365 69.0098C38.4853 68.4272 36.0461 65.652 35.7786 62.8821C35.6225 61.2659 35.7666 59.622 35.7523 57.9908C35.728 55.2069 33.9851 52.8433 31.2623 52.3898C29.2693 52.0579 27.1962 52.2352 25.1684 52.0695C24.0632 51.9792 22.8726 51.8616 21.902 51.3868C17.9272 49.4422 16.197 45.9746 15.931 41.7426C15.8122 39.854 16.061 37.9424 16.1429 36.0412C21.3685 31.9097 27.3099 29.293 33.8733 28.385C49.0229 26.2891 61.4205 31.4893 71.3181 42.9609C71.601 43.2889 71.8844 43.6164 72.2587 44.0648C73.3871 45.6904 74.4242 47.1954 75.4614 48.7004Z" fill="#A64D38"/>
<path d="M16.0601 36.0864C16.0606 37.9424 15.8118 39.854 15.9306 41.7426C16.1966 45.9746 17.9268 49.4422 21.9016 51.3868C22.8722 51.8616 24.0628 51.9792 25.168 52.0695C27.1958 52.2352 29.2689 52.0579 31.2619 52.3899C33.9847 52.8434 35.7276 55.207 35.7519 57.9908C35.7662 59.622 35.6221 61.2659 35.7782 62.8821C36.0457 65.652 38.4849 68.4273 41.2361 69.0098C43.5993 69.5102 46.0203 69.7384 48.4147 70.0936C48.669 70.1313 48.9167 70.2134 49.2625 70.3213C47.7979 71.7018 46.2383 73.0358 44.608 74.4303C44.8964 74.8024 45.1256 75.098 45.3917 75.577C45.5202 76.6141 45.1562 77.0648 44.279 77.1326C43.8504 77.1657 43.4326 77.3371 43.004 77.3719C42.1933 77.4375 41.9942 77.7749 42.1837 78.5816C42.495 79.9065 42.1305 81.1221 41.4056 82.2844C40.7224 83.38 40.0496 84.5162 39.6245 85.723C39.4285 86.2795 39.6067 87.264 40.0063 87.6817C41.8359 89.5937 44.1593 90.9074 46.7046 91.4009C48.9987 91.8455 51.418 91.6467 53.7821 91.7318C53.7857 92.4356 53.7893 93.1395 53.6835 93.9636C52.251 94.5171 50.928 94.9505 49.4952 95.3851C48.2231 95.5689 47.0608 95.7515 45.7973 95.9622C43.7166 96.2297 41.7372 96.4691 39.631 96.6961C37.5534 96.604 35.6024 96.5243 33.5379 96.4469C31.8413 96.269 30.2583 96.0887 28.5842 95.8693C27.1085 95.5159 25.724 95.2016 24.3395 94.8872C23.0576 94.3754 21.7757 93.8636 20.4111 93.3021C20.1454 91.2312 19.8272 89.2107 19.8154 87.1883C19.8023 84.9605 19.863 82.6933 20.2614 80.5104C20.9865 76.5385 22.6649 72.9172 25.2148 69.7613C26.3018 68.4159 27.6206 67.259 28.7488 65.9436C29.1319 65.497 29.4303 64.8365 29.4615 64.2574C29.5542 62.5354 29.4947 60.8052 29.4947 59.1442C27.1856 59.1442 25.0204 59.3325 22.8999 59.1051C18.4472 58.6276 14.4358 54.9174 13.2738 50.5177C12.4125 47.2569 12.7173 43.9871 13.1196 40.7103C13.1985 40.0676 13.2342 39.4197 13.2875 38.6584C14.1826 37.7389 15.0801 36.9352 16.0601 36.0864Z" fill="#7E3A2F"/>
<path d="M75.5406 48.6627C74.4239 47.1954 73.3867 45.6904 72.3413 44.0925C72.8824 37.3964 75.4865 31.6411 79.9049 26.7845C87.06 18.9198 96.0775 15.3116 106.674 16.1613C113.807 16.7332 119.91 19.6567 124.436 25.5165C123.203 25.6406 121.947 25.7115 120.69 25.7163C116.384 25.7325 112.079 25.7239 107.773 25.7297C107.348 25.7302 106.922 25.7647 106.329 25.7908C106.329 27.2835 106.289 28.7023 106.371 30.1139C106.384 30.3324 106.939 30.6396 107.279 30.696C108.234 30.855 109.544 30.5677 110.076 31.096C110.567 31.583 110.255 32.8998 110.255 33.8511C110.259 39.1032 110.251 44.3552 110.241 49.6073C110.241 50.0214 110.2 50.4354 110.162 51.1592C108.258 49.6144 106.552 48.2359 104.852 46.8512C100.544 43.3417 96.2261 39.8427 91.9407 36.305C91.2345 35.7221 90.7777 36.0341 90.248 36.4735C86.1043 39.9106 81.9576 43.3441 77.8137 46.7808C77.0785 47.3906 76.3512 48.01 75.5406 48.6627Z" fill="#A7723C"/>
<path d="M128.71 54.6909C128.593 46.7758 128.593 38.8613 128.593 30.6736C129.721 30.6736 130.829 30.6736 132.06 30.6725C133.029 30.5509 133.98 30.6327 134.69 30.2589C135.579 29.7911 135.922 30.0733 136.329 30.7701C139.157 35.6066 139.915 40.7037 137.941 45.9941C137.132 48.1635 135.86 50.1623 134.78 52.2293C134.384 52.9883 133.935 53.7204 133.381 54.6915C132.022 54.6915 130.424 54.6915 128.71 54.6909Z" fill="#E99F67"/>
<path d="M158.028 64.2014C159.09 63.8746 160.152 63.5478 161.559 63.1145C161.709 66.2519 162.169 69.1587 161.912 72.0007C161.456 77.0253 156.436 80.7613 151.392 80.0693C148.623 79.6893 145.891 79.0418 142.969 78.4818C143.294 77.8948 143.477 77.5651 143.84 77.1869C147.29 76.3427 150.609 75.7034 153.811 74.6958C155.909 74.0358 157.486 72.4482 157.783 70.1391C158.036 68.1818 157.959 66.1823 158.028 64.2014Z" fill="#CE7049"/>
<path d="M89.0045 13.6416C87.9098 14.8516 87.0051 16.1801 85.7727 17.0414C84.0181 18.2678 82.023 19.1512 79.8287 20.3455C79.6841 17.6091 79.3422 15.0717 79.4748 12.5593C79.6108 9.98182 80.8672 7.84843 83.2616 6.55984C84.9666 5.64221 86.6706 4.72248 88.6155 3.67404C89.0533 7.12206 90.4313 10.2506 89.0045 13.6416Z" fill="#E69C65"/>
<path d="M157.924 64.2266C157.96 66.1823 158.036 68.1818 157.784 70.1392C157.486 72.4482 155.909 74.0358 153.812 74.6958C150.609 75.7034 147.29 76.3427 143.903 77.1301C145.304 74.5064 146.806 71.8807 148.348 69.2791C149.564 67.227 151.516 66.1334 153.702 65.4187C155.057 64.9758 156.446 64.6372 157.924 64.2266Z" fill="#843E32"/>
<path d="M140.702 61.608C141.097 62.4546 141.435 63.2233 141.812 64.0795C142.102 63.3589 142.306 62.6567 142.652 62.0331C143.511 60.4854 144.762 59.4822 146.643 59.6558C147.9 59.7719 148.717 60.5299 149.025 61.7365C149.477 63.5101 148.697 64.8716 147.386 65.9644C144.471 68.3944 139.171 68.4445 136.198 66.0794C134.865 65.0186 134.033 63.6749 134.364 61.9048C134.58 60.752 135.338 59.9356 136.498 59.689C138.289 59.3082 139.595 60.1712 140.702 61.608Z" fill="#4B6158"/>
<path d="M121.198 14.2712C119.483 13.8721 117.724 13.6001 116.063 13.0414C114.032 12.3584 112.829 10.3581 112.949 8.14932C113.015 6.91924 113.237 5.69751 113.409 4.30084C114.066 4.76548 114.586 5.13294 115.147 5.67299C115.798 6.56611 116.268 7.62862 117.044 7.94626C119.953 9.13728 120.779 11.5359 121.198 14.2712Z" fill="#904234"/>
<path d="M60.8866 24.7008C62.2164 24.6185 63.022 25.2236 63.32 26.3465C63.6428 27.5625 63.0057 28.5298 61.9845 29.0364C60.6058 29.7205 59.1163 30.1824 57.6464 30.7505C57.1203 27.8767 58.5511 25.2289 60.8866 24.7008Z" fill="#E8A16B"/>
<path d="M149.417 48.4752C150.51 48.6582 151.371 49.0115 151.525 50.1665C151.693 51.419 151.23 52.4034 150.075 52.9323C148.76 53.5343 147.398 54.0341 146.04 54.5851C145.242 51.861 146.789 49.1427 149.417 48.4752Z" fill="#E8A16B"/>
<path d="M140.041 19.776C139.322 19.0996 138.693 18.4634 138.063 17.8272C138.152 17.6913 138.241 17.5554 138.329 17.4194C140.478 17.4194 142.658 17.2095 144.76 17.5224C145.605 17.6481 146.277 18.9219 147.193 19.8387C144.57 20.3814 142.341 21.0388 140.041 19.776Z" fill="#4B6158"/>
<path d="M121.277 14.3253C120.778 11.536 119.952 9.13731 117.043 7.94629C116.267 7.62865 115.798 6.56614 115.192 5.7471C116.593 6.5203 118.157 7.21402 119.333 8.3196C120.287 9.21724 120.845 10.5749 121.445 11.7941C121.838 12.5937 121.993 13.5101 122.304 14.5355C121.896 14.4682 121.626 14.4237 121.277 14.3253Z" fill="#B86B48"/>
<path d="M37.7838 23.2339C38.27 23.1896 38.6353 23.149 39.3837 23.0657C38.4751 24.3246 37.7698 25.302 36.9276 26.469C36.0473 25.3478 35.2718 24.3599 34.3906 23.2375C35.7144 23.2375 36.6887 23.2375 37.7838 23.2339Z" fill="#69342F"/>
<path d="M72.8611 24.2044C72.5492 23.8963 72.2373 23.5882 71.6851 23.0427C73.4052 23.0427 74.6742 23.0427 76.1977 23.0427C76.0211 23.3516 75.8593 23.6345 75.4902 23.9282C74.4756 24.0274 73.6683 24.1159 72.8611 24.2044Z" fill="#69342F"/>
<path d="M72.9004 24.2818C73.6685 24.1159 74.4758 24.0274 75.4014 23.9477C75.0917 24.5678 74.6638 25.1793 74.1255 25.9483C73.6352 25.2912 73.2873 24.8252 72.9004 24.2818Z" fill="#BB704F"/>
<path d="M150.612 37.9567C150.302 38.3179 150.059 38.6146 149.747 38.9962C149.305 38.4516 148.888 37.939 148.403 37.3428C149.314 37.3428 150.09 37.3428 150.939 37.3428C150.87 37.4896 150.774 37.6909 150.612 37.9567Z" fill="#69342F"/>
<path d="M58.7842 129.799C58.7887 111.635 58.7933 93.4719 58.9156 75.1928C59.1898 75.0057 59.3707 74.9641 59.499 74.8588C64.0463 71.1248 68.5936 67.3908 73.1215 63.6336C73.4588 63.3537 73.6517 62.9005 73.9087 62.5249C73.9057 62.5219 73.9087 62.5293 73.9904 62.5462C74.1929 62.4638 74.3136 62.3644 74.4307 62.2631C74.427 62.2612 74.4311 62.2687 74.5197 62.262C75.0729 61.8241 75.5374 61.393 75.9987 60.9596C75.9954 60.9573 75.9995 60.9646 76.0893 60.9582C76.4688 60.607 76.7585 60.2623 77.0445 59.9154C77.0407 59.9133 77.041 59.9219 77.1229 59.9331C77.3265 59.8484 77.4484 59.7526 77.5664 59.655C77.5626 59.6534 77.5662 59.661 77.6564 59.6518C78.7326 58.7788 79.7186 57.915 80.7017 57.0484C80.6987 57.0456 80.7035 57.0525 80.7943 57.0454C82.1317 55.9125 83.3783 54.7867 84.6219 53.6582C84.6189 53.6555 84.6225 53.6618 84.6953 53.654C84.8076 53.5633 84.847 53.4803 84.8826 53.3958C84.8786 53.3943 84.8808 53.4024 84.9632 53.42C85.1663 53.3383 85.2869 53.2389 85.4048 53.1367C85.402 53.1339 85.407 53.1407 85.4952 53.1346C85.7863 52.8715 85.9892 52.6146 86.1891 52.3546C86.1859 52.3516 86.1911 52.3574 86.2629 52.3488C86.3743 52.2584 86.414 52.1767 86.4504 52.0928C86.4472 52.0908 86.4497 52.098 86.5412 52.1063C86.7883 52.0197 86.944 51.9248 87.1248 51.8133C87.15 51.7968 87.2297 51.707 87.2897 51.6509C87.3993 51.5 87.4491 51.4052 87.4953 51.3101C87.4916 51.3097 87.4971 51.3154 87.5879 51.3106C88.14 50.951 88.6089 50.6047 89.0472 50.2236C89.0787 50.1963 88.887 49.9135 88.7992 49.6491C88.7957 49.3472 88.7922 49.1458 88.8539 48.8784C89.5376 49.0283 90.2761 49.0954 90.7569 49.4818C100.341 57.1838 109.889 64.9296 119.459 72.648C121.275 74.1121 123.154 75.4973 125.004 76.919C125.034 77.3511 125.091 77.7832 125.092 78.2153C125.096 96.069 125.096 113.923 125.094 131.776C125.094 132.158 125.062 132.54 125.04 133.043C118.292 133.043 111.602 133.043 104.792 132.95C104.647 132.779 104.604 132.714 104.542 132.661C104.546 126.415 104.551 120.169 104.68 113.794C105.746 113.589 106.954 113.855 107.572 113.371C109.046 112.215 110.242 110.705 111.67 109.338C112.124 109.302 112.458 109.264 112.769 109.229C112.769 107.094 112.769 105.034 112.769 102.905C111.848 102.905 111.025 102.905 110.202 102.905C96.7986 102.903 83.3947 102.921 69.9912 102.864C68.7398 102.859 67.9193 103.169 67.3301 104.29C66.4084 105.155 65.5077 105.966 64.7607 106.9C62.4292 109.814 62.5033 113.254 62.7129 116.829C62.6997 117.327 62.7055 117.71 62.6672 118.17C62.6379 118.62 62.6526 118.991 62.6456 119.462C62.6511 119.76 62.6782 119.959 62.6928 120.278C62.6815 120.959 62.7345 121.526 62.6727 122.08C62.5626 123.068 62.976 123.361 63.9311 123.316C65.4853 123.244 67.0447 123.286 68.6307 123.371C69.0106 124.296 69.4071 124.15 69.9331 123.515C71.6857 123.439 73.3345 123.402 74.9742 123.259C75.3176 123.229 75.8853 122.832 75.9052 122.57C75.9728 121.681 75.8414 120.777 75.7816 119.778C75.7428 119.547 75.7084 119.418 75.7371 119.236C75.8494 118.817 75.8987 118.45 75.9443 117.973C75.878 116.542 75.8155 115.219 75.8643 113.883C76.7829 113.823 77.5902 113.776 78.3975 113.73C78.4333 118.057 78.486 122.385 78.5 126.713C78.5124 130.523 78.4739 134.334 78.4734 138.145C78.4732 139.977 78.4895 139.979 76.6064 139.962C76.3471 139.96 76.088 139.934 75.7515 139.744C74.8676 137.266 73.4673 135.334 71.6233 133.797C67.9199 130.71 63.7125 129.055 58.7842 129.799ZM112.779 93.736C112.788 86.5271 112.808 79.3183 112.771 72.1097C112.769 71.7247 112.377 71.1339 112.022 70.9894C105.821 68.4595 99.3891 66.9039 92.6689 66.721C84.7207 66.5045 77.1522 68.2786 69.8005 71.1601C69.1825 71.4022 68.9667 71.7237 68.9691 72.3969C68.995 79.5199 68.9849 86.643 68.939 94.0122C68.9337 94.6638 68.9897 95.323 68.9094 95.9653C68.7739 97.0489 69.2686 97.2922 70.2527 97.2608C72.1226 97.2012 73.9959 97.2489 75.8677 97.2493C86.8377 97.2517 97.8076 97.2596 108.777 97.2369C109.341 97.2357 110.09 97.1462 110.429 96.7905C111.258 95.9221 111.897 94.8733 112.779 93.736ZM118.328 110.863C115.786 110.863 113.244 110.863 110.742 110.863C110.742 114.338 110.742 117.527 110.742 120.689C113.554 120.689 116.275 120.689 119.033 120.689C119.033 117.616 119.045 114.628 119.013 111.641C119.01 111.38 118.72 111.122 118.328 110.863Z" fill="#FDEBCE"/>
<path d="M101.032 121.18C101.048 121.874 101.05 122.569 101.083 123.262C101.113 123.896 101.022 124.336 100.213 124.382C98.9209 124.456 99.2973 125.488 99.2386 126.257C99.1824 126.993 99.2942 127.507 100.25 127.524C100.527 127.529 101.024 128.099 101.03 128.417C101.087 131.891 101.051 135.366 101.078 138.84C101.087 139.902 100.368 139.735 99.7376 139.734C94.6025 139.73 89.4673 139.718 84.2302 139.593C84.2028 138.882 84.3401 138.286 84.3421 137.69C84.3596 132.623 84.3794 127.557 84.3304 122.491C84.3203 121.445 84.6614 121.168 85.6735 121.175C90.7928 121.214 95.9126 121.185 101.032 121.18Z" fill="#486159"/>
<path d="M49.4187 137.426C49.2625 137.349 49.112 137.257 48.9493 137.198C47.2719 136.593 45.3336 136.646 44.245 134.72C43.4601 133.331 41.7212 133.865 40.433 133.462C40.1107 133.361 39.6792 133.328 39.4986 133.103C38.4815 131.836 37.0517 131.357 35.5186 130.751C35.5473 130.339 35.686 130.108 35.7309 129.86C36.2978 126.736 37.603 123.918 39.4414 121.366C43.0035 116.421 47.7386 113.219 53.7824 112.052C53.7878 113.894 53.7971 115.736 53.7977 117.578C53.7993 121.987 53.7874 126.397 53.8066 130.807C53.8093 131.447 53.953 132.087 54.0395 132.83C54.0476 132.933 54.0627 132.93 54.0016 132.97C53.8917 133.095 53.8431 133.179 53.7822 133.355C53.4415 134.373 53.113 135.299 52.9206 135.841C51.5684 136.453 50.4935 136.939 49.4187 137.426ZM46.8712 118.835C47.5181 118.482 48.1989 118.178 48.8013 117.761C49.3007 117.415 50.3476 117.534 50.1419 116.423C46.0267 117.132 38.5133 125.318 39.6798 128.339C41.204 124.363 43.5249 121.308 46.8712 118.835Z" fill="#404E49"/>
<path d="M53.8113 111.934C47.7384 113.219 43.0033 116.42 39.4412 121.366C37.6029 123.918 36.2977 126.736 35.7308 129.86C35.6858 130.108 35.5472 130.339 35.4532 130.676C35.4543 130.774 35.3775 130.747 35.3455 130.64C35.3117 124.126 35.3248 117.717 35.2891 111.309C35.2846 110.497 35.5176 110.061 36.287 109.764C39.7928 108.411 42.7026 106.204 45.3055 103.446C46.1822 103.542 46.9665 103.75 47.7229 103.676C49.7548 103.475 50.6255 101.917 49.7449 100.156C51.5322 99.7956 52.9958 98.9868 53.7636 97.2381C53.7892 102.097 53.8147 106.957 53.8113 111.934Z" fill="#FBEACF"/>
<path d="M124.258 43.2243C124.258 45.9588 124.237 48.5631 124.271 51.1667C124.281 51.9942 124.021 52.3344 123.15 52.3103C121.333 52.2599 119.514 52.295 117.719 52.295C117.53 51.3423 117.398 50.5245 117.174 49.7326C117.146 49.6353 116.626 49.677 116.188 49.6428C116.188 50.2759 116.29 50.8574 116.151 51.3743C116.061 51.7106 115.626 52.1657 115.332 52.1762C115.048 52.1863 114.492 51.6949 114.491 51.4213C114.453 44.6947 114.472 37.9678 114.488 31.241C114.488 31.122 114.57 31.0032 114.672 30.7268C117.62 30.7268 120.608 30.6978 123.593 30.783C123.827 30.7896 124.223 31.5909 124.229 32.0272C124.28 35.7156 124.258 39.4049 124.258 43.2243Z" fill="#CE7049"/>
<path d="M49.3761 137.502C50.4933 136.939 51.5681 136.453 52.9204 135.841C53.1128 135.299 53.4413 134.373 53.8456 133.317C53.9686 133.101 54.0155 133.015 54.0625 132.93C54.0625 132.93 54.0473 132.933 54.0497 132.94C55.3148 131.545 56.7493 130.397 58.6959 129.836C63.7123 129.055 67.9198 130.71 71.6231 133.797C73.4672 135.334 74.8675 137.266 75.6733 139.665C71.3919 139.783 67.1112 139.806 62.7173 139.729C62.9017 137.183 64.9239 136.539 67.0295 135.731C64.6006 135.304 62.4086 137.009 61.8899 139.454C61.3867 139.602 60.8845 139.874 60.3801 139.878C56.2781 139.911 52.1757 139.895 47.9551 139.896C48.3357 139.125 48.8347 138.352 49.3761 137.502ZM56.1041 135.124C55.2882 135.408 54.4722 135.692 53.6563 135.976C53.6902 136.069 53.7242 136.163 53.7582 136.257C55.3536 136.109 56.9491 135.961 58.5445 135.812C58.5673 135.75 58.5901 135.688 58.6128 135.626C57.8451 135.449 57.0774 135.271 56.1041 135.124Z" fill="#E69C65"/>
<path d="M53.786 91.6093C51.4184 91.6467 48.9991 91.8454 46.705 91.4008C44.1597 90.9074 41.8363 89.5936 40.0067 87.6817C39.6071 87.264 39.4289 86.2794 39.6249 85.7229C40.0499 84.5161 40.7227 83.38 41.406 82.2844C42.1309 81.1221 42.4954 79.9065 42.1841 78.5816C41.9946 77.7748 42.1937 77.4375 43.0043 77.3718C43.433 77.3371 43.8507 77.1656 44.2794 77.1325C45.1565 77.0648 45.5206 76.614 45.4345 75.6516C46.8138 76.8518 48.1876 78.1607 49.6166 79.5221C50.8517 78.5083 52.2095 77.3936 53.7895 76.0967C53.7895 81.3846 53.7895 86.4358 53.786 91.6093Z" fill="#69342F"/>
<path d="M125.041 76.7983C123.154 75.4974 121.275 74.1121 119.46 72.648C109.889 64.9296 100.341 57.1838 90.7571 49.4818C90.2763 49.0954 89.5378 49.0283 88.776 48.9098C88.4271 49.0809 88.2214 49.1546 88.0093 49.1364C88.529 48.2396 89.0553 47.4348 89.5815 46.6299C91.0537 45.0239 91.0356 45.0464 92.6419 46.3351C103.22 54.8217 113.811 63.2929 124.374 71.798C124.745 72.0969 125.04 72.6859 125.077 73.1627C125.169 74.3271 125.088 75.505 125.041 76.7983Z" fill="#C09876"/>
<path d="M111.55 109.338C110.242 110.705 109.046 112.215 107.572 113.371C106.954 113.855 105.746 113.589 104.693 113.676C104.581 112.608 104.581 111.528 104.581 110.337C95.8529 110.337 87.2462 110.337 78.4804 110.337C78.4804 111.428 78.4804 112.457 78.439 113.608C77.5903 113.776 76.783 113.823 75.7402 113.88C73.6211 113.9 71.7376 113.909 69.8274 113.814C69.5972 113.366 69.3939 113.023 69.1905 112.68C69.0161 113.018 68.7713 113.339 68.6869 113.698C68.6011 114.063 68.6988 114.467 68.6716 114.85C68.5955 115.922 68.4964 116.993 68.4132 117.942C68.4225 117.563 68.4266 117.305 68.4268 117.047C68.4292 113.891 68.4291 113.891 65.2354 113.888C63.0485 113.886 63.0523 113.886 62.9087 116.11C62.8956 116.314 62.793 116.512 62.7319 116.713C62.5033 113.254 62.4293 109.814 64.7608 106.9C65.5078 105.966 66.4084 105.155 67.3282 104.386C66.7435 105.99 66.0693 107.496 65.2927 109.23C66.7134 109.23 67.7521 109.23 68.7909 109.23C82.3516 109.233 95.9124 109.233 109.473 109.241C110.165 109.242 110.857 109.304 111.55 109.338Z" fill="#BD9477"/>
<path d="M90.634 118.844C88.532 118.844 86.43 118.844 84.2113 118.718C84.0984 117.42 84.1499 116.246 84.0903 115.078C84.0439 114.17 84.3653 113.867 85.2809 113.881C88.366 113.931 91.4523 113.908 94.5285 114.001C93.2238 115.674 91.9289 117.259 90.634 118.844Z" fill="#404E49"/>
<path d="M90.7559 118.848C91.929 117.259 93.2239 115.675 94.6519 113.996C96.8726 113.896 98.9602 113.89 101.048 113.884C101.06 115.18 101.036 116.478 101.097 117.772C101.136 118.622 100.816 118.905 99.9721 118.892C96.9411 118.848 93.9092 118.861 90.7559 118.848Z" fill="#4B6158"/>
<path d="M53.7902 97.1484C52.9959 98.9869 51.5323 99.7956 49.7451 100.157C50.6256 101.917 49.7549 103.475 47.723 103.676C46.9666 103.75 46.1824 103.542 45.3397 103.358C46.031 101.981 45.7597 100.755 44.9517 99.5449C45.2501 99.4619 45.4219 99.3558 45.5706 99.3816C47.7189 99.755 48.535 98.3996 49.1047 96.7038C49.2544 96.258 49.4376 95.8234 49.6054 95.3837C50.9284 94.9504 52.2514 94.5171 53.676 94.0807C53.7852 94.1206 53.7929 94.1635 53.7906 94.3875C53.7969 95.2742 53.8131 95.9797 53.8294 96.6853C53.8251 96.8098 53.8209 96.9342 53.7902 97.1484Z" fill="#CE724B"/>
<path d="M89.4978 46.6562C89.0551 47.4348 88.5288 48.2396 88.0089 49.133C88.0151 49.2215 88.0217 49.2229 87.9315 49.218C87.7247 49.3924 87.6081 49.5718 87.4915 49.7469C87.4914 49.7427 87.4997 49.7439 87.4124 49.7251C87.2071 49.7192 87.0892 49.7322 86.8918 49.782C84.1854 51.9513 81.5433 54.0655 78.9346 56.2201C73.9187 60.3632 68.9313 64.541 63.9113 68.6792C62.2472 70.0511 60.5195 71.346 58.8208 72.6762C58.9302 72.3309 58.9301 71.8538 59.1649 71.6593C69.2349 63.318 79.3258 55.0018 89.4978 46.6562Z" fill="#E8D0B8"/>
<path d="M88.0154 49.2249C88.2213 49.1546 88.4269 49.0809 88.7106 48.9758C88.7923 49.1458 88.7958 49.3473 88.7561 49.7244C88.3077 50.372 87.9024 50.8437 87.4972 51.3155C87.4972 51.3155 87.4917 51.3098 87.4158 51.3467C87.3033 51.4914 87.2665 51.5992 87.2298 51.707C87.2298 51.707 87.15 51.7968 87.0276 51.8036C86.7534 51.9063 86.6015 52.0021 86.4497 52.098C86.4497 52.098 86.4473 52.0908 86.385 52.111C86.2789 52.2066 86.235 52.282 86.1912 52.3574C86.1912 52.3574 86.186 52.3516 86.0994 52.3582C85.8109 52.6235 85.609 52.8822 85.4071 53.1408C85.4071 53.1408 85.4021 53.134 85.3237 53.1262C85.1238 53.2132 85.0023 53.3078 84.8809 53.4025C84.8809 53.4025 84.8787 53.3944 84.8195 53.4181C84.7144 53.5151 84.6685 53.5885 84.6226 53.6618C84.6226 53.6618 84.619 53.6555 84.5308 53.6626C83.6684 54.2796 82.866 54.8579 82.1295 55.5104C81.608 55.9725 81.1757 56.5349 80.7036 57.0526C80.7036 57.0526 80.6988 57.0457 80.6068 57.0314C79.532 57.8984 78.5491 58.7798 77.5663 59.661C77.5663 59.661 77.5627 59.6535 77.4852 59.6464C77.2854 59.7335 77.1633 59.8277 77.0411 59.9219C77.0411 59.9219 77.0408 59.9133 76.9536 59.9202C76.5774 60.2729 76.2885 60.6188 75.9995 60.9646C75.9995 60.9646 75.9955 60.9574 75.9033 60.945C75.3511 61.378 74.8911 61.8234 74.4312 62.2687C74.4312 62.2687 74.4271 62.2613 74.3492 62.2536C74.1506 62.3404 74.0297 62.4349 73.9088 62.5293C73.9088 62.5293 73.9058 62.5219 73.8179 62.5289C73.6139 62.5918 73.4809 62.6273 73.3842 62.7067C68.8424 66.4418 64.3072 70.1848 59.7553 73.9074C59.5075 74.1101 59.1228 74.146 58.8018 74.2596C58.8019 74.0684 58.802 73.8772 58.9077 73.5771C61.4788 71.4788 63.9609 69.5094 66.4062 67.4956C70.9963 63.7154 75.5742 59.9203 80.1392 56.11C82.5354 54.11 84.8936 52.0646 87.3228 50.0031C87.4498 49.91 87.4908 49.8358 87.4997 49.7439C87.4997 49.7439 87.4914 49.7427 87.5677 49.724C87.77 49.5444 87.8959 49.3837 88.0217 49.2229C88.0217 49.2229 88.0152 49.2215 88.0154 49.2249Z" fill="#F0DABD"/>
<path d="M115.973 139.944C113.759 139.942 111.676 139.916 109.593 139.952C108.795 139.966 108.62 139.578 108.686 138.909C108.741 138.347 108.493 137.624 109.497 137.631C113.011 137.656 116.525 137.659 120.039 137.677C120.113 137.677 120.187 137.752 120.335 137.831C120.335 138.426 120.335 139.059 120.335 139.944C118.92 139.944 117.512 139.944 115.973 139.944Z" fill="#AB5942"/>
<path d="M117.543 136.57C116.206 136.57 114.999 136.57 113.829 136.57C113.326 134.377 113.399 134.276 115.44 134.272C118.264 134.266 121.088 134.293 123.912 134.248C124.79 134.234 125.142 134.466 125.137 135.41C125.132 136.33 124.832 136.612 123.929 136.588C121.845 136.534 119.759 136.571 117.543 136.57Z" fill="#AB5942"/>
<path d="M87.2687 50.0397C84.8933 52.0646 82.5351 54.1099 80.139 56.1099C75.5739 59.9203 70.996 63.7154 66.4059 67.4956C63.9606 69.5094 61.4786 71.4788 58.9283 73.4836C58.8223 73.2928 58.8012 73.0866 58.8003 72.7783C60.5193 71.346 62.247 70.0511 63.9111 68.6792C68.9311 64.5409 73.9184 60.3632 78.9344 56.2201C81.5431 54.0655 84.1852 51.9513 86.9276 49.8431C87.1183 49.9249 87.1935 49.9823 87.2687 50.0397Z" fill="#CFA989"/>
<path d="M119.892 53.3842C121.317 53.3839 122.611 53.3839 123.867 53.3839C124.487 55.4822 124.318 55.7378 122.403 55.7445C120.71 55.7505 119.012 55.6686 117.326 55.7768C116.172 55.8509 115.448 55.2431 114.726 54.5635C114.541 54.3898 114.405 53.9836 114.483 53.768C114.549 53.5825 114.948 53.4198 115.204 53.4136C116.723 53.377 118.242 53.3889 119.892 53.3842Z" fill="#B65942"/>
<path d="M101.025 121.075C95.9125 121.185 90.7927 121.214 85.6734 121.175C84.6612 121.168 84.3202 121.445 84.3303 122.491C84.3792 127.557 84.3594 132.623 84.342 137.69C84.3399 138.286 84.2026 138.882 84.1075 139.583C84.0018 139.412 83.843 139.137 83.8424 138.861C83.8299 133.098 83.8342 127.335 83.8412 121.572C83.8415 121.322 83.8986 121.072 83.9355 120.77C84.2458 120.732 84.4949 120.676 84.7441 120.676C89.8674 120.668 94.9907 120.662 100.114 120.678C100.416 120.679 100.717 120.868 101.025 121.075Z" fill="#6C6E66"/>
<path d="M105.597 136.572C104.34 136.687 104.537 135.877 104.505 135.202C104.467 134.408 104.953 134.282 105.588 134.283C107.536 134.286 109.484 134.306 111.43 134.26C112.349 134.238 112.342 134.777 112.358 135.43C112.375 136.11 112.333 136.604 111.429 136.584C109.526 136.54 107.621 136.572 105.597 136.572Z" fill="#AB5942"/>
<path d="M82.0064 134.236C82.0064 127.266 82.0064 120.427 82.0064 113.587C82.1216 113.587 82.2368 113.587 82.352 113.587C82.352 122.235 82.352 130.883 82.352 139.531C82.2368 139.536 82.1216 139.542 82.0063 139.547C82.0063 137.82 82.0063 136.094 82.0064 134.236Z" fill="#655A52"/>
<path d="M58.7793 74.3611C59.1228 74.146 59.5075 74.1101 59.7553 73.9074C64.3072 70.1848 68.8424 66.4417 73.3842 62.7067C73.4809 62.6273 73.6139 62.5918 73.8209 62.5318C73.6518 62.9005 73.4588 63.3537 73.1216 63.6336C68.5937 67.3909 64.0464 71.1248 59.4991 74.8588C59.3708 74.9641 59.1899 75.0058 58.9447 75.0759C58.8229 74.8707 58.7899 74.6667 58.7793 74.3611Z" fill="#CFA989"/>
<path d="M121.496 138.221C122.614 137.884 123.723 137.663 124.789 137.449C125.47 139.688 125.288 139.951 123.365 139.945C122.809 139.943 122.254 139.944 121.486 139.944C121.486 139.328 121.486 138.832 121.496 138.221Z" fill="#AB5942"/>
<path d="M105.337 139.943C103.991 139.761 104.611 138.814 104.589 138.21C104.582 138.022 105.221 137.699 105.598 137.635C106.176 137.537 106.784 137.609 107.342 137.609C107.91 139.836 107.813 139.947 105.337 139.943Z" fill="#AB5942"/>
<path d="M123.744 59.3969C123.539 59.4345 123.453 59.4447 123.366 59.4466C121.161 59.494 121.147 59.4758 121.599 56.9734C122.358 57.035 123.333 56.8507 123.865 57.2521C124.204 57.5085 123.886 58.6312 123.744 59.3969Z" fill="#B86B48"/>
<path d="M100.983 113.797C98.9606 113.89 96.8729 113.896 94.6619 113.907C91.4528 113.908 88.3665 113.931 85.2814 113.881C84.3657 113.867 84.0443 114.17 84.0907 115.078C84.1503 116.246 84.0988 117.42 84.0887 118.711C84.0094 117.257 83.9177 115.684 83.8941 114.109C83.8918 113.956 84.3106 113.661 84.5341 113.66C89.9955 113.658 95.4571 113.687 100.983 113.797Z" fill="#6C6E66"/>
<path d="M61.9438 139.415C62.4087 137.009 64.6007 135.304 67.0296 135.731C64.924 136.539 62.9019 137.183 62.5902 139.743C62.3833 139.698 62.1905 139.537 61.9438 139.415Z" fill="#682E25"/>
<path d="M119.618 58.6547C118.989 58.1524 118.44 57.7 117.687 57.078C118.627 57.078 119.287 57.078 120.331 57.078C120.083 57.7145 119.891 58.2095 119.618 58.6547Z" fill="#AC6242"/>
<path d="M122.258 61.0043C122.833 60.9223 123.498 60.7829 124.055 60.9672C124.276 61.0401 124.258 61.8326 124.07 62.4507C123.482 61.9926 122.894 61.5346 122.258 61.0043Z" fill="#85543B"/>
<path d="M53.8806 96.5999C53.8129 95.9797 53.7967 95.2742 53.7985 94.4524C53.855 95.0624 53.8935 95.7885 53.8806 96.5999Z" fill="#6B524A"/>
<path d="M117.428 56.9205C117.437 56.9182 117.418 56.9227 117.428 56.9205Z" fill="#AC6242"/>
<path d="M104.518 132.725C104.604 132.714 104.647 132.779 104.668 132.916C104.609 132.914 104.552 132.852 104.518 132.725Z" fill="#BD9477"/>
<path d="M118.075 144.898C117.854 145.262 117.632 145.626 117.343 146.039C116.499 146.149 115.724 146.259 114.947 146.261C108.654 146.279 102.361 146.289 96.0679 146.277C93.0339 146.272 90 146.217 86.8471 146.163C86.6408 145.731 86.5535 145.319 86.4985 144.819C96.7793 144.772 107.028 144.814 117.488 144.879C117.824 144.9 117.95 144.899 118.075 144.898Z" fill="#502420"/>
<path d="M60.0721 146.499C68.4086 146.499 76.6175 146.499 84.8264 146.499C84.8264 146.607 84.8265 146.715 84.8266 146.823C75.7725 146.823 66.7184 146.823 57.6643 146.823C57.6579 146.715 57.6515 146.607 57.645 146.499C58.4115 146.499 59.1781 146.499 60.0721 146.499Z" fill="#E8A16B"/>
<path d="M89.5639 148.311C90.4215 148.311 91.152 148.311 91.8825 148.311C91.882 148.377 91.8814 148.443 91.8809 148.509C85.2165 148.509 78.5521 148.509 71.8877 148.509C71.8872 148.443 71.8867 148.377 71.8862 148.311C77.7365 148.311 83.5867 148.311 89.5639 148.311Z" fill="#ECA876"/>
<path d="M49.4955 95.3851C49.4376 95.8234 49.2544 96.258 49.1047 96.7038C48.5349 98.3996 47.7189 99.755 45.5706 99.3816C45.4219 99.3558 45.2501 99.4619 44.9516 99.5449C45.7597 100.755 46.031 101.981 45.2345 103.341C42.7028 106.204 39.7929 108.411 36.2871 109.764C35.5177 110.061 35.2847 110.497 35.2892 111.309C35.3249 117.718 35.3118 124.126 35.3063 130.651C34.8792 131.799 34.3328 131.353 33.836 130.865C32.3151 129.372 30.5357 128.563 28.2492 128.727C28.1322 122.315 28.3172 115.894 28.0514 109.492C27.9391 106.788 26.9217 104.111 26.2338 101.443C25.6843 99.3109 25.0109 97.2107 24.3662 94.9918C25.7244 95.2015 27.1089 95.5159 28.5906 95.9702C29.3115 97.9679 29.9352 99.8255 30.6711 102.017C32.0129 100.071 33.2224 98.4771 33.6519 96.4446C35.6028 96.5243 37.5537 96.604 39.6081 96.7885C38.2936 99.7709 36.8757 102.649 35.3063 105.833C40.5332 103.933 43.792 100.541 45.8989 95.934C47.0612 95.7515 48.2234 95.5689 49.4955 95.3851Z" fill="#3C2024"/>
<path d="M157.252 108.95C156.704 108.806 156.156 108.662 155.607 108.518C155.651 108.392 155.695 108.266 155.739 108.139C156.218 108.352 156.696 108.564 157.217 108.858C157.26 108.94 157.252 108.95 157.252 108.95Z" fill="#582505"/>
<path d="M157.264 108.935C157.41 108.979 157.551 109.027 157.739 109.134C157.787 109.193 157.78 109.203 157.776 109.207C157.63 109.164 157.489 109.115 157.3 109.009C157.252 108.95 157.26 108.94 157.264 108.935Z" fill="#582505"/>
<path d="M55.0644 7.94974C54.9623 8.94348 54.2663 8.80288 53.6751 8.80383C49.366 8.81067 45.0569 8.80027 40.7479 8.8143C39.922 8.81701 39.0963 8.90379 38.2705 8.95179C38.2468 8.81491 38.223 8.67802 38.1992 8.54117C38.6449 8.45347 39.0903 8.29172 39.5365 8.28966C43.6278 8.27056 47.7196 8.30802 51.8105 8.2605C52.8943 8.24789 53.9753 7.99879 55.0644 7.94974Z" fill="white"/>
<path d="M62.1374 3.83544C60.2987 4.2537 58.5813 4.67203 56.8872 5.08468C58.7144 3.60767 60.9391 3.08942 63.3119 3.34791C65.284 3.56282 66.8417 4.6534 68.0138 6.27634C66.2659 5.0349 64.6074 3.63161 62.1374 3.83544Z" fill="white"/>
<path d="M59.2759 1.76336C63.007 0.0656781 68.1797 2.26948 69.6327 5.44637C69.256 5.18428 68.986 5.06774 68.8155 4.86703C66.7089 2.38739 64.0199 1.42506 60.817 1.74891C60.3872 1.79233 59.9498 1.7597 59.3943 1.76135C59.2729 1.76046 59.2759 1.76336 59.2759 1.76336Z" fill="#F8BF8F"/>
<path d="M65.2566 6.21865C63.9364 5.9658 62.6162 5.71295 61.2959 5.46012C62.6953 4.9929 64.0102 5.09318 65.242 6.10577C65.2795 6.19612 65.2566 6.21865 65.2566 6.21865Z" fill="white"/>
<path d="M66.0825 6.95956C66.3326 7.21777 66.5826 7.476 66.8327 7.7342C66.7368 7.80217 66.641 7.87016 66.5452 7.93813C66.3898 7.67916 66.2344 7.42019 66.0731 7.06793C66.0672 6.97469 66.0825 6.95956 66.0825 6.95956Z" fill="white"/>
<path d="M66.0598 6.98225C65.7989 6.78819 65.5457 6.58666 65.2746 6.30191C65.2568 6.21869 65.2797 6.19616 65.2914 6.18463C65.5545 6.37827 65.806 6.58341 66.0701 6.87408C66.0827 6.95959 66.0675 6.97471 66.0598 6.98225Z" fill="white"/>
<path d="M71.2269 8.05088C71.1698 8.18121 71.0935 8.24822 71.0172 8.31523C70.9747 8.20185 70.9322 8.08844 70.8896 7.97507C70.9957 7.97921 71.1016 7.98335 71.2269 8.05088Z" fill="#F8BF8F"/>
<path d="M55.3351 7.12753C55.2769 7.03009 55.2789 6.92834 55.2912 6.8278C55.292 6.82086 55.3688 6.82306 55.4103 6.82098C55.4061 6.92181 55.4019 7.02263 55.3351 7.12753Z" fill="white"/>
<path d="M70.1279 5.94648C70.0353 6.00269 69.942 6.00167 69.8494 5.99287C69.8453 5.99249 69.8481 5.92022 69.8478 5.88144C69.941 5.88357 70.0341 5.88568 70.1279 5.94648Z" fill="#F8BF8F"/>
<path d="M59.2721 1.75888C59.1195 1.83995 58.9679 1.92254 58.8163 2.00517C58.7949 1.94829 58.7734 1.89141 58.752 1.8345C58.8774 1.81108 59.0029 1.78766 59.2022 1.76382C59.2761 1.76334 59.2731 1.76044 59.2721 1.75888Z" fill="#F8BF8F"/>
<path d="M70.3468 6.77069C70.3573 6.78068 70.3363 6.76067 70.3468 6.77069Z" fill="#F8BF8F"/>
<path d="M68.2969 6.85435C68.3122 6.84534 68.2816 6.86336 68.2969 6.85435Z" fill="white"/>
<path d="M70.6478 7.37471C70.6607 7.36778 70.6348 7.38165 70.6478 7.37471Z" fill="#F8BF8F"/>
<path d="M55.8996 6.21466C55.8594 6.21415 55.8192 6.21364 55.8285 6.20405C55.878 6.19497 55.8996 6.21466 55.8996 6.21466Z" fill="white"/>
<path d="M56.1162 5.91492C56.1577 5.91766 56.1992 5.92043 56.1895 5.92913C56.1383 5.93506 56.1162 5.91492 56.1162 5.91492Z" fill="white"/>
<path d="M56.1486 5.94611C56.1376 6.04409 56.0902 6.11311 55.9581 6.18956C55.8997 6.21496 55.8781 6.19526 55.8677 6.18408C55.8811 6.08772 55.9291 6.01956 56.0589 5.94168C56.1163 5.91497 56.1384 5.93511 56.1486 5.94611Z" fill="white"/>
<path d="M148.107 123.203C146.403 122.069 144.679 120.89 142.536 120.59C141.766 120.482 140.983 120.463 140.207 120.392C139.805 120.355 139.405 120.295 138.858 120.227C140.85 118.342 146.269 119.601 148.867 122.417C148.639 122.7 148.377 122.903 148.107 123.203Z" fill="#6B5847"/>
<path d="M150.467 122.737C148.54 120.708 146.481 118.901 143.255 118.524C145.287 117.565 149.173 119.648 150.963 122.383C150.834 122.533 150.678 122.602 150.467 122.737Z" fill="#744935"/>
<path d="M136.357 123.897C142.246 123.614 143.221 123.71 144.553 124.517C142.091 124.455 139.377 124.392 136.664 124.303C136.527 124.299 136.397 124.071 136.357 123.897Z" fill="#9B8469"/>
<path d="M148.179 124.293C148.154 124.037 148.136 123.789 148.106 123.419C148.441 123.676 148.788 124.054 149.052 124.474C148.724 124.453 148.478 124.389 148.233 124.325C148.233 124.325 148.186 124.302 148.179 124.293Z" fill="#6B5847"/>
<path d="M149.154 122.861C149.499 123.137 149.843 123.508 150.206 123.962C149.867 123.683 149.511 123.319 149.154 122.861Z" fill="#6B5847"/>
<path d="M148.291 124.392C148.478 124.389 148.723 124.453 149.053 124.569C149.145 124.728 149.153 124.836 149.159 125.027C149.158 125.109 149.156 125.111 149.156 125.111C148.887 124.894 148.619 124.676 148.291 124.392Z" fill="#D3754C"/>
<path d="M145.966 125.423C145.742 125.329 145.518 125.235 145.293 125.141C145.327 125.066 145.361 124.99 145.396 124.915C145.587 125.009 145.778 125.103 145.991 125.288C146.013 125.379 145.966 125.423 145.966 125.423Z" fill="#9B8469"/>
<path d="M146.035 125.357C146.16 125.455 146.263 125.576 146.365 125.697C146.247 125.648 146.128 125.598 145.987 125.486C145.965 125.423 146.012 125.379 146.035 125.357Z" fill="#9B8469"/>
<path d="M149.159 125.109C149.16 125.108 149.267 125.13 149.324 125.187C149.382 125.245 149.41 125.334 149.41 125.334C149.323 125.297 149.237 125.261 149.153 125.168C149.156 125.111 149.158 125.109 149.159 125.109Z" fill="#D3754C"/>
<path d="M151.047 122.563C151.12 122.526 151.215 122.542 151.378 122.58C151.321 122.606 151.195 122.611 151.047 122.563Z" fill="#744935"/>
<path d="M149.45 125.319C149.41 125.334 149.382 125.245 149.378 125.199C149.373 125.153 149.492 125.192 149.492 125.192C149.492 125.192 149.491 125.303 149.45 125.319Z" fill="#6B5847"/>
<path d="M150.507 124.127C150.481 124.093 150.58 124.054 150.632 124.042C150.683 124.029 150.644 124.146 150.644 124.146C150.644 124.146 150.532 124.161 150.507 124.127Z" fill="#6B5847"/>
<path d="M148.925 122.556C148.97 122.545 149.041 122.593 149.133 122.702C149.069 122.738 149.001 122.688 148.925 122.556Z" fill="#6B5847"/>
<path d="M27.3433 130.527C28.3994 129.822 29.4697 129.921 30.7674 130.403C29.5748 130.483 28.6075 130.548 27.5125 130.594C27.3847 130.576 27.3433 130.527 27.3433 130.527Z" fill="#8E887C"/>
<path d="M27.4055 130.6C27.2909 130.651 27.1557 130.679 27.0205 130.706C27.0869 130.657 27.1532 130.609 27.2815 130.544C27.3434 130.527 27.3849 130.576 27.4055 130.6Z" fill="#8E887C"/>
<path d="M31.6952 130.969C31.7051 130.964 31.6854 130.973 31.6952 130.969Z" fill="#8E887C"/>
<path d="M31.1672 130.699C31.1881 130.686 31.197 130.737 31.197 130.737C31.197 130.737 31.1462 130.711 31.1672 130.699Z" fill="#8E887C"/>
<path d="M40.0499 144.134C39.8079 144.051 39.6894 143.975 39.4985 143.889C39.8807 143.794 40.335 143.636 40.7897 143.635C48.1444 143.62 55.4991 143.62 62.8537 143.639C63.2955 143.64 63.7368 143.828 64.211 144.026C56.2202 144.129 48.1968 144.135 40.0499 144.134Z" fill="#D2734A"/>
<path d="M89.7495 143.902C88.7861 144.862 87.5345 144.292 86.2637 144.217C87.3307 144.061 88.4782 143.978 89.7495 143.902Z" fill="#D2734A"/>
<path d="M118.073 144.843C117.95 144.899 117.824 144.9 117.608 144.875C117.65 144.792 117.782 144.737 117.987 144.679C118.06 144.677 118.07 144.787 118.073 144.843Z" fill="#A06444"/>
<path d="M45.7974 95.9621C43.7919 100.541 40.533 103.933 35.3062 105.833C36.8755 102.649 38.2934 99.7709 39.7347 96.8008C41.7374 96.469 43.7167 96.2297 45.7974 95.9621Z" fill="#F7E6C8"/>
<path d="M33.5381 96.4469C33.2223 98.477 32.0128 100.071 30.671 102.017C29.9351 99.8255 29.3114 97.9679 28.6816 96.0093C30.2586 96.0887 31.8416 96.2689 33.5381 96.4469Z" fill="#F6E3C5"/>
<path d="M68.9848 93.7662C68.985 86.6431 68.9951 79.5199 68.9693 72.3969C68.9668 71.7237 69.1827 71.4023 69.8006 71.1601C77.1524 68.2787 84.7209 66.5045 92.6691 66.721C99.3892 66.9039 105.821 68.4595 112.023 70.9894C112.377 71.1339 112.769 71.7247 112.771 72.1097C112.808 79.3183 112.788 86.5272 112.575 93.7875C99.9052 93.8294 87.4405 93.8216 74.9758 93.8085C72.9788 93.8064 70.9818 93.7809 68.9848 93.7662ZM72.8324 90.4285C75.1536 90.4285 77.4748 90.4285 79.8502 90.4285C79.8502 87.1672 79.8502 84.0999 79.7456 80.8434C77.2905 80.8434 74.8353 80.8434 72.3009 80.8434C72.3009 83.9719 72.2975 86.9968 72.313 90.0215C72.3137 90.145 72.4928 90.2676 72.8324 90.4285ZM102.105 90.4431C104.593 90.4431 107.081 90.4431 109.571 90.4431C109.571 87.2482 109.571 84.2737 109.602 81.0888C109.487 80.9848 109.372 80.7907 109.256 80.7899C106.659 80.7726 104.062 80.7767 101.354 80.7767C101.354 83.9381 101.347 86.9654 101.375 89.9924C101.377 90.1323 101.692 90.2692 102.105 90.4431ZM89.6627 80.8479C87.0386 80.8479 84.4146 80.8479 81.6837 80.8479C81.6837 83.9771 81.6801 87.034 81.6975 90.0908C81.6981 90.2049 81.9016 90.3179 82.2542 90.4529C84.7448 90.4529 87.2355 90.4529 89.7599 90.4529C89.7599 87.1673 89.7599 84.1031 89.6627 80.8479ZM91.4357 81.9975C91.4357 84.7986 91.4357 87.5997 91.4357 90.3835C94.2627 90.3835 96.8533 90.3835 99.5566 90.3835C99.5566 87.1316 99.5566 83.9839 99.5566 80.7391C97.0877 80.7391 94.6565 80.756 92.2258 80.7293C91.4377 80.7207 91.4146 81.1905 91.4357 81.9975ZM81.5491 76.9656C81.5491 77.5604 81.5491 78.1551 81.5491 78.7924C84.349 78.7924 87.0054 78.7924 89.6926 78.7924C89.6926 75.8418 89.6926 73.0051 89.6926 69.9612C86.9465 70.271 84.3314 70.5661 81.5509 70.8798C81.5509 72.9189 81.5509 74.8159 81.5491 76.9656ZM94.8566 70.1339C93.7458 70.1339 92.6349 70.1339 91.5223 70.1339C91.5223 73.0984 91.5223 75.9367 91.5223 78.7983C94.2393 78.7983 96.8593 78.7983 99.4706 78.7983C99.4706 76.0211 99.4706 73.354 99.4706 70.6263C97.9428 70.4594 96.5213 70.3042 94.8566 70.1339ZM109.674 76.9712C109.673 76.1034 109.713 75.2327 109.651 74.3691C109.628 74.0385 109.445 73.5104 109.215 73.4351C106.65 72.5946 104.062 71.8251 101.414 71.0163C101.414 73.7919 101.414 76.2868 101.414 78.8367C104.182 78.8367 106.851 78.8367 109.672 78.8367C109.672 78.2413 109.672 77.7313 109.674 76.9712ZM79.9034 72.6443C79.8828 72.2664 79.8623 71.8885 79.8286 71.2687C77.3501 72.0811 75.0076 72.8312 72.6845 73.6368C72.4447 73.72 72.1751 74.1285 72.1659 74.3945C72.1154 75.8562 72.1418 77.3205 72.1418 78.8062C74.8455 78.8062 77.3011 78.8062 79.9022 78.8062C79.9022 76.7699 79.9022 74.8286 79.9034 72.6443Z" fill="#412325"/>
<path d="M111.67 109.338C110.857 109.304 110.165 109.242 109.473 109.241C95.9121 109.233 82.3514 109.233 68.7906 109.23C67.7519 109.23 66.7131 109.23 65.2925 109.23C66.0691 107.496 66.7432 105.99 67.4194 104.388C67.9191 103.169 68.7396 102.859 69.991 102.864C83.3946 102.921 96.7984 102.903 110.202 102.905C111.025 102.905 111.848 102.905 112.769 102.905C112.769 105.034 112.769 107.094 112.769 109.229C112.458 109.264 112.124 109.302 111.67 109.338Z" fill="#3B1F23"/>
<path d="M68.9617 93.8892C70.9815 93.7809 72.9785 93.8064 74.9755 93.8085C87.4402 93.8216 99.905 93.8294 112.491 93.8681C111.897 94.8733 111.258 95.9221 110.429 96.7905C110.09 97.1462 109.341 97.2357 108.777 97.2369C97.8074 97.2597 86.8375 97.2517 75.8676 97.2493C73.9957 97.2489 72.1225 97.2012 70.2526 97.2608C69.2685 97.2922 68.7738 97.0489 68.9092 95.9653C68.9895 95.323 68.9336 94.6638 68.9617 93.8892Z" fill="#C39977"/>
<path d="M118.445 110.863C118.72 111.122 119.01 111.38 119.013 111.641C119.045 114.628 119.033 117.616 119.033 120.689C116.275 120.689 113.554 120.689 110.742 120.689C110.742 117.527 110.742 114.337 110.742 110.863C113.244 110.863 115.786 110.863 118.445 110.863ZM114.799 112.594C113.99 112.594 113.181 112.594 112.395 112.594C112.395 114.876 112.395 116.974 112.395 119.054C114.098 119.054 115.686 119.054 117.233 119.054C117.233 116.859 117.233 114.758 117.233 112.593C116.436 112.593 115.745 112.593 114.799 112.594Z" fill="#412325"/>
<path d="M68.406 118.063C68.4961 116.993 68.5952 115.922 68.6713 114.85C68.6985 114.467 68.6008 114.063 68.6866 113.698C68.771 113.339 69.0158 113.018 69.1902 112.68C69.3936 113.023 69.5969 113.366 69.8052 113.932C69.8102 115.439 69.8102 116.723 69.8102 118.082C71.969 118.082 73.9584 118.082 75.9478 118.082C75.8985 118.45 75.8492 118.817 75.6183 119.226C73.5716 119.268 71.7065 119.268 69.8003 119.268C69.8003 120.183 69.8003 120.817 69.7883 121.566C69.7929 122.293 69.8093 122.904 69.8258 123.515C69.4069 124.15 69.0104 124.296 68.647 123.285C68.6305 122.991 68.6262 122.874 68.6443 122.638C68.6669 121.495 68.6669 120.472 68.6669 119.363C66.547 119.363 64.607 119.363 62.667 119.363C62.6523 118.991 62.6376 118.619 62.7861 118.174C64.7682 118.088 66.5871 118.076 68.406 118.063Z" fill="#4B2D25"/>
<path d="M75.9444 117.973C73.9587 118.082 71.9693 118.082 69.8105 118.082C69.8105 116.723 69.8105 115.439 69.8324 114.036C71.7377 113.909 73.6211 113.9 75.6288 113.894C75.8155 115.219 75.8781 116.542 75.9444 117.973Z" fill="#E8A16B"/>
<path d="M68.4132 117.942C66.5874 118.076 64.7684 118.088 62.8303 118.097C62.7055 117.71 62.6997 117.327 62.7129 116.829C62.793 116.512 62.8955 116.314 62.9087 116.11C63.0523 113.886 63.0485 113.886 65.2353 113.888C68.429 113.892 68.4292 113.892 68.4267 117.047C68.4265 117.305 68.4224 117.563 68.4132 117.942Z" fill="#E8A16B"/>
<path d="M69.9332 123.515C69.8097 122.904 69.7933 122.293 69.845 121.49C70.3224 121.09 70.711 120.779 71.1448 120.691C72.6835 120.379 74.2377 120.143 75.7861 119.878C75.8415 120.777 75.973 121.681 75.9054 122.57C75.8855 122.832 75.3177 123.229 74.9744 123.259C73.3347 123.402 71.6858 123.439 69.9332 123.515Z" fill="#EBA269"/>
<path d="M68.6219 122.757C68.6263 122.874 68.6307 122.991 68.6185 123.194C67.0446 123.286 65.4851 123.244 63.931 123.316C62.9759 123.361 62.5625 123.068 62.6726 122.08C62.7344 121.526 62.6814 120.959 62.7881 120.324C63.9275 120.305 64.9584 120.394 65.9903 120.405C68.1476 120.429 68.1468 120.412 68.4962 122.533C68.5093 122.613 68.5787 122.683 68.6219 122.757Z" fill="#E8A16B"/>
<path d="M75.7814 119.778C74.2374 120.143 72.6832 120.379 71.1444 120.691C70.7106 120.779 70.3221 121.09 69.8565 121.374C69.8003 120.817 69.8003 120.183 69.8003 119.268C71.7065 119.268 73.5716 119.268 75.5553 119.278C75.7082 119.418 75.7426 119.547 75.7814 119.778Z" fill="#CE865E"/>
<path d="M68.6445 122.638C68.5787 122.683 68.5093 122.613 68.4962 122.533C68.1469 120.412 68.1477 120.429 65.9903 120.405C64.9585 120.394 63.9275 120.305 62.8007 120.204C62.6781 119.959 62.651 119.76 62.6455 119.462C64.6071 119.363 66.5471 119.363 68.6671 119.363C68.6671 120.472 68.6671 121.495 68.6445 122.638Z" fill="#CE865E"/>
<path d="M80.7944 57.0454C81.1758 56.5349 81.6081 55.9724 82.1296 55.5104C82.866 54.8579 83.6685 54.2796 84.5339 53.6653C83.3785 54.7867 82.1318 55.9125 80.7944 57.0454Z" fill="#CFA989"/>
<path d="M77.6562 59.6518C78.549 58.7797 79.5319 57.8984 80.6097 57.0342C79.7185 57.915 78.7325 58.7788 77.6562 59.6518Z" fill="#CFA989"/>
<path d="M87.5879 51.3106C87.9024 50.8437 88.3076 50.3719 88.756 49.8248C88.887 49.9135 89.0787 50.1963 89.0473 50.2236C88.6089 50.6047 88.14 50.951 87.5879 51.3106Z" fill="#CFA989"/>
<path d="M74.5195 62.262C74.8909 61.8234 75.3509 61.378 75.9063 60.9473C75.5373 61.3931 75.0727 61.8242 74.5195 62.262Z" fill="#CFA989"/>
<path d="M76.0894 60.9582C76.2885 60.6188 76.5774 60.2729 76.9573 59.9223C76.7586 60.2623 76.4689 60.607 76.0894 60.9582Z" fill="#CFA989"/>
<path d="M85.4951 53.1346C85.6089 52.8821 85.8108 52.6235 86.1025 52.3613C85.9892 52.6146 85.7862 52.8715 85.4951 53.1346Z" fill="#CFA989"/>
<path d="M77.123 59.9334C77.1634 59.8279 77.2857 59.7336 77.4894 59.648C77.4488 59.7527 77.3269 59.8486 77.123 59.9334Z" fill="#CFA989"/>
<path d="M86.541 52.1066C86.6014 52.0023 86.7533 51.9064 87.0027 51.8202C86.9442 51.925 86.7884 52.02 86.541 52.1066Z" fill="#CFA989"/>
<path d="M84.9634 53.4203C85.0025 53.308 85.1241 53.2132 85.3269 53.129C85.2875 53.239 85.1667 53.3385 84.9634 53.4203Z" fill="#CFA989"/>
<path d="M73.9902 62.5466C74.0295 62.4351 74.1505 62.3405 74.3531 62.2555C74.3138 62.3645 74.1929 62.464 73.9902 62.5466Z" fill="#CFA989"/>
<path d="M86.2631 52.3491C86.2351 52.2822 86.279 52.2067 86.3885 52.113C86.4144 52.1767 86.3746 52.2586 86.2631 52.3491Z" fill="#CFA989"/>
<path d="M84.6955 53.6543C84.6686 53.5886 84.7146 53.5152 84.8237 53.4196C84.8474 53.4804 84.8079 53.5635 84.6955 53.6543Z" fill="#CFA989"/>
<path d="M87.2898 51.6512C87.2666 51.5995 87.3034 51.4915 87.4197 51.347C87.4494 51.4053 87.3996 51.5002 87.2898 51.6512Z" fill="#CFA989"/>
<path d="M46.7983 118.896C43.5247 121.308 41.2038 124.363 39.6796 128.339C38.5131 125.318 46.0265 117.132 50.1417 116.423C50.3475 117.534 49.3005 117.415 48.8011 117.761C48.1988 118.178 47.5179 118.482 46.7983 118.896Z" fill="#B86B48"/>
<path d="M54.0018 132.97C54.016 133.015 53.9689 133.101 53.8581 133.225C53.8431 133.179 53.8918 133.095 54.0018 132.97Z" fill="#3D2024"/>
<path d="M56.2069 135.109C57.0774 135.271 57.8451 135.449 58.6128 135.626C58.59 135.688 58.5673 135.75 58.5445 135.812C56.9491 135.961 55.3536 136.109 53.7582 136.257C53.7242 136.163 53.6902 136.069 53.6562 135.976C54.4722 135.692 55.2882 135.408 56.2069 135.109Z" fill="#7E362E"/>
<path d="M87.932 49.218C87.8963 49.3838 87.7702 49.5447 87.5679 49.7287C87.6083 49.5721 87.725 49.3926 87.932 49.218Z" fill="#C09876"/>
<path d="M87.3232 50.0034C87.194 49.9826 87.1187 49.9251 87.0073 49.8064C87.0893 49.7322 87.2075 49.7192 87.4129 49.7251C87.4914 49.8359 87.4503 49.9102 87.3232 50.0034Z" fill="#C09876"/>
<path d="M91.437 81.8734C91.4146 81.1905 91.4377 80.7206 92.2258 80.7293C94.6565 80.756 97.0878 80.739 99.5566 80.739C99.5566 83.9839 99.5566 87.1316 99.5566 90.3835C96.8533 90.3835 94.2627 90.3835 91.4357 90.3835C91.4357 87.5997 91.4357 84.7986 91.437 81.8734Z" fill="#CE724B"/>
<path d="M89.7597 81.0389C89.7597 84.1031 89.7597 87.1674 89.7597 90.4529C87.2353 90.4529 84.7446 90.4529 82.1303 90.3195C82.005 87.548 82.0407 84.9091 81.9824 82.2722C81.9606 81.2883 82.3075 81.002 83.2602 81.0266C85.4254 81.0825 87.593 81.0409 89.7597 81.0389Z" fill="#CE724B"/>
<path d="M109.571 81.2991C109.571 84.2736 109.571 87.2482 109.571 90.443C107.081 90.443 104.593 90.443 101.983 90.3045C101.861 87.6186 101.901 85.0702 101.842 82.5242C101.819 81.5383 102.173 81.2592 103.118 81.2833C105.267 81.3382 107.42 81.2997 109.571 81.2991Z" fill="#CE724B"/>
<path d="M81.5498 76.8392C81.5507 74.8159 81.5507 72.9189 81.5507 70.8798C84.3312 70.5661 86.9463 70.271 89.6923 69.9611C89.6923 73.0051 89.6923 75.8418 89.6923 78.7923C87.0051 78.7923 84.3487 78.7923 81.5488 78.7923C81.5488 78.1551 81.5488 77.5603 81.5498 76.8392Z" fill="#E49F6A"/>
<path d="M94.9779 70.1415C96.521 70.3043 97.9425 70.4595 99.4702 70.6263C99.4702 73.354 99.4702 76.0212 99.4702 78.7983C96.8589 78.7983 94.239 78.7983 91.522 78.7983C91.522 75.9367 91.522 73.0984 91.522 70.1339C92.6346 70.1339 93.7454 70.1339 94.9779 70.1415Z" fill="#E8A16B"/>
<path d="M79.8502 81.0326C79.8502 84.0999 79.8502 87.1672 79.8502 90.4285C77.4749 90.4285 75.1537 90.4285 72.7095 90.29C72.5864 87.1877 72.5864 84.2241 72.5864 81.0326C75.1189 81.0326 77.4846 81.0326 79.8502 81.0326Z" fill="#CE724B"/>
<path d="M109.673 77.0963C109.672 77.7313 109.672 78.2413 109.672 78.8367C106.851 78.8367 104.181 78.8367 101.414 78.8367C101.414 76.2867 101.414 73.7919 101.414 71.0163C104.062 71.8251 106.65 72.5946 109.215 73.4351C109.445 73.5104 109.628 74.0385 109.651 74.3691C109.712 75.2326 109.673 76.1034 109.673 77.0963Z" fill="#E49F6A"/>
<path d="M79.9026 72.7658C79.9021 74.8286 79.9021 76.7699 79.9021 78.8061C77.3009 78.8061 74.8454 78.8061 72.1417 78.8061C72.1417 77.3204 72.1153 75.8562 72.1657 74.3945C72.1749 74.1285 72.4446 73.72 72.6843 73.6368C75.0075 72.8312 77.3499 72.0811 79.8284 71.2687C79.8621 71.8885 79.8827 72.2664 79.9026 72.7658Z" fill="#E49F6A"/>
<path d="M109.587 81.1939C107.42 81.2996 105.268 81.3381 103.118 81.2832C102.173 81.2592 101.819 81.5383 101.842 82.5242C101.901 85.0702 101.861 87.6186 101.861 90.2867C101.692 90.2691 101.377 90.1322 101.375 89.9924C101.347 86.9654 101.354 83.9381 101.354 80.7766C104.062 80.7766 106.659 80.7726 109.256 80.7899C109.372 80.7906 109.487 80.9847 109.587 81.1939Z" fill="#CE865E"/>
<path d="M79.7977 80.938C77.4843 81.0326 75.1186 81.0326 72.5861 81.0326C72.5861 84.224 72.5861 87.1877 72.5873 90.271C72.4926 90.2675 72.3134 90.1449 72.3128 90.0214C72.2972 86.9967 72.3006 83.9719 72.3006 80.8433C74.8351 80.8433 77.2902 80.8433 79.7977 80.938Z" fill="#E4A072"/>
<path d="M89.711 80.9434C87.5929 81.0409 85.4253 81.0825 83.2601 81.0266C82.3074 81.002 81.9606 81.2882 81.9823 82.2722C82.0406 84.909 82.005 87.548 82.0085 90.3088C81.9014 90.3179 81.6979 90.2049 81.6972 90.0908C81.6799 87.034 81.6834 83.9771 81.6834 80.8479C84.4143 80.8479 87.0384 80.8479 89.711 80.9434Z" fill="#D99667"/>
<path d="M114.927 112.593C115.745 112.593 116.436 112.593 117.233 112.593C117.233 114.758 117.233 116.859 117.233 119.054C115.686 119.054 114.098 119.054 112.395 119.054C112.395 116.974 112.395 114.876 112.395 112.594C113.181 112.594 113.99 112.594 114.927 112.593Z" fill="#ECA876"/>
</svg>
