<svg width="99" height="92" viewBox="0 0 99 92" fill="none" xmlns="http://www.w3.org/2000/svg">
<path d="M71.6927 14.9434C73.1644 14.9434 74.6361 14.9434 76.2092 14.9434C76.2092 15.9305 76.2092 16.8393 76.1176 17.816C75.3838 17.8839 74.7417 17.8839 74.0878 17.8839C74.0878 22.6293 74.0878 27.2165 74.0878 31.8036C74.0777 33.8175 74.0534 35.8315 74.0758 37.845C74.0786 38.0896 74.2773 38.4 74.4796 38.5637C76.1835 39.9428 77.9097 41.2945 79.6284 42.6555C79.8437 42.826 80.0541 43.0027 80.3067 43.2092C79.4428 44.2666 78.6037 45.2936 77.725 46.369C76.8173 45.65 75.9352 44.9513 74.9058 44.1359C74.9058 49.3973 74.9058 54.535 74.9118 59.8114C74.9287 63.0686 74.9396 66.1871 74.9478 69.3756C74.9438 73.0713 74.9545 76.6973 74.929 80.3229C74.9249 80.9149 75.0914 81.1112 75.6964 81.098C77.3102 81.0627 78.9255 81.0802 80.5399 81.1027C80.8221 81.1066 81.1025 81.2368 81.3837 81.3088C80.5537 81.9467 79.7236 82.5847 78.796 83.2204C78.6629 83.217 78.6274 83.2157 78.5217 83.2004C76.2851 83.181 74.1187 83.1783 71.9523 83.1699C65.9007 83.1464 59.8492 83.1027 53.7976 83.1012C48.8558 83.0999 43.9141 83.1602 38.9723 83.1704C33.5249 83.1817 28.0775 83.166 22.6301 83.1667C22.3816 83.1667 22.1331 83.2123 21.8846 83.2366C20.9855 82.6073 20.0864 81.978 19.2153 81.2829C19.3875 81.18 19.5313 81.1114 19.6756 81.1106C21.7145 81.0987 23.7534 81.0896 25.7923 81.0958C26.2894 81.0972 26.7862 81.1559 27.3518 81.1871C29.798 81.1867 32.1757 81.1962 34.5532 81.1766C34.8455 81.1742 35.1366 81.0166 35.4594 80.9085C35.6023 80.9792 35.7141 81.0723 35.8996 81.1568C38.4544 81.1351 40.9354 81.1218 43.4617 81.1546C43.6571 81.2093 43.8073 81.2243 43.9575 81.2256C45.0489 81.2351 45.0395 81.2342 45.0396 80.1723C45.0399 77.9636 45.0622 75.755 45.055 73.5464C45.0469 71.0381 45.0164 68.5299 45.0196 65.951C45.0436 65.2838 45.0436 64.6875 45.0436 64.0557C50.1241 64.0557 55.1124 64.0557 60.1709 64.0557C60.1709 64.7459 60.1709 65.3714 60.1636 66.0655C60.1537 69.754 60.1511 73.3739 60.1347 77.0313C60.1541 77.1046 60.1875 77.1404 60.2921 77.1958C64.2405 77.2154 68.1176 77.2154 72.0288 77.2154C72.0417 76.9237 72.0601 76.7025 72.0601 76.4813C72.0613 66.1336 72.0614 55.7859 72.0586 45.4382C72.0585 45.1878 72.0256 44.9374 72.029 44.6169C72.0566 43.8674 72.1033 43.1847 72.0502 42.5098C72.0285 42.2335 71.8576 41.8921 71.6425 41.7189C65.5203 36.7895 59.3822 31.8797 53.2513 26.961C52.3203 26.2141 52.3308 26.2011 51.4291 27.1472C45.5336 31.9841 39.6851 36.804 33.8487 41.6385C33.7126 41.7512 33.7127 42.0277 33.6375 42.287C33.638 42.4657 33.6503 42.5853 33.6505 42.759C33.6384 42.924 33.6383 43.0348 33.6252 43.2044C33.6313 43.3815 33.6505 43.4998 33.6528 43.6858C33.6334 54.2807 33.6307 64.8079 33.577 75.3568C32.4488 75.6816 31.6174 76.3473 30.8795 77.0961C30.828 76.6612 30.7447 76.2904 30.7431 75.9193C30.732 73.3636 30.7389 70.8078 30.738 68.252C30.7376 67.1845 30.7322 66.117 30.7459 64.9811C30.7479 62.0963 30.7331 59.2799 30.7336 56.4115C30.7514 56.2874 30.7538 56.2152 30.7861 56.0936C30.7936 55.6233 30.7713 55.2025 30.7443 54.744C30.7351 54.6815 30.7307 54.6566 30.7308 54.5639C30.7333 54.088 30.7312 53.6801 30.7312 53.2012C30.7332 50.2027 30.7332 47.2751 30.7332 44.2103C29.8175 44.962 29.0305 45.608 28.3147 46.1956C27.4865 45.4066 26.6902 44.648 25.8694 43.8461C25.712 43.6315 25.5792 43.4602 25.412 43.2445C26.3569 42.4363 27.2608 41.6631 28.2091 40.865C28.9855 40.2298 29.7169 39.6186 30.4497 39.0092C34.7309 35.4499 39.0124 31.891 43.34 28.3101C43.8098 27.9318 44.2313 27.5728 44.6574 27.2194C47.0592 25.2275 49.4625 23.2376 51.8641 21.2455C52.1711 20.9908 52.4359 20.81 52.8451 21.1478C55.3289 23.1982 57.8312 25.2262 60.3285 27.2602C61.3139 28.0627 62.3021 28.8617 63.4058 29.757C63.4281 29.3376 63.4515 29.0976 63.4519 28.8576C63.4573 25.8136 63.4619 22.7696 63.46 19.7256C63.4597 19.1742 63.6405 18.411 63.3561 18.1288C63.0474 17.8226 62.2886 17.9891 61.7348 17.897C61.5381 17.8642 61.2163 17.6862 61.2089 17.5596C61.161 16.7414 61.1844 15.9191 61.1844 15.054C61.5283 15.0389 61.7747 15.0189 62.0212 15.0185C64.5167 15.0152 67.0122 15.0202 69.5076 15.0108C70.236 15.008 70.9643 14.9669 71.6927 14.9434ZM58.0483 66.0108C54.8829 65.9972 51.7175 65.9804 48.5521 65.9816C48.4226 65.9817 48.1798 66.1528 48.1812 66.2414C48.1949 67.1541 48.248 68.0663 48.4329 68.9863C49.6512 68.9862 50.8695 68.986 52.2289 68.9908C53.986 68.9958 55.7432 68.9881 57.4999 69.0138C57.9892 69.021 58.1746 68.8572 58.1516 68.3649C58.1167 67.6148 58.1304 66.8625 58.0483 66.0108ZM48.4353 81.0788C51.4115 81.0844 54.3878 81.0913 57.364 81.0935C57.7296 81.0938 58.1459 81.191 58.141 80.5753C58.1249 78.5616 58.1462 76.5475 58.1128 74.5342C58.1097 74.3501 57.8214 74.0197 57.6608 74.0168C57.107 74.0068 57.0422 73.7089 57.0748 73.2822C57.1088 72.8368 56.8906 72.2387 57.6393 72.1957C58.1083 72.1687 58.1611 71.9137 58.1437 71.5467C58.1245 71.1448 58.1233 70.7421 58.1061 70.2179C57.9314 70.159 57.757 70.0492 57.5822 70.0486C54.6129 70.0395 51.6435 70.0432 48.6741 70.0476C48.5297 70.0478 48.3853 70.0804 48.2055 70.1022C48.184 70.2771 48.151 70.422 48.1508 70.5669C48.1468 73.9071 48.1443 77.2474 48.1515 80.5876C48.1518 80.7473 48.2439 80.9067 48.4353 81.0788ZM71.5759 25.0825C71.5758 22.9444 71.5885 20.8061 71.5588 18.6684C71.5553 18.4155 71.3256 17.9511 71.1903 17.9473C69.4604 17.8979 67.7285 17.9147 66.0199 17.9147C65.9608 18.0749 65.9134 18.1438 65.9133 18.2127C65.904 22.1115 65.8927 26.0103 65.9146 29.9089C65.9155 30.0674 66.2379 30.3523 66.4023 30.3464C66.5728 30.3403 66.8245 30.0766 66.877 29.8816C66.9576 29.5821 66.8982 29.245 66.8982 28.8781C67.1524 28.8979 67.4537 28.8738 67.4697 28.9302C67.5997 29.3891 67.6764 29.8631 67.7856 30.4153C68.8264 30.4153 69.8806 30.3949 70.9334 30.4241C71.4385 30.4381 71.5893 30.2409 71.583 29.7613C71.5633 28.2523 71.5758 26.7429 71.5759 25.0825ZM66.8494 81.215C67.6655 81.215 68.4817 81.215 69.3016 81.215C69.3016 80.7022 69.3016 80.3355 69.3016 79.9905C69.216 79.9445 69.1731 79.9014 69.1301 79.9012C67.0934 79.8909 65.0566 79.8891 63.02 79.8745C62.4382 79.8703 62.5821 80.2893 62.5501 80.6153C62.512 81.003 62.6135 81.2276 63.0759 81.2197C64.283 81.199 65.4906 81.2139 66.8494 81.215ZM67.7589 79.2599C68.9677 79.26 70.1769 79.2387 71.3848 79.2701C71.9081 79.2837 72.0821 79.1202 72.0851 78.5874C72.0881 78.0399 71.884 77.9059 71.3749 77.9139C69.7385 77.9398 68.1014 77.9242 66.4647 77.9277C65.2821 77.9302 65.2395 77.9882 65.5312 79.2594C66.2093 79.2594 66.9085 79.2594 67.7589 79.2599ZM68.9697 31.0468C68.0891 31.0493 67.2083 31.0424 66.3283 31.0636C66.1798 31.0672 65.9484 31.1615 65.9099 31.269C65.8653 31.3939 65.9438 31.6294 66.0509 31.7301C66.4695 32.1239 66.8892 32.4762 67.5579 32.4333C68.5351 32.3705 69.5192 32.418 70.5004 32.4146C71.6106 32.4107 71.7086 32.2625 71.3489 31.0464C70.6212 31.0464 69.871 31.0464 68.9697 31.0468ZM60.8297 79.2613C61.9332 79.2607 63.0371 79.2423 64.14 79.2674C64.6642 79.2794 64.6884 78.9928 64.6787 78.5991C64.6693 78.2205 64.673 77.9078 64.1405 77.9205C63.0125 77.9473 61.8835 77.936 60.7549 77.9343C60.3864 77.9337 60.1051 78.0066 60.127 78.4669C60.1455 78.8578 60.0314 79.3275 60.8297 79.2613ZM47.0872 77.9827C47.0872 78.9834 47.0872 79.9842 47.0872 80.9849C47.154 80.9819 47.2208 80.9788 47.2876 80.9758C47.2876 75.9635 47.2876 70.9513 47.2876 65.9391C47.2208 65.9391 47.154 65.9392 47.0873 65.9392C47.0873 69.9033 47.0873 73.8674 47.0872 77.9827ZM69.9691 80.2834C69.9691 80.5708 69.9691 80.8581 69.9691 81.2153C70.414 81.2153 70.7359 81.2144 71.0579 81.2155C72.1723 81.2194 72.2778 81.0665 71.8834 79.7692C71.2652 79.8928 70.623 80.0211 69.9691 80.2834ZM60.6775 81.2156C62.0444 81.2167 62.1004 81.1524 61.7715 79.8619C61.4478 79.8619 61.0957 79.82 60.7604 79.8769C60.5421 79.914 60.1721 80.1014 60.176 80.2103C60.1888 80.5604 59.829 81.1089 60.6775 81.2156ZM71.3469 34.5132C71.3603 34.0876 71.5444 33.4369 71.3477 33.2883C71.0398 33.0557 70.4744 33.1625 70.0344 33.1268C69.7725 34.5771 69.7809 34.5877 71.0588 34.5602C71.1089 34.5591 71.1589 34.5532 71.3469 34.5132ZM68.9331 34.1301C69.0445 33.8432 69.1559 33.5563 69.2992 33.1875C68.6946 33.1875 68.3122 33.1875 67.7668 33.1875C68.2037 33.5479 68.5215 33.8102 68.9331 34.1301ZM70.4444 35.5049C70.7852 35.7704 71.126 36.0358 71.4668 36.3013C71.5759 35.9431 71.5862 35.4838 71.4582 35.4415C71.135 35.3347 70.7495 35.4155 70.4444 35.5049Z" fill="#3D2024"/>
<path d="M5.74358 23.8954C6.24227 23.4022 6.70329 22.9418 7.21248 22.5303C7.2284 22.9532 7.20768 23.3287 7.16194 23.7012C6.92879 25.6004 6.75215 27.4955 7.25131 29.3854C7.92481 31.9354 10.2497 34.0857 12.8304 34.3625C14.0594 34.4943 15.3143 34.3851 16.6527 34.3851C16.6527 35.3479 16.6871 36.3506 16.6334 37.3487C16.6154 37.6843 16.4424 38.0671 16.2204 38.3259C15.5665 39.0883 14.8021 39.7589 14.1721 40.5386C12.6942 42.3677 11.7215 44.4666 11.3012 46.7686C11.0703 48.0338 11.0351 49.3478 11.0427 50.639C11.0496 51.8111 11.234 52.9822 11.2872 54.1475C6.6797 52.1171 3.28583 48.9129 1.23468 44.3437C0.531263 42.3394 0.0244543 40.2912 0.00119817 38.157C-0.0542984 33.0673 1.82103 28.6895 5.00741 24.8055C5.24446 24.5166 5.47325 24.2209 5.74358 23.8954Z" fill="#4A625A"/>
<path d="M75.1183 85.6381C69.9262 88.6176 64.3554 90.521 58.4352 91.3648C45.9239 93.148 34.2163 90.8878 23.3888 84.3083C23.2598 84.2299 23.1366 84.1419 23.0562 84.0091C29.0682 83.9598 35.0348 83.9598 41.0013 83.9598C40.1768 83.7958 39.3504 83.8167 38.5263 83.7825C38.2947 83.7728 38.0699 83.6015 37.9117 83.5027C38.6051 83.4512 39.2286 83.3614 39.8525 83.358C42.7725 83.3424 45.6925 83.3447 48.6124 83.3633C48.8117 83.3645 49.0097 83.5517 49.1373 83.6534C48.2681 83.6545 47.4698 83.6545 46.6716 83.6545C46.6726 83.6729 46.6737 83.6914 46.6748 83.7099C47.6863 83.8033 48.6979 83.8966 49.6908 84.0416C49.7227 84.3316 49.7733 84.5699 49.8334 84.8706C49.9851 85.0097 50.1235 85.1446 50.2698 85.1535C51.3729 85.2211 52.4774 85.3054 53.5817 85.3078C60.4643 85.3223 67.347 85.3128 74.2296 85.3315C74.5261 85.3323 74.8221 85.5314 75.1183 85.6381ZM34.3008 85.0156C33.8565 85.0156 33.4123 85.0156 32.968 85.0156C32.9717 85.0782 32.9755 85.1407 32.9792 85.2033C38.2268 85.2033 43.4744 85.2033 48.722 85.2033C48.7219 85.1407 48.7219 85.0781 48.7218 85.0155C43.9641 85.0155 39.2064 85.0155 34.3008 85.0156ZM51.3939 86.0656C48.0032 86.0656 44.6125 86.0656 41.2218 86.0656C41.2221 86.1039 41.2224 86.1422 41.2227 86.1806C45.0852 86.1806 48.9478 86.1806 52.8104 86.1806C52.8107 86.1423 52.811 86.104 52.8113 86.0657C52.3879 86.0657 51.9645 86.0657 51.3939 86.0656Z" fill="#D2734A"/>
<path d="M76.0498 59.7983C75.8025 56.6454 78.1298 54.8981 80.875 54.4759C82.3313 54.252 83.7351 54.4336 85.0712 55.0521C85.5662 55.2812 85.8887 55.2028 86.2081 54.733C87.4771 52.8661 89.361 51.6527 91.2713 50.6487C93.5555 49.4481 95.9224 50.0446 98.1204 51.2476C98.2967 51.3441 98.4602 51.4638 98.6788 51.5903C98.7394 51.7683 98.7509 51.9286 98.7522 52.1872C98.7443 52.312 98.7465 52.3384 98.7487 52.3649C98.1676 54.6002 97.6457 56.8532 96.9847 59.0646C96.5467 60.5298 95.9092 61.9356 95.2842 63.359C94.5326 62.9665 93.795 62.9058 93.1621 63.3067C92.4186 63.7777 91.7601 64.134 90.9801 63.358C90.8708 63.2959 90.7891 63.2679 90.6804 63.1951C90.3759 63.0273 90.0986 62.9044 89.8212 62.7815C89.7957 62.8546 89.7702 62.9278 89.7448 63.001C90.0625 63.0844 90.3802 63.1679 90.7257 63.2852C90.8352 63.347 90.917 63.3748 91.0079 63.4574C91.6817 64.2399 91.4913 65.0181 91.0898 65.8044C88.9151 65.3907 86.8568 65.6207 84.7883 66.3686C84.5945 65.9961 84.4015 65.6502 84.2311 65.2937C83.0753 62.875 81.1513 61.4109 78.5925 60.6938C77.7291 60.4518 76.8965 60.0999 76.0498 59.7983Z" fill="#EBA168"/>
<path d="M18.3983 4.12995C19.8061 4.02228 21.1582 3.89368 22.5133 3.84315C24.4766 3.76988 26.4418 3.74064 28.4066 3.72104C28.8926 3.71619 29.2135 3.6052 29.5372 3.1816C30.8804 1.42413 32.6537 0.329322 34.8879 0.133972C39.6043 -0.278388 42.4756 4.02975 41.6379 7.18171C41.2407 8.67627 40.2548 9.44554 38.7199 9.44604C31.0011 9.44848 23.2822 9.44979 15.4928 9.46719C15.0171 9.47575 14.612 9.46861 14.0743 9.45309C13.6318 9.45401 13.322 9.46333 13.0121 9.47265C12.2483 9.57331 12.086 9.16427 12.2165 8.41437C12.2297 8.28125 12.2279 8.25357 12.2261 8.2259C12.7858 6.39707 14.0275 5.37539 15.9227 5.17045C16.5107 5.10683 17.0254 4.99598 17.4609 4.53529C17.6647 4.31964 18.044 4.26922 18.3983 4.12995ZM32.1534 3.53942C32.1294 3.53782 32.1054 3.53621 32.0149 3.56555C31.973 3.59518 31.9452 3.63464 31.8861 3.70741C31.9094 3.70772 31.9327 3.70802 32.0236 3.67889C32.0663 3.64935 32.0937 3.60938 32.1534 3.53942ZM37.8431 4.04095C37.6973 3.92204 37.5516 3.80315 37.3488 3.59285C36.6566 3.05835 35.8945 3.00024 35.0835 3.27103C35.8487 3.41756 36.6138 3.56411 37.3997 3.8071C37.5465 3.92392 37.6932 4.04073 37.8558 4.25693C37.9458 4.40704 38.0358 4.55713 38.1259 4.70722C38.1814 4.66783 38.237 4.62842 38.2925 4.58903C38.1476 4.43938 38.0027 4.28971 37.8431 4.04095ZM34.0516 1.12781C34.3031 1.12631 34.5567 1.14522 34.8058 1.12006C36.6621 0.932364 38.2206 1.49011 39.4415 2.92727C39.5404 3.04359 39.6968 3.11114 39.9152 3.26304C39.073 1.42177 36.0751 0.144489 33.8271 1.12897C33.7544 1.14251 33.6818 1.15607 33.6091 1.16963C33.6215 1.20258 33.634 1.23552 33.6464 1.26845C33.7342 1.22061 33.8219 1.17279 34.0516 1.12781ZM31.4679 4.66093C30.8406 4.74237 30.2141 4.88674 29.5859 4.89405C27.2149 4.92159 24.8434 4.89988 22.4721 4.91095C22.2135 4.91215 21.9554 5.00589 21.6971 5.05672C21.7108 5.13604 21.7246 5.21537 21.7384 5.29471C22.217 5.26689 22.6955 5.21659 23.1742 5.21502C25.6717 5.20689 28.1692 5.21292 30.6666 5.20895C31.0092 5.2084 31.4126 5.2899 31.4679 4.66093ZM35.6416 2.32943C37.0028 2.21123 37.9641 3.02455 38.9771 3.74407C38.2978 2.80345 37.395 2.17136 36.252 2.04681C34.8767 1.89699 33.5873 2.19736 32.5283 3.05341C33.5102 2.81424 34.5056 2.57179 35.6416 2.32943ZM40.8278 4.73582C40.7665 4.7334 40.7051 4.731 40.6437 4.72861C40.6684 4.79425 40.693 4.85992 40.7176 4.92556C40.7618 4.88676 40.8059 4.84796 40.8278 4.73582ZM31.6649 4.23488C31.6673 4.17649 31.6698 4.11811 31.6722 4.05973C31.6482 4.06093 31.6037 4.05966 31.6032 4.06368C31.5962 4.12189 31.595 4.1808 31.6649 4.23488ZM40.2019 3.51889C40.1479 3.51767 40.094 3.51645 40.04 3.51522C40.0402 3.53767 40.0386 3.57951 40.0409 3.57974C40.0945 3.58483 40.1486 3.58542 40.2019 3.51889ZM40.3447 4.04527C40.3342 4.03532 40.3237 4.02538 40.3447 4.04527Z" fill="#EBA269"/>
<path d="M81.3897 81.2973C81.1023 81.2365 80.8219 81.1063 80.5397 81.1023C78.9253 81.0798 77.3099 81.0623 75.6961 81.0976C75.0912 81.1108 74.9246 80.9145 74.9288 80.3225C74.9543 76.6969 74.9435 73.071 75.0174 69.3718C76.6822 69.1392 78.0748 69.5501 79.0818 70.7494C79.4159 70.5786 79.6443 70.3703 79.8864 70.353C81.3057 70.2516 82.7186 70.2742 83.9748 71.0786C84.4804 71.4024 84.9491 71.7838 85.4391 72.1439C85.4435 72.149 85.4704 72.1623 85.5045 72.2011C85.6943 72.3659 85.85 72.4919 86.0041 72.6506C86.0525 72.7044 86.1025 72.7256 86.176 72.7378C86.1995 72.7288 86.1999 72.6649 86.1999 72.6649C86.1999 72.6649 86.1315 72.6425 86.1006 72.6355C86.0698 72.6285 86.0078 72.616 86.0083 72.5686C86.0042 72.4585 85.9995 72.3957 85.9942 72.2783C85.7925 72.0049 85.5913 71.786 85.3939 71.5624C85.3977 71.5577 85.3922 71.5678 85.3975 71.5116C85.5545 71.338 85.7062 71.2205 85.8567 71.1042C85.8554 71.1053 85.8568 71.1027 85.8718 71.1368C85.916 71.2134 85.9553 71.2424 86.0058 71.2571C86.0069 71.2564 86.0049 71.2585 86.0049 71.3136C86.2115 71.5794 86.4182 71.79 86.6622 72.0065C86.6996 72.0124 86.7737 72.0275 86.7885 72.0474C86.8033 72.0672 86.8683 72.0587 86.8683 72.0587C86.8683 72.0587 86.8907 71.9909 86.8952 71.937C86.8442 71.6821 86.7886 71.4811 86.7655 71.2418C86.8881 71.1634 86.9783 71.1234 87.0753 71.0889C87.082 71.0945 87.0888 71.1106 87.1018 71.141C87.1875 71.1688 87.2603 71.1661 87.3765 71.1297C87.8741 70.6422 88.2526 69.9751 88.7994 69.7817C89.764 69.4405 90.8292 69.4146 91.803 69.949C90.1709 72.7241 88.1052 75.1605 85.8293 77.4164C84.5066 78.7276 83.0824 79.9367 81.6288 81.1872C81.4998 81.2088 81.4458 81.235 81.3918 81.2612C81.3918 81.2612 81.3959 81.2862 81.3897 81.2973ZM84.182 72.8716C84.2507 72.9002 84.3194 72.9288 84.3882 72.9573C84.3288 72.8873 84.2695 72.8172 84.1584 72.6672C84.0476 72.6129 83.9369 72.5585 83.8262 72.5042C83.8065 72.5478 83.7868 72.5914 83.7671 72.635C83.8969 72.6894 84.0266 72.7439 84.182 72.8716ZM78.5339 71.9434C78.6109 72.0151 78.686 72.1469 78.7654 72.1495C80.3378 72.2009 81.9107 72.2374 83.3377 72.2733C82.5659 71.8058 82.0008 71.7502 78.5339 71.9434Z" fill="#4B6158"/>
<path d="M86.774 72.0278C86.774 72.0278 86.6998 72.0127 86.652 71.9582C86.4045 71.6888 86.2048 71.4738 86.0051 71.2588C86.0051 71.2588 86.0071 71.2567 85.9937 71.2214C85.9392 71.1584 85.8981 71.1307 85.8571 71.103C85.8571 71.103 85.8556 71.1056 85.8372 71.0577C84.3329 69.4243 81.1918 68.6949 80.0374 69.7872C80.3544 69.8266 80.5863 69.8617 80.8194 69.883C81.2691 69.924 81.7226 69.9351 82.1691 69.9977C83.4112 70.1716 84.4105 70.855 85.3924 71.568C85.3924 71.568 85.3979 71.558 85.4013 71.6329C85.4147 71.8516 85.4248 71.9954 85.4349 72.1392C84.9493 71.7841 84.4806 71.4027 83.975 71.0789C82.7188 70.2745 81.3059 70.2519 79.8867 70.3533C79.6446 70.3706 79.4161 70.5789 79.0821 70.7496C78.075 69.5504 76.6824 69.1395 75.0203 69.3021C74.9396 66.187 74.9287 63.0685 74.9272 59.8838C75.2611 59.8172 75.5854 59.817 75.9799 59.8076C76.8967 60.1001 77.7293 60.452 78.5928 60.694C81.1515 61.4111 83.0756 62.8752 84.2314 65.2939C84.4018 65.6505 84.5947 65.9963 84.7886 66.3688C86.8571 65.6209 88.9154 65.391 91.1466 65.8158C92.1071 66.0783 92.948 66.3289 93.7889 66.5795C93.1557 67.6811 92.5224 68.7827 91.8462 69.9168C90.8294 69.4149 89.7642 69.4408 88.7996 69.782C88.2528 69.9754 87.8743 70.6425 87.3372 71.1172C87.1993 71.1291 87.1442 71.12 87.089 71.1109C87.089 71.1109 87.0823 71.0947 87.0604 71.0424C86.0158 69.452 83.7634 68.2447 82.5859 68.8004C84.4559 69.019 85.6491 70.0663 86.7333 71.2804C86.7889 71.4813 86.8444 71.6823 86.8656 71.9444C86.8314 72.0055 86.774 72.0278 86.774 72.0278Z" fill="#D3754C"/>
<path d="M13.2178 75.7153C14.0065 75.2086 14.7463 74.6342 15.8669 74.7105C17.2555 74.6192 18.2868 75.0881 19.1684 75.9538C19.4562 76.2365 19.773 76.4948 20.039 75.8911C20.0618 75.885 20.1063 75.9008 20.1441 75.9442C21.0321 76.2388 21.8608 76.5162 22.4502 77.2507C22.5549 77.381 22.805 77.4005 22.9918 77.4589C23.7384 77.6924 24.7463 77.3831 25.2012 78.188C25.8321 79.3042 26.9555 79.2734 27.9277 79.624C28.022 79.658 28.1092 79.7117 28.1752 79.8005C27.8614 80.2928 27.5722 80.7408 27.283 81.1888C26.786 81.1564 26.2892 81.0978 25.7921 81.0963C23.7532 81.0902 21.7143 81.0993 19.6754 81.1112C19.5311 81.112 19.3873 81.1806 19.1822 81.2412C17.152 79.4314 15.1828 77.5981 13.2178 75.7153ZM15.5773 75.8072C16.1379 75.7697 16.6985 75.7322 17.3898 75.6861C16.6376 75.4062 16.0174 75.3493 15.3335 75.7771C15.2951 75.8051 15.2567 75.8331 15.2182 75.8611C15.2965 75.8454 15.3748 75.8297 15.5773 75.8072ZM17.6096 75.8642L17.6386 75.8791C17.6386 75.8791 17.6335 75.85 17.6096 75.8642Z" fill="#4B6158"/>
<path d="M49.2082 83.6508C49.0096 83.55 48.8115 83.3629 48.6123 83.3616C45.6924 83.343 42.7723 83.3407 39.8524 83.3564C39.2284 83.3597 38.6049 83.4495 37.8529 83.5032C37.4138 83.5503 37.103 83.5937 36.7733 83.5806C36.4985 83.4655 36.2427 83.3566 35.9867 83.356C31.724 83.3451 27.4614 83.3451 23.1988 83.3537C22.9352 83.3542 22.6719 83.4461 22.3849 83.5173C22.3613 83.5391 22.3183 83.5868 22.3183 83.5868C22.1888 83.498 22.0593 83.4092 21.9072 83.2783C22.1331 83.2117 22.3816 83.1662 22.6301 83.1662C28.0775 83.1655 33.5249 83.1811 38.9723 83.1699C43.9141 83.1597 48.8559 83.0993 53.7976 83.1006C59.8492 83.1022 65.9007 83.1458 71.9523 83.1693C74.1187 83.1777 76.2852 83.1804 78.5172 83.2362C78.5733 83.3351 78.5705 83.3837 78.5743 83.4328C78.4633 83.5104 78.3522 83.5879 78.1569 83.6439C76.9954 83.6057 75.9181 83.5712 74.8409 83.5754C69.4216 83.5969 64.0023 83.6458 58.583 83.6483C56.271 83.6493 53.9589 83.5608 51.5752 83.5085C50.8384 83.5524 50.1733 83.6008 49.4582 83.65C49.3415 83.6508 49.2749 83.6508 49.2082 83.6508Z" fill="#BB704F"/>
<path d="M51.6468 83.5137C53.9589 83.5615 56.2709 83.65 58.583 83.6489C64.0023 83.6465 69.4216 83.5975 74.8409 83.5761C75.918 83.5718 76.9953 83.6063 78.1092 83.6627C77.9224 83.8834 77.699 84.0644 77.4102 84.1929C77.1175 84.0784 76.8904 83.9629 76.6628 83.9621C73.7696 83.9512 70.8764 83.9568 67.9406 83.9594C67.8217 83.9929 67.7453 84.0251 67.599 84.0597C61.5891 84.0378 55.6492 84.0134 49.7094 83.989C48.6978 83.8957 47.6862 83.8023 46.6746 83.7089C46.6735 83.6904 46.6725 83.672 46.6714 83.6535C47.4696 83.6535 48.2679 83.6535 49.1372 83.6525C49.2748 83.6514 49.3415 83.6515 49.5048 83.6926C50.2913 83.7353 51.0167 84.0657 51.6468 83.5137Z" fill="#582505"/>
<path d="M75.1692 85.6333C74.822 85.531 74.526 85.3319 74.2295 85.3311C67.3469 85.3125 60.4642 85.322 53.5816 85.3074C52.4774 85.3051 51.3728 85.2208 50.2697 85.1532C50.1235 85.1442 49.985 85.0093 49.9023 84.8826C51.7202 84.8514 53.4785 84.8834 55.237 84.8865C58.8843 84.893 62.5318 84.8877 66.1791 84.877C66.629 84.8757 67.0787 84.8118 67.5622 84.8336C67.8862 84.9319 68.1756 85.0029 68.4667 85.0103C70.9389 85.0732 73.4113 85.1246 75.8837 85.1794C75.6625 85.3292 75.4414 85.479 75.1692 85.6333Z" fill="#582505"/>
<path d="M75.9335 85.165C73.4109 85.1235 70.9384 85.0722 68.4663 85.0093C68.1752 85.0019 67.8857 84.9308 67.6011 84.8042C67.7349 84.5081 67.8632 84.297 67.9898 84.0539C67.9882 84.0218 67.9827 83.9577 67.9827 83.9577C70.876 83.9564 73.7693 83.9508 76.6625 83.9617C76.89 83.9625 77.1172 84.0779 77.3611 84.199C76.913 84.5557 76.4484 84.8537 75.9335 85.165Z" fill="#D2734A"/>
<path d="M93.8277 66.5497C92.9481 66.329 92.1072 66.0784 91.2098 65.8166C91.4917 65.0185 91.6821 64.2403 91.0107 63.4553C91.004 63.398 91.0081 63.3925 91.0081 63.3925C91.7605 64.1344 92.4189 63.7781 93.1625 63.3071C93.7954 62.9062 94.533 62.9668 95.2479 63.3993C94.8141 64.4721 94.3403 65.4959 93.8277 66.5497Z" fill="#582505"/>
<path d="M36.7921 83.6383C37.1029 83.5949 37.4138 83.5514 37.7832 83.5059C38.0697 83.6009 38.2945 83.7723 38.5261 83.7819C39.3502 83.8161 40.1766 83.7953 41.0011 83.9592C35.0346 83.9592 29.068 83.9592 23.0264 83.9643C22.8782 83.9464 22.8052 83.9235 22.7153 83.8175C22.6984 83.703 22.6984 83.6716 22.7699 83.644C27.4917 83.6446 32.1419 83.6414 36.7921 83.6383Z" fill="#582505"/>
<path d="M13.0571 9.50452C13.3223 9.46253 13.6321 9.45321 14.007 9.45829C13.7487 9.49419 13.4253 9.5157 13.0571 9.50452Z" fill="#FEECCE"/>
<path d="M22.7003 83.6414C22.7004 83.6729 22.7005 83.7044 22.701 83.7832C22.5955 83.7711 22.4896 83.7117 22.351 83.6206C22.3183 83.5888 22.3615 83.5408 22.4274 83.5244C22.5623 83.5525 22.6313 83.5969 22.7003 83.6414Z" fill="#BB704F"/>
<path d="M78.6102 83.4256C78.5702 83.3849 78.573 83.3361 78.5871 83.2512C78.6273 83.2159 78.6629 83.2171 78.7476 83.2401C78.7466 83.3136 78.6965 83.3654 78.6102 83.4256Z" fill="#582505"/>
<path d="M81.4521 81.2845C81.4462 81.2365 81.5003 81.2102 81.5804 81.2021C81.575 81.249 81.5436 81.2777 81.4521 81.2845Z" fill="#3D2024"/>
<path d="M98.7696 52.3526C98.7468 52.3401 98.7447 52.3135 98.7548 52.249C98.8132 52.248 98.8209 52.2905 98.7696 52.3526Z" fill="#FEECCE"/>
<path d="M12.2058 8.23828C12.2282 8.25183 12.2301 8.27956 12.2153 8.3456C12.1576 8.34297 12.153 8.29917 12.2058 8.23828Z" fill="#FEECCE"/>
<path d="M43.294 28.3319C39.0126 31.8909 34.731 35.4498 30.4499 39.0092C29.717 39.6185 28.9856 40.2297 28.1542 40.8381C27.9094 40.8004 27.7659 40.7529 27.6185 40.731C26.2307 40.5251 24.8276 40.3928 23.4578 40.1028C21.8633 39.7652 20.4496 38.1567 20.2946 36.5513C20.2041 35.6146 20.2876 34.6619 20.2793 33.7164C20.2652 32.103 19.2551 30.7331 17.677 30.4702C16.5219 30.2778 15.3204 30.3806 14.1451 30.2845C13.5045 30.2322 12.8145 30.1641 12.2519 29.8889C9.94823 28.7618 8.94543 26.7521 8.79123 24.2993C8.72243 23.2047 8.86658 22.0967 8.91409 20.9948C11.9427 18.6003 15.3863 17.0837 19.1903 16.5574C27.9707 15.3427 35.1562 18.3566 40.8926 25.0054C41.0566 25.1955 41.2208 25.3853 41.4378 25.6452C42.0918 26.5874 42.6929 27.4596 43.294 28.3319Z" fill="#A64D38"/>
<path d="M8.86581 21.0215C8.86611 22.0972 8.72195 23.2051 8.79076 24.2998C8.94495 26.7525 9.94776 28.7623 12.2514 29.8893C12.814 30.1646 13.5041 30.2327 14.1446 30.285C15.3199 30.3811 16.5214 30.2783 17.6765 30.4707C19.2546 30.7335 20.2648 32.1034 20.2789 33.7169C20.2871 34.6623 20.2036 35.6151 20.2941 36.5518C20.4491 38.1572 21.8628 39.7657 23.4574 40.1033C24.8271 40.3933 26.2302 40.5256 27.618 40.7315C27.7654 40.7533 27.909 40.8009 28.1094 40.8634C27.2605 41.6635 26.3566 42.4367 25.4117 43.2449C25.5789 43.4606 25.7117 43.6319 25.8659 43.9096C25.9404 44.5106 25.7294 44.7718 25.221 44.8111C24.9726 44.8303 24.7305 44.9297 24.482 44.9498C24.0122 44.9879 23.8968 45.1834 24.0066 45.651C24.187 46.4188 23.9758 47.1234 23.5556 47.7971C23.1596 48.432 22.7697 49.0905 22.5234 49.79C22.4098 50.1125 22.513 50.6831 22.7446 50.9252C23.805 52.0333 25.1516 52.7948 26.6269 53.0808C27.9565 53.3385 29.3586 53.2233 30.7288 53.2726C30.7309 53.6805 30.733 54.0885 30.6717 54.5661C29.8414 54.8869 29.0746 55.138 28.2442 55.39C27.5069 55.4965 26.8333 55.6023 26.101 55.7244C24.895 55.8795 23.7478 56.0182 22.5271 56.1498C21.3229 56.0964 20.1922 56.0502 18.9956 56.0054C18.0123 55.9022 17.0949 55.7978 16.1246 55.6706C15.2693 55.4658 14.4669 55.2836 13.6644 55.1014C12.9215 54.8047 12.1785 54.5081 11.3876 54.1827C11.2336 52.9824 11.0492 51.8114 11.0423 50.6392C11.0347 49.348 11.0699 48.034 11.3009 46.7689C11.7211 44.4668 12.6938 42.368 14.1717 40.5389C14.8018 39.7591 15.5661 39.0886 16.22 38.3262C16.442 38.0673 16.615 37.6846 16.633 37.3489C16.6868 36.3509 16.6523 35.3481 16.6523 34.3854C15.314 34.3854 14.059 34.4945 12.8301 34.3627C10.2494 34.086 7.92442 31.9356 7.25092 29.3856C6.75177 27.4957 6.9284 25.6006 7.16156 23.7014C7.20729 23.3289 7.22802 22.9535 7.25891 22.5122C7.77768 21.9792 8.29785 21.5134 8.86581 21.0215Z" fill="#7E3A2F"/>
<path d="M43.3401 28.3111C42.6929 27.4606 42.0917 26.5884 41.4858 25.6623C41.7995 21.7813 43.3088 18.4457 45.8696 15.6309C50.0165 11.0726 55.2429 8.98135 61.3843 9.47382C65.5186 9.80532 69.0557 11.4997 71.6792 14.8959C70.9644 14.9679 70.2362 15.009 69.5077 15.0117C67.0123 15.0211 64.5168 15.0161 62.0213 15.0195C61.7749 15.0198 61.5284 15.0398 61.1845 15.0549C61.1845 15.9201 61.1612 16.7424 61.209 17.5605C61.2165 17.6872 61.5383 17.8652 61.735 17.8979C62.2887 17.99 63.0476 17.8235 63.3562 18.1298C63.6407 18.412 63.4598 19.1752 63.4601 19.7265C63.462 22.7705 63.4574 25.8145 63.452 28.8585C63.4516 29.0985 63.4282 29.3385 63.4059 29.758C62.3022 28.8627 61.314 28.0637 60.3287 27.2611C57.8314 25.2271 55.329 23.1992 52.8453 21.1488C52.436 20.811 52.1712 20.9918 51.8642 21.2465C49.4626 23.2385 47.0593 25.2285 44.6575 27.2203C44.2314 27.5738 43.8099 27.9328 43.3401 28.3111Z" fill="#A7723C"/>
<path d="M74.1557 31.8036C74.0879 27.2161 74.0879 22.629 74.0879 17.8835C74.7417 17.8835 75.3839 17.8835 76.0977 17.8829C76.6588 17.8124 77.21 17.8598 77.6217 17.6432C78.1372 17.3721 78.3358 17.5356 78.5719 17.9395C80.2107 20.7426 80.65 23.6968 79.5062 26.763C79.0372 28.0204 78.2997 29.1788 77.674 30.3769C77.4442 30.8168 77.1843 31.2411 76.8632 31.8039C76.0754 31.8039 75.1495 31.8039 74.1557 31.8036Z" fill="#E99F67"/>
<path d="M91.1482 37.3165C91.7636 37.1271 92.379 36.9376 93.1947 36.6865C93.2813 38.5049 93.5483 40.1896 93.3989 41.8368C93.135 44.7489 90.225 46.9143 87.3017 46.5132C85.6969 46.293 84.1134 45.9177 82.4199 45.5931C82.6084 45.2529 82.7143 45.0618 82.9248 44.8426C84.9243 44.3534 86.8479 43.9828 88.7041 43.3988C89.9197 43.0163 90.8336 42.0962 91.0061 40.7579C91.1524 39.6234 91.1082 38.4645 91.1482 37.3165Z" fill="#CE7049"/>
<path d="M51.1431 8.01234C50.5087 8.71369 49.9843 9.48361 49.27 9.98285C48.2531 10.6936 47.0968 11.2056 45.825 11.8978C45.7412 10.3119 45.5431 8.84122 45.6199 7.38506C45.6988 5.89123 46.4269 4.65475 47.8146 3.90791C48.8029 3.37607 49.7905 2.84301 50.9177 2.23535C51.1714 4.23376 51.9701 6.04698 51.1431 8.01234Z" fill="#E69C65"/>
<path d="M91.088 37.3311C91.1084 38.4645 91.1526 39.6234 91.0064 40.7579C90.8339 42.0961 89.92 43.0163 88.7044 43.3988C86.8482 43.9828 84.9246 44.3533 82.9614 44.8097C83.7737 43.289 84.6439 41.7672 85.5377 40.2594C86.2427 39.07 87.3738 38.4362 88.6409 38.022C89.4262 37.7653 90.2313 37.569 91.088 37.3311Z" fill="#843E32"/>
<path d="M81.1063 35.8128C81.3347 36.3035 81.5309 36.749 81.7493 37.2453C81.9176 36.8276 82.0357 36.4206 82.2363 36.0592C82.7341 35.1622 83.4594 34.5807 84.5495 34.6814C85.2778 34.7486 85.7512 35.188 85.9297 35.8873C86.192 36.9153 85.7396 37.7044 84.9798 38.3377C83.2902 39.7461 80.2184 39.7751 78.4959 38.4044C77.7233 37.7895 77.2409 37.0107 77.4327 35.9849C77.5577 35.3167 77.9974 34.8435 78.6694 34.7006C79.7077 34.4799 80.4644 34.9801 81.1063 35.8128Z" fill="#4B6158"/>
<path d="M69.8018 8.37922C68.8078 8.14791 67.7888 7.99025 66.826 7.66647C65.6488 7.27061 64.9514 6.11124 65.0209 4.8311C65.0596 4.11816 65.1877 3.41007 65.2878 2.60059C65.6687 2.86988 65.97 3.08285 66.295 3.39586C66.6725 3.9135 66.9446 4.52931 67.3943 4.7134C69.0804 5.40369 69.559 6.79391 69.8018 8.37922Z" fill="#904234"/>
<path d="M34.8468 14.4232C35.6175 14.3756 36.0844 14.7262 36.2572 15.3771C36.4442 16.0818 36.075 16.6424 35.4831 16.9361C34.684 17.3326 33.8207 17.6003 32.9688 17.9295C32.6639 16.2639 33.4932 14.7293 34.8468 14.4232Z" fill="#E8A16B"/>
<path d="M86.1569 28.2012C86.7904 28.3072 87.2894 28.512 87.3788 29.1814C87.4757 29.9074 87.2076 30.4779 86.538 30.7845C85.7759 31.1334 84.9866 31.423 84.1995 31.7424C83.7371 30.1635 84.6334 28.5881 86.1569 28.2012Z" fill="#E8A16B"/>
<path d="M80.723 11.5689C80.3067 11.1768 79.9419 10.8081 79.5771 10.4394C79.6285 10.3606 79.6798 10.2818 79.7311 10.203C80.9766 10.203 82.2402 10.0814 83.4586 10.2627C83.9479 10.3355 84.3377 11.0739 84.8686 11.6052C83.3484 11.9197 82.0563 12.3008 80.723 11.5689Z" fill="#4B6158"/>
<path d="M69.8481 8.40925C69.559 6.79262 69.0804 5.4024 67.3943 4.71211C66.9447 4.52801 66.6725 3.9122 66.3213 3.4375C67.1331 3.88564 68.0398 4.2877 68.7212 4.92847C69.2744 5.44873 69.5976 6.23561 69.9453 6.94225C70.1733 7.40568 70.2632 7.9368 70.4433 8.5311C70.2067 8.49208 70.0505 8.46632 69.8481 8.40925Z" fill="#B86B48"/>
<path d="M21.4564 13.5721C21.7382 13.5464 21.9499 13.5229 22.3836 13.4746C21.8571 14.2043 21.4482 14.7708 20.9601 15.4471C20.4499 14.7973 20.0004 14.2247 19.4897 13.5742C20.257 13.5742 20.8216 13.5742 21.4564 13.5721Z" fill="#69342F"/>
<path d="M41.7871 14.1343C41.6063 13.9557 41.4255 13.7771 41.1055 13.4609C42.1024 13.4609 42.8379 13.4609 43.7209 13.4609C43.6185 13.64 43.5248 13.804 43.3109 13.9742C42.7228 14.0317 42.2549 14.083 41.7871 14.1343Z" fill="#69342F"/>
<path d="M41.8096 14.178C42.2548 14.0819 42.7227 14.0306 43.2591 13.9844C43.0796 14.3438 42.8316 14.6982 42.5196 15.1439C42.2354 14.7631 42.0338 14.493 41.8096 14.178Z" fill="#BB704F"/>
<path d="M86.8495 22.1048C86.67 22.3142 86.5294 22.4861 86.3487 22.7073C86.092 22.3917 85.8503 22.0946 85.5693 21.749C86.0973 21.749 86.5472 21.749 87.0395 21.749C86.9992 21.8341 86.9438 21.9508 86.8495 22.1048Z" fill="#69342F"/>
<path d="M33.6279 75.3345C33.6306 64.8073 33.6332 54.2801 33.7041 43.6859C33.863 43.5775 33.9679 43.5534 34.0423 43.4923C36.6778 41.3282 39.3133 39.164 41.9376 36.9864C42.1331 36.8242 42.2449 36.5615 42.3938 36.3438C42.3921 36.3421 42.3938 36.3464 42.4412 36.3562C42.5585 36.3084 42.6285 36.2508 42.6964 36.1921C42.6942 36.191 42.6966 36.1953 42.748 36.1914C43.0686 35.9377 43.3378 35.6878 43.6051 35.4366C43.6032 35.4353 43.6056 35.4395 43.6577 35.4358C43.8776 35.2323 44.0455 35.0325 44.2113 34.8314C44.2091 34.8302 44.2093 34.8352 44.2567 34.8417C44.3747 34.7926 44.4453 34.737 44.5137 34.6805C44.5116 34.6796 44.5137 34.684 44.5659 34.6786C45.1897 34.1727 45.7612 33.672 46.3309 33.1697C46.3292 33.1681 46.332 33.1721 46.3846 33.168C47.1597 32.5114 47.8822 31.8589 48.603 31.2049C48.6013 31.2033 48.6033 31.2069 48.6455 31.2024C48.7106 31.1499 48.7335 31.1017 48.7541 31.0528C48.7518 31.0519 48.7531 31.0566 48.8008 31.0668C48.9185 31.0194 48.9885 30.9618 49.0568 30.9026C49.0552 30.901 49.0581 30.9049 49.1091 30.9014C49.2778 30.7489 49.3955 30.6 49.5113 30.4493C49.5095 30.4476 49.5125 30.4509 49.5541 30.4459C49.6187 30.3936 49.6417 30.3462 49.6628 30.2976C49.6609 30.2964 49.6623 30.3006 49.7154 30.3054C49.8586 30.2552 49.9488 30.2002 50.0536 30.1356C50.0682 30.126 50.1144 30.0739 50.1492 30.0414C50.2128 29.954 50.2416 29.8991 50.2684 29.8439C50.2662 29.8437 50.2694 29.847 50.322 29.8442C50.642 29.6358 50.9138 29.4351 51.1678 29.2142C51.1861 29.1984 51.075 29.0345 51.0241 28.8812C51.0221 28.7063 51.02 28.5895 51.0558 28.4346C51.4521 28.5214 51.8801 28.5603 52.1587 28.7843C57.7133 33.2482 63.2473 37.7375 68.7942 42.211C69.8464 43.0596 70.9356 43.8624 72.0077 44.6864C72.0254 44.9368 72.0584 45.1873 72.0585 45.4377C72.0612 55.7854 72.0612 66.1331 72.0599 76.4808C72.0599 76.702 72.0415 76.9232 72.0286 77.2148C68.1174 77.2148 64.2404 77.2148 60.293 77.1609C60.2091 77.0618 60.1843 77.0239 60.1484 76.9933C60.1509 73.3734 60.1535 69.7534 60.2286 66.0583C60.8459 65.9396 61.5465 66.0939 61.9045 65.8132C62.7589 65.1432 63.4517 64.2679 64.2797 63.476C64.5429 63.4548 64.7362 63.4331 64.9168 63.4129C64.9168 62.1753 64.9168 60.9815 64.9168 59.7473C64.3827 59.7473 63.9058 59.7474 63.429 59.7473C55.6604 59.746 47.8918 59.7564 40.1233 59.7237C39.398 59.7206 38.9225 59.9003 38.581 60.5501C38.0468 61.0515 37.5248 61.5217 37.0918 62.0628C35.7405 63.7518 35.7834 65.7458 35.9049 67.8174C35.8973 68.1063 35.9006 68.3282 35.8785 68.595C35.8615 68.8552 35.87 69.0706 35.8659 69.3433C35.8691 69.516 35.8848 69.6315 35.8933 69.8164C35.8868 70.2112 35.9175 70.5399 35.8817 70.8611C35.8178 71.4334 36.0574 71.6031 36.611 71.5774C37.5117 71.5357 38.4156 71.56 39.3348 71.609C39.555 72.1454 39.7848 72.0603 40.0896 71.6924C41.1054 71.6488 42.061 71.627 43.0114 71.5444C43.2104 71.5271 43.5394 71.2967 43.551 71.1451C43.5901 70.6297 43.514 70.1056 43.4793 69.5265C43.4569 69.393 43.4369 69.3179 43.4535 69.2128C43.5186 68.9699 43.5472 68.7568 43.5736 68.4805C43.5352 67.6509 43.4989 66.8846 43.5272 66.1101C44.0597 66.0751 44.5276 66.0481 44.9955 66.0212C45.0162 68.5294 45.0467 71.0376 45.0549 73.5459C45.062 75.7544 45.0397 77.9631 45.0395 80.1717C45.0393 81.2337 45.0487 81.2345 43.9574 81.2251C43.8071 81.2238 43.6569 81.2087 43.4619 81.0989C42.9496 79.6622 42.138 78.5429 41.0692 77.652C38.9228 75.8627 36.4843 74.9037 33.6279 75.3345ZM64.9226 54.4332C64.9273 50.2551 64.9389 46.077 64.9177 41.899C64.9166 41.6759 64.6891 41.3335 64.4839 41.2497C60.8894 39.7834 57.1618 38.8818 53.2669 38.7758C48.6603 38.6503 44.2737 39.6786 40.0128 41.3486C39.6546 41.489 39.5295 41.6753 39.5309 42.0655C39.5459 46.1938 39.5401 50.3223 39.5135 54.5933C39.5104 54.9709 39.5428 55.353 39.4963 55.7253C39.4178 56.3533 39.7045 56.4943 40.2749 56.4761C41.3586 56.4416 42.4443 56.4692 43.5292 56.4695C49.8872 56.4708 56.2452 56.4755 62.6031 56.4622C62.9296 56.4616 63.3638 56.4097 63.5606 56.2036C64.041 55.7002 64.4114 55.0924 64.9226 54.4332ZM68.1384 64.3597C66.6652 64.3597 65.1919 64.3597 63.7416 64.3597C63.7416 66.3735 63.7416 68.2219 63.7416 70.055C65.3716 70.055 66.9484 70.055 68.5471 70.055C68.5471 68.2734 68.5539 66.542 68.5353 64.8109C68.5336 64.6594 68.3655 64.5098 68.1384 64.3597Z" fill="#FDEBCE"/>
<path d="M58.1143 70.3397C58.1233 70.7421 58.1245 71.1448 58.1436 71.5466C58.161 71.9136 58.1083 72.1687 57.6392 72.1956C56.8906 72.2386 57.1088 72.8367 57.0747 73.2822C57.0421 73.7088 57.1069 74.0067 57.6607 74.0167C57.8213 74.0196 58.1097 74.3501 58.1128 74.5341C58.1462 76.5474 58.1249 78.5615 58.141 80.5752C58.1459 81.1909 57.7296 81.0937 57.364 81.0935C54.3877 81.0912 51.4115 81.0843 48.3761 81.0118C48.3602 80.5993 48.4398 80.254 48.441 79.9084C48.4511 76.9721 48.4626 74.0355 48.4342 71.0995C48.4284 70.4932 48.626 70.3326 49.2127 70.337C52.1797 70.3595 55.1471 70.3427 58.1143 70.3397Z" fill="#486159"/>
<path d="M28.1998 79.7559C28.1093 79.7114 28.0221 79.6577 27.9278 79.6237C26.9556 79.2732 25.8322 79.304 25.2013 78.1877C24.7463 77.3828 23.7385 77.6921 22.9919 77.4586C22.8051 77.4002 22.555 77.3808 22.4503 77.2504C21.8608 76.5159 21.0321 76.2385 20.1436 75.887C20.1602 75.6484 20.2406 75.5146 20.2666 75.3709C20.5952 73.5602 21.3517 71.9268 22.4171 70.4477C24.4817 67.5816 27.226 65.7259 30.729 65.0498C30.7321 66.1173 30.7375 67.1848 30.7378 68.2523C30.7388 70.8081 30.7319 73.3639 30.7429 75.9196C30.7446 76.2907 30.8278 76.6615 30.878 77.0921C30.8826 77.1517 30.8914 77.15 30.856 77.1734C30.7923 77.2455 30.7641 77.2942 30.7288 77.3966C30.5314 77.9867 30.341 78.5229 30.2295 78.8371C29.4457 79.1919 28.8228 79.4739 28.1998 79.7559ZM26.7234 68.9812C27.0983 68.7765 27.4929 68.6001 27.842 68.3584C28.1314 68.158 28.7382 68.2271 28.619 67.5831C26.2339 67.9937 21.8793 72.7387 22.5553 74.4893C23.4387 72.1849 24.7839 70.414 26.7234 68.9812Z" fill="#404E49"/>
<path d="M30.7459 64.9815C27.2262 65.7259 24.4818 67.5816 22.4172 70.4477C21.3518 71.9269 20.5953 73.5602 20.2667 75.371C20.2407 75.5146 20.1603 75.6484 20.1059 75.8437C20.1065 75.9006 20.062 75.8847 20.0435 75.8233C20.0238 72.0476 20.0315 68.3333 20.0108 64.6192C20.0082 64.1485 20.1432 63.8958 20.5891 63.7237C22.621 62.9397 24.3075 61.6603 25.8161 60.0618C26.3242 60.1177 26.7788 60.2381 27.2172 60.1949C28.3948 60.0789 28.8995 59.1758 28.3891 58.1553C29.425 57.9461 30.2732 57.4774 30.7183 56.4639C30.7331 59.2803 30.7479 62.0967 30.7459 64.9815Z" fill="#FBEACF"/>
<path d="M71.5762 25.1573C71.5762 26.7421 71.5636 28.2515 71.5833 29.7605C71.5896 30.2401 71.4388 30.4373 70.9338 30.4233C69.881 30.3941 68.8268 30.4145 67.7859 30.4145C67.6767 29.8623 67.6001 29.3883 67.4701 28.9293C67.4541 28.8729 67.1528 28.8971 66.8985 28.8773C66.8985 29.2442 66.9579 29.5812 66.8773 29.8808C66.8249 30.0757 66.5732 30.3395 66.4026 30.3456C66.2383 30.3514 65.9159 30.0666 65.915 29.9081C65.8931 26.0095 65.9044 22.1107 65.9136 18.2119C65.9138 18.143 65.9612 18.0741 66.0203 17.9139C67.7288 17.9139 69.4607 17.8971 71.1907 17.9464C71.3259 17.9503 71.5556 18.4147 71.5591 18.6676C71.5889 20.8053 71.5762 22.9436 71.5762 25.1573Z" fill="#CE7049"/>
<path d="M28.1757 79.7996C28.8231 79.4733 29.4461 79.1912 30.2299 78.8364C30.3414 78.5223 30.5317 77.986 30.7661 77.3738C30.8374 77.2484 30.8646 77.1989 30.8918 77.1493C30.8918 77.1493 30.883 77.1511 30.8844 77.1554C31.6176 76.347 32.4491 75.6813 33.5772 75.3565C36.4847 74.9039 38.9232 75.8629 41.0696 77.6522C42.1384 78.5431 42.95 79.6624 43.417 81.0531C40.9356 81.1215 38.4546 81.1348 35.908 81.0898C36.0149 79.6146 37.1869 79.241 38.4072 78.773C36.9995 78.5255 35.7291 79.5136 35.4284 80.9306C35.1368 81.0163 34.8457 81.1739 34.5534 81.1763C32.1759 81.1959 29.7982 81.1864 27.3521 81.1868C27.5727 80.7399 27.8619 80.2919 28.1757 79.7996ZM32.0751 78.4212C31.6022 78.5857 31.1293 78.7502 30.6564 78.9147C30.676 78.969 30.6957 79.0234 30.7154 79.0777C31.6401 78.9918 32.5648 78.906 33.4895 78.8201C33.5027 78.7841 33.5159 78.7481 33.5291 78.7121C33.0841 78.6093 32.6392 78.5065 32.0751 78.4212Z" fill="#E69C65"/>
<path d="M30.7314 53.2009C29.3592 53.2226 27.957 53.3378 26.6274 53.0801C25.1522 52.7941 23.8056 52.0327 22.7452 50.9245C22.5136 50.6825 22.4103 50.1118 22.5239 49.7893C22.7702 49.0899 23.1602 48.4314 23.5562 47.7964C23.9763 47.1227 24.1876 46.4182 24.0072 45.6503C23.8973 45.1827 24.0127 44.9872 24.4826 44.9492C24.731 44.929 24.9731 44.8296 25.2215 44.8105C25.7299 44.7712 25.9409 44.51 25.891 43.9521C26.6904 44.6477 27.4867 45.4064 28.3149 46.1954C29.0307 45.6078 29.8177 44.9618 30.7334 44.2101C30.7334 47.2749 30.7334 50.2024 30.7314 53.2009Z" fill="#69342F"/>
<path d="M72.0291 44.617C70.9359 43.863 69.8466 43.0602 68.7944 42.2116C63.2475 37.7381 57.7135 33.2488 52.159 28.7849C51.8803 28.5609 51.4523 28.522 51.0108 28.4534C50.8085 28.5525 50.6894 28.5953 50.5664 28.5847C50.8676 28.0649 51.1726 27.5985 51.4776 27.132C52.3309 26.2012 52.3204 26.2142 53.2514 26.9611C59.3823 31.8798 65.5204 36.7896 71.6425 41.719C71.8577 41.8922 72.0286 42.2336 72.0503 42.5099C72.1034 43.1848 72.0567 43.8675 72.0291 44.617Z" fill="#C09876"/>
<path d="M64.2096 63.4764C63.4515 64.2688 62.7587 65.144 61.9044 65.814C61.5463 66.0948 60.8458 65.9405 60.2358 65.9906C60.1706 65.3717 60.1706 64.7462 60.1706 64.056C55.1121 64.056 50.1238 64.056 45.0433 64.056C45.0433 64.6878 45.0433 65.2841 45.0193 65.9512C44.5274 66.049 44.0595 66.0759 43.4551 66.1093C42.227 66.1209 41.1353 66.1261 40.0282 66.0707C39.8948 65.8113 39.7769 65.6125 39.659 65.4137C39.558 65.6095 39.4161 65.7958 39.3672 66.0038C39.3175 66.2153 39.3741 66.4493 39.3583 66.6716C39.3142 67.2928 39.2567 67.9131 39.2086 68.4634C39.2139 68.2435 39.2163 68.094 39.2164 67.9445C39.2178 66.1158 39.2177 66.1158 37.3667 66.1139C36.0993 66.1126 36.1015 66.1127 36.0182 67.4018C36.0106 67.52 35.9512 67.6348 35.9158 67.7511C35.7833 65.7466 35.7404 63.7526 37.0917 62.0636C37.5246 61.5225 38.0466 61.0523 38.5797 60.6064C38.2408 61.536 37.8501 62.4088 37.4 63.4143C38.2233 63.4143 38.8254 63.4142 39.4274 63.4143C47.287 63.4156 55.1466 63.4161 63.0061 63.4207C63.4073 63.421 63.8084 63.457 64.2096 63.4764Z" fill="#BD9477"/>
<path d="M52.0876 68.9859C50.8693 68.9861 49.6511 68.9862 48.3652 68.9129C48.2997 68.1606 48.3296 67.4804 48.295 66.8035C48.2681 66.2772 48.4544 66.1012 48.9851 66.1097C50.7731 66.1383 52.5619 66.1249 54.3448 66.179C53.5886 67.149 52.8381 68.0674 52.0876 68.9859Z" fill="#404E49"/>
<path d="M52.1582 68.9885C52.8381 68.0675 53.5886 67.1491 54.4163 66.1759C55.7033 66.118 56.9133 66.1146 58.1233 66.1113C58.1302 66.8627 58.1165 67.615 58.1515 68.365C58.1744 68.8573 57.989 69.0212 57.4998 69.014C55.743 68.9882 53.9858 68.9959 52.1582 68.9885Z" fill="#4B6158"/>
<path d="M30.7335 56.4108C30.2731 57.4763 29.4249 57.9451 28.389 58.1542C28.8994 59.1747 28.3947 60.0778 27.2171 60.1938C26.7787 60.237 26.3241 60.1166 25.8357 60.01C26.2364 59.2117 26.0792 58.5013 25.6108 57.7997C25.7838 57.7516 25.8834 57.6901 25.9696 57.7051C27.2147 57.9215 27.6877 57.1359 28.0179 56.1531C28.1047 55.8947 28.2108 55.6428 28.3081 55.388C29.0748 55.1369 29.8417 54.8857 30.6673 54.6328C30.7306 54.6559 30.735 54.6808 30.7337 54.8106C30.7374 55.3245 30.7468 55.7334 30.7562 56.1423C30.7537 56.2145 30.7513 56.2866 30.7335 56.4108Z" fill="#CE724B"/>
<path d="M51.4287 27.1475C51.1722 27.5987 50.8672 28.0652 50.5658 28.583C50.5694 28.6342 50.5732 28.6351 50.521 28.6322C50.4011 28.7333 50.3335 28.8373 50.2659 28.9388C50.2659 28.9363 50.2707 28.937 50.2201 28.9261C50.1011 28.9227 50.0328 28.9302 49.9183 28.9591C48.3498 30.2164 46.8185 31.4417 45.3065 32.6905C42.3994 35.0918 39.5088 37.5131 36.5993 39.9116C35.6348 40.7067 34.6334 41.4572 33.6489 42.2281C33.7124 42.028 33.7123 41.7515 33.8484 41.6388C39.6848 36.8043 45.5333 31.9844 51.4287 27.1475Z" fill="#E8D0B8"/>
<path d="M50.5704 28.6356C50.6897 28.5949 50.8089 28.5521 50.9733 28.4912C51.0206 28.5898 51.0227 28.7065 50.9997 28.9251C50.7398 29.3004 50.5049 29.5738 50.27 29.8472C50.27 29.8472 50.2668 29.8439 50.2229 29.8653C50.1576 29.9492 50.1363 30.0117 50.115 30.0742C50.115 30.0742 50.0688 30.1262 49.9979 30.1302C49.8389 30.1897 49.7509 30.2452 49.6629 30.3008C49.6629 30.3008 49.6615 30.2966 49.6254 30.3083C49.5639 30.3637 49.5385 30.4074 49.5131 30.4511C49.5131 30.4511 49.5101 30.4478 49.4599 30.4516C49.2927 30.6054 49.1757 30.7553 49.0586 30.9052C49.0586 30.9052 49.0557 30.9012 49.0103 30.8967C48.8945 30.9471 48.8241 31.002 48.7537 31.0568C48.7537 31.0568 48.7524 31.0521 48.7181 31.0659C48.6572 31.1221 48.6306 31.1646 48.6039 31.2071C48.6039 31.2071 48.6019 31.2035 48.5508 31.2076C48.0509 31.5652 47.5858 31.9004 47.159 32.2785C46.8568 32.5464 46.6062 32.8723 46.3326 33.1724C46.3326 33.1724 46.3298 33.1684 46.2765 33.1601C45.6536 33.6626 45.0839 34.1734 44.5143 34.6842C44.5143 34.6842 44.5122 34.6798 44.4672 34.6757C44.3515 34.7262 44.2807 34.7808 44.2099 34.8354C44.2099 34.8354 44.2097 34.8304 44.1591 34.8344C43.9411 35.0388 43.7736 35.2393 43.6062 35.4397C43.6062 35.4397 43.6038 35.4355 43.5504 35.4283C43.2304 35.6793 42.9638 35.9374 42.6972 36.1955C42.6972 36.1955 42.6948 36.1912 42.6497 36.1868C42.5346 36.2371 42.4645 36.2918 42.3944 36.3466C42.3944 36.3466 42.3927 36.3423 42.3418 36.3463C42.2235 36.3828 42.1464 36.4034 42.0904 36.4494C39.458 38.6142 36.8295 40.7836 34.1913 42.9411C34.0477 43.0586 33.8247 43.0794 33.6387 43.1452C33.6387 43.0344 33.6388 42.9236 33.7001 42.7497C35.1902 41.5335 36.6288 40.3921 38.0461 39.225C40.7064 37.034 43.3597 34.8345 46.0055 32.626C47.3943 31.4669 48.761 30.2814 50.169 29.0866C50.2426 29.0326 50.2663 28.9897 50.2715 28.9364C50.2715 28.9364 50.2667 28.9357 50.3109 28.9248C50.4281 28.8208 50.5011 28.7276 50.574 28.6344C50.574 28.6344 50.5702 28.6336 50.5704 28.6356Z" fill="#F0DABD"/>
<path d="M66.7739 81.2144C65.4908 81.2135 64.2831 81.1986 63.0761 81.2193C62.6137 81.2271 62.5122 81.0025 62.5503 80.6149C62.5823 80.2889 62.4384 79.8699 63.0202 79.8741C65.0568 79.8886 67.0936 79.8905 69.1302 79.9008C69.1733 79.901 69.2161 79.9441 69.3018 79.9901C69.3018 80.3351 69.3018 80.7018 69.3018 81.2146C68.4818 81.2146 67.6657 81.2146 66.7739 81.2144Z" fill="#AB5942"/>
<path d="M67.6835 79.2611C66.9087 79.2609 66.2094 79.2609 65.5314 79.2609C65.2396 77.9897 65.2822 77.9317 66.4648 77.9292C68.1016 77.9257 69.7386 77.9413 71.375 77.9154C71.8841 77.9073 72.0882 78.0414 72.0852 78.5888C72.0822 79.1217 71.9082 79.2852 71.385 79.2716C70.1771 79.2401 68.9678 79.2614 67.6835 79.2611Z" fill="#AB5942"/>
<path d="M50.1375 29.1071C48.7607 30.2807 47.394 31.4661 46.0052 32.6253C43.3594 34.8337 40.7061 37.0333 38.0458 39.2242C36.6285 40.3914 35.19 41.5328 33.7119 42.6948C33.6505 42.5842 33.6382 42.4647 33.6377 42.286C34.634 41.4559 35.6354 40.7053 36.5998 39.9102C39.5093 37.5118 42.3999 35.0904 45.3071 32.6891C46.819 31.4404 48.3503 30.215 49.9398 28.9932C50.0503 29.0405 50.0939 29.0738 50.1375 29.1071Z" fill="#463C3C"/>
<path d="M69.0451 31.0461C69.8708 31.0459 70.6211 31.0459 71.3487 31.0459C71.7084 32.262 71.6104 32.4102 70.5002 32.4141C69.519 32.4175 68.5349 32.37 67.5577 32.4328C66.8891 32.4757 66.4694 32.1234 66.0507 31.7296C65.9436 31.6289 65.8651 31.3934 65.9098 31.2685C65.9482 31.161 66.1796 31.0667 66.3281 31.0631C67.2082 31.0419 68.0889 31.0488 69.0451 31.0461Z" fill="#B65942"/>
<path d="M58.1098 70.2788C55.1467 70.3427 52.1793 70.3595 49.2123 70.337C48.6257 70.3326 48.428 70.4933 48.4338 71.0995C48.4622 74.0356 48.4507 76.9721 48.4406 79.9084C48.4394 80.254 48.3599 80.5994 48.3047 81.0056C48.2435 80.9067 48.1514 80.7472 48.1511 80.5875C48.1439 77.2473 48.1464 73.9071 48.1504 70.5669C48.1506 70.422 48.1836 70.2771 48.205 70.1021C48.3849 70.0803 48.5293 70.0478 48.6737 70.0476C51.6431 70.0432 54.6124 70.0395 57.5818 70.0486C57.7566 70.0491 57.931 70.1589 58.1098 70.2788Z" fill="#6C6E66"/>
<path d="M60.7599 79.2606C60.0316 79.3273 60.1457 78.8576 60.1272 78.4668C60.1054 78.0065 60.3866 77.9335 60.7551 77.9341C61.8837 77.9358 63.0127 77.9471 64.1407 77.9203C64.6732 77.9076 64.6695 78.2204 64.6789 78.5989C64.6886 78.9926 64.6644 79.2792 64.1402 79.2672C63.0373 79.2421 61.9334 79.2605 60.7599 79.2606Z" fill="#AB5942"/>
<path d="M47.0874 77.9075C47.0875 73.8678 47.0875 69.9037 47.0875 65.9396C47.1542 65.9396 47.221 65.9395 47.2877 65.9395C47.2877 70.9517 47.2877 75.9639 47.2877 80.9762C47.221 80.9792 47.1542 80.9823 47.0874 80.9853C47.0874 79.9846 47.0874 78.9838 47.0874 77.9075Z" fill="#655A52"/>
<path d="M33.625 43.2056C33.8241 43.081 34.047 43.0602 34.1907 42.9427C36.8289 40.7851 39.4574 38.6157 42.0897 36.451C42.1458 36.4049 42.2229 36.3844 42.3429 36.3496C42.2448 36.5633 42.133 36.826 41.9375 36.9882C39.3132 39.1658 36.6777 41.3299 34.0422 43.4941C33.9678 43.5552 33.863 43.5793 33.7209 43.62C33.6503 43.501 33.6311 43.3828 33.625 43.2056Z" fill="#463C3C"/>
<path d="M69.975 80.2168C70.6231 80.0214 71.2653 79.8931 71.8835 79.7695C72.2779 81.0668 72.1724 81.2197 71.058 81.2158C70.7361 81.2147 70.4141 81.2156 69.9692 81.2156C69.9692 80.8584 69.9692 80.5711 69.975 80.2168Z" fill="#AB5942"/>
<path d="M60.6093 81.2152C59.8289 81.1095 60.1886 80.561 60.1758 80.2109C60.1719 80.102 60.542 79.9146 60.7603 79.8775C61.0955 79.8206 61.4476 79.8625 61.7714 79.8625C62.1003 81.153 62.0442 81.2173 60.6093 81.2152Z" fill="#AB5942"/>
<path d="M71.2779 34.5315C71.1588 34.5534 71.1088 34.5593 71.0587 34.5603C69.7808 34.5878 69.7724 34.5773 70.0343 33.127C70.4743 33.1626 71.0397 33.0558 71.3476 33.2884C71.5444 33.4371 71.3602 34.0878 71.2779 34.5315Z" fill="#B86B48"/>
<path d="M58.0858 66.0599C56.9134 66.1134 55.7035 66.1168 54.422 66.1233C52.562 66.1238 50.7733 66.1372 48.9852 66.1085C48.4545 66.1 48.2682 66.276 48.2951 66.8024C48.3297 67.4793 48.2998 68.1595 48.2939 68.908C48.248 68.0653 48.1948 67.1531 48.1812 66.2403C48.1798 66.1517 48.4226 65.9806 48.5521 65.9805C51.7175 65.9793 54.8829 65.9961 58.0858 66.0599Z" fill="#6C6E66"/>
<path d="M35.4595 80.9086C35.7289 79.514 36.9993 78.5259 38.4071 78.7734C37.1867 79.2415 36.0147 79.6151 35.8341 81.0988C35.7142 81.0724 35.6024 80.9793 35.4595 80.9086Z" fill="#682E25"/>
<path d="M68.886 34.1013C68.5213 33.8102 68.2035 33.548 67.7666 33.1875C68.312 33.1875 68.6944 33.1875 69.299 33.1875C69.1557 33.5564 69.0443 33.8433 68.886 34.1013Z" fill="#AC6242"/>
<path d="M70.4165 35.4629C70.7493 35.4154 71.1348 35.3346 71.4581 35.4414C71.5861 35.4837 71.5757 35.943 71.4667 36.3012C71.1259 36.0357 70.7851 35.7703 70.4165 35.4629Z" fill="#85543B"/>
<path d="M30.786 56.0943C30.7467 55.7348 30.7373 55.3259 30.7384 54.8496C30.7711 55.2031 30.7935 55.624 30.786 56.0943Z" fill="#6B524A"/>
<path d="M67.6176 33.0982C67.6258 33.0963 67.6094 33.1001 67.6176 33.0982Z" fill="#AC6242"/>
<path d="M60.1348 77.0311C60.1846 77.0242 60.2095 77.0622 60.2221 77.1418C60.1876 77.1403 60.1543 77.1044 60.1348 77.0311Z" fill="#BD9477"/>
<path d="M67.992 84.0867C67.8638 84.2977 67.7355 84.5088 67.568 84.7482C67.0789 84.8115 66.6292 84.8753 66.1793 84.8767C62.5319 84.8873 58.8845 84.8926 55.2371 84.8862C53.4787 84.8831 51.7203 84.8511 49.8929 84.8198C49.7734 84.5692 49.7228 84.3309 49.6909 84.0409C55.6495 84.0137 61.5894 84.038 67.6516 84.0755C67.8467 84.0879 67.9194 84.0873 67.992 84.0867Z" fill="#502420"/>
<path d="M34.3745 85.0147C39.2061 85.0146 43.9639 85.0146 48.7216 85.0146C48.7216 85.0772 48.7217 85.1398 48.7217 85.2024C43.4741 85.2024 38.2265 85.2024 32.979 85.2024C32.9752 85.1399 32.9715 85.0773 32.9678 85.0147C33.412 85.0147 33.8563 85.0147 34.3745 85.0147Z" fill="#E8A16B"/>
<path d="M51.4673 86.0636C51.9644 86.0636 52.3878 86.0636 52.8112 86.0636C52.8109 86.1019 52.8105 86.1402 52.8102 86.1785C48.9477 86.1785 45.0851 86.1785 41.2225 86.1785C41.2223 86.1401 41.222 86.1018 41.2217 86.0635C44.6124 86.0635 48.003 86.0635 51.4673 86.0636Z" fill="#ECA876"/>
<path d="M28.2447 55.3891C28.2111 55.6432 28.1049 55.895 28.0181 56.1534C27.6879 57.1362 27.215 57.9218 25.9698 57.7054C25.8836 57.6904 25.7841 57.752 25.6111 57.8C26.0795 58.5016 26.2367 59.212 25.7751 60.0002C24.3077 61.6595 22.6212 62.939 20.5893 63.7229C20.1434 63.895 20.0083 64.1478 20.011 64.6185C20.0317 68.3326 20.024 72.0468 20.0208 75.8287C19.7733 76.4938 19.4566 76.2355 19.1687 75.9528C18.2872 75.0871 17.2559 74.6182 15.9307 74.7132C15.8629 70.997 15.9701 67.2758 15.816 63.5653C15.7509 61.9978 15.1613 60.4465 14.7626 58.9001C14.4441 57.6644 14.0538 56.4472 13.6802 55.1611C14.4674 55.2827 15.2698 55.4649 16.1285 55.7282C16.5464 56.8861 16.9079 57.9627 17.3344 59.2329C18.1121 58.1049 18.8131 57.1811 19.062 56.0032C20.1927 56.0494 21.3234 56.0956 22.5141 56.2025C21.7523 57.931 20.9304 59.5989 20.0209 61.4447C23.0502 60.3436 24.939 58.3772 26.1601 55.7072C26.8338 55.6014 27.5074 55.4957 28.2447 55.3891Z" fill="#3C2024"/>
<path d="M90.6982 63.2521C90.3805 63.1686 90.0628 63.0852 89.7451 63.0018C89.7706 62.9286 89.796 62.8554 89.8215 62.7822C90.0989 62.9051 90.3763 63.0281 90.6782 63.1986C90.7027 63.2462 90.6982 63.2521 90.6982 63.2521Z" fill="#582505"/>
<path d="M90.7051 63.2441C90.7897 63.2695 90.8719 63.2976 90.9817 63.36C91.0094 63.3943 91.0053 63.3998 91.0029 63.4024C90.9182 63.3769 90.8361 63.349 90.726 63.2869C90.698 63.2528 90.7025 63.2468 90.7051 63.2441Z" fill="#582505"/>
<path d="M31.472 4.71387C31.4128 5.28982 31.0094 5.20833 30.6668 5.20888C28.1693 5.21285 25.6719 5.20682 23.1744 5.21495C22.6957 5.21652 22.2172 5.26682 21.7386 5.29464C21.7248 5.2153 21.711 5.13597 21.6973 5.05665C21.9556 5.00582 22.2137 4.91208 22.4723 4.91088C24.8436 4.89981 27.2151 4.92152 29.5861 4.89398C30.2143 4.88667 30.8408 4.7423 31.472 4.71387Z" fill="#463C3C"/>
<path d="M35.5717 2.32827C34.506 2.57069 33.5107 2.81314 32.5288 3.05231C33.5878 2.19626 34.8772 1.89589 36.2524 2.04571C37.3955 2.17027 38.2982 2.80235 38.9776 3.74297C37.9645 3.02345 37.0033 2.21014 35.5717 2.32827Z" fill="#463C3C"/>
<path d="M33.9131 1.12828C36.0756 0.144333 39.0736 1.42162 39.9157 3.26288C39.6974 3.11098 39.5409 3.04344 39.4421 2.92711C38.2211 1.48996 36.6626 0.932208 34.8063 1.1199C34.5572 1.14507 34.3037 1.12616 33.9817 1.12712C33.9114 1.1266 33.9131 1.12828 33.9131 1.12828Z" fill="#F8BF8F"/>
<path d="M37.3796 3.71121C36.6144 3.56466 35.8492 3.41811 35.084 3.27158C35.8951 3.00079 36.6571 3.05891 37.3711 3.64579C37.3928 3.69815 37.3796 3.71121 37.3796 3.71121Z" fill="#463C3C"/>
<path d="M37.8583 4.13965C38.0032 4.2893 38.1481 4.43896 38.293 4.58861C38.2375 4.628 38.182 4.66741 38.1264 4.70681C38.0364 4.55671 37.9463 4.40662 37.8528 4.20245C37.8494 4.14841 37.8583 4.13965 37.8583 4.13965Z" fill="#463C3C"/>
<path d="M37.8465 4.15367C37.6947 4.04073 37.5473 3.92343 37.3896 3.75771C37.3792 3.70928 37.3925 3.69616 37.3993 3.68945C37.5525 3.80215 37.6988 3.92154 37.8525 4.09071C37.8599 4.14048 37.851 4.14928 37.8465 4.15367Z" fill="#463C3C"/>
<path d="M40.8398 4.77156C40.8067 4.84723 40.7624 4.88614 40.7181 4.92505C40.6934 4.85922 40.6687 4.79337 40.644 4.72754C40.7056 4.72994 40.7671 4.73235 40.8398 4.77156Z" fill="#F8BF8F"/>
<path d="M31.6293 4.2384C31.5954 4.18156 31.5965 4.1222 31.6037 4.06355C31.6042 4.0595 31.649 4.06078 31.6732 4.05957C31.6707 4.11839 31.6683 4.17721 31.6293 4.2384Z" fill="#463C3C"/>
<path d="M40.2038 3.55259C40.1498 3.58538 40.0953 3.58479 40.0413 3.57966C40.039 3.57943 40.0406 3.53727 40.0404 3.51465C40.0948 3.51589 40.1491 3.51712 40.2038 3.55259Z" fill="#F8BF8F"/>
<path d="M33.9121 1.12695C33.8233 1.17413 33.7351 1.2222 33.6468 1.27029C33.6343 1.23719 33.6219 1.20408 33.6094 1.17096C33.6824 1.15733 33.7554 1.1437 33.8714 1.12983C33.9144 1.12955 33.9127 1.12786 33.9121 1.12695Z" fill="#F8BF8F"/>
<path d="M40.3307 4.03224C40.3414 4.04239 40.32 4.02206 40.3307 4.03224Z" fill="#F8BF8F"/>
<path d="M39.1427 4.07954C39.1567 4.07126 39.1287 4.08781 39.1427 4.07954Z" fill="#463C3C"/>
<path d="M40.5052 4.38191C40.5183 4.3749 40.4922 4.38891 40.5052 4.38191Z" fill="#F8BF8F"/>
<path d="M31.9575 3.70799C31.9334 3.70768 31.9093 3.70738 31.9149 3.70163C31.9446 3.69619 31.9575 3.70799 31.9575 3.70799Z" fill="#463C3C"/>
<path d="M32.0815 3.53418C32.1064 3.53582 32.1313 3.53748 32.1254 3.5427C32.0948 3.54625 32.0815 3.53418 32.0815 3.53418Z" fill="#463C3C"/>
<path d="M32.1014 3.55132C32.095 3.60849 32.0673 3.64875 31.9902 3.69335C31.9562 3.70817 31.9436 3.69668 31.9375 3.69015C31.9453 3.63394 31.9734 3.59417 32.049 3.54874C32.0826 3.53316 32.0955 3.54491 32.1014 3.55132Z" fill="#463C3C"/>
<path d="M85.3979 71.5116C84.4106 70.8547 83.4114 70.1713 82.1692 69.9973C81.7228 69.9348 81.2693 69.9236 80.8196 69.8827C80.5865 69.8614 80.3546 69.8263 80.0376 69.7869C81.192 68.6946 84.3331 69.424 85.8387 71.0562C85.7066 71.2205 85.5549 71.338 85.3979 71.5116Z" fill="#6B5847"/>
<path d="M86.7658 71.2421C85.6492 70.0663 84.456 69.019 82.5859 68.8005C83.7635 68.2447 86.0159 69.4521 87.0537 71.0369C86.9786 71.1237 86.8884 71.1638 86.7658 71.2421Z" fill="#744935"/>
<path d="M78.5884 71.9158C82.0013 71.7517 82.5664 71.8073 83.3383 72.2748C81.9113 72.239 80.3384 72.2025 78.766 72.1511C78.6866 72.1485 78.6115 72.0166 78.5884 71.9158Z" fill="#9B8469"/>
<path d="M85.4393 72.1444C85.4247 71.9955 85.4147 71.8517 85.3975 71.6377C85.5915 71.7864 85.7926 72.0053 85.9458 72.2492C85.7553 72.2371 85.6129 72.1999 85.4705 72.1627C85.4705 72.1627 85.4437 72.1494 85.4393 72.1444Z" fill="#6B5847"/>
<path d="M86.0049 71.3135C86.2046 71.4733 86.4043 71.6883 86.6144 71.9519C86.4182 71.7898 86.2115 71.5792 86.0049 71.3135Z" fill="#6B5847"/>
<path d="M85.5049 72.2012C85.6136 72.1996 85.7566 72.2369 85.9484 72.3039C86.002 72.3967 86.0067 72.4597 86.0103 72.5707C86.0093 72.6186 86.0081 72.6198 86.0081 72.6198C85.8518 72.4932 85.6955 72.3667 85.5049 72.2012Z" fill="#D3754C"/>
<path d="M84.1589 72.8005C84.0285 72.7458 83.898 72.691 83.7676 72.6363C83.7874 72.5925 83.8072 72.5487 83.827 72.5049C83.9383 72.5595 84.0496 72.6141 84.1736 72.7218C84.1862 72.7751 84.1589 72.8005 84.1589 72.8005Z" fill="#9B8469"/>
<path d="M84.1971 72.7617C84.2699 72.819 84.3294 72.8893 84.3889 72.9596C84.32 72.9309 84.2511 72.9022 84.1694 72.8368C84.1565 72.8001 84.1838 72.7747 84.1971 72.7617Z" fill="#9B8469"/>
<path d="M86.0077 72.6172C86.0081 72.6168 86.0706 72.6295 86.1042 72.6632C86.1378 72.6969 86.1539 72.7485 86.1539 72.7485C86.1035 72.7272 86.0531 72.706 86.0044 72.6517C86.006 72.6187 86.0072 72.6176 86.0077 72.6172Z" fill="#D3754C"/>
<path d="M87.1021 71.141C87.1444 71.1197 87.1997 71.1288 87.2946 71.1507C87.2611 71.1662 87.1881 71.1689 87.1021 71.141Z" fill="#744935"/>
<path d="M86.1769 72.7381C86.1531 72.7471 86.1369 72.6952 86.1343 72.6684C86.1318 72.6415 86.2012 72.6643 86.2012 72.6643C86.2012 72.6643 86.2007 72.729 86.1769 72.7381Z" fill="#6B5847"/>
<path d="M86.7885 72.0485C86.7736 72.0284 86.8317 72.0058 86.8618 71.9986C86.8919 71.9913 86.8693 72.0599 86.8693 72.0599C86.8693 72.0599 86.8035 72.0686 86.7885 72.0485Z" fill="#6B5847"/>
<path d="M85.8721 71.1366C85.8982 71.1303 85.9394 71.158 85.9929 71.2218C85.9558 71.2425 85.9164 71.2134 85.8721 71.1366Z" fill="#6B5847"/>
<path d="M15.4053 75.7571C16.0174 75.3484 16.6377 75.4053 17.3898 75.6852C16.6986 75.7313 16.138 75.7688 15.5033 75.7956C15.4293 75.785 15.4053 75.7571 15.4053 75.7571Z" fill="#8E887C"/>
<path d="M15.4418 75.8001C15.3753 75.8299 15.2968 75.8457 15.2183 75.8614C15.2568 75.8334 15.2953 75.8053 15.3698 75.7676C15.4058 75.758 15.4299 75.786 15.4418 75.8001Z" fill="#8E887C"/>
<path d="M17.9287 76.0148C17.9371 76.0108 17.9203 76.0188 17.9287 76.0148Z" fill="#8E887C"/>
<path d="M17.6218 75.8577C17.6346 75.85 17.6401 75.8813 17.6401 75.8813C17.6401 75.8813 17.6089 75.8653 17.6218 75.8577Z" fill="#8E887C"/>
<path d="M22.7697 83.643C22.6295 83.5951 22.5608 83.5509 22.4502 83.5012C22.6717 83.4462 22.935 83.3544 23.1985 83.3539C27.4612 83.3452 31.7238 83.3452 35.9864 83.3562C36.2425 83.3568 36.4983 83.4657 36.7731 83.5808C32.1417 83.6405 27.4915 83.6436 22.7697 83.643Z" fill="#D2734A"/>
<path d="M51.575 83.5088C51.0166 84.0654 50.2912 83.735 49.5547 83.6914C50.1731 83.6011 50.8382 83.5527 51.575 83.5088Z" fill="#D2734A"/>
<path d="M67.9908 84.0551C67.9195 84.0879 67.8466 84.0885 67.7212 84.0736C67.7453 84.0258 67.8219 83.9935 67.9411 83.96C67.9837 83.9587 67.9892 84.0229 67.9908 84.0551Z" fill="#A06444"/>
<path d="M26.1011 55.7246C24.9387 58.3783 23.0499 60.3446 20.0205 61.4458C20.9301 59.5999 21.7519 57.9321 22.5872 56.2107C23.7479 56.0184 24.8951 55.8797 26.1011 55.7246Z" fill="#F7E6C8"/>
<path d="M18.9964 56.0055C18.8133 57.1822 18.1123 58.1059 17.3346 59.2339C16.9081 57.9637 16.5466 56.8871 16.1816 55.752C17.0956 55.7979 18.0131 55.9024 18.9964 56.0055Z" fill="#F6E3C5"/>
<path d="M39.5398 54.4508C39.5399 50.3224 39.5458 46.194 39.5308 42.0656C39.5294 41.6754 39.6545 41.4891 40.0126 41.3488C44.2736 39.6787 48.6601 38.6505 53.2668 38.7759C57.1616 38.882 60.8892 39.7836 64.4837 41.2499C64.689 41.3336 64.9164 41.676 64.9175 41.8991C64.9387 46.0771 64.9271 50.2552 64.8037 54.4632C57.4607 54.4875 50.2364 54.483 43.012 54.4754C41.8546 54.4742 40.6972 54.4594 39.5398 54.4508ZM41.7698 52.5164C43.1151 52.5164 44.4605 52.5164 45.8372 52.5164C45.8372 50.6262 45.8372 48.8484 45.7765 46.961C44.3536 46.961 42.9306 46.961 41.4617 46.961C41.4617 48.7743 41.4597 50.5274 41.4688 52.2805C41.4691 52.3521 41.573 52.4231 41.7698 52.5164ZM58.7356 52.5248C60.1775 52.5248 61.6194 52.5248 63.0628 52.5248C63.0628 50.6731 63.0628 48.9491 63.0808 47.1033C63.014 47.043 62.9475 46.9305 62.8803 46.93C61.3753 46.92 59.8701 46.9223 58.3002 46.9223C58.3002 48.7547 58.2963 50.5092 58.3127 52.2636C58.3135 52.3447 58.4966 52.424 58.7356 52.5248ZM51.5243 46.9636C50.0035 46.9636 48.4826 46.9636 46.8998 46.9636C46.8998 48.7773 46.8978 50.549 46.9078 52.3206C46.9082 52.3868 47.0261 52.4523 47.2305 52.5305C48.674 52.5305 50.1175 52.5305 51.5806 52.5305C51.5806 50.6263 51.5806 48.8503 51.5243 46.9636ZM52.5519 47.6299C52.5519 49.2534 52.5519 50.8769 52.5519 52.4903C54.1904 52.4903 55.6919 52.4903 57.2586 52.4903C57.2586 50.6055 57.2586 48.7812 57.2586 46.9006C55.8277 46.9006 54.4186 46.9104 53.0098 46.8949C52.5531 46.8899 52.5397 47.1622 52.5519 47.6299ZM46.8218 44.7135C46.8218 45.0582 46.8218 45.403 46.8218 45.7723C48.4446 45.7723 49.9842 45.7723 51.5416 45.7723C51.5416 44.0622 51.5416 42.4181 51.5416 40.6539C49.9501 40.8335 48.4344 41.0045 46.8229 41.1863C46.8229 42.3681 46.8229 43.4676 46.8218 44.7135ZM54.5346 40.754C53.8908 40.754 53.247 40.754 52.6021 40.754C52.6021 42.4722 52.6021 44.1172 52.6021 45.7757C54.1768 45.7757 55.6953 45.7757 57.2088 45.7757C57.2088 44.1661 57.2088 42.6203 57.2088 41.0394C56.3233 40.9427 55.4994 40.8527 54.5346 40.754ZM63.1225 44.7168C63.1221 44.2138 63.1449 43.7091 63.1095 43.2086C63.0959 43.017 62.9897 42.711 62.8565 42.6673C61.37 42.1802 59.87 41.7342 58.3354 41.2654C58.3354 42.8741 58.3354 44.3201 58.3354 45.798C59.9393 45.798 61.4864 45.798 63.1215 45.798C63.1215 45.4529 63.1215 45.1573 63.1225 44.7168ZM45.868 42.209C45.8561 41.99 45.8442 41.771 45.8246 41.4117C44.3882 41.8826 43.0305 42.3173 41.684 42.7842C41.5451 42.8324 41.3888 43.0692 41.3835 43.2234C41.3542 44.0705 41.3695 44.9192 41.3695 45.7803C42.9365 45.7803 44.3597 45.7803 45.8673 45.7803C45.8673 44.6001 45.8673 43.475 45.868 42.209Z" fill="#412325"/>
<path d="M64.2794 63.476C63.8084 63.4562 63.4072 63.4201 63.006 63.4199C55.1465 63.4152 47.2869 63.4148 39.4274 63.4135C38.8253 63.4133 38.2233 63.4135 37.3999 63.4135C37.85 62.408 38.2407 61.5352 38.6326 60.6069C38.9223 59.9003 39.3978 59.7206 40.1231 59.7237C47.8915 59.7564 55.6602 59.746 63.4287 59.7474C63.9056 59.7475 64.3825 59.7474 64.9165 59.7474C64.9165 60.9816 64.9165 62.1753 64.9165 63.4129C64.7359 63.4331 64.5426 63.4548 64.2794 63.476Z" fill="#3B1F23"/>
<path d="M39.5266 54.5237C40.6972 54.461 41.8546 54.4758 43.0121 54.477C50.2364 54.4846 57.4607 54.4891 64.7555 54.5115C64.4113 55.0941 64.0408 55.702 63.5604 56.2053C63.3637 56.4114 62.9294 56.4633 62.603 56.464C56.245 56.4772 49.8871 56.4726 43.5291 56.4712C42.4442 56.471 41.3585 56.4433 40.2748 56.4779C39.7044 56.4961 39.4177 56.3551 39.4962 55.727C39.5427 55.3548 39.5103 54.9727 39.5266 54.5237Z" fill="#C39977"/>
<path d="M68.2066 64.3594C68.3656 64.5097 68.5337 64.6593 68.5354 64.8108C68.554 66.5419 68.5472 68.2733 68.5472 70.0549C66.9485 70.0549 65.3717 70.0549 63.7417 70.0549C63.7417 68.2218 63.7417 66.3734 63.7417 64.3596C65.192 64.3596 66.6653 64.3596 68.2066 64.3594ZM66.0932 65.3628C65.6244 65.3628 65.1557 65.3628 64.6999 65.3628C64.6999 66.6853 64.6999 67.9012 64.6999 69.1069C65.6867 69.1069 66.6074 69.1069 67.5041 69.1069C67.5041 67.8345 67.5041 66.617 67.5041 65.3623C67.0418 65.3623 66.6415 65.3623 66.0932 65.3628Z" fill="#412325"/>
<path d="M39.2049 68.5331C39.257 67.9125 39.3145 67.2922 39.3586 66.671C39.3744 66.4487 39.3178 66.2147 39.3675 66.0032C39.4164 65.7952 39.5583 65.6089 39.6594 65.4131C39.7772 65.6119 39.8951 65.8107 40.0158 66.1386C40.0187 67.0119 40.0187 67.7561 40.0187 68.544C41.2699 68.544 42.4229 68.544 43.576 68.544C43.5474 68.757 43.5188 68.9701 43.3849 69.2071C42.1987 69.2311 41.1177 69.2311 40.0129 69.2311C40.0129 69.7614 40.0129 70.1288 40.006 70.5635C40.0087 70.9847 40.0182 71.3387 40.0277 71.6927C39.7849 72.0606 39.5551 72.1456 39.3445 71.5594C39.335 71.3892 39.3325 71.3213 39.343 71.1845C39.3561 70.5222 39.3561 69.9289 39.3561 69.2862C38.1274 69.2862 37.003 69.2862 35.8787 69.2862C35.8701 69.0709 35.8616 68.8555 35.9476 68.5975C37.0964 68.5476 38.1506 68.5404 39.2049 68.5331Z" fill="#4B2D25"/>
<path d="M43.5736 68.4802C42.4228 68.5434 41.2697 68.5434 40.0186 68.5434C40.0186 67.7555 40.0186 67.0113 40.0312 66.1986C41.1355 66.1249 42.2271 66.1197 43.3907 66.1162C43.4989 66.8842 43.5352 67.6506 43.5736 68.4802Z" fill="#E8A16B"/>
<path d="M39.209 68.4638C38.1507 68.5415 37.0965 68.5487 35.9732 68.5536C35.9009 68.3295 35.8975 68.1076 35.9052 67.8187C35.9516 67.6352 36.011 67.5204 36.0187 67.4023C36.1019 66.1132 36.0997 66.113 37.3671 66.1143C39.2182 66.1163 39.2182 66.1163 39.2168 67.9449C39.2167 68.0944 39.2143 68.2439 39.209 68.4638Z" fill="#E8A16B"/>
<path d="M40.0896 71.6925C40.018 71.3386 40.0085 70.9846 40.0384 70.5192C40.3152 70.2871 40.5404 70.1072 40.7918 70.0563C41.6836 69.8754 42.5844 69.7385 43.4818 69.585C43.5139 70.1057 43.5901 70.6298 43.551 71.1452C43.5394 71.2969 43.2103 71.5272 43.0114 71.5445C42.061 71.6271 41.1054 71.6489 40.0896 71.6925Z" fill="#EBA269"/>
<path d="M39.3297 71.2534C39.3323 71.3213 39.3348 71.3892 39.3277 71.5068C38.4156 71.5602 37.5117 71.5359 36.6109 71.5776C36.0574 71.6033 35.8178 71.4335 35.8816 70.8613C35.9174 70.54 35.8867 70.2114 35.9486 69.8434C36.6089 69.8321 37.2065 69.8839 37.8045 69.8904C39.0549 69.904 39.0544 69.8942 39.2569 71.1237C39.2645 71.1697 39.3047 71.2103 39.3297 71.2534Z" fill="#E8A16B"/>
<path d="M43.4797 69.5271C42.5848 69.739 41.6841 69.8759 40.7922 70.0567C40.5408 70.1077 40.3156 70.2876 40.0458 70.4525C40.0132 70.1292 40.0132 69.7617 40.0132 69.2314C41.118 69.2314 42.199 69.2314 43.3487 69.2374C43.4373 69.3185 43.4572 69.3936 43.4797 69.5271Z" fill="#CE865E"/>
<path d="M39.3431 71.1834C39.305 71.2093 39.2648 71.1687 39.2572 71.1227C39.0547 69.8932 39.0552 69.903 37.8048 69.8894C37.2068 69.8829 36.6092 69.8311 35.9562 69.773C35.8851 69.6307 35.8694 69.5152 35.8662 69.3424C37.0031 69.2852 38.1275 69.2852 39.3562 69.2852C39.3562 69.9278 39.3562 70.5211 39.3431 71.1834Z" fill="#CE865E"/>
<path d="M46.3848 33.169C46.6058 32.8731 46.8563 32.5472 47.1586 32.2793C47.5854 31.9012 48.0505 31.566 48.5521 31.21C47.8824 31.8599 47.1599 32.5124 46.3848 33.169Z" fill="#463C3C"/>
<path d="M44.5659 34.6793C45.0833 34.1738 45.653 33.663 46.2777 33.1621C45.7612 33.6726 45.1897 34.1733 44.5659 34.6793Z" fill="#463C3C"/>
<path d="M50.3223 29.8455C50.5045 29.5749 50.7394 29.3015 50.9993 28.9844C51.0752 29.0358 51.1863 29.1997 51.1681 29.2155C50.914 29.4364 50.6423 29.6371 50.3223 29.8455Z" fill="#463C3C"/>
<path d="M42.748 36.1926C42.9633 35.9384 43.2299 35.6803 43.5518 35.4307C43.3379 35.689 43.0687 35.9389 42.748 36.1926Z" fill="#463C3C"/>
<path d="M43.6577 35.4363C43.7731 35.2396 43.9406 35.0391 44.1608 34.8359C44.0456 35.033 43.8777 35.2328 43.6577 35.4363Z" fill="#463C3C"/>
<path d="M49.1094 30.9032C49.1756 30.7563 49.2931 30.6057 49.4629 30.4531C49.3969 30.6005 49.2788 30.7501 49.1094 30.9032Z" fill="#463C3C"/>
<path d="M44.2568 34.8425C44.2803 34.7812 44.3513 34.7265 44.4695 34.6768C44.446 34.7375 44.3752 34.7932 44.2568 34.8425Z" fill="#463C3C"/>
<path d="M49.7153 30.3069C49.7504 30.2464 49.8386 30.1907 49.9834 30.1406C49.9494 30.2014 49.859 30.2566 49.7153 30.3069Z" fill="#463C3C"/>
<path d="M48.8008 31.0686C48.8235 31.0033 48.8941 30.9483 49.0119 30.8994C48.9889 30.9633 48.9188 31.0211 48.8008 31.0686Z" fill="#463C3C"/>
<path d="M42.4414 36.3565C42.4642 36.2918 42.5345 36.2369 42.6521 36.1875C42.6293 36.2508 42.5591 36.3086 42.4414 36.3565Z" fill="#463C3C"/>
<path d="M49.5541 30.4482C49.5378 30.4092 49.5634 30.3652 49.6272 30.3105C49.6423 30.3477 49.6192 30.3955 49.5541 30.4482Z" fill="#463C3C"/>
<path d="M48.6455 31.2044C48.6298 31.166 48.6566 31.1232 48.7203 31.0674C48.7341 31.1029 48.7111 31.1514 48.6455 31.2044Z" fill="#463C3C"/>
<path d="M50.1494 30.0436C50.1358 30.0135 50.1573 29.9505 50.2251 29.8662C50.2425 29.9002 50.2134 29.9556 50.1494 30.0436Z" fill="#463C3C"/>
<path d="M26.6812 69.015C24.7839 70.4129 23.4387 72.1838 22.5553 74.4882C21.8792 72.7375 26.2338 67.9926 28.6189 67.582C28.7382 68.226 28.1314 68.1569 27.842 68.3573C27.4928 68.599 27.0982 68.7754 26.6812 69.015Z" fill="#B86B48"/>
<path d="M30.8568 77.1729C30.8651 77.1992 30.8377 77.2491 30.773 77.3213C30.7643 77.2946 30.7927 77.2455 30.8568 77.1729Z" fill="#3D2024"/>
<path d="M32.1341 78.4131C32.6386 78.5071 33.0835 78.61 33.5285 78.7128C33.5153 78.7488 33.5021 78.7848 33.4889 78.8208C32.5642 78.9066 31.6395 78.9925 30.7148 79.0784C30.6951 79.024 30.6754 78.9697 30.6558 78.9154C31.1287 78.7509 31.6016 78.5864 32.1341 78.4131Z" fill="#7E362E"/>
<path d="M50.5225 28.6309C50.5017 28.7274 50.4283 28.821 50.3105 28.9281C50.3341 28.837 50.402 28.7325 50.5225 28.6309Z" fill="#C09876"/>
<path d="M50.1688 29.0871C50.0937 29.075 50.05 29.0417 49.9854 28.9727C50.033 28.9297 50.1016 28.9221 50.2209 28.9255C50.2664 28.9899 50.2426 29.033 50.1688 29.0871Z" fill="#C09876"/>
<path d="M52.5531 47.5577C52.5401 47.1619 52.5535 46.8896 53.0103 46.8946C54.4191 46.9101 55.8282 46.9002 57.2591 46.9002C57.2591 48.7809 57.2591 50.6052 57.2591 52.49C55.6923 52.49 54.1908 52.49 52.5524 52.49C52.5524 50.8766 52.5524 49.2531 52.5531 47.5577Z" fill="#CE724B"/>
<path d="M51.5809 47.0744C51.5809 48.8503 51.5809 50.6263 51.5809 52.5306C50.1178 52.5306 48.6742 52.5306 47.159 52.4532C47.0864 50.8469 47.1071 49.3174 47.0733 47.7892C47.0607 47.2189 47.2617 47.053 47.8139 47.0672C49.0688 47.0997 50.3251 47.0755 51.5809 47.0744Z" fill="#CE724B"/>
<path d="M63.0632 47.2258C63.0632 48.9498 63.0632 50.6738 63.0632 52.5255C61.6198 52.5255 60.1779 52.5255 58.6654 52.4452C58.5948 50.8885 58.6178 49.4115 58.5836 47.9359C58.5704 47.3645 58.7754 47.2027 59.323 47.2166C60.569 47.2484 61.8164 47.2261 63.0632 47.2258Z" fill="#CE724B"/>
<path d="M46.8228 44.6417C46.8233 43.469 46.8233 42.3695 46.8233 41.1877C48.4349 41.0059 49.9505 40.8349 51.5421 40.6553C51.5421 42.4195 51.5421 44.0636 51.5421 45.7737C49.9846 45.7737 48.445 45.7737 46.8223 45.7737C46.8223 45.4044 46.8223 45.0596 46.8228 44.6417Z" fill="#E49F6A"/>
<path d="M54.6055 40.7612C55.4999 40.8556 56.3238 40.9455 57.2092 41.0422C57.2092 42.6232 57.2092 44.169 57.2092 45.7786C55.6957 45.7786 54.1773 45.7786 52.6025 45.7786C52.6025 44.12 52.6025 42.475 52.6025 40.7568C53.2474 40.7568 53.8912 40.7568 54.6055 40.7612Z" fill="#E8A16B"/>
<path d="M45.8374 47.0713C45.8374 48.849 45.8374 50.6268 45.8374 52.517C44.4607 52.517 43.1154 52.517 41.6987 52.4367C41.6274 50.6387 41.6274 48.921 41.6274 47.0713C43.0952 47.0713 44.4663 47.0713 45.8374 47.0713Z" fill="#CE724B"/>
<path d="M63.1221 44.7895C63.1216 45.1575 63.1216 45.4531 63.1216 45.7982C61.4864 45.7982 59.9394 45.7982 58.3354 45.7982C58.3354 44.3203 58.3354 42.8743 58.3354 41.2656C59.8701 41.7344 61.3701 42.1804 62.8566 42.6675C62.9898 42.7112 63.096 43.0172 63.1095 43.2088C63.145 43.7094 63.1221 44.214 63.1221 44.7895Z" fill="#E49F6A"/>
<path d="M45.8678 42.2798C45.8675 43.4754 45.8675 44.6005 45.8675 45.7807C44.3599 45.7807 42.9367 45.7807 41.3697 45.7807C41.3697 44.9196 41.3544 44.0709 41.3837 43.2238C41.389 43.0696 41.5453 42.8328 41.6842 42.7846C43.0307 42.3177 44.3883 41.8829 45.8248 41.4121C45.8444 41.7714 45.8563 41.9904 45.8678 42.2798Z" fill="#E49F6A"/>
<path d="M63.0718 47.1649C61.816 47.2262 60.5686 47.2485 59.3226 47.2167C58.7749 47.2028 58.5699 47.3645 58.5832 47.936C58.6173 49.4116 58.5944 50.8886 58.5945 52.435C58.4965 52.4248 58.3135 52.3454 58.3127 52.2644C58.2963 50.51 58.3002 48.7554 58.3002 46.9231C59.8701 46.9231 61.3753 46.9208 62.8803 46.9308C62.9475 46.9312 63.014 47.0437 63.0718 47.1649Z" fill="#CE865E"/>
<path d="M45.8072 47.0158C44.4665 47.0706 43.0954 47.0706 41.6276 47.0706C41.6276 48.9203 41.6276 50.638 41.6283 52.425C41.5734 52.423 41.4695 52.352 41.4691 52.2804C41.4601 50.5273 41.4621 48.7742 41.4621 46.9609C42.931 46.9609 44.354 46.9609 45.8072 47.0158Z" fill="#E4A072"/>
<path d="M51.5527 47.0182C50.3251 47.0748 49.0688 47.0989 47.8139 47.0665C47.2617 47.0522 47.0607 47.2181 47.0733 47.7884C47.1071 49.3167 47.0864 50.8462 47.0885 52.4462C47.0264 52.4515 46.9084 52.386 46.9081 52.3199C46.898 50.5483 46.9001 48.7766 46.9001 46.9629C48.4828 46.9629 50.0037 46.9629 51.5527 47.0182Z" fill="#D99667"/>
<path d="M66.1675 65.3635C66.6417 65.3633 67.042 65.3633 67.5044 65.3633C67.5044 66.6179 67.5044 67.8355 67.5044 69.1079C66.6076 69.1079 65.6869 69.1079 64.7002 69.1079C64.7002 67.9022 64.7002 66.6863 64.7002 65.3637C65.1559 65.3637 65.6247 65.3637 66.1675 65.3635Z" fill="#ECA876"/>
</svg>
