<svg width="102" height="119" viewBox="0 0 102 119" fill="none" xmlns="http://www.w3.org/2000/svg">
<mask id="mask0_600_4774" style="mask-type:luminance" maskUnits="userSpaceOnUse" x="0" y="0" width="102" height="119">
<path fill-rule="evenodd" clip-rule="evenodd" d="M51.017 25.8172C53.8951 25.8172 56.6553 24.6349 58.6904 22.5305C60.7255 20.4261 61.8688 17.5719 61.8688 14.5958C61.8688 11.6198 60.7255 8.76557 58.6904 6.66116C56.6553 4.55676 53.8951 3.37451 51.017 3.37451C48.139 3.37451 45.3788 4.55676 43.3436 6.66116C41.3085 8.76557 40.1652 11.6198 40.1652 14.5958C40.1652 17.5719 41.3085 20.4261 43.3436 22.5305C45.3788 24.6349 48.139 25.8172 51.017 25.8172ZM51.017 70.7025C53.8951 70.7025 56.6553 69.5202 58.6904 67.4158C60.7255 65.3114 61.8688 62.4572 61.8688 59.4812C61.8688 56.5051 60.7255 53.6509 58.6904 51.5465C56.6553 49.4421 53.8951 48.2598 51.017 48.2598C48.139 48.2598 45.3788 49.4421 43.3436 51.5465C41.3085 53.6509 40.1652 56.5051 40.1652 59.4812C40.1652 62.4572 41.3085 65.3114 43.3436 67.4158C45.3788 69.5202 48.139 70.7025 51.017 70.7025ZM79.21 42.6492C80.6491 45.2268 83.0194 47.1078 85.7996 47.8783C88.5798 48.6487 91.5422 48.2456 94.0349 46.7576C96.5277 45.2695 98.3467 42.8185 99.0919 39.9436C99.837 37.0687 99.4471 34.0055 98.0081 31.4278C96.5588 28.8715 94.1906 27.0118 91.4201 26.2544C88.6497 25.497 85.702 25.9035 83.2204 27.3851C80.7387 28.8667 78.9245 31.3032 78.1737 34.1629C77.4229 37.0225 77.7964 40.0732 79.2127 42.6492H79.21ZM79.21 76.3132C78.4975 77.5895 78.035 78.9984 77.8491 80.4596C77.6631 81.9207 77.7573 83.4054 78.1262 84.8289C78.4952 86.2524 79.1316 87.5868 79.9993 88.756C80.867 89.9251 81.9488 90.9061 83.1831 91.6429C85.6759 93.1309 88.6383 93.5341 91.4185 92.7636C94.1987 91.9931 96.569 90.1122 98.0081 87.5345C99.4244 84.9585 99.7979 81.9079 99.0471 79.0482C98.2963 76.1885 96.4821 73.752 94.0004 72.2704C91.5188 70.7888 88.5711 70.3823 85.8007 71.1397C83.0303 71.8971 80.662 73.7569 79.2127 76.3132H79.21ZM51.017 93.1452C48.139 93.1452 45.3788 94.3274 43.3436 96.4318C41.3085 98.5362 40.1652 101.39 40.1652 104.366C40.1652 107.343 41.3085 110.197 43.3436 112.301C45.3788 114.406 48.139 115.588 51.017 115.588C53.8951 115.588 56.6553 114.406 58.6904 112.301C60.7255 110.197 61.8688 107.343 61.8688 104.366C61.8688 101.39 60.7255 98.5362 58.6904 96.4318C56.6553 94.3274 53.8951 93.1452 51.017 93.1452ZM22.824 76.3132C22.1167 75.0267 21.1702 73.8976 20.0392 72.9909C18.9081 72.0842 17.6148 71.4178 16.2337 71.03C14.8525 70.6423 13.4108 70.5409 11.9916 70.7316C10.5724 70.9224 9.20375 71.4015 7.96436 72.1415C6.72497 72.8814 5.63936 73.8676 4.77004 75.0431C3.90071 76.2187 3.26485 77.5605 2.89905 78.9912C2.53325 80.4219 2.44474 81.9133 2.63861 83.3795C2.83249 84.8457 3.30492 86.2578 4.02871 87.5345C5.47797 90.0908 7.84622 91.9506 10.6166 92.7079C13.3871 93.4653 16.3347 93.0589 18.8164 91.5772C21.2981 90.0956 23.1123 87.6591 23.8631 84.7995C24.6139 81.9398 24.2404 78.8891 22.824 76.3132ZM22.824 42.6492C23.5478 41.3725 24.0203 39.9604 24.2141 38.4942C24.408 37.028 24.3195 35.5366 23.9537 34.1058C23.5879 32.6751 22.952 31.3334 22.0827 30.1578C21.2134 28.9823 20.1278 27.9961 18.8884 27.2562C17.649 26.5162 16.2803 26.0371 14.8611 25.8463C13.4419 25.6556 12.0002 25.757 10.6191 26.1447C9.23795 26.5325 7.94462 27.1989 6.81356 28.1056C5.6825 29.0123 4.73606 30.1414 4.02871 31.4278C2.61237 34.0038 2.23885 37.0545 2.98966 39.9141C3.74048 42.7738 5.55467 45.2103 8.03634 46.6919C10.518 48.1736 13.4657 48.58 16.2361 47.8226C19.0065 47.0652 21.3748 45.2055 22.824 42.6492Z" fill="#252525" stroke="white" stroke-width="4.85" stroke-linecap="round" stroke-linejoin="round"/>
</mask>
<g mask="url(#mask0_600_4774)">
<path d="M-14.0938 -7.84619H116.128V126.81H-14.0938V-7.84619Z" fill="black"/>
</g>
</svg>
