<svg width="102" height="118" viewBox="0 0 102 118" fill="none" xmlns="http://www.w3.org/2000/svg">
<mask id="mask0_339_94976" style="mask-type:luminance" maskUnits="userSpaceOnUse" x="0" y="0" width="102" height="118">
<path fill-rule="evenodd" clip-rule="evenodd" d="M51.017 25.0296C53.8951 25.0296 56.6553 23.8473 58.6904 21.7429C60.7255 19.6385 61.8688 16.7843 61.8688 13.8082C61.8688 10.8322 60.7255 7.97797 58.6904 5.87357C56.6553 3.76916 53.8951 2.58691 51.017 2.58691C48.139 2.58691 45.3788 3.76916 43.3436 5.87357C41.3085 7.97797 40.1652 10.8322 40.1652 13.8082C40.1652 16.7843 41.3085 19.6385 43.3436 21.7429C45.3788 23.8473 48.139 25.0296 51.017 25.0296ZM51.017 69.9149C53.8951 69.9149 56.6553 68.7327 58.6904 66.6282C60.7255 64.5238 61.8688 61.6696 61.8688 58.6936C61.8688 55.7175 60.7255 52.8633 58.6904 50.7589C56.6553 48.6545 53.8951 47.4722 51.017 47.4722C48.139 47.4722 45.3788 48.6545 43.3436 50.7589C41.3085 52.8633 40.1652 55.7175 40.1652 58.6936C40.1652 61.6696 41.3085 64.5238 43.3436 66.6282C45.3788 68.7327 48.139 69.9149 51.017 69.9149ZM79.21 41.8616C80.6491 44.4392 83.0194 46.3202 85.7996 47.0907C88.5798 47.8611 91.5422 47.458 94.0349 45.97C96.5277 44.4819 98.3467 42.0309 99.0919 39.156C99.837 36.2811 99.4471 33.2179 98.0081 30.6402C96.5588 28.0839 94.1906 26.2242 91.4201 25.4668C88.6497 24.7094 85.702 25.1159 83.2204 26.5975C80.7387 28.0791 78.9245 30.5156 78.1737 33.3753C77.4229 36.2349 77.7964 39.2856 79.2127 41.8616H79.21ZM79.21 75.5256C78.4975 76.8019 78.035 78.2108 77.8491 79.672C77.6631 81.1331 77.7573 82.6178 78.1262 84.0413C78.4952 85.4648 79.1316 86.7992 79.9993 87.9684C80.867 89.1375 81.9488 90.1185 83.1831 90.8553C85.6759 92.3433 88.6383 92.7465 91.4185 91.976C94.1987 91.2055 96.569 89.3246 98.0081 86.7469C99.4244 84.1709 99.7979 81.1203 99.0471 78.2606C98.2963 75.4009 96.4821 72.9644 94.0004 71.4828C91.5188 70.0012 88.5711 69.5947 85.8007 70.3521C83.0303 71.1095 80.662 72.9693 79.2127 75.5256H79.21ZM51.017 92.3576C48.139 92.3576 45.3788 93.5398 43.3436 95.6442C41.3085 97.7486 40.1652 100.603 40.1652 103.579C40.1652 106.555 41.3085 109.409 43.3436 111.514C45.3788 113.618 48.139 114.8 51.017 114.8C53.8951 114.8 56.6553 113.618 58.6904 111.514C60.7255 109.409 61.8688 106.555 61.8688 103.579C61.8688 100.603 60.7255 97.7486 58.6904 95.6442C56.6553 93.5398 53.8951 92.3576 51.017 92.3576ZM22.824 75.5256C22.1167 74.2391 21.1702 73.11 20.0392 72.2033C18.9081 71.2966 17.6148 70.6302 16.2337 70.2424C14.8525 69.8547 13.4108 69.7533 11.9916 69.944C10.5724 70.1348 9.20375 70.6139 7.96436 71.3539C6.72497 72.0938 5.63936 73.08 4.77004 74.2555C3.90071 75.4311 3.26485 76.7729 2.89905 78.2036C2.53325 79.6343 2.44474 81.1257 2.63861 82.5919C2.83249 84.0581 3.30492 85.4702 4.02871 86.7469C5.47797 89.3032 7.84622 91.163 10.6166 91.9203C13.3871 92.6777 16.3347 92.2713 18.8164 90.7897C21.2981 89.308 23.1123 86.8715 23.8631 84.0119C24.6139 81.1522 24.2404 78.1015 22.824 75.5256ZM22.824 41.8616C23.5478 40.5849 24.0203 39.1728 24.2141 37.7066C24.408 36.2404 24.3195 34.749 23.9537 33.3183C23.5879 31.8875 22.952 30.5458 22.0827 29.3702C21.2134 28.1947 20.1278 27.2085 18.8884 26.4686C17.649 25.7286 16.2803 25.2495 14.8611 25.0587C13.4419 24.868 12.0002 24.9694 10.6191 25.3571C9.23795 25.7449 7.94462 26.4113 6.81356 27.318C5.6825 28.2247 4.73606 29.3538 4.02871 30.6402C2.61237 33.2162 2.23885 36.2669 2.98966 39.1265C3.74048 41.9862 5.55467 44.4227 8.03634 45.9043C10.518 47.386 13.4657 47.7924 16.2361 47.035C19.0065 46.2776 21.3748 44.4179 22.824 41.8616Z" fill="#252525" stroke="white" stroke-width="4.85" stroke-linecap="round" stroke-linejoin="round"/>
</mask>
<g mask="url(#mask0_339_94976)">
<path d="M-14.0938 -8.63379H116.128V126.022H-14.0938V-8.63379Z" fill="black"/>
</g>
</svg>
