<svg width="123" height="123" viewBox="0 0 123 123" fill="none" xmlns="http://www.w3.org/2000/svg">
<path d="M82.3076 67.0863L111.161 95.735L94.1464 112.545L65.4976 83.8963V79.1813L77.5926 67.0863H82.3076ZM86.9714 54.12L82.0001 49.2L57.4514 73.8V83.8963L28.5976 112.75L11.7876 95.735L40.4364 67.0863H50.5326L54.5301 63.0888L34.8501 43.3575H28.1876L13.7863 28.8025L27.2138 15.375L41.5638 29.725V36.4388L61.5001 56.1188L75.1326 42.4863L70.2126 37.31L76.8751 30.5963H63.2426L59.9113 27.265L76.8751 10.25L80.2576 13.6325V27.265L86.9714 20.5L103.781 37.31C109.368 42.9475 109.368 52.1213 103.781 57.7075L93.6851 47.4063L86.9714 54.12Z" fill="#222222"/>
</svg>
