<svg width="128" height="433" viewBox="0 0 128 433" fill="none" xmlns="http://www.w3.org/2000/svg">
<path d="M127.861 18.4711L123.927 7.14772L112.603 11.0822L116.538 22.4056L127.861 18.4711ZM1.57394 24.8675L0.105781 24.8675L1.57394 24.8675ZM120.232 34.9583L121.082 36.1555L122.769 34.9583L121.082 33.7612L120.232 34.9583ZM1.57394 45.0492L0.10578 45.0492L1.57394 45.0492ZM120.232 55.14L121.082 56.3372L122.769 55.14L121.082 53.9429L120.232 55.14ZM1.57394 65.2309L0.105779 65.2309L1.57394 65.2309ZM120.232 75.3217L121.082 76.5189L122.769 75.3217L121.082 74.1246L120.232 75.3217ZM1.57394 85.4126L0.105778 85.4126L1.57394 85.4126ZM120.232 95.5034L121.082 96.7006L122.769 95.5034L121.082 94.3063L120.232 95.5034ZM1.57394 105.594L0.105777 105.594L1.57394 105.594ZM120.232 115.685L121.082 116.882L122.769 115.685L121.082 114.488L120.232 115.685ZM1.57394 125.776L0.105776 125.776L1.57394 125.776ZM120.232 135.867L121.082 137.064L122.769 135.867L121.082 134.67L120.232 135.867ZM120.232 156.049L121.082 157.246L122.769 156.049L121.082 154.851L120.232 156.049ZM1.57394 166.139L0.105774 166.139L1.57394 166.139ZM120.232 176.23L121.082 177.427L122.769 176.23L121.082 175.033L120.232 176.23ZM120.232 196.412L121.082 197.609L122.769 196.412L121.082 195.215L120.232 196.412ZM1.57394 206.503L0.105773 206.503L1.57394 206.503ZM120.232 216.594L121.082 217.791L122.769 216.594L121.082 215.397L120.232 216.594ZM1.57393 226.685L0.105772 226.685L1.57393 226.685ZM120.232 236.775L121.082 237.973L122.769 236.775L121.082 235.578L120.232 236.775ZM1.57393 246.866L0.105771 246.866L1.57393 246.866ZM120.232 256.957L121.082 258.154L122.769 256.957L121.082 255.76L120.232 256.957ZM1.57393 267.048L3.0421 267.048L1.57393 267.048ZM120.232 277.139L121.082 278.336L122.769 277.139L121.082 275.942L120.232 277.139ZM1.57393 287.23L0.105769 287.23L1.57393 287.23ZM120.232 297.32L121.082 298.518L122.769 297.32L121.082 296.123L120.232 297.32ZM1.57393 307.411L0.105768 307.411L1.57393 307.411ZM120.232 317.502L121.082 318.699L122.769 317.502L121.082 316.305L120.232 317.502ZM1.57393 327.593L0.105767 327.593L1.57393 327.593ZM120.232 337.684L121.082 338.881L122.769 337.684L121.082 336.487L120.232 337.684ZM1.57393 347.775L3.04209 347.775L1.57393 347.775ZM120.232 357.866L121.082 359.063L122.769 357.866L121.082 356.668L120.232 357.866ZM1.57393 367.956L0.105766 367.956L1.57393 367.956ZM120.232 378.047L121.082 379.244L122.769 378.047L121.082 376.85L120.232 378.047ZM1.57393 388.138L0.105765 388.138L1.57393 388.138ZM120.232 398.229L121.082 399.426L122.769 398.229L121.082 397.032L120.232 398.229ZM1.57393 408.32L3.04209 408.32L1.57393 408.32ZM127.144 413.504L115.325 411.499L113.321 423.318L125.139 425.322L127.144 413.504ZM120.232 14.7766C120.872 13.4553 120.872 13.4552 120.872 13.4551C120.872 13.455 120.871 13.4548 120.871 13.4547C120.87 13.4543 120.869 13.4539 120.868 13.4533C120.866 13.4522 120.862 13.4505 120.858 13.4484C120.849 13.4442 120.836 13.438 120.82 13.4299C120.786 13.4138 120.737 13.3902 120.673 13.3596C120.544 13.2982 120.354 13.2085 120.11 13.094C119.62 12.865 118.908 12.5364 118.015 12.1359C116.23 11.3352 113.715 10.2456 110.797 9.0888C104.984 6.78416 97.4817 4.17664 90.9299 3.08655L90.448 5.98305C96.6844 7.02066 103.953 9.53406 109.715 11.8184C112.585 12.9561 115.058 14.028 116.814 14.8152C117.691 15.2087 118.389 15.5306 118.865 15.7537C119.104 15.8652 119.287 15.9519 119.41 16.0104C119.471 16.0397 119.518 16.0619 119.548 16.0767C119.564 16.084 119.575 16.0895 119.582 16.0931C119.586 16.0949 119.589 16.0962 119.59 16.097C119.591 16.0974 119.592 16.0977 119.592 16.0979C119.592 16.098 119.592 16.098 119.593 16.098C119.593 16.098 119.593 16.098 120.232 14.7766ZM90.9299 3.08655C78.0138 0.937556 63.4705 0.411829 49.635 1.58842L49.8838 4.51418C63.4906 3.35704 77.7878 3.87664 90.448 5.98305L90.9299 3.08655ZM49.635 1.58842C35.8135 2.76381 23.415 5.57717 14.4686 9.6277L15.6796 12.3026C24.2208 8.43556 36.2628 5.67252 49.8838 4.51418L49.635 1.58842ZM14.4686 9.6277C9.99596 11.6527 6.44489 13.9599 3.99183 16.486C1.53303 19.0181 0.105781 21.8514 0.105781 24.8675L3.04211 24.8675C3.04211 22.8381 3.99303 20.6997 6.09837 18.5316C8.20943 16.3577 11.4084 14.2364 15.6796 12.3026L14.4686 9.6277ZM0.105781 24.8675C0.10578 27.8836 1.53304 30.7169 3.99183 33.2489C6.44489 35.7751 9.99595 38.0823 14.4686 40.1073L15.6796 37.4323C11.4084 35.4985 8.20943 33.3773 6.09836 31.2033C3.99303 29.0353 3.04211 26.8968 3.04211 24.8675L0.105781 24.8675ZM14.4686 40.1073C23.415 44.1578 35.8135 46.9712 49.635 48.1466L49.8838 45.2208C36.2628 44.0625 24.2208 41.2994 15.6796 37.4323L14.4686 40.1073ZM49.635 48.1466C63.4705 49.3232 78.0138 48.7974 90.9299 46.6484L90.448 43.7519C77.7878 45.8583 63.4906 46.3779 49.8838 45.2208L49.635 48.1466ZM90.9299 46.6484C103.81 44.5055 114.472 40.8484 121.082 36.1555L119.383 33.7612C113.3 38.0798 103.145 41.6395 90.448 43.7519L90.9299 46.6484ZM121.082 33.7612C114.472 29.0683 103.81 25.4112 90.9299 23.2683L90.448 26.1648C103.145 28.2772 113.3 31.8369 119.383 36.1555L121.082 33.7612ZM90.9299 23.2683C78.0138 21.1193 63.4705 20.5935 49.635 21.7701L49.8838 24.6959C63.4906 23.5387 77.7878 24.0583 90.448 26.1648L90.9299 23.2683ZM49.635 21.7701C35.8135 22.9455 23.415 25.7589 14.4686 29.8094L15.6796 32.4843C24.2208 28.6173 36.2628 25.8542 49.8838 24.6959L49.635 21.7701ZM14.4686 29.8094C9.99596 31.8344 6.44489 34.1416 3.99183 36.6677C1.53303 39.1998 0.10578 42.0331 0.10578 45.0492L3.0421 45.0492C3.0421 43.0198 3.99303 40.8814 6.09836 38.7133C8.20943 36.5394 11.4084 34.4181 15.6796 32.4843L14.4686 29.8094ZM0.10578 45.0492C0.10578 48.0653 1.53303 50.8986 3.99183 53.4307C6.44489 55.9568 9.99595 58.264 14.4686 60.289L15.6796 57.614C11.4084 55.6802 8.20942 53.559 6.09836 51.3851C3.99302 49.217 3.0421 47.0785 3.0421 45.0492L0.10578 45.0492ZM14.4686 60.289C23.415 64.3395 35.8135 67.1529 49.635 68.3283L49.8838 65.4025C36.2628 64.2442 24.2208 61.4811 15.6796 57.614L14.4686 60.289ZM49.635 68.3283C63.4705 69.5049 78.0138 68.9791 90.9299 66.8301L90.448 63.9336C77.7878 66.04 63.4906 66.5596 49.8838 65.4025L49.635 68.3283ZM90.9299 66.8301C103.81 64.6872 114.472 61.0301 121.082 56.3372L119.383 53.9429C113.3 58.2615 103.145 61.8212 90.448 63.9336L90.9299 66.8301ZM121.082 53.9429C114.472 49.25 103.81 45.5929 90.9299 43.45L90.448 46.3465C103.145 48.4589 113.3 52.0186 119.383 56.3372L121.082 53.9429ZM90.9299 43.45C78.0138 41.301 63.4705 40.7752 49.635 41.9518L49.8838 44.8776C63.4906 43.7204 77.7878 44.24 90.448 46.3465L90.9299 43.45ZM49.635 41.9518C35.8135 43.1272 23.415 45.9406 14.4686 49.9911L15.6796 52.666C24.2208 48.799 36.2628 46.0359 49.8838 44.8776L49.635 41.9518ZM14.4686 49.9911C9.99595 52.0161 6.44489 54.3233 3.99183 56.8494C1.53303 59.3815 0.105779 62.2148 0.105779 65.2309L3.0421 65.2309C3.0421 63.2015 3.99302 61.0631 6.09836 58.895C8.20942 56.7211 11.4084 54.5998 15.6796 52.666L14.4686 49.9911ZM0.105779 65.2309C0.105779 68.247 1.53303 71.0803 3.99183 73.6124C6.44489 76.1385 9.99595 78.4457 14.4686 80.4707L15.6796 77.7958C11.4084 75.8619 8.20942 73.7407 6.09836 71.5668C3.99302 69.3987 3.0421 67.2603 3.0421 65.2309L0.105779 65.2309ZM14.4686 80.4707C23.415 84.5212 35.8135 87.3346 49.635 88.51L49.8838 85.5842C36.2628 84.4259 24.2208 81.6628 15.6796 77.7958L14.4686 80.4707ZM49.635 88.51C63.4705 89.6866 78.0138 89.1608 90.9299 87.0118L90.448 84.1153C77.7878 86.2217 63.4906 86.7413 49.8838 85.5842L49.635 88.51ZM90.9299 87.0118C103.81 84.8689 114.472 81.2118 121.082 76.5189L119.383 74.1246C113.3 78.4432 103.145 82.0029 90.448 84.1153L90.9299 87.0118ZM121.082 74.1246C114.472 69.4317 103.81 65.7746 90.9299 63.6317L90.448 66.5282C103.145 68.6406 113.3 72.2003 119.383 76.5189L121.082 74.1246ZM90.9299 63.6317C78.0138 61.4827 63.4705 60.9569 49.635 62.1335L49.8838 65.0593C63.4906 63.9021 77.7878 64.4217 90.448 66.5282L90.9299 63.6317ZM49.635 62.1335C35.8135 63.3089 23.415 66.1223 14.4686 70.1728L15.6796 72.8477C24.2208 68.9807 36.2628 66.2176 49.8838 65.0593L49.635 62.1335ZM14.4686 70.1728C9.99595 72.1978 6.44489 74.505 3.99183 77.0311C1.53303 79.5632 0.105778 82.3965 0.105778 85.4126L3.0421 85.4126C3.0421 83.3832 3.99302 81.2448 6.09836 79.0767C8.20942 76.9028 11.4084 74.7816 15.6796 72.8477L14.4686 70.1728ZM0.105778 85.4126C0.105778 88.4287 1.53303 91.262 3.99182 93.7941C6.44489 96.3202 9.99595 98.6274 14.4686 100.652L15.6796 97.9775C11.4084 96.0437 8.20942 93.9224 6.09836 91.7485C3.99302 89.5804 3.0421 87.442 3.0421 85.4126L0.105778 85.4126ZM14.4686 100.652C23.415 104.703 35.8135 107.516 49.635 108.692L49.8838 105.766C36.2628 104.608 24.2208 101.845 15.6796 97.9775L14.4686 100.652ZM49.635 108.692C63.4705 109.868 78.0138 109.343 90.9299 107.194L90.448 104.297C77.7878 106.403 63.4906 106.923 49.8838 105.766L49.635 108.692ZM90.9299 107.194C103.81 105.051 114.472 101.393 121.082 96.7006L119.383 94.3063C113.3 98.6249 103.145 102.185 90.448 104.297L90.9299 107.194ZM121.082 94.3063C114.472 89.6134 103.81 85.9563 90.9299 83.8134L90.448 86.7099C103.145 88.8223 113.3 92.382 119.383 96.7006L121.082 94.3063ZM90.9299 83.8134C78.0138 81.6644 63.4705 81.1386 49.635 82.3152L49.8838 85.241C63.4906 84.0839 77.7878 84.6035 90.448 86.7099L90.9299 83.8134ZM49.635 82.3152C35.8135 83.4906 23.415 86.304 14.4686 90.3545L15.6796 93.0294C24.2208 89.1624 36.2628 86.3993 49.8838 85.241L49.635 82.3152ZM14.4686 90.3545C9.99595 92.3795 6.44489 94.6867 3.99182 97.2128C1.53303 99.7449 0.105777 102.578 0.105777 105.594L3.0421 105.594C3.0421 103.565 3.99302 101.427 6.09836 99.2584C8.20942 97.0845 11.4084 94.9633 15.6796 93.0294L14.4686 90.3545ZM0.105777 105.594C0.105777 108.61 1.53304 111.444 3.99182 113.976C6.44489 116.502 9.99595 118.809 14.4686 120.834L15.6796 118.159C11.4084 116.225 8.20942 114.104 6.09836 111.93C3.99302 109.762 3.0421 107.624 3.0421 105.594L0.105777 105.594ZM14.4686 120.834C23.415 124.885 35.8135 127.698 49.635 128.873L49.8838 125.948C36.2628 124.789 24.2208 122.026 15.6796 118.159L14.4686 120.834ZM49.635 128.873C63.4705 130.05 78.0138 129.524 90.9299 127.375L90.448 124.479C77.7878 126.585 63.4906 127.105 49.8838 125.948L49.635 128.873ZM90.9299 127.375C103.81 125.232 114.472 121.575 121.082 116.882L119.383 114.488C113.3 118.807 103.145 122.366 90.448 124.479L90.9299 127.375ZM121.082 114.488C114.472 109.795 103.81 106.138 90.9299 103.995L90.448 106.892C103.145 109.004 113.3 112.564 119.383 116.882L121.082 114.488ZM90.9299 103.995C78.0138 101.846 63.4705 101.32 49.635 102.497L49.8838 105.423C63.4906 104.266 77.7878 104.785 90.448 106.892L90.9299 103.995ZM49.635 102.497C35.8135 103.672 23.415 106.486 14.4686 110.536L15.6796 113.211C24.2208 109.344 36.2628 106.581 49.8838 105.423L49.635 102.497ZM14.4686 110.536C9.99595 112.561 6.44489 114.868 3.99182 117.395C1.53303 119.927 0.105776 122.76 0.105776 125.776L3.0421 125.776C3.0421 123.747 3.99302 121.608 6.09836 119.44C8.20942 117.266 11.4084 115.145 15.6796 113.211L14.4686 110.536ZM0.105776 125.776C0.105776 128.792 1.53304 131.625 3.99182 134.157C6.44489 136.684 9.99595 138.991 14.4686 141.016L15.6796 138.341C11.4084 136.407 8.20942 134.286 6.09836 132.112C3.99302 129.944 3.0421 127.805 3.0421 125.776L0.105776 125.776ZM14.4686 141.016C23.415 145.066 35.8135 147.88 49.6349 149.055L49.8838 146.129C36.2628 144.971 24.2208 142.208 15.6796 138.341L14.4686 141.016ZM49.6349 149.055C63.4705 150.232 78.0138 149.706 90.9299 147.557L90.448 144.66C77.7878 146.767 63.4906 147.286 49.8838 146.129L49.6349 149.055ZM90.9299 147.557C103.81 145.414 114.472 141.757 121.082 137.064L119.383 134.67C113.3 138.988 103.145 142.548 90.448 144.66L90.9299 147.557ZM121.082 134.67C114.472 129.977 103.81 126.32 90.9299 124.177L90.448 127.073C103.145 129.186 113.3 132.745 119.383 137.064L121.082 134.67ZM90.9299 124.177C78.0138 122.028 63.4705 121.502 49.635 122.679L49.8838 125.604C63.4906 124.447 77.7878 124.967 90.448 127.073L90.9299 124.177ZM49.635 122.679C35.8135 123.854 23.415 126.667 14.4686 130.718L15.6796 133.393C24.2208 129.526 36.2628 126.763 49.8838 125.604L49.635 122.679ZM14.4686 130.718C9.99595 132.743 6.44489 135.05 3.99182 137.576C1.53304 140.108 0.105775 142.942 0.105775 145.958L3.0421 145.958C3.0421 143.928 3.99302 141.79 6.09836 139.622C8.20942 137.448 11.4084 135.327 15.6796 133.393L14.4686 130.718ZM0.105775 145.958C0.105775 148.974 1.53304 151.807 3.99182 154.339C6.44489 156.865 9.99595 159.172 14.4686 161.197L15.6796 158.523C11.4084 156.589 8.20942 154.468 6.09836 152.294C3.99302 150.126 3.0421 147.987 3.0421 145.958L0.105775 145.958ZM14.4686 161.197C23.415 165.248 35.8135 168.061 49.6349 169.237L49.8838 166.311C36.2628 165.153 24.2208 162.39 15.6796 158.523L14.4686 161.197ZM49.6349 169.237C63.4705 170.413 78.0138 169.888 90.9299 167.739L90.448 164.842C77.7878 166.949 63.4906 167.468 49.8838 166.311L49.6349 169.237ZM90.9299 167.739C103.81 165.596 114.472 161.939 121.082 157.246L119.383 154.851C113.3 159.17 103.145 162.73 90.448 164.842L90.9299 167.739ZM121.082 154.851C114.472 150.159 103.81 146.501 90.9299 144.358L90.448 147.255C103.145 149.367 113.3 152.927 119.383 157.246L121.082 154.851ZM90.9299 144.358C78.0138 142.209 63.4705 141.684 49.635 142.86L49.8838 145.786C63.4906 144.629 77.7878 145.149 90.448 147.255L90.9299 144.358ZM49.635 142.86C35.8135 144.036 23.415 146.849 14.4686 150.9L15.6796 153.575C24.2208 149.708 36.2628 146.944 49.8838 145.786L49.635 142.86ZM14.4686 150.9C9.99595 152.925 6.44489 155.232 3.99182 157.758C1.53303 160.29 0.105775 163.123 0.105774 166.139L3.0421 166.139C3.0421 164.11 3.99302 161.972 6.09836 159.804C8.20942 157.63 11.4084 155.508 15.6796 153.575L14.4686 150.9ZM0.105774 166.139C0.105774 169.156 1.53304 171.989 3.99182 174.521C6.44489 177.047 9.99595 179.354 14.4686 181.379L15.6796 178.704C11.4084 176.77 8.20942 174.649 6.09836 172.475C3.99302 170.307 3.0421 168.169 3.0421 166.139L0.105774 166.139ZM14.4686 181.379C23.415 185.43 35.8135 188.243 49.6349 189.418L49.8838 186.493C36.2628 185.334 24.2208 182.571 15.6796 178.704L14.4686 181.379ZM49.6349 189.418C63.4705 190.595 78.0138 190.069 90.9299 187.92L90.448 185.024C77.7878 187.13 63.4906 187.65 49.8838 186.493L49.6349 189.418ZM90.9299 187.92C103.81 185.777 114.472 182.12 121.082 177.427L119.383 175.033C113.3 179.352 103.145 182.911 90.448 185.024L90.9299 187.92ZM121.082 175.033C114.472 170.34 103.81 166.683 90.9299 164.54L90.448 167.437C103.145 169.549 113.3 173.109 119.383 177.427L121.082 175.033ZM90.9299 164.54C78.0138 162.391 63.4705 161.865 49.6349 163.042L49.8838 165.968C63.4906 164.811 77.7878 165.33 90.448 167.437L90.9299 164.54ZM49.6349 163.042C35.8135 164.217 23.415 167.031 14.4686 171.081L15.6796 173.756C24.2208 169.889 36.2628 167.126 49.8838 165.968L49.6349 163.042ZM14.4686 171.081C9.99595 173.106 6.44489 175.414 3.99182 177.94C1.53303 180.472 0.105774 183.305 0.105774 186.321L3.0421 186.321C3.0421 184.292 3.99302 182.153 6.09836 179.985C8.20942 177.811 11.4084 175.69 15.6796 173.756L14.4686 171.081ZM0.105774 186.321C0.105773 189.337 1.53303 192.171 3.99182 194.703C6.44489 197.229 9.99595 199.536 14.4686 201.561L15.6796 198.886C11.4084 196.952 8.20942 194.831 6.09836 192.657C3.99302 190.489 3.0421 188.35 3.0421 186.321L0.105774 186.321ZM14.4686 201.561C23.415 205.611 35.8135 208.425 49.6349 209.6L49.8838 206.674C36.2628 205.516 24.2208 202.753 15.6796 198.886L14.4686 201.561ZM49.6349 209.6C63.4705 210.777 78.0138 210.251 90.9299 208.102L90.448 205.206C77.7878 207.312 63.4906 207.832 49.8838 206.674L49.6349 209.6ZM90.9299 208.102C103.81 205.959 114.472 202.302 121.082 197.609L119.383 195.215C113.3 199.533 103.145 203.093 90.448 205.206L90.9299 208.102ZM121.082 195.215C114.472 190.522 103.81 186.865 90.9299 184.722L90.448 187.618C103.145 189.731 113.3 193.291 119.383 197.609L121.082 195.215ZM90.9299 184.722C78.0138 182.573 63.4705 182.047 49.6349 183.224L49.8838 186.15C63.4906 184.992 77.7878 185.512 90.448 187.618L90.9299 184.722ZM49.6349 183.224C35.8135 184.399 23.415 187.213 14.4686 191.263L15.6796 193.938C24.2208 190.071 36.2628 187.308 49.8838 186.15L49.6349 183.224ZM14.4686 191.263C9.99595 193.288 6.44488 195.595 3.99182 198.121C1.53303 200.653 0.105773 203.487 0.105773 206.503L3.0421 206.503C3.0421 204.473 3.99302 202.335 6.09836 200.167C8.20942 197.993 11.4084 195.872 15.6796 193.938L14.4686 191.263ZM0.105773 206.503C0.105773 209.519 1.53303 212.352 3.99182 214.884C6.44488 217.41 9.99595 219.718 14.4685 221.743L15.6796 219.068C11.4084 217.134 8.20942 215.013 6.09836 212.839C3.99302 210.671 3.0421 208.532 3.0421 206.503L0.105773 206.503ZM14.4685 221.743C23.415 225.793 35.8135 228.606 49.6349 229.782L49.8838 226.856C36.2628 225.698 24.2208 222.935 15.6796 219.068L14.4685 221.743ZM49.6349 229.782C63.4705 230.958 78.0138 230.433 90.9299 228.284L90.448 225.387C77.7878 227.494 63.4906 228.013 49.8838 226.856L49.6349 229.782ZM90.9299 228.284C103.81 226.141 114.472 222.484 121.082 217.791L119.383 215.397C113.3 219.715 103.145 223.275 90.448 225.387L90.9299 228.284ZM121.082 215.397C114.472 210.704 103.81 207.047 90.9299 204.904L90.448 207.8C103.145 209.913 113.3 213.472 119.383 217.791L121.082 215.397ZM90.9299 204.904C78.0138 202.755 63.4705 202.229 49.6349 203.405L49.8838 206.331C63.4906 205.174 77.7878 205.694 90.448 207.8L90.9299 204.904ZM49.6349 203.405C35.8135 204.581 23.415 207.394 14.4686 211.445L15.6796 214.12C24.2208 210.253 36.2628 207.49 49.8838 206.331L49.6349 203.405ZM14.4686 211.445C9.99595 213.47 6.44488 215.777 3.99182 218.303C1.53303 220.835 0.105772 223.668 0.105772 226.685L3.0421 226.685C3.0421 224.655 3.99302 222.517 6.09836 220.349C8.20942 218.175 11.4084 216.053 15.6796 214.12L14.4686 211.445ZM0.105772 226.685C0.105772 229.701 1.53303 232.534 3.99182 235.066C6.44489 237.592 9.99595 239.899 14.4685 241.924L15.6796 239.249C11.4084 237.316 8.20942 235.194 6.09836 233.02C3.99302 230.852 3.0421 228.714 3.0421 226.685L0.105772 226.685ZM14.4685 241.924C23.415 245.975 35.8135 248.788 49.6349 249.964L49.8838 247.038C36.2628 245.879 24.2208 243.116 15.6796 239.249L14.4685 241.924ZM49.6349 249.964C63.4705 251.14 78.0138 250.614 90.9299 248.465L90.448 245.569C77.7878 247.675 63.4906 248.195 49.8838 247.038L49.6349 249.964ZM90.9299 248.465C103.81 246.323 114.472 242.665 121.082 237.973L119.383 235.578C113.3 239.897 103.145 243.456 90.448 245.569L90.9299 248.465ZM121.082 235.578C114.472 230.885 103.81 227.228 90.9299 225.085L90.448 227.982C103.145 230.094 113.3 233.654 119.383 237.973L121.082 235.578ZM90.9299 225.085C78.0138 222.936 63.4705 222.411 49.6349 223.587L49.8838 226.513C63.4906 225.356 77.7878 225.875 90.448 227.982L90.9299 225.085ZM49.6349 223.587C35.8135 224.763 23.415 227.576 14.4685 231.626L15.6796 234.301C24.2208 230.434 36.2628 227.671 49.8838 226.513L49.6349 223.587ZM14.4685 231.626C9.99595 233.651 6.44488 235.959 3.99182 238.485C1.53303 241.017 0.105771 243.85 0.105771 246.866L3.0421 246.866C3.0421 244.837 3.99302 242.698 6.09836 240.53C8.20942 238.356 11.4084 236.235 15.6796 234.301L14.4685 231.626ZM0.105771 246.866C0.105771 249.882 1.53303 252.716 3.99182 255.248C6.44488 257.774 9.99595 260.081 14.4685 262.106L15.6796 259.431C11.4084 257.497 8.20942 255.376 6.09835 253.202C3.99302 251.034 3.0421 248.896 3.0421 246.866L0.105771 246.866ZM14.4685 262.106C23.415 266.157 35.8135 268.97 49.6349 270.145L49.8838 267.22C36.2628 266.061 24.2208 263.298 15.6796 259.431L14.4685 262.106ZM49.6349 270.145C63.4705 271.322 78.0138 270.796 90.9299 268.647L90.448 265.751C77.7878 267.857 63.4906 268.377 49.8838 267.22L49.6349 270.145ZM90.9299 268.647C103.81 266.504 114.472 262.847 121.082 258.154L119.383 255.76C113.3 260.079 103.145 263.638 90.448 265.751L90.9299 268.647ZM121.082 255.76C114.472 251.067 103.81 247.41 90.9299 245.267L90.448 248.164C103.145 250.276 113.3 253.836 119.383 258.154L121.082 255.76ZM90.9299 245.267C78.0138 243.118 63.4705 242.592 49.6349 243.769L49.8838 246.695C63.4906 245.538 77.7878 246.057 90.448 248.164L90.9299 245.267ZM49.6349 243.769C35.8135 244.944 23.415 247.758 14.4685 251.808L15.6796 254.483C24.2208 250.616 36.2628 247.853 49.8838 246.695L49.6349 243.769ZM14.4685 251.808C9.99595 253.833 6.44488 256.14 3.99182 258.666C1.53303 261.199 0.10577 264.032 0.10577 267.048L3.0421 267.048C3.0421 265.019 3.99302 262.88 6.09835 260.712C8.20942 258.538 11.4084 256.417 15.6796 254.483L14.4685 251.808ZM0.10577 267.048C0.10577 270.064 1.53302 272.897 3.99182 275.429C6.44488 277.956 9.99594 280.263 14.4685 282.288L15.6796 279.613C11.4084 277.679 8.20941 275.558 6.09835 273.384C3.99301 271.216 3.04209 269.077 3.0421 267.048L0.10577 267.048ZM14.4685 282.288C23.415 286.338 35.8135 289.152 49.6349 290.327L49.8838 287.401C36.2628 286.243 24.2208 283.48 15.6796 279.613L14.4685 282.288ZM49.6349 290.327C63.4705 291.504 78.0138 290.978 90.9299 288.829L90.448 285.932C77.7878 288.039 63.4906 288.558 49.8838 287.401L49.6349 290.327ZM90.9299 288.829C103.81 286.686 114.472 283.029 121.082 278.336L119.383 275.942C113.3 280.26 103.145 283.82 90.448 285.932L90.9299 288.829ZM121.082 275.942C114.472 271.249 103.81 267.592 90.9299 265.449L90.448 268.345C103.145 270.458 113.3 274.017 119.383 278.336L121.082 275.942ZM90.9299 265.449C78.0138 263.3 63.4705 262.774 49.6349 263.951L49.8838 266.876C63.4906 265.719 77.7878 266.239 90.448 268.345L90.9299 265.449ZM49.6349 263.951C35.8135 265.126 23.415 267.939 14.4685 271.99L15.6796 274.665C24.2208 270.798 36.2628 268.035 49.8838 266.876L49.6349 263.951ZM14.4685 271.99C9.99594 274.015 6.44488 276.322 3.99182 278.848C1.53303 281.38 0.105769 284.214 0.105769 287.23L3.04209 287.23C3.04209 285.2 3.99301 283.062 6.09835 280.894C8.20941 278.72 11.4084 276.599 15.6796 274.665L14.4685 271.99ZM0.105769 287.23C0.105769 290.246 1.53303 293.079 3.99182 295.611C6.44488 298.137 9.99594 300.444 14.4685 302.469L15.6796 299.794C11.4084 297.861 8.20941 295.739 6.09835 293.565C3.99301 291.397 3.04209 289.259 3.04209 287.23L0.105769 287.23ZM14.4685 302.469C23.415 306.52 35.8135 309.333 49.6349 310.509L49.8838 307.583C36.2628 306.425 24.2208 303.662 15.6796 299.794L14.4685 302.469ZM49.6349 310.509C63.4705 311.685 78.0138 311.16 90.9299 309.011L90.448 306.114C77.7878 308.221 63.4906 308.74 49.8838 307.583L49.6349 310.509ZM90.9299 309.011C103.81 306.868 114.472 303.211 121.082 298.518L119.383 296.123C113.3 300.442 103.145 304.002 90.448 306.114L90.9299 309.011ZM121.082 296.123C114.472 291.43 103.81 287.773 90.9299 285.63L90.448 288.527C103.145 290.639 113.3 294.199 119.383 298.518L121.082 296.123ZM90.9299 285.63C78.0138 283.481 63.4705 282.956 49.6349 284.132L49.8838 287.058C63.4906 285.901 77.7878 286.42 90.448 288.527L90.9299 285.63ZM49.6349 284.132C35.8135 285.308 23.415 288.121 14.4685 292.172L15.6796 294.846C24.2208 290.979 36.2628 288.216 49.8838 287.058L49.6349 284.132ZM14.4685 292.172C9.99594 294.197 6.44488 296.504 3.99182 299.03C1.53303 301.562 0.105768 304.395 0.105768 307.411L3.04209 307.411C3.04209 305.382 3.99301 303.244 6.09835 301.075C8.20941 298.902 11.4084 296.78 15.6796 294.846L14.4685 292.172ZM0.105768 307.411C0.105768 310.427 1.53303 313.261 3.99182 315.793C6.44488 318.319 9.99594 320.626 14.4685 322.651L15.6796 319.976C11.4084 318.042 8.20941 315.921 6.09835 313.747C3.99301 311.579 3.04209 309.441 3.04209 307.411L0.105768 307.411ZM14.4685 322.651C23.415 326.702 35.8135 329.515 49.6349 330.69L49.8838 327.765C36.2628 326.606 24.2208 323.843 15.6796 319.976L14.4685 322.651ZM49.6349 330.69C63.4705 331.867 78.0138 331.341 90.9299 329.192L90.448 326.296C77.7878 328.402 63.4906 328.922 49.8838 327.765L49.6349 330.69ZM90.9299 329.192C103.81 327.049 114.472 323.392 121.082 318.699L119.382 316.305C113.3 320.624 103.145 324.183 90.448 326.296L90.9299 329.192ZM121.082 316.305C114.472 311.612 103.81 307.955 90.9299 305.812L90.448 308.709C103.145 310.821 113.3 314.381 119.382 318.699L121.082 316.305ZM90.9299 305.812C78.0138 303.663 63.4705 303.137 49.6349 304.314L49.8838 307.24C63.4906 306.083 77.7878 306.602 90.448 308.709L90.9299 305.812ZM49.6349 304.314C35.8135 305.489 23.415 308.303 14.4685 312.353L15.6796 315.028C24.2208 311.161 36.2628 308.398 49.8838 307.24L49.6349 304.314ZM14.4685 312.353C9.99594 314.378 6.44488 316.685 3.99182 319.212C1.53302 321.744 0.105767 324.577 0.105767 327.593L3.04209 327.593C3.04209 325.564 3.99301 323.425 6.09835 321.257C8.20941 319.083 11.4084 316.962 15.6796 315.028L14.4685 312.353ZM0.105767 327.593C0.105767 330.609 1.53303 333.442 3.99181 335.975C6.44489 338.501 9.99594 340.808 14.4685 342.833L15.6796 340.158C11.4084 338.224 8.20941 336.103 6.09835 333.929C3.99301 331.761 3.04209 329.622 3.04209 327.593L0.105767 327.593ZM14.4685 342.833C23.415 346.883 35.8135 349.697 49.6349 350.872L49.8838 347.946C36.2628 346.788 24.2208 344.025 15.6796 340.158L14.4685 342.833ZM49.6349 350.872C63.4705 352.049 78.0138 351.523 90.9299 349.374L90.448 346.477C77.7878 348.584 63.4906 349.103 49.8838 347.946L49.6349 350.872ZM90.9299 349.374C103.81 347.231 114.472 343.574 121.082 338.881L119.382 336.487C113.3 340.805 103.145 344.365 90.448 346.477L90.9299 349.374ZM121.082 336.487C114.472 331.794 103.81 328.137 90.9299 325.994L90.448 328.89C103.145 331.003 113.3 334.562 119.382 338.881L121.082 336.487ZM90.9299 325.994C78.0138 323.845 63.4705 323.319 49.6349 324.496L49.8838 327.421C63.4906 326.264 77.7878 326.784 90.448 328.89L90.9299 325.994ZM49.6349 324.496C35.8135 325.671 23.415 328.484 14.4685 332.535L15.6796 335.21C24.2208 331.343 36.2628 328.58 49.8838 327.421L49.6349 324.496ZM14.4685 332.535C9.99594 334.56 6.44489 336.867 3.99181 339.393C1.53303 341.925 0.105767 344.759 0.105766 347.775L3.04209 347.775C3.04209 345.745 3.99301 343.607 6.09835 341.439C8.20941 339.265 11.4084 337.144 15.6796 335.21L14.4685 332.535ZM0.105766 347.775C0.105766 350.791 1.53302 353.624 3.99181 356.156C6.44488 358.682 9.99593 360.99 14.4685 363.015L15.6796 360.34C11.4084 358.406 8.20941 356.285 6.09835 354.111C3.99301 351.943 3.04209 349.804 3.04209 347.775L0.105766 347.775ZM14.4685 363.015C23.415 367.065 35.8135 369.878 49.6349 371.054L49.8838 368.128C36.2628 366.97 24.2208 364.207 15.6796 360.34L14.4685 363.015ZM49.6349 371.054C63.4705 372.23 78.0138 371.705 90.9299 369.556L90.448 366.659C77.7878 368.766 63.4906 369.285 49.8838 368.128L49.6349 371.054ZM90.9299 369.556C103.81 367.413 114.472 363.756 121.082 359.063L119.382 356.668C113.3 360.987 103.145 364.547 90.448 366.659L90.9299 369.556ZM121.082 356.668C114.472 351.976 103.81 348.318 90.9299 346.176L90.448 349.072C103.145 351.185 113.3 354.744 119.382 359.063L121.082 356.668ZM90.9299 346.176C78.0138 344.027 63.4705 343.501 49.6349 344.677L49.8838 347.603C63.4906 346.446 77.7878 346.966 90.448 349.072L90.9299 346.176ZM49.6349 344.677C35.8135 345.853 23.415 348.666 14.4685 352.717L15.6796 355.392C24.2208 351.525 36.2628 348.761 49.8838 347.603L49.6349 344.677ZM14.4685 352.717C9.99594 354.742 6.44489 357.049 3.99181 359.575C1.53303 362.107 0.105766 364.94 0.105766 367.956L3.04209 367.956C3.04209 365.927 3.99301 363.789 6.09835 361.621C8.20941 359.447 11.4084 357.325 15.6796 355.392L14.4685 352.717ZM0.105766 367.956C0.105765 370.973 1.53303 373.806 3.99181 376.338C6.44488 378.864 9.99594 381.171 14.4685 383.196L15.6796 380.521C11.4084 378.587 8.20941 376.466 6.09835 374.292C3.99301 372.124 3.04209 369.986 3.04209 367.956L0.105766 367.956ZM14.4685 383.196C23.415 387.247 35.8135 390.06 49.6349 391.236L49.8837 388.31C36.2628 387.151 24.2208 384.388 15.6796 380.521L14.4685 383.196ZM49.6349 391.236C63.4705 392.412 78.0138 391.886 90.9299 389.737L90.448 386.841C77.7878 388.947 63.4906 389.467 49.8837 388.31L49.6349 391.236ZM90.9299 389.737C103.81 387.594 114.472 383.937 121.082 379.244L119.382 376.85C113.3 381.169 103.145 384.728 90.448 386.841L90.9299 389.737ZM121.082 376.85C114.472 372.157 103.81 368.5 90.9299 366.357L90.448 369.254C103.145 371.366 113.3 374.926 119.382 379.244L121.082 376.85ZM90.9299 366.357C78.0138 364.208 63.4705 363.683 49.6349 364.859L49.8838 367.785C63.4906 366.628 77.7878 367.147 90.448 369.254L90.9299 366.357ZM49.6349 364.859C35.8135 366.035 23.415 368.848 14.4685 372.898L15.6796 375.573C24.2208 371.706 36.2628 368.943 49.8838 367.785L49.6349 364.859ZM14.4685 372.898C9.99594 374.923 6.44488 377.231 3.99181 379.757C1.53303 382.289 0.105765 385.122 0.105765 388.138L3.04209 388.138C3.04209 386.109 3.99301 383.97 6.09835 381.802C8.20941 379.628 11.4084 377.507 15.6796 375.573L14.4685 372.898ZM0.105765 388.138C0.105765 391.154 1.53303 393.988 3.99181 396.52C6.44488 399.046 9.99594 401.353 14.4685 403.378L15.6796 400.703C11.4084 398.769 8.20941 396.648 6.09835 394.474C3.99301 392.306 3.04209 390.168 3.04209 388.138L0.105765 388.138ZM14.4685 403.378C23.415 407.428 35.8135 410.242 49.6349 411.417L49.8837 408.491C36.2628 407.333 24.2208 404.57 15.6796 400.703L14.4685 403.378ZM49.6349 411.417C63.4705 412.594 78.0138 412.068 90.9299 409.919L90.448 407.023C77.7878 409.129 63.4906 409.649 49.8837 408.491L49.6349 411.417ZM90.9299 409.919C103.81 407.776 114.472 404.119 121.082 399.426L119.382 397.032C113.3 401.35 103.145 404.91 90.448 407.023L90.9299 409.919ZM121.082 397.032C114.472 392.339 103.81 388.682 90.9299 386.539L90.448 389.435C103.145 391.548 113.3 395.108 119.382 399.426L121.082 397.032ZM90.9299 386.539C78.0138 384.39 63.4705 383.864 49.6349 385.041L49.8837 387.967C63.4906 386.809 77.7878 387.329 90.448 389.435L90.9299 386.539ZM49.6349 385.041C35.8135 386.216 23.415 389.03 14.4685 393.08L15.6796 395.755C24.2208 391.888 36.2628 389.125 49.8837 387.967L49.6349 385.041ZM14.4685 393.08C9.99594 395.105 6.44488 397.412 3.99181 399.938C1.53303 402.47 0.105764 405.304 0.105764 408.32L3.04209 408.32C3.04209 406.29 3.99301 404.152 6.09835 401.984C8.20941 399.81 11.4084 397.689 15.6796 395.755L14.4685 393.08ZM0.105764 408.32C0.105764 411.336 1.53302 414.169 3.99181 416.701C6.44487 419.227 9.99594 421.535 14.4685 423.56L15.6796 420.885C11.4084 418.951 8.20941 416.83 6.09835 414.656C3.99301 412.488 3.04209 410.349 3.04209 408.32L0.105764 408.32ZM14.4685 423.56C23.415 427.61 35.8135 430.424 49.6349 431.599L49.8837 428.673C36.2628 427.515 24.2208 424.752 15.6796 420.885L14.4685 423.56ZM49.6349 431.599C63.4705 432.776 78.0138 432.25 90.9299 430.101L90.448 427.204C77.7878 429.311 63.4906 429.83 49.8837 428.673L49.6349 431.599ZM90.9299 430.101C103.81 427.958 114.472 424.301 121.082 419.608L119.382 417.214C113.3 421.532 103.145 425.092 90.448 427.204L90.9299 430.101Z" fill="#CE724B"/>
</svg>
