<svg width="75" height="75" viewBox="0 0 75 75" fill="none" xmlns="http://www.w3.org/2000/svg">
<path d="M9.375 19.5312C9.375 13.9221 13.9221 9.375 19.5312 9.375H55.4688C61.0778 9.375 65.625 13.9221 65.625 19.5312V55.4688C65.625 61.0778 61.0778 65.625 55.4688 65.625H19.5312C13.9221 65.625 9.375 61.0778 9.375 55.4688V19.5312ZM19.5312 14.0625C16.5109 14.0625 14.0625 16.5109 14.0625 19.5312V34.375H60.9375V19.5312C60.9375 16.5109 58.4891 14.0625 55.4688 14.0625H19.5312ZM14.0625 44.0106L17.7736 39.0625H14.0625V44.0106ZM17.7736 46.875H28.0529L30.006 39.0625H23.633L17.7736 46.875ZM14.0625 51.5625V55.4688C14.0625 58.4891 16.5109 60.9375 19.5312 60.9375H24.5373L26.881 51.5625H14.0625ZM31.7128 51.5625L29.3691 60.9375H47.0562L44.1266 51.5625H31.7128ZM49.0375 51.5625L51.9672 60.9375H55.4688C58.4891 60.9375 60.9375 58.4891 60.9375 55.4688V51.5625H49.0375ZM57.2266 46.875L51.3672 39.0625H45.1313L47.5725 46.875H57.2266ZM42.6616 46.875L40.2203 39.0625H34.8378L32.8847 46.875H42.6616ZM60.9375 44.0106V39.0625H57.2266L60.9375 44.0106Z" fill="#212121"/>
</svg>
