<svg width="69" height="109" viewBox="0 0 69 109" fill="none" xmlns="http://www.w3.org/2000/svg">
<path d="M18.9797 43.0062C16.4662 44.6083 14.0192 46.1252 11.6248 47.7208C10.3768 48.5524 9.18113 49.475 8.03331 50.4414C6.30882 51.8934 4.36919 52.7318 2.11127 52.8014C1.38111 52.8239 0.790227 52.6628 0.740781 51.7501C0.693388 50.8753 1.18202 50.5289 1.9437 50.5086C4.17108 50.449 5.73844 49.1694 7.45942 47.9253C11.0423 45.3353 14.795 42.9724 18.5507 40.633C19.9646 39.7523 21.8207 40.3634 22.7919 41.7233C23.7497 43.0645 23.6303 44.8993 22.4191 46.1009C21.7027 46.8116 20.8761 47.4113 19.8447 48.2735C21.2733 48.2735 22.4358 48.2735 23.5983 48.2735C25.8589 48.2735 28.1195 48.2731 30.38 48.2736C33.6244 48.2744 34.7875 49.4154 34.8106 52.7093C36.5963 52.9952 37.9574 53.8824 38.2043 55.8248C38.437 57.656 37.4031 58.8145 35.8725 59.5622C36.0572 62.5671 35.3448 63.5603 32.4806 64.3547C32.6815 67.4412 31.4447 68.7604 28.3369 68.7626C23.9044 68.7656 19.4664 68.8937 15.0418 68.7068C12.9195 68.6171 10.8246 67.9173 8.71368 67.5124C6.94388 67.173 5.17169 66.8439 3.39436 66.5474C2.91925 66.4682 2.41816 66.5587 1.93471 66.5122C1.1911 66.4405 0.53741 66.0897 0.794685 65.2643C0.932844 64.821 1.58668 64.1996 1.96708 64.2269C4.11356 64.3808 6.35354 64.3872 8.36054 65.0516C11.1811 65.9852 13.9656 66.5504 16.9331 66.4806C20.6544 66.3931 24.3793 66.4601 28.1026 66.4585C28.4569 66.4584 28.8933 66.5726 29.1472 66.4092C29.5706 66.1368 30.1521 65.6836 30.1533 65.305C30.1544 64.9501 29.5049 64.3061 29.1148 64.2849C27.0372 64.1721 24.9485 64.2734 22.8692 64.1793C21.8403 64.1327 20.1131 64.796 20.1091 63.0812C20.1049 61.2688 21.8827 61.9325 22.9495 61.9031C25.7838 61.825 28.6217 61.8767 31.4582 61.8764C31.7685 61.8764 32.1499 61.9881 32.3742 61.8485C32.8358 61.5613 33.2134 61.1391 33.6255 60.7724C33.2072 60.4176 32.8007 59.7734 32.3686 59.7557C29.8018 59.6509 27.2291 59.6902 24.6584 59.6829C23.6833 59.6802 22.7081 59.6786 21.7329 59.6834C20.8648 59.6877 20.0294 59.5262 20.0542 58.4592C20.0771 57.4701 20.8795 57.3497 21.6984 57.3511C25.6873 57.358 29.6763 57.3644 33.6651 57.3395C34.5356 57.3341 35.7914 57.6845 35.842 56.2983C35.897 54.7901 34.5778 55.1171 33.6684 55.1108C29.7249 55.0832 25.781 55.0948 21.8373 55.1022C20.9971 55.1038 20.0817 55.0753 20.0534 54.0033C20.023 52.8478 20.9539 52.7854 21.8576 52.7897C24.8273 52.8041 27.7971 52.7882 30.7669 52.7993C31.6253 52.8026 32.4672 52.7402 32.4489 51.6219C32.4312 50.5442 31.5665 50.5772 30.7954 50.5788C26.1416 50.5883 21.4878 50.6042 16.8341 50.6074C16.3051 50.6078 15.7124 50.6777 15.266 50.4675C14.8686 50.2804 14.3835 49.7408 14.3962 49.3726C14.409 49.0015 14.9297 48.43 15.3272 48.326C17.6872 47.7087 19.0262 45.7093 20.8265 44.3486C21.0469 44.1821 20.9634 43.1157 20.8428 43.0808C20.2856 42.9195 19.6656 42.9755 18.9797 43.0062Z" fill="white"/>
<path d="M68.1346 4.89631C65.1975 5.11268 62.4941 4.68943 59.8178 3.70184C58.2721 3.13145 56.5634 2.79043 54.9172 2.74541C50.3111 2.61942 45.6993 2.70114 41.0898 2.70093C41.0455 2.70093 41.0011 2.7025 40.9569 2.70137C40.1822 2.68163 39.4551 2.82845 39.4541 3.77651C39.4532 4.66755 40.0905 4.94392 40.9077 4.94226C43.2123 4.93758 45.5171 4.9668 47.8216 4.94991C48.6816 4.9436 49.5736 5.00807 49.591 6.05982C49.6098 7.19254 48.6631 7.28595 47.7687 7.28515C44.4005 7.28216 41.0323 7.28688 37.6641 7.28205C36.8717 7.28091 36.0641 7.28956 36.0538 8.36854C36.0433 9.46125 36.8739 9.46615 37.652 9.46799C40.8432 9.47557 44.0344 9.47624 47.2255 9.4795C47.5358 9.47982 47.8462 9.47412 48.1562 9.48231C48.9569 9.50344 49.6273 9.81993 49.6001 10.6875C49.573 11.5538 48.8894 11.8104 48.0846 11.8093C44.0959 11.8038 40.107 11.7931 36.1186 11.8287C35.1862 11.837 33.7654 11.3872 33.7846 12.9631C33.8021 14.3964 35.1551 14.0448 36.0633 14.052C39.8292 14.082 43.5955 14.0645 47.3617 14.0648C47.6719 14.0648 48.0576 13.9501 48.2771 14.0919C48.7722 14.4115 49.1851 14.8584 49.6315 15.2535C49.1638 15.6236 48.7123 16.2861 48.2255 16.3132C46.1046 16.4313 43.9733 16.3647 41.8459 16.3651C40.9151 16.3652 39.9843 16.362 39.0536 16.366C38.2114 16.3696 37.1985 16.2403 37.1874 17.4734C37.1761 18.7337 38.2168 18.5807 39.0432 18.5795C43.6964 18.5731 48.3496 18.5501 53.0028 18.538C53.3566 18.5371 53.7828 18.4595 54.0482 18.6234C54.5131 18.9106 54.8793 19.3576 55.2868 19.7376C54.8885 20.1198 54.521 20.544 54.0801 20.8682C53.8187 21.0604 53.3804 21.0164 53.1264 21.2135C51.7618 22.273 50.3806 23.3219 49.1201 24.4977C48.7867 24.8087 48.8602 25.5559 48.7469 26.1028C49.3025 26.1674 50.0271 26.4916 50.3876 26.2567C54.1656 23.795 57.9306 21.3071 61.6018 18.6899C63.3833 17.4199 65.2023 16.4512 67.4124 16.3615C68.1101 16.3332 68.7688 16.4031 68.8666 17.3234C68.9667 18.2662 68.4208 18.6308 67.6124 18.6549C65.4302 18.7198 63.9027 19.9891 62.2178 21.1968C58.5895 23.7973 54.8107 26.1959 51.016 28.5521C49.6205 29.4186 47.7275 28.7487 46.799 27.3803C45.8521 25.9848 46.0692 24.0771 47.3556 22.9106C48.0593 22.2725 48.8254 21.7033 49.8293 20.8867C46.085 20.8867 42.6919 20.887 39.2987 20.8866C35.9104 20.8862 34.8527 19.8581 34.7881 16.4276C32.9608 16.1611 31.6474 15.2061 31.424 13.2701C31.2204 11.5054 32.2393 10.3682 33.7179 9.62531C33.7023 6.41399 34.2672 5.62028 36.9479 4.86053C37.1881 3.85488 37.2512 2.85138 37.6676 2.02608C38.2434 0.884669 39.3517 0.393498 40.6559 0.396187C45.6642 0.406513 50.6737 0.349633 55.6803 0.447678C57.0702 0.474898 58.538 0.73954 59.8181 1.26529C62.2898 2.28042 64.7892 2.78197 67.4514 2.6604C67.8914 2.6403 68.6842 3.00166 68.7284 3.27985C68.8064 3.77005 68.433 4.33202 68.1346 4.89631Z" fill="white"/>
<path d="M5.23211 21.002C5.33306 20.0534 5.8908 19.5962 6.59301 19.8915C7.00234 20.0636 7.39604 20.81 7.40668 21.3063C7.47779 24.6255 7.43715 27.947 7.45161 31.2676C7.4537 31.748 7.44188 32.2872 7.64931 32.6895C7.81447 33.0098 8.3106 33.3481 8.64817 33.3366C8.97274 33.3256 9.41571 32.9354 9.56497 32.6033C9.7537 32.1833 9.73877 31.6537 9.74094 31.171C9.75431 28.2021 9.7477 25.2331 9.74785 22.2641C9.74786 21.9539 9.74731 21.6437 9.74927 21.3335C9.75416 20.5622 9.92313 19.8602 10.8553 19.8228C11.8924 19.7811 12.0659 20.5637 12.0789 21.3596C12.1063 23.0431 12.0886 24.7273 12.0889 26.4112C12.0892 28.892 12.0908 31.3727 12.0881 33.8534C12.0873 34.6662 12.0201 35.629 13.1433 35.6336C14.308 35.6384 14.3172 34.6767 14.3151 33.7904C14.3057 29.8465 14.3109 25.9026 14.3113 21.9587C14.3113 21.6486 14.1992 21.2638 14.341 21.0438C14.636 20.5862 15.0665 20.2159 15.4413 19.8097C15.8263 20.2101 16.2826 20.5664 16.5685 21.0281C16.7285 21.2864 16.6087 21.7196 16.6101 22.074C16.6209 24.954 16.6243 27.8341 16.6448 30.7141C16.6504 31.4998 16.7354 32.3448 17.797 32.2721C18.7941 32.2038 18.8572 31.3974 18.855 30.5915C18.8421 25.9829 18.8432 21.3744 18.8412 16.7658C18.841 16.2785 18.719 15.7356 18.8933 15.3187C19.086 14.8577 19.5264 14.2346 19.9113 14.1954C20.2856 14.1572 20.9852 14.6992 21.0949 15.1067C21.7288 17.4635 23.7034 18.8213 25.0748 20.6178C25.2344 20.8268 25.9998 20.8469 26.2393 20.6526C26.5442 20.4053 26.7047 19.8553 26.7257 19.4259C26.7402 19.1276 26.4366 18.7977 26.2379 18.5075C23.6413 14.7149 21.054 10.9159 18.4289 7.1432C17.3362 5.57271 16.7029 3.87486 16.6148 1.96123C16.5773 1.14602 16.8217 0.404649 17.6765 0.485968C18.1111 0.527309 18.7695 1.26226 18.8222 1.73936C19.041 3.72126 19.9851 5.25344 21.1271 6.84395C23.7813 10.5407 26.2679 14.3627 28.7036 18.2092C29.6476 19.7001 29.0683 21.558 27.6616 22.5552C26.2175 23.5787 24.3419 23.3602 23.1013 21.9886C22.5151 21.3407 21.9849 20.6421 21.1832 19.6672C21.1832 21.4349 21.1832 22.8636 21.1832 24.2923C21.1832 26.375 21.1931 28.4578 21.1807 30.5405C21.1635 33.4198 19.6909 34.7563 16.7333 34.5032C16.37 36.2791 15.5864 37.7455 13.5147 37.9426C11.7222 38.1131 10.597 37.1614 9.86869 35.6669C6.82749 35.819 5.89684 35.1545 5.0509 32.2281C4.76008 32.2544 4.45953 32.2976 4.15798 32.3064C2.26115 32.3616 0.755052 30.9296 0.750653 29.0208C0.738297 23.6589 0.695498 18.2961 0.784482 12.9356C0.805235 11.6853 1.14691 10.3818 1.6113 9.20993C2.50763 6.94799 3.03725 4.65897 2.90192 2.22183C2.85241 1.33022 2.94058 0.393476 4.12297 0.439566C5.20049 0.481569 5.21116 1.38935 5.23607 2.22188C5.31261 4.78022 4.78187 7.20223 3.95121 9.62485C3.37312 11.3108 3.0086 13.1411 2.95034 14.9201C2.80971 19.2139 2.90409 23.5154 2.90557 27.8138C2.90568 28.168 2.79222 28.6049 2.95614 28.8578C3.23108 29.2819 3.64564 29.7796 4.08193 29.8739C4.34542 29.9308 4.86684 29.3401 5.07646 28.9383C5.26512 28.5766 5.21825 28.0757 5.22073 27.6359C5.23302 25.4647 5.22718 23.2934 5.23211 21.002Z" fill="white"/>
<path d="M66.7047 40.4569C66.2957 39.9669 65.89 39.5947 65.4844 39.2226C65.1634 39.6685 64.5888 40.1011 64.5648 40.5625C64.454 42.6842 64.4978 44.814 64.484 46.9408C64.4814 47.3393 64.6025 47.8128 64.4303 48.1189C64.1654 48.5899 63.7442 49.2132 63.3032 49.2924C62.5052 49.4358 62.1847 48.7833 62.1858 48.0072C62.191 44.6391 62.1915 41.271 62.1831 37.9029C62.182 37.4637 62.2459 36.9539 62.0506 36.605C61.8487 36.244 61.3665 35.8258 61.0091 35.8278C60.6702 35.8296 60.1917 36.2814 60.0327 36.6474C59.8319 37.1094 59.8499 37.6849 59.8476 38.2118C59.8335 41.4026 59.8356 44.5935 59.8441 47.7844C59.8461 48.5437 59.7827 49.2879 58.8212 49.3312C57.7944 49.3774 57.6224 48.6392 57.6231 47.8046C57.6264 43.9073 57.6229 40.0099 57.6221 36.1126C57.622 35.758 57.6219 35.4035 57.6236 35.049C57.6273 34.2629 57.3942 33.5488 56.5111 33.5221C55.5278 33.4925 55.317 34.2464 55.3179 35.0841C55.3219 38.7616 55.3192 42.4391 55.3189 46.1166C55.3189 46.6484 55.3166 47.1803 55.3191 47.7121C55.3228 48.5101 55.2535 49.3107 54.2124 49.3316C53.1496 49.3528 53.0948 48.5652 53.0984 47.7532C53.1104 45.0499 53.1042 42.3465 53.1015 39.6431C53.1011 39.2447 53.1227 38.8399 53.0622 38.4493C52.9478 37.7109 52.9019 36.8105 51.8429 36.8848C50.8546 36.9541 50.7567 37.7432 50.7598 38.5559C50.7707 41.4365 50.7637 44.3172 50.7636 47.1978C50.7635 49.2808 50.7531 51.3638 50.7686 53.4466C50.7744 54.2236 50.6426 54.9283 49.7347 55.0235C48.8034 55.1212 48.5625 54.4441 48.4513 53.6725C48.4086 53.3768 48.3216 53.0453 48.1428 52.8184C47.0738 51.4619 46.0251 50.0813 44.8447 48.8263C44.5463 48.5091 43.7926 48.62 43.2481 48.5342C43.1824 49.05 42.8721 49.7248 43.0883 50.0573C45.5463 53.8384 48.0055 57.6242 50.6367 61.2849C51.8608 62.9878 52.7918 64.7174 53.0309 66.7989C53.0511 66.9742 53.1142 67.2019 53.0334 67.3214C52.6999 67.8146 52.3187 68.2755 51.955 68.7482C51.5545 68.3109 50.8466 67.8998 50.8067 67.4317C50.6316 65.3801 49.5968 63.8501 48.4324 62.2278C45.7784 58.5301 43.3035 54.699 40.876 50.8464C39.988 49.4371 40.6039 47.5919 41.9671 46.614C43.3559 45.6178 45.2035 45.7817 46.4407 47.0671C47.0472 47.6972 47.5699 48.408 48.3332 49.326C48.3925 48.6839 48.4534 48.3251 48.4543 47.9661C48.462 44.9082 48.4525 41.8502 48.4604 38.7923C48.4684 35.7328 49.8684 34.4355 52.9956 34.6526C53.2036 32.896 53.9971 31.545 55.8956 31.2508C57.7796 30.9588 59.0357 31.8684 59.7645 33.5443C62.5903 33.2404 63.7206 34.0044 64.5735 36.8465C64.9241 36.8465 65.3093 36.8319 65.6931 36.849C67.5139 36.9305 68.8547 38.2609 68.8606 40.0898C68.8783 45.4965 68.9146 50.9042 68.8162 56.3092C68.7926 57.6021 68.4293 58.9479 67.9478 60.1604C67.0818 62.3409 66.5968 64.5484 66.7107 66.8912C66.7532 67.7655 66.7413 68.7462 65.5506 68.7204C64.3802 68.695 64.4301 67.6944 64.4046 66.8364C64.3298 64.323 64.8528 61.9433 65.682 59.5652C66.2543 57.9242 66.6146 56.1349 66.6643 54.4003C66.7963 49.7951 66.7085 45.1836 66.7047 40.4569Z" fill="white"/>
<path d="M37.0143 27.5967C38.897 26.3568 40.7509 26.2302 42.5673 27.4332C44.5838 28.7687 45.2826 30.784 45.0258 33.0914C44.74 35.659 43.4266 37.8195 41.637 39.567C39.8121 41.3488 37.7473 42.8924 35.7197 44.4522C35.3626 44.7269 34.5389 44.7973 34.1563 44.5746C30.3374 42.3509 27.0887 39.5242 25.2415 35.3916C24.2446 33.1613 24.219 30.9035 25.6485 28.8165C27.5173 26.0883 31.0872 25.8684 33.4493 28.2968C33.9063 28.7666 34.3114 29.2867 34.6016 29.6228C35.4012 28.9472 36.1673 28.3 37.0143 27.5967ZM42.157 30.2122C40.6228 28.4951 39.1804 28.4087 37.6952 30.1097C37.0137 30.8901 36.6466 31.9368 36.0389 32.7932C35.7171 33.2466 35.2142 33.7847 34.7386 33.8433C34.4048 33.8844 33.9097 33.2293 33.6086 32.7997C32.9303 31.8318 32.4689 30.6746 31.6643 29.8404C30.0788 28.1964 27.6565 28.8118 27.1462 31.0415C26.8895 32.1631 26.9949 33.5606 27.4462 34.6153C28.8317 37.8531 31.4003 40.1152 34.303 41.9976C34.5553 42.1613 35.1037 42.1459 35.3629 41.9787C38.1942 40.1524 40.6163 37.9169 42.1366 34.8438C42.8567 33.3883 43.0858 31.8998 42.157 30.2122Z" fill="white"/>
<path d="M62.303 82.3529C63.0551 83.9722 63.803 85.4769 64.435 87.0287C64.607 87.4509 64.4302 88.0153 64.4134 88.5144C63.7937 88.3359 62.8967 88.3517 62.6086 87.9407C61.8831 86.9056 61.439 85.6746 60.8664 84.53C60.7217 84.2407 60.5179 83.981 60.0942 83.7649C60.0942 84.9738 60.0732 86.1832 60.1022 87.3914C60.119 88.0889 60.0239 88.6377 59.1575 88.6416C58.3853 88.645 58.0442 88.2575 58.0417 87.4936C58.0283 83.513 58.0004 79.5325 57.984 75.5519C57.9811 74.8426 58.2385 74.3533 59.0571 74.3474C59.9413 74.341 60.1866 74.8285 60.1661 75.624C60.1362 76.7883 60.1584 77.954 60.4688 79.2252C61.0513 78.0338 61.5854 76.8149 62.2388 75.6638C62.5214 75.1659 62.9968 74.7176 63.4903 74.4251C63.7277 74.2844 64.2906 74.4615 64.551 74.6798C64.7014 74.8059 64.6329 75.3404 64.5081 75.6227C63.8658 77.0758 63.0999 78.4785 62.5305 79.9578C62.2618 80.6557 62.3362 81.4858 62.303 82.3529Z" fill="white"/>
<path d="M49.9914 75.0517C50.5475 74.7745 51.0861 74.4925 51.6113 74.5155C51.7935 74.5235 52.0801 75.2864 52.0842 75.7067C52.1101 78.3198 52.0503 80.9337 52.0632 83.547C52.0667 84.2469 52.1147 84.9867 52.3524 85.6305C52.4991 86.028 53.0543 86.5393 53.4056 86.5242C53.7771 86.5082 54.2942 85.9901 54.4433 85.5805C54.6788 84.9338 54.7355 84.1947 54.736 83.4946C54.7376 80.9258 54.6857 78.3568 54.652 75.7879C54.642 75.0298 54.6899 74.3256 55.728 74.344C56.7064 74.3614 56.8589 74.9732 56.834 75.7813C56.7396 78.836 56.739 81.8956 56.5652 84.9454C56.4094 87.6805 54.6961 89.0894 52.4516 88.5062C51.1211 88.1606 50.2235 87.3453 50.1802 85.9235C50.0709 82.3391 50.0343 78.7525 49.9914 75.0517Z" fill="white"/>
<path d="M40.5763 88.1528C37.7959 89.3024 35.7503 88.0636 35.654 85.1609C35.5483 81.973 35.5866 78.7805 35.5454 75.5902C35.5351 74.7914 35.7919 74.3019 36.6819 74.349C37.5794 74.3965 37.7226 74.9607 37.714 75.72C37.6815 78.5993 37.6502 81.4793 37.6876 84.3582C37.6991 85.2482 37.6194 86.4708 38.8648 86.5508C40.2767 86.6415 40.2188 85.2925 40.2482 84.4093C40.3323 81.8881 40.2548 79.3615 40.2368 76.8371C40.2334 76.3501 40.0613 75.7964 40.2396 75.3945C40.4279 74.9702 40.9424 74.4241 41.3144 74.4242C41.6726 74.4242 42.344 75.0574 42.3402 75.4066C42.3034 78.8142 42.2378 82.2269 41.9776 85.6226C41.9121 86.478 41.1213 87.2778 40.5763 88.1528Z" fill="white"/>
<path d="M33.5522 94.8652C33.7643 95.5696 33.9303 96.2332 33.978 96.9051C34.0352 97.7118 33.9915 98.5257 33.9915 99.3364C34.1085 99.3669 34.2256 99.3975 34.3426 99.428C34.8461 98.3895 35.3378 97.345 35.8588 96.3154C36.0758 95.8867 36.2639 95.3164 36.6302 95.1232C37.0675 94.8924 37.6817 94.9968 38.2193 94.956C38.1938 95.356 38.2731 95.8009 38.1243 96.1481C37.5166 97.5669 36.7365 98.9201 36.2311 100.371C35.9811 101.089 35.9832 102.039 36.235 102.756C36.7439 104.206 37.5474 105.55 38.1274 106.979C38.2989 107.401 38.129 107.963 38.1155 108.46C37.5059 108.264 36.64 108.253 36.3386 107.834C35.6526 106.882 35.2484 105.728 34.7191 104.661C34.5868 104.394 34.4146 104.147 33.9789 103.915C33.9789 105.015 33.9632 106.115 33.9846 107.215C33.9985 107.932 33.9708 108.583 33.0068 108.582C32.101 108.581 31.9417 108.007 31.9408 107.253C31.9362 103.539 31.9323 99.8251 31.8858 96.1117C31.8713 94.9494 32.3993 94.6066 33.5522 94.8652Z" fill="white"/>
<path d="M17.3477 88.5027C15.7971 88.6909 14.8443 87.9021 14.3112 86.7141C12.7506 83.236 12.7355 79.692 14.2423 76.1897C14.7141 75.0931 15.5585 74.2793 16.8701 74.2643C18.2433 74.2486 19.119 75.09 19.6062 76.2346C21.0784 79.6934 21.0882 83.2146 19.5324 86.6286C19.1792 87.4038 18.158 87.8746 17.3477 88.5027ZM18.1158 85.4036C18.8596 82.7588 18.9485 80.0938 18.1484 77.4616C17.987 76.9307 17.3313 76.55 16.9035 76.1001C16.4785 76.5525 15.8353 76.9354 15.6651 77.4691C14.8108 80.1469 14.9101 82.864 15.7658 85.5257C15.9164 85.9939 16.4688 86.6076 16.8737 86.6375C17.2364 86.6643 17.6517 85.9788 18.1158 85.4036Z" fill="white"/>
<path d="M44.0274 106.167C44.4754 106.366 44.8539 106.62 45.2108 106.593C45.6499 106.559 46.071 106.291 46.4999 106.124C46.2687 105.744 46.1269 105.233 45.7923 105.005C43.037 103.131 41.621 100.732 42.5161 97.3077C42.9881 95.5025 44.2003 94.4788 45.7868 94.6325C47.3533 94.7843 48.2823 95.8563 48.3876 97.7763C48.4382 98.6986 48.436 99.6529 48.2452 100.547C48.1446 101.019 47.6184 101.709 47.2298 101.748C46.3075 101.839 46.4959 101.008 46.4932 100.401C46.4891 99.4737 46.5582 98.5307 46.4054 97.6267C46.333 97.1985 45.8188 96.8449 45.5047 96.4576C45.1654 96.8237 44.6422 97.137 44.519 97.5653C44.0224 99.2907 44.2289 100.911 45.6759 102.168C46.31 102.719 47.0133 103.19 47.6476 103.74C48.6431 104.604 48.9291 105.883 48.4223 106.983C47.9103 108.094 46.3658 108.791 44.9044 108.57C43.5351 108.364 42.413 107.402 42.3149 106.268C42.2883 105.96 42.4944 105.632 42.5936 105.313C43.0452 105.575 43.4968 105.836 44.0274 106.167Z" fill="white"/>
<path d="M27.5846 81.418C27.065 82.7633 26.2675 83.6341 24.8365 83.6832C24.0692 83.7095 23.8795 84.14 23.903 84.8194C23.9319 85.6589 24.0246 86.5235 23.8629 87.3318C23.7682 87.805 23.2315 88.1898 22.8936 88.6144C22.5535 88.1823 21.9313 87.758 21.9193 87.317C21.8437 84.533 21.9155 81.7452 21.9126 78.9588C21.9114 77.8536 21.8425 76.7486 21.8068 75.6434C21.7795 74.8002 22.1851 74.3503 23.0194 74.1886C24.9857 73.8076 26.6984 74.5754 27.2022 76.5058C27.6026 78.0398 27.4934 79.7067 27.5846 81.418ZM25.7609 78.5353C25.5068 77.8027 25.2842 77.0564 24.9765 76.3471C24.8995 76.1696 24.4619 75.9614 24.3426 76.0306C24.1299 76.1539 23.9158 76.4741 23.908 76.7185C23.8677 77.9918 23.851 79.2696 23.9244 80.5401C23.9419 80.842 24.3039 81.3134 24.5675 81.359C24.8365 81.4054 25.3672 81.0841 25.453 80.8176C25.6624 80.1666 25.6808 79.4542 25.7609 78.5353Z" fill="white"/>
<path d="M20.4381 101.737C20.811 101.789 21.121 101.763 21.3185 101.9C21.615 102.106 21.8326 102.425 22.0837 102.696C21.7858 102.909 21.5142 103.189 21.1836 103.32C20.7128 103.507 19.8406 103.482 19.7702 103.728C19.5592 104.466 19.5899 105.299 19.6726 106.079C19.6942 106.282 20.2313 106.505 20.5638 106.585C21.1609 106.729 21.804 106.703 22.384 106.887C22.6527 106.972 22.818 107.383 23.0302 107.646C22.7766 107.847 22.5433 108.182 22.2659 108.224C21.1309 108.395 19.9794 108.572 18.8409 108.534C18.47 108.522 17.8164 107.87 17.808 107.499C17.719 103.604 17.7078 99.7049 17.7673 95.8084C17.7727 95.4552 18.3915 94.8544 18.7738 94.8128C19.8659 94.694 20.9865 94.7604 22.0879 94.8517C22.4089 94.8783 22.7027 95.2332 23.0091 95.4376C22.7714 95.7692 22.5753 96.1466 22.2801 96.4148C22.1094 96.5698 21.7814 96.5719 21.5195 96.603C19.6286 96.8278 19.6283 96.8246 19.6448 98.7814C19.6504 99.4458 19.5834 100.122 19.6901 100.77C19.7472 101.116 20.1037 101.413 20.4381 101.737Z" fill="white"/>
<path d="M5.20241 76.1263C4.61759 74.9523 4.8503 74.4261 5.94839 74.3994C7.72005 74.3562 9.49551 74.3552 11.2652 74.4324C11.6533 74.4493 12.0238 74.8692 12.4024 75.1035C12.0737 75.4682 11.7343 76.1555 11.4181 76.145C9.47331 76.0804 9.50171 77.296 9.52622 78.6767C9.57656 81.5123 9.54847 84.3494 9.55136 87.1859C9.55204 87.8613 9.61216 88.6216 8.64195 88.6386C7.65559 88.6559 7.55531 87.9309 7.56086 87.1642C7.58137 84.328 7.62663 81.4916 7.60594 78.6556C7.58886 76.3142 7.5534 76.3145 5.20241 76.1263Z" fill="white"/>
<path d="M43.5977 77.2856C43.5847 76.6239 43.5787 76.0921 43.5649 75.5605C43.546 74.8365 43.7929 74.3545 44.6108 74.3425C45.4766 74.3297 45.7549 74.7777 45.7395 75.5972C45.6798 78.7874 45.6902 81.9792 45.598 85.1682C45.567 86.244 45.8673 86.756 47.0031 86.6139C47.3007 86.5766 47.6745 86.583 47.9094 86.7325C48.3495 87.0127 48.7136 87.4121 49.1093 87.7619C48.6486 87.991 48.2089 88.3328 47.7224 88.4234C46.9461 88.5679 46.1353 88.5139 45.3452 88.6003C44.0006 88.7472 43.6065 88.412 43.6031 86.9878C43.5955 83.7971 43.601 80.6063 43.5977 77.2856Z" fill="white"/>
<path d="M34.077 88.4201C32.9089 88.5003 31.8498 88.5333 30.7971 88.6338C29.7151 88.737 29.2349 88.2726 29.234 87.2057C29.2308 83.3607 29.2185 79.5156 29.1984 75.6705C29.1945 74.9192 29.3558 74.3518 30.2663 74.3423C31.2551 74.3321 31.3896 74.9303 31.3745 75.7432C31.316 78.8806 31.3245 82.0197 31.2366 85.1561C31.2071 86.2078 31.4623 86.7373 32.6216 86.6236C33.0862 86.578 33.6258 86.6601 34.0392 86.8676C34.7965 87.2477 35.181 87.7912 34.077 88.4201Z" fill="white"/>
<path d="M28.3824 107.92C27.9562 108.191 27.4627 108.569 27.1672 108.451C26.8493 108.324 26.5382 107.735 26.5323 107.343C26.4871 104.378 26.4922 101.412 26.5373 98.4471C26.5553 97.2642 26.3467 96.4662 24.8889 96.5327C24.5549 96.548 24.1952 95.9992 23.8473 95.71C24.241 95.4112 24.621 94.8789 25.031 94.8546C26.6628 94.758 28.3055 94.7821 29.9405 94.8499C30.3399 94.8664 30.7255 95.2185 31.1174 95.4162C30.8145 95.7856 30.507 96.4766 30.2096 96.4723C28.2497 96.4441 28.3749 97.6977 28.3962 99.0452C28.4424 101.966 28.4052 104.887 28.3824 107.92Z" fill="white"/>
<path d="M39.3154 96.9972C39.4714 96.0804 38.7536 94.7999 40.3325 94.7811C41.8955 94.7625 41.38 96.0119 41.386 96.8337C41.4111 100.232 41.3824 103.63 41.3725 107.029C41.3701 107.874 41.2995 108.815 40.1409 108.469C39.7516 108.353 39.3782 107.466 39.3656 106.922C39.2903 103.657 39.3221 100.39 39.3154 96.9972Z" fill="white"/>
<path d="M49.9276 101.477C49.8831 99.6243 49.837 97.9037 49.796 96.183C49.7777 95.4172 49.864 94.7509 50.8971 94.7742C51.8696 94.7961 51.8774 95.426 51.8729 96.1389C51.8499 99.7585 51.8429 103.378 51.8331 106.998C51.8312 107.709 51.9382 108.551 50.8991 108.547C49.8109 108.544 49.8729 107.672 49.8797 106.906C49.8952 105.141 49.9118 103.375 49.9276 101.477Z" fill="white"/>
<path d="M39.53 92.758C39.6336 92.1898 39.7848 91.7135 39.9361 91.2372C40.346 91.3919 40.8827 91.4412 41.1261 91.7342C41.325 91.9735 41.1736 92.5037 41.1775 92.905C40.6442 92.8866 40.1109 92.8682 39.53 92.758Z" fill="white"/>
<path d="M51.7516 91.8167C51.5681 92.3484 51.4103 92.8656 51.0671 93.1808C50.9527 93.2859 50.1491 92.9553 50.0444 92.6786C49.9069 92.3154 50.1492 91.8086 50.2282 91.3635C50.7204 91.4835 51.2127 91.6034 51.7516 91.8167Z" fill="white"/>
</svg>
