<svg width="72" height="73" viewBox="0 0 72 73" fill="none" xmlns="http://www.w3.org/2000/svg">
<path d="M0.253052 34.3755C0.229842 25.7221 3.50595 17.3931 9.39943 11.1221C15.2929 4.85106 23.3497 1.12127 31.8927 0.709086C40.4357 0.296899 48.8067 3.23407 55.2632 8.90919C61.7198 14.5843 65.7644 22.5602 66.5551 31.1765C64.9295 30.732 63.2872 30.3522 61.6321 30.0381C60.6519 23.5025 57.4766 17.508 52.6405 13.0633C52.161 13.9279 51.5344 15.0183 50.8175 16.1759C49.2129 18.7696 46.9104 22.1319 44.6079 23.8755C44.5292 23.9304 44.4574 23.9949 44.3943 24.0676C44.3943 24.1973 44.4418 24.5528 44.7978 25.3645C44.9498 25.7152 45.1681 26.1571 45.415 26.6614C45.8423 27.5356 46.374 28.6115 46.8535 29.8075C45.2642 30.0543 43.6938 30.4122 42.1535 30.8787C41.9066 30.3393 41.6502 29.8045 41.3845 29.2744C41.0565 28.6227 40.7446 27.9629 40.4492 27.2954C40.0315 26.3348 39.5757 25.0859 39.6564 23.7602C39.7514 22.2232 40.5204 20.9743 41.7595 20.0329C43.2644 18.8897 45.1586 16.2719 46.7917 13.6253C47.5798 12.3621 48.2492 11.1756 48.7239 10.3111L48.8331 10.1093C44.2515 7.13368 38.9197 5.55617 33.4753 5.56542H33.2474C33.6794 6.43001 34.1542 7.46272 34.5814 8.6107C35.7398 11.7136 36.7842 16.2575 34.9185 20.273C33.2047 23.9716 30.2471 24.9322 28.0348 25.5086L27.7167 25.5903C25.5661 26.1523 24.6784 26.3828 24.0327 27.3675C23.4346 28.2897 23.5438 29.4473 24.2226 31.6904L24.3793 32.1948C24.6499 33.069 24.9727 34.1065 25.1389 35.0863C25.3478 36.3064 25.4047 37.8338 24.6452 39.3132C23.998 40.6351 22.9679 41.7259 21.6923 42.4402C20.703 42.9482 19.6381 43.2889 18.54 43.4488L18.2172 43.5065C16.5176 43.8091 15.6536 43.9628 14.8228 44.861C14.1724 45.5671 13.7689 46.7919 13.5363 48.5691C13.4413 49.2944 13.3796 50.0149 13.3226 50.7594L13.2894 51.1533C13.2376 52.0084 13.1281 52.859 12.9618 53.699L12.8431 54.2274C15.78 57.3567 19.3734 59.7794 23.3586 61.317C22.4661 62.6619 21.6401 64.0549 20.871 65.4863C14.772 62.9545 9.55499 58.6447 5.88358 53.1048C2.21217 47.5649 0.252239 41.0454 0.253052 34.3755ZM5.00044 34.3755C4.99189 39.3839 6.28003 44.3073 8.73664 48.6556L8.8221 47.9351C9.07845 45.9898 9.6244 43.4536 11.3477 41.5852C13.3179 39.4525 15.7296 39.049 17.2725 38.7945L17.7092 38.7176C18.3018 38.6483 18.8791 38.4811 19.4183 38.2229C19.8651 37.9624 20.219 37.5656 20.4295 37.0893C20.5007 36.9596 20.5861 36.657 20.458 35.9125C20.3109 35.1786 20.1174 34.455 19.8788 33.7462C19.8118 33.5318 19.7453 33.3173 19.6794 33.1026C19.0622 31.0612 18.0985 27.7469 20.0639 24.7257C21.773 22.0983 24.5217 21.4306 26.302 20.9935L26.8432 20.859C28.7279 20.3643 29.8435 19.8984 30.6174 18.2317C31.6286 16.0606 31.1871 13.1306 30.1379 10.3063C29.5859 8.83741 28.9026 7.42259 28.0965 6.07937C21.597 7.3462 15.7365 10.8636 11.5217 16.0273C7.307 21.191 5.00118 27.6786 5.00044 34.3755ZM71.1079 37.9299C70.8958 37.5811 70.5991 37.293 70.246 37.0929C69.8928 36.8928 69.495 36.7874 69.0902 36.7867H69.0523C68.8657 36.7635 68.6804 36.7315 68.4968 36.6906C68.0206 36.5762 67.5473 36.4497 67.0773 36.3112L66.6263 36.1863C65.3056 35.7988 63.9742 35.4496 62.6338 35.1392C58.0404 34.0696 53.2975 33.8209 48.6195 34.4043C42.9131 35.1248 38.5503 37.0845 35.5736 39.8896C32.5828 42.7187 31.1111 46.3116 31.1111 49.9765C31.1111 50.8555 31.1776 51.6913 31.2915 52.4742C36.2763 48.0744 42.4241 44.5152 49.2177 41.7629C49.5072 41.6456 49.8168 41.5871 50.1287 41.5908C50.4407 41.5946 50.7488 41.6604 51.0356 41.7846C51.3223 41.9089 51.5821 42.089 51.8001 42.3148C52.018 42.5406 52.1899 42.8076 52.3058 43.1006C52.4218 43.3936 52.4796 43.7068 52.4759 44.0224C52.4722 44.338 52.4071 44.6498 52.2843 44.9399C52.1616 45.2301 51.9835 45.4929 51.7603 45.7134C51.5372 45.9339 51.2733 46.1078 50.9837 46.2251C47.2 47.7574 43.7012 49.525 40.5489 51.5183C32.7062 56.1487 27.8212 62.0951 24.2416 69.3385C24.0907 69.6216 23.9976 69.9325 23.9677 70.2527C23.9378 70.5729 23.9718 70.8959 24.0677 71.2026C24.1635 71.5092 24.3193 71.7933 24.5257 72.0379C24.7321 72.2825 24.985 72.4826 25.2694 72.6265C25.5537 72.7703 25.8637 72.8549 26.1809 72.8752C26.4982 72.8956 26.8163 72.8512 27.1162 72.7448C27.4162 72.6384 27.692 72.4721 27.9273 72.2558C28.1626 72.0395 28.3525 71.7775 28.4858 71.4855C30.3088 67.8062 32.4878 64.4968 35.36 61.5524C36.1225 62.9585 37.052 64.265 38.1277 65.443C40.3305 67.8447 43.8863 70.4096 48.9138 70.4096C52.0091 70.4096 54.5822 69.6123 56.69 68.2193C58.7789 66.8456 60.2886 64.9771 61.4185 63.0174C63.1655 59.9913 64.1672 56.3889 64.9078 53.7182C65.0977 53.0458 65.2638 52.4358 65.4253 51.9074C66.2465 49.1984 67.4476 46.7679 68.5585 44.7793C69.1187 43.7899 69.6457 42.9205 70.1014 42.1808L70.1774 42.0559C70.5459 41.4729 70.8911 40.8752 71.2123 40.2643C71.3928 39.8984 71.4779 39.4919 71.4596 39.0834C71.4414 38.6748 71.3203 38.2778 71.1079 37.9299Z" fill="#212121"/>
</svg>
