<svg width="238" height="53" viewBox="0 0 238 53" fill="none" xmlns="http://www.w3.org/2000/svg">
<path d="M13.99 9.38711L15.2141 7.63073L15.1701 7.60006L15.1246 7.57163L13.99 9.38711ZM237.553 32.6775C238.001 31.5832 237.477 30.333 236.383 29.8851L218.551 22.586C217.456 22.1381 216.206 22.6621 215.758 23.7563C215.31 24.8506 215.834 26.1007 216.929 26.5486L232.779 33.0368L226.291 48.8874C225.843 49.9816 226.367 51.2318 227.461 51.6797C228.556 52.1276 229.806 51.6036 230.254 50.5094L237.553 32.6775ZM3.70667 0.435553C2.70401 -0.191096 1.38319 0.113719 0.756539 1.11638C0.129889 2.11904 0.434706 3.43986 1.43737 4.06651L3.70667 0.435553ZM4.29186 5.85053C5.29452 6.47718 6.61533 6.17236 7.24198 5.1697C7.86863 4.16704 7.56382 2.84622 6.56116 2.21957L4.29186 5.85053ZM12.2701 5.78761C11.2675 5.16096 9.94666 5.46578 9.32001 6.46844C8.69336 7.4711 8.99818 8.79192 10.0008 9.41857L12.2701 5.78761ZM15.4563 12.9729C16.4412 13.6272 17.77 13.3591 18.4242 12.3743C19.0785 11.3894 18.8105 10.0606 17.8256 9.40637L15.4563 12.9729ZM23.1996 12.833C22.1917 12.2148 20.8735 12.5306 20.2552 13.5385C19.637 14.5464 19.9528 15.8646 20.9607 16.4828L23.1996 12.833ZM26.5387 19.7855C27.565 20.3725 28.8729 20.0163 29.4599 18.99C30.0469 17.9636 29.6907 16.6557 28.6643 16.0687L26.5387 19.7855ZM34.2717 19.1694C33.229 18.6118 31.9318 19.0051 31.3742 20.0478C30.8167 21.0905 31.21 22.3877 32.2527 22.9452L34.2717 19.1694ZM38.0374 25.938C39.0948 26.4671 40.3809 26.0389 40.91 24.9815C41.4392 23.9242 41.011 22.6381 39.9536 22.1089L38.0374 25.938ZM45.6928 24.8874C44.622 24.3861 43.3475 24.8478 42.8462 25.9187C42.3449 26.9895 42.8066 28.264 43.8774 28.7653L45.6928 24.8874ZM49.7981 31.4444C50.8815 31.9179 52.1437 31.4235 52.6172 30.3401C53.0907 29.2567 52.5964 27.9945 51.5129 27.521L49.7981 31.4444ZM57.4027 30.006C56.3075 29.5604 55.0584 30.0869 54.6128 31.182C54.1671 32.2772 54.6936 33.5263 55.7888 33.972L57.4027 30.006ZM61.843 36.3461C62.9491 36.7637 64.1844 36.2055 64.602 35.0993C65.0195 33.9931 64.4613 32.7579 63.3551 32.3403L61.843 36.3461ZM69.3656 34.5218C68.2491 34.1327 67.0285 34.7223 66.6394 35.8388C66.2502 36.9553 66.8399 38.1759 67.9564 38.5651L69.3656 34.5218ZM74.1258 40.6268C75.252 40.9871 76.457 40.3663 76.8173 39.2401C77.1776 38.114 76.5567 36.909 75.4306 36.5487L74.1258 40.6268ZM81.5471 38.4187C80.412 38.0877 79.2235 38.7396 78.8925 39.8747C78.5615 41.0098 79.2134 42.1983 80.3485 42.5293L81.5471 38.4187ZM86.6217 44.2699C87.7651 44.571 88.9361 43.8883 89.2373 42.7449C89.5385 41.6015 88.8557 40.4305 87.7123 40.1293L86.6217 44.2699ZM93.9234 41.678C92.7725 41.4071 91.6199 42.1206 91.3491 43.2716C91.0783 44.4225 91.7918 45.5751 92.9427 45.8459L93.9234 41.678ZM99.2856 47.2496C100.443 47.4897 101.577 46.7458 101.817 45.588C102.057 44.4302 101.313 43.2971 100.155 43.057L99.2856 47.2496ZM106.419 44.2683C105.255 44.0595 104.143 44.8337 103.934 45.9975C103.725 47.1613 104.499 48.274 105.663 48.4828L106.419 44.2683ZM112.078 49.5437C113.247 49.7207 114.338 48.9164 114.515 47.7474C114.692 46.5783 113.888 45.4871 112.719 45.3102L112.078 49.5437ZM119.051 46.1798C117.877 46.0351 116.809 46.8691 116.664 48.0426C116.519 49.2161 117.353 50.2847 118.527 50.4294L119.051 46.1798ZM125.006 51.1369C126.183 51.2488 127.228 50.3854 127.34 49.2083C127.452 48.0312 126.589 46.9863 125.412 46.8744L125.006 51.1369ZM131.777 47.3897C130.597 47.3109 129.577 48.2033 129.498 49.3831C129.419 50.5628 130.311 51.5831 131.491 51.6619L131.777 47.3897ZM137.978 52.0036C139.16 52.0491 140.154 51.1282 140.2 49.9467C140.245 48.7652 139.324 47.7705 138.143 47.725L137.978 52.0036ZM144.526 47.8799C143.344 47.8681 142.376 48.8169 142.364 49.9993C142.352 51.1816 143.301 52.1496 144.484 52.1614L144.526 47.8799ZM151.004 52.1331C152.186 52.111 153.127 51.1347 153.105 49.9525C153.082 48.7704 152.106 47.83 150.924 47.8521L151.004 52.1331ZM157.303 47.641C156.122 47.6971 155.21 48.7 155.267 49.881C155.323 51.0621 156.326 51.974 157.507 51.9179L157.303 47.641ZM163.991 51.5164C165.17 51.4264 166.053 50.3976 165.963 49.2187C165.873 48.0398 164.844 47.157 163.665 47.2471L163.991 51.5164ZM170.029 46.6685C168.853 46.7925 168.001 47.8463 168.125 49.0221C168.249 50.198 169.302 51.0507 170.478 50.9266L170.029 46.6685ZM176.955 50.1485C178.127 49.9906 178.949 48.9126 178.791 47.7408C178.633 46.569 177.555 45.7472 176.383 45.9051L176.955 50.1485ZM182.679 44.9644C181.512 45.1559 180.721 46.257 180.913 47.4237C181.104 48.5905 182.205 49.3811 183.372 49.1897L182.679 44.9644ZM189.78 48.0436C190.941 47.8189 191.7 46.6956 191.475 45.5348C191.251 44.374 190.127 43.6152 188.967 43.8399L189.78 48.0436ZM195.237 42.5326C194.083 42.7903 193.357 43.9348 193.615 45.0887C193.873 46.2426 195.017 46.9691 196.171 46.7113L195.237 42.5326ZM202.477 45.2092C203.623 44.9191 204.317 43.7548 204.027 42.6085C203.737 41.4623 202.573 40.7682 201.427 41.0583L202.477 45.2092ZM207.601 39.4034C206.463 39.7254 205.802 40.9087 206.124 42.0464C206.446 43.1841 207.629 43.8454 208.767 43.5234L207.601 39.4034ZM215.012 41.6622C216.14 41.3089 216.769 40.1078 216.415 38.9794C216.062 37.8511 214.861 37.2228 213.733 37.5761L215.012 41.6622ZM219.784 35.5907C218.665 35.9745 218.07 37.1922 218.454 38.3106C218.837 39.429 220.055 40.0245 221.173 39.6407L219.784 35.5907ZM227.317 37.4395C228.425 37.0258 228.987 35.7925 228.574 34.6849C228.16 33.5772 226.927 33.0147 225.819 33.4284L227.317 37.4395ZM231.759 31.1199C230.663 31.5626 230.133 32.8102 230.576 33.9066C231.018 35.003 232.266 35.533 233.362 35.0903L231.759 31.1199ZM1.43737 4.06651L4.29186 5.85053L6.56116 2.21957L3.70667 0.435553L1.43737 4.06651ZM10.0008 9.41857L12.8553 11.2026L15.1246 7.57163L12.2701 5.78761L10.0008 9.41857ZM12.7658 11.1435C13.5853 11.7146 14.4828 12.3262 15.4563 12.9729L17.8256 9.40637C16.878 8.77687 16.0068 8.18323 15.2141 7.63073L12.7658 11.1435ZM20.9607 16.4828C22.6776 17.536 24.5388 18.6418 26.5387 19.7855L28.6643 16.0687C26.703 14.947 24.8796 13.8636 23.1996 12.833L20.9607 16.4828ZM32.2527 22.9452C34.0919 23.9287 36.0211 24.929 38.0374 25.938L39.9536 22.1089C37.9725 21.1175 36.0776 20.135 34.2717 19.1694L32.2527 22.9452ZM43.8774 28.7653C45.7867 29.6591 47.7609 30.5539 49.7981 31.4444L51.5129 27.521C49.5102 26.6456 47.5695 25.766 45.6928 24.8874L43.8774 28.7653ZM55.7888 33.972C57.7565 34.7727 59.775 35.5655 61.843 36.3461L63.3551 32.3403C61.322 31.5728 59.3373 30.7933 57.4027 30.006L55.7888 33.972ZM67.9564 38.5651C69.9717 39.2675 72.0286 39.9558 74.1258 40.6268L75.4306 36.5487C73.369 35.8891 71.3469 35.2124 69.3656 34.5218L67.9564 38.5651ZM80.3485 42.5293C82.4049 43.1289 84.4963 43.71 86.6217 44.2699L87.7123 40.1293C85.6237 39.5792 83.5683 39.008 81.5471 38.4187L80.3485 42.5293ZM92.9427 45.8459C95.0275 46.3365 97.1421 46.8052 99.2856 47.2496L100.155 43.057C98.0493 42.6205 95.9718 42.16 93.9234 41.678L92.9427 45.8459ZM105.663 48.4828C107.776 48.8618 109.914 49.2161 112.078 49.5437L112.719 45.3102C110.594 44.9885 108.494 44.6405 106.419 44.2683L105.663 48.4828ZM118.527 50.4294C120.664 50.6929 122.824 50.9294 125.006 51.1369L125.412 46.8744C123.27 46.6707 121.149 46.4385 119.051 46.1798L118.527 50.4294ZM131.491 51.6619C133.634 51.8052 135.797 51.9196 137.978 52.0036L138.143 47.725C136.002 47.6426 133.88 47.5303 131.777 47.3897L131.491 51.6619ZM144.484 52.1614C146.64 52.183 148.814 52.1741 151.004 52.1331L150.924 47.8521C148.775 47.8923 146.642 47.901 144.526 47.8799L144.484 52.1614ZM157.507 51.9179C159.653 51.816 161.815 51.6826 163.991 51.5164L163.665 47.2471C161.53 47.4101 159.41 47.541 157.303 47.641L157.507 51.9179ZM170.478 50.9266C172.624 50.7002 174.784 50.4413 176.955 50.1485L176.383 45.9051C174.253 46.1924 172.134 46.4464 170.029 46.6685L170.478 50.9266ZM183.372 49.1897C185.497 48.841 187.633 48.4594 189.78 48.0436L188.967 43.8399C186.86 44.2479 184.764 44.6223 182.679 44.9644L183.372 49.1897ZM196.171 46.7113C198.263 46.2439 200.366 45.7436 202.477 45.2092L201.427 41.0583C199.354 41.5828 197.291 42.0738 195.237 42.5326L196.171 46.7113ZM208.767 43.5234C210.841 42.9366 212.922 42.3165 215.012 41.6622L213.733 37.5761C211.681 38.2185 209.637 38.8273 207.601 39.4034L208.767 43.5234ZM221.173 39.6407C223.214 38.9404 225.262 38.2069 227.317 37.4395L225.819 33.4284C223.8 34.1824 221.788 34.9029 219.784 35.5907L221.173 39.6407ZM233.362 35.0903C234.373 34.6822 235.385 34.2658 236.399 33.8409L234.744 29.892C233.748 30.3096 232.753 30.7189 231.759 31.1199L233.362 35.0903Z" fill="white"/>
</svg>
