<svg width="73" height="73" viewBox="0 0 73 73" fill="none" xmlns="http://www.w3.org/2000/svg">
<path fill-rule="evenodd" clip-rule="evenodd" d="M72.0089 0.922852V12.865H34.1921V4.90357C34.1921 3.84782 34.6115 2.83531 35.358 2.08878C36.1045 1.34225 37.117 0.922852 38.1728 0.922852H72.0089ZM38.1728 4.90357H68.0282V8.88429H38.1728V4.90357ZM14.2885 68.0975V68.5871C14.2885 69.6429 13.8691 70.6554 13.1226 71.4019C12.376 72.1485 11.3635 72.5678 10.3078 72.5678H4.33668C3.28092 72.5678 2.26841 72.1485 1.52188 71.4019C0.775353 70.6554 0.355957 69.6429 0.355957 68.5871V46.7031C0.355957 45.6474 0.775353 44.6349 1.52188 43.8883C2.26841 43.1418 3.28092 42.7224 4.33668 42.7224H10.3078C11.2043 42.722 12.0746 43.0243 12.778 43.5802C13.4813 44.1361 13.9763 44.9132 14.183 45.7856C16.8182 44.8362 19.8973 43.7056 20.8388 43.2757C21.6389 42.9115 22.5624 42.7881 23.3307 42.7423C24.1236 42.7039 24.9181 42.7178 25.7092 42.7841C26.5949 42.8547 27.4769 42.9663 28.3524 43.1185L28.3981 43.1264L28.4121 43.1284H28.418L28.4539 43.1364L41.7694 46.1219L41.851 46.1498L41.8729 46.1578L41.9644 46.1856C42.5389 46.354 43.1191 46.5021 43.704 46.6295C44.8485 46.8783 46.2915 47.1111 47.635 47.1111C48.877 47.1111 50.1627 47.5749 50.8474 48.8328C51.4366 49.9116 51.2992 51.0978 51.0803 51.9179C50.8036 52.9409 50.2344 54.0157 49.5119 54.9293C50.4872 54.5611 51.556 54.1252 52.7024 53.6554L52.9472 53.5559C56.1776 52.2284 60.007 50.656 63.3867 50.0987C67.248 49.4598 70.0564 50.861 71.3302 53.3469C72.4647 55.5602 72.202 58.4642 70.4943 60.2137C70.0663 60.6536 69.4135 61.1153 68.7587 61.5393C68.0581 61.9951 67.1962 62.5066 66.2389 63.0519C64.0395 64.2835 61.8131 65.4661 59.5612 66.5988C54.8401 68.9932 49.892 71.3219 48.3197 71.8971C46.4965 72.5639 44.538 72.6276 42.6571 72.53C41.5212 72.4595 40.3871 72.3633 39.2556 72.2414C38.4271 72.1557 37.5978 72.0794 36.7676 72.0125C32.9302 71.7219 29.9845 70.7845 27.2736 69.9227L26.9432 69.8172C24.1408 68.9295 21.5334 68.1393 18.0801 68C17.2919 67.9681 15.7156 68.0298 14.2885 68.0975ZM22.4888 46.8982C22.6181 46.8385 22.9565 46.7529 23.5596 46.7171C24.1248 46.6832 24.7697 46.7051 25.4007 46.7529C26.1126 46.8094 26.8218 46.8964 27.5264 47.0136L27.598 47.0275L27.6537 47.0375H27.6597L40.7304 49.9693L40.82 49.9972C41.4923 50.1951 42.1714 50.369 42.8561 50.5186C44.0205 50.7734 45.5829 51.0401 47.1732 51.0859C47.0312 51.469 46.8406 51.8322 46.606 52.1667C46.2875 52.6284 45.9392 52.9847 45.6526 53.1897C44.8246 53.7828 44.1558 54.0296 43.7498 54.1351C43.6115 54.173 43.4704 54.1996 43.3278 54.2147H43.284L32.6117 54.0874L32.2336 58.0362L32.3391 58.0561L33.7502 58.3049C34.6797 58.4681 35.9555 58.6871 37.3448 58.914C40.0796 59.3598 43.3756 59.8534 45.2465 59.9669C46.5403 60.0465 48.045 59.6484 49.4442 59.1807C50.9031 58.6931 52.5531 58.0183 54.2131 57.3376C57.6306 55.9364 61.1117 54.5093 64.0355 54.0257C66.5633 53.6077 67.4649 54.5312 67.7874 55.1622C68.2511 56.0678 68.0003 57.0729 67.6441 57.4351C67.5585 57.5247 67.246 57.7775 66.5931 58.2014C65.9841 58.5935 65.1979 59.0652 64.2744 59.5887C62.1293 60.7896 59.958 61.943 57.7619 63.048C53.001 65.4623 48.2639 67.6775 46.9503 68.1592C45.8874 68.5493 44.5718 68.6429 42.8621 68.5553C41.8549 68.4959 40.8494 68.4103 39.8467 68.2985C38.9217 68.2012 37.9954 68.1163 37.0681 68.0438C33.7005 67.789 31.1409 66.9749 28.3961 66.1032L28.1474 66.0235C25.3051 65.1219 22.2639 64.1845 18.2413 64.0232C17.3357 63.9874 15.7235 64.0431 14.2885 64.1108V49.9773C17.0849 48.9761 21.2289 47.4734 22.4888 46.8982ZM10.3078 46.7011H4.33668V68.5851H10.3078V46.7011Z" fill="#212121"/>
<path d="M36.1824 16.8453C35.6546 16.8453 35.1483 17.055 34.7751 17.4283C34.4018 17.8016 34.1921 18.3078 34.1921 18.8357C34.1921 19.3636 34.4018 19.8698 34.7751 20.2431C35.1483 20.6164 35.6546 20.8261 36.1824 20.8261H48.1246C48.6525 20.8261 49.1587 20.6164 49.532 20.2431C49.9053 19.8698 50.115 19.3636 50.115 18.8357C50.115 18.3078 49.9053 17.8016 49.532 17.4283C49.1587 17.055 48.6525 16.8453 48.1246 16.8453H36.1824ZM42.1535 25.1491C42.6814 25.1491 43.1877 25.3588 43.5609 25.7321C43.9342 26.1053 44.1439 26.6116 44.1439 27.1395V31.1202C44.1439 31.6481 43.9342 32.1543 43.5609 32.5276C43.1877 32.9009 42.6814 33.1106 42.1535 33.1106C41.6257 33.1106 41.1194 32.9009 40.7461 32.5276C40.3729 32.1543 40.1632 31.6481 40.1632 31.1202V27.1395C40.1632 26.6116 40.3729 26.1053 40.7461 25.7321C41.1194 25.3588 41.6257 25.1491 42.1535 25.1491ZM50.3558 25.3899C49.9804 25.0274 49.4776 24.8268 48.9558 24.8313C48.4339 24.8358 47.9347 25.0452 47.5657 25.4142C47.1967 25.7832 46.9873 26.2824 46.9828 26.8043C46.9783 27.3262 47.1789 27.8289 47.5414 28.2043L50.3558 31.0187C50.5406 31.2036 50.76 31.3503 51.0015 31.4505C51.243 31.5506 51.5018 31.6022 51.7633 31.6023C52.0247 31.6024 52.2836 31.551 52.5252 31.451C52.7667 31.351 52.9862 31.2045 53.1712 31.0197C53.3561 30.8349 53.5028 30.6155 53.6029 30.374C53.7031 30.1325 53.7547 29.8736 53.7547 29.6122C53.7548 29.3508 53.7034 29.0919 53.6035 28.8503C53.5035 28.6088 53.357 28.3892 53.1722 28.2043L50.3558 25.3899ZM30.7945 31.361C30.4214 30.9878 30.2118 30.4816 30.2118 29.9538C30.2118 29.4261 30.4214 28.9199 30.7945 28.5467L33.6089 25.7303C33.9824 25.3571 34.4888 25.1475 35.0168 25.1477C35.5448 25.1479 36.0511 25.3578 36.4243 25.7313C36.7975 26.1048 37.007 26.6112 37.0069 27.1392C37.0067 27.6672 36.7968 28.1734 36.4233 28.5467L33.6089 31.361C33.2357 31.7342 32.7295 31.9438 32.2017 31.9438C31.674 31.9438 31.1678 31.7342 30.7945 31.361ZM44.1439 37.0913C44.1439 36.5634 43.9342 36.0571 43.5609 35.6839C43.1877 35.3106 42.6814 35.1009 42.1535 35.1009C41.6257 35.1009 41.1194 35.3106 40.7461 35.6839C40.3729 36.0571 40.1632 36.5634 40.1632 37.0913V39.0816C40.1632 39.6095 40.3729 40.1158 40.7461 40.489C41.1194 40.8623 41.6257 41.072 42.1535 41.072C42.6814 41.072 43.1877 40.8623 43.5609 40.489C43.9342 40.1158 44.1439 39.6095 44.1439 39.0816V37.0913ZM54.5077 32.3562C54.8809 31.9831 55.3871 31.7735 55.9149 31.7735C56.4427 31.7735 56.9488 31.9831 57.3221 32.3562L60.1364 35.1706C60.499 35.546 60.6996 36.0487 60.6951 36.5706C60.6905 37.0925 60.4812 37.5917 60.1122 37.9607C59.7432 38.3297 59.244 38.5391 58.7221 38.5436C58.2002 38.5481 57.6974 38.3475 57.3221 37.9849L54.5077 35.1706C54.1346 34.7973 53.9249 34.2912 53.9249 33.7634C53.9249 33.2356 54.1346 32.7295 54.5077 32.3562ZM23.8283 35.0153C23.4657 35.3907 23.2651 35.8935 23.2696 36.4154C23.2742 36.9372 23.4835 37.4364 23.8525 37.8055C24.2216 38.1745 24.7208 38.3838 25.2426 38.3883C25.7645 38.3929 26.2673 38.1923 26.6427 37.8297L29.457 35.0153C29.6419 34.8305 29.7887 34.6111 29.8888 34.3696C29.9889 34.1281 30.0405 33.8693 30.0406 33.6079C30.0407 33.3464 29.9893 33.0875 29.8893 32.846C29.7894 32.6044 29.6428 32.3849 29.458 32.2C29.2732 32.015 29.0538 31.8683 28.8123 31.7682C28.5708 31.6681 28.312 31.6165 28.0505 31.6164C27.7891 31.6163 27.5302 31.6677 27.2887 31.7677C27.0471 31.8676 26.8276 32.0142 26.6427 32.199L23.8283 35.0153Z" fill="#212121"/>
</svg>
