<svg width="87" height="88" viewBox="0 0 87 88" fill="none" xmlns="http://www.w3.org/2000/svg">
<path d="M34.115 1.50015C34.5979 1.66444 35.0697 1.85984 35.5272 2.08511L41.0325 4.79551C42.5265 5.5311 44.2775 5.5311 45.7714 4.79551L51.2767 2.08511C57.1241 -0.794 64.199 1.6126 67.0778 7.46033L67.3932 8.157L67.6628 8.87259L69.6391 14.6818C70.1755 16.2584 71.4137 17.4966 72.99 18.0329L78.7992 20.009C84.9702 22.1082 88.2709 28.8124 86.1718 34.9832C86.0075 35.4661 85.8122 35.9379 85.5869 36.3953L82.8763 41.9007C82.1407 43.3946 82.1407 45.1456 82.8763 46.6396L85.5869 52.1449C88.4662 57.9923 86.0594 65.0671 80.2116 67.946C79.7541 68.1713 79.2824 68.367 78.7992 68.5309L72.99 70.5072C71.4137 71.0437 70.1755 72.2818 69.6391 73.8582L67.6628 79.6674C65.5637 85.8384 58.8597 89.1391 52.6887 87.04C52.2059 86.8756 51.7342 86.6804 51.2767 86.4551L45.7714 83.7444C44.2775 83.0089 42.5265 83.0089 41.0325 83.7444L35.5272 86.4551C29.6795 89.3343 22.6049 86.9276 19.7258 81.0797C19.5005 80.6223 19.3051 80.1506 19.1409 79.6674L17.1647 73.8582C16.6284 72.2818 15.3903 71.0437 13.8136 70.5072L8.00443 68.5309C1.83357 66.4319 -1.46715 59.7279 0.631988 53.5569C0.796273 53.0741 0.991673 52.6024 1.21694 52.1449L3.92735 46.6396C4.66294 45.1456 4.66294 43.3946 3.92735 41.9007L1.21694 36.3953C-1.66216 30.5477 0.744431 23.4731 6.59217 20.594C7.04979 20.3687 7.52153 20.1733 8.00443 20.009L13.8136 18.0329C15.3903 17.4966 16.6284 16.2584 17.1647 14.6818L19.1409 8.87259C21.24 2.70173 27.9442 -0.598987 34.115 1.50015ZM25.2354 10.9458L23.2592 16.755C22.0793 20.2236 19.3554 22.9475 15.8868 24.1274L10.0776 26.1035C9.85813 26.1782 9.64372 26.2671 9.4357 26.3695C6.77761 27.6781 5.68371 30.8938 6.99241 33.5519L9.70281 39.057C11.3211 42.344 11.3211 46.1962 9.70281 49.4832L6.99241 54.9881C6.89001 55.1963 6.80117 55.4109 6.7265 55.6302C5.77233 58.4352 7.2727 61.4823 10.0776 62.4368L15.8868 64.4126C19.3554 65.5928 22.0793 68.3168 23.2592 71.7853L25.2354 77.5945C25.3101 77.8138 25.3989 78.0284 25.5013 78.2361C26.81 80.8944 30.0257 81.9883 32.6837 80.6798L38.1889 77.9691C41.4759 76.3508 45.3281 76.3508 48.6151 77.9691L54.12 80.6798C54.3281 80.7819 54.5427 80.8707 54.762 80.9454C57.567 81.8995 60.6141 80.3991 61.5686 77.5945L63.5445 71.7853C64.7247 68.3168 67.4486 65.5928 70.9171 64.4126L76.7263 62.4368C76.9456 62.3621 77.1602 62.2732 77.3679 62.1707C80.0262 60.8621 81.1201 57.6464 79.8116 54.9881L77.101 49.4832C75.4826 46.1962 75.4826 42.344 77.101 39.057L79.8116 33.5519C79.9137 33.3439 80.0026 33.1295 80.0773 32.91C81.0313 30.1051 79.5309 27.0577 76.7263 26.1035L70.9171 24.1274C67.4486 22.9475 64.7247 20.2236 63.5445 16.755L61.5686 10.9458L61.4458 10.6205L61.3025 10.3039L61.0356 9.82401C59.594 7.51844 56.6121 6.63367 54.12 7.86057L48.6151 10.571C45.3281 12.1893 41.4759 12.1893 38.1889 10.571L32.6837 7.86057C32.4758 7.75818 32.2613 7.66934 32.0418 7.59466C29.2369 6.6405 26.1895 8.14086 25.2354 10.9458ZM35.0349 54.5225L58.2928 31.2649C59.5498 30.0079 61.5875 30.0079 62.8445 31.2649C63.9874 32.4077 64.0912 34.1958 63.1561 35.4559L62.8445 35.8168L37.0945 61.5668C35.8679 62.7938 33.918 62.8123 32.6683 61.6866L32.3459 61.3514L21.6167 48.4764C20.4787 47.1108 20.6632 45.0813 22.0288 43.9431C23.2703 42.9088 25.0605 42.9672 26.2308 44.0122L26.5621 44.3555L35.0349 54.5225Z" fill="#212121"/>
</svg>
