<svg width="100" height="103" viewBox="0 0 100 103" fill="none" xmlns="http://www.w3.org/2000/svg">
<path d="M70.52 56.9779L99.3738 85.6266L82.3588 102.437L53.71 73.7879V69.0729L65.805 56.9779H70.52ZM75.1838 44.0116L70.2125 39.0916L45.6638 63.6916V73.7879L16.81 102.642L0 85.6266L28.6488 56.9779H38.745L42.7425 52.9804L23.0625 33.2491H16.4L1.99875 18.6941L15.4263 5.2666L29.7763 19.6166V26.3304L49.7125 46.0104L63.345 32.3779L58.425 27.2016L65.0875 20.4879H51.455L48.1238 17.1566L65.0875 0.141602L68.47 3.5241V17.1566L75.1838 10.3916L91.9938 27.2016C97.58 32.8391 97.58 42.0129 91.9938 47.5991L81.8975 37.2979L75.1838 44.0116Z" fill="#222222"/>
</svg>
