<svg width="75" height="75" viewBox="0 0 75 75" fill="none" xmlns="http://www.w3.org/2000/svg">
<path d="M40.6261 74.2132C38.2143 74.4478 35.7855 74.4478 33.3738 74.2132L34.0879 66.8469C36.0246 67.0359 37.9752 67.0359 39.9119 66.8469L40.6261 74.2132ZM26.2546 72.8036L28.4007 65.7222C26.5485 65.1601 24.7564 64.4165 23.0503 63.5023L19.5537 70.025C21.6739 71.1609 23.9161 72.0969 26.2546 72.7999V72.8036ZM13.5261 65.9885L18.2253 60.2724C16.7246 59.0405 15.3478 57.665 14.1144 56.1656L8.39769 60.8569C9.93325 62.729 11.6538 64.4494 13.5261 65.9885ZM4.36081 54.8337L10.8842 51.3411C9.96945 49.6341 9.22579 47.8408 8.6641 45.9875L1.582 48.1333C2.28519 50.4517 3.21599 52.6985 4.36081 54.8337ZM0.172235 41.0149L7.53925 40.3009C7.35065 38.3643 7.35065 36.414 7.53925 34.4774L0.175936 33.7633C-0.0586453 36.1748 -0.0586453 38.6034 0.175936 41.0149H0.172235ZM1.582 26.6449L8.6641 28.7908C9.23022 26.9224 9.97765 25.1317 10.8842 23.4409L4.36081 19.9446C3.21721 22.0811 2.28395 24.3255 1.582 26.6449ZM8.39769 13.9176L14.1144 18.6164C15.3464 17.1158 16.722 15.7391 18.2216 14.5059L13.5298 8.78972C11.6575 10.3251 9.93695 12.0455 8.39769 13.9176ZM19.5537 4.75325L23.0503 11.276C24.7563 10.3616 26.5485 9.61798 28.4007 9.05611L26.2546 1.9747C23.9361 2.678 21.6891 3.60871 19.5537 4.75325ZM33.3738 0.565079C35.7855 0.330521 38.2143 0.330521 40.6261 0.565079L39.9119 7.93137C37.9752 7.74279 36.0247 7.74279 34.0879 7.93137L33.3738 0.568779V0.565079ZM47.7452 1.9747L45.5991 9.05611C47.4677 9.62218 49.2585 10.3695 50.9532 11.276L54.4462 4.75325C52.3094 3.60971 50.0648 2.67654 47.7452 1.9747ZM60.4737 8.78972L55.7745 14.5059C57.2768 15.7379 58.6532 17.1143 59.8854 18.6127L65.6021 13.9176C64.0637 12.0455 62.346 10.328 60.4737 8.78972ZM69.639 19.9446L63.1156 23.4409C64.0222 25.1317 64.7696 26.9224 65.3357 28.7908L72.4178 26.6449C71.7145 24.3266 70.7837 22.0798 69.639 19.9446ZM73.8276 33.7633L66.4606 34.4774C66.6496 36.414 66.6496 38.3643 66.4606 40.3009L73.8239 41.0186C74.0587 38.6059 74.0624 36.1761 73.8276 33.7633ZM72.4178 48.1333L65.3357 45.9875C64.7738 47.8407 64.0302 49.634 63.1156 51.3411L69.639 54.8337C70.7749 52.7137 71.7111 50.4716 72.4141 48.1333H72.4178ZM65.6021 60.8606L59.8854 56.1619C58.6534 57.6624 57.2778 59.0391 55.7782 60.2724L60.4737 65.9885C62.346 64.4531 64.0629 62.7327 65.6021 60.8606ZM54.4462 70.025L50.9532 63.5023C49.246 64.4167 47.4525 65.1603 45.5991 65.7222L47.7452 72.8036C50.0637 72.1003 52.3108 71.1696 54.4462 70.025Z" fill="#2E2B29"/>
<path fill-rule="evenodd" clip-rule="evenodd" d="M25.8994 37.3889C25.8994 34.4452 27.0689 31.622 29.1507 29.5405C31.2324 27.4589 34.0559 26.2896 36.9999 26.2896C39.9439 26.2896 42.7674 27.4589 44.8491 29.5405C46.9309 31.622 48.1004 34.4452 48.1004 37.3889C48.1004 40.3327 46.9309 43.1558 44.8491 45.2374C42.7674 47.3189 39.9439 48.4883 36.9999 48.4883C34.0559 48.4883 31.2324 47.3189 29.1507 45.2374C27.0689 43.1558 25.8994 40.3327 25.8994 37.3889ZM36.9999 41.0887C36.0185 41.0887 35.0774 40.6989 34.3835 40.0051C33.6896 39.3112 33.2997 38.3702 33.2997 37.3889C33.2997 36.4077 33.6896 35.4666 34.3835 34.7728C35.0774 34.0789 36.0185 33.6891 36.9999 33.6891C37.9812 33.6891 38.9224 34.0789 39.6163 34.7728C40.3102 35.4666 40.7 36.4077 40.7 37.3889C40.7 38.3702 40.3102 39.3112 39.6163 40.0051C38.9224 40.6989 37.9812 41.0887 36.9999 41.0887Z" fill="#2E2B29"/>
<path fill-rule="evenodd" clip-rule="evenodd" d="M36.9998 15.1904C31.1117 15.1904 25.4648 17.5292 21.3013 21.6923C17.1379 25.8554 14.7988 31.5017 14.7988 37.3892C14.7988 43.2767 17.1379 48.923 21.3013 53.0861C25.4648 57.2492 31.1117 59.588 36.9998 59.588C42.8878 59.588 48.5347 57.2492 52.6982 53.0861C56.8617 48.923 59.2007 43.2767 59.2007 37.3892C59.2007 31.5017 56.8617 25.8554 52.6982 21.6923C48.5347 17.5292 42.8878 15.1904 36.9998 15.1904ZM22.1991 37.3892C22.1991 41.3142 23.7585 45.0784 26.5341 47.8538C29.3098 50.6292 33.0744 52.1884 36.9998 52.1884C40.9252 52.1884 44.6897 50.6292 47.4654 47.8538C50.2411 45.0784 51.8004 41.3142 51.8004 37.3892C51.8004 33.4642 50.2411 29.7 47.4654 26.9246C44.6897 24.1492 40.9252 22.59 36.9998 22.59C33.0744 22.59 29.3098 24.1492 26.5341 26.9246C23.7585 29.7 22.1991 33.4642 22.1991 37.3892Z" fill="#2E2B29"/>
</svg>
