<svg width="74" height="74" viewBox="0 0 74 74" fill="none" xmlns="http://www.w3.org/2000/svg">
<path d="M34.04 7.4C29.378 7.844 24.864 9.361 20.868 11.84L17.168 5.439C22.0297 2.35513 27.5635 0.489368 33.3 0M57.461 15.725C54.094 12.543 50.061 10.101 45.658 8.621L48.1 1.443C53.65 3.108 58.793 6.142 62.9 10.286M12.358 20.017C9.78237 23.8125 8.08834 28.136 7.4 32.671L0 31.635C0.74 25.9 2.923 20.35 6.29 15.651M74 37V39.442L66.6 38.85V37C66.6 33.004 65.897 29.082 64.343 25.382L71.114 22.422C73.075 27.047 74 32.005 74 37ZM14.8 56.61L9.25 61.457C5.44151 57.0973 2.65984 51.9386 1.11 46.361L8.029 44.4C9.361 48.914 11.692 53.095 14.8 56.61ZM37.518 74H37C31.45 74 25.9 72.816 20.868 70.559L24.161 63.788C28.194 65.675 32.56 66.6 37 66.6H37.703M55.5 70.3H48.1V48.1H70.3V55.5H60.754L70.818 65.712L65.601 70.929L55.5 61.05" fill="#1C1D1D"/>
</svg>
