<svg width="91" height="44" viewBox="0 0 91 44" fill="none" xmlns="http://www.w3.org/2000/svg">
<path d="M69.7026 43.2309C67.0085 43.2588 64.3374 42.7316 61.8553 41.6819C59.3732 40.6323 57.1331 39.0826 55.2742 37.1293L45.3346 26.8529L35.3951 37.1293C31.5163 40.9863 26.2722 43.1508 20.8064 43.1508C15.3405 43.1508 10.0964 40.9863 6.21763 37.1293C2.49952 32.9842 0.443804 27.6081 0.446263 22.0359C0.409222 16.3968 2.59894 10.9716 6.53826 6.9425C8.42742 5.03477 10.675 3.52056 13.1514 2.48722C15.6278 1.45389 18.284 0.921875 20.9667 0.921875C23.6494 0.921875 26.3055 1.45389 28.7819 2.48722C31.2583 3.52056 33.5059 5.03477 35.3951 6.9425L45.3346 17.2188L55.2742 6.9425C57.1634 5.03477 59.411 3.52056 61.8874 2.48722C64.3638 1.45389 67.0199 0.921875 69.7026 0.921875C72.3853 0.921875 75.0415 1.45389 77.5179 2.48722C79.9943 3.52056 82.2419 5.03477 84.131 6.9425C87.9911 11.0167 90.1431 16.4192 90.1431 22.0359C90.1431 27.6525 87.9911 33.055 84.131 37.1293C80.2885 40.9527 75.1183 43.1391 69.7026 43.2309ZM49.8235 22.0359L59.7631 32.6334C62.4082 35.2565 65.9802 36.728 69.7026 36.728C73.425 36.728 76.997 35.2565 79.6422 32.6334C82.2729 29.7327 83.7303 25.9546 83.7303 22.0359C83.7303 18.1172 82.2729 14.3391 79.6422 11.4384C76.997 8.81524 73.425 7.34375 69.7026 7.34375C65.9802 7.34375 62.4082 8.81524 59.7631 11.4384L49.8235 22.0359ZM20.9667 7.26363C19.111 7.22822 17.2685 7.58125 15.5569 8.30013C13.8453 9.01902 12.3025 10.0879 11.0271 11.4384C8.34814 14.3149 6.85835 18.1022 6.85835 22.0359C6.85835 25.9696 8.34814 29.7568 11.0271 32.6334C13.6723 35.2565 17.2443 36.728 20.9667 36.728C24.6891 36.728 28.2611 35.2565 30.9062 32.6334L40.8458 22.0359L30.9062 11.4384C28.2086 8.88489 24.6759 7.40109 20.9667 7.26363Z" fill="#212121"/>
</svg>
