<svg width="73" height="77" viewBox="0 0 73 77" fill="none" xmlns="http://www.w3.org/2000/svg">
<path d="M0 9.04454V76.143H24.3333V69.8525H16.2222V63.562H24.3333V57.2716H8.11111V50.9811H24.3333V44.6906H16.2222V38.4001H24.3333V32.1096H8.11111V25.8192H24.3333V9.04454H30.4167V25.8192H36.5V17.4318H42.5833V25.8192H48.6667V9.04454H54.75V25.8192H60.8333V17.4318H66.9167V25.8192H73V0.657227H8.11111C5.95991 0.657227 3.89682 1.54089 2.37569 3.11381C0.854561 4.68674 0 6.82008 0 9.04454ZM12.1667 17.4318C11.0911 17.4318 10.0595 16.99 9.29896 16.2036C8.53839 15.4171 8.11111 14.3504 8.11111 13.2382C8.11111 12.126 8.53839 11.0593 9.29896 10.2728C10.0595 9.48637 11.0911 9.04454 12.1667 9.04454C13.2423 9.04454 14.2738 9.48637 15.0344 10.2728C15.7949 11.0593 16.2222 12.126 16.2222 13.2382C16.2222 14.3504 15.7949 15.4171 15.0344 16.2036C14.2738 16.99 13.2423 17.4318 12.1667 17.4318Z" fill="#E58B57"/>
</svg>
