<svg width="79" height="82" viewBox="0 0 79 82" fill="none" xmlns="http://www.w3.org/2000/svg">
<path d="M41.9606 60.943C52.8896 60.943 61.7493 52.0832 61.7493 41.1542C61.7493 30.2251 52.8896 21.3654 41.9606 21.3654C31.0315 21.3654 22.1718 30.2251 22.1718 41.1542C22.1718 52.0832 31.0315 60.943 41.9606 60.943Z" stroke="#212121" stroke-width="3.82" stroke-linecap="round" stroke-linejoin="round"/>
<path d="M34.733 35.0307C43.6352 35.0307 50.8519 27.814 50.8519 18.9118C50.8519 10.0096 43.6352 2.79297 34.733 2.79297C25.8308 2.79297 18.6142 10.0096 18.6142 18.9118C18.6142 27.814 25.8308 35.0307 34.733 35.0307Z" stroke="#212121" stroke-width="3.82" stroke-linecap="round" stroke-linejoin="round"/>
<path d="M60.881 43.5272C69.7832 43.5272 76.9998 36.3106 76.9998 27.4084C76.9998 18.5062 69.7832 11.2896 60.881 11.2896C51.9788 11.2896 44.7622 18.5062 44.7622 27.4084C44.7622 36.3106 51.9788 43.5272 60.881 43.5272Z" stroke="#212121" stroke-width="3.82" stroke-linecap="round" stroke-linejoin="round"/>
<path d="M60.881 71.0189C69.7832 71.0189 76.9998 63.8022 76.9998 54.9C76.9998 45.9978 69.7832 38.7812 60.881 38.7812C51.9788 38.7812 44.7622 45.9978 44.7622 54.9C44.7622 63.8022 51.9788 71.0189 60.881 71.0189Z" stroke="#212121" stroke-width="3.82" stroke-linecap="round" stroke-linejoin="round"/>
<path d="M34.733 79.5146C43.6352 79.5146 50.8519 72.298 50.8519 63.3958C50.8519 54.4936 43.6352 47.277 34.733 47.277C25.8308 47.277 18.6142 54.4936 18.6142 63.3958C18.6142 72.298 25.8308 79.5146 34.733 79.5146Z" stroke="#212121" stroke-width="3.82" stroke-linecap="round" stroke-linejoin="round"/>
<path d="M18.5749 57.2726C27.4771 57.2726 34.6937 50.056 34.6937 41.1538C34.6937 32.2516 27.4771 25.035 18.5749 25.035C9.6727 25.035 2.45605 32.2516 2.45605 41.1538C2.45605 50.056 9.6727 57.2726 18.5749 57.2726Z" stroke="#212121" stroke-width="3.82" stroke-linecap="round" stroke-linejoin="round"/>
</svg>
