<svg width="1148" height="418" viewBox="0 0 1148 418" fill="none" xmlns="http://www.w3.org/2000/svg">
<path d="M1.70508 34.247H0.705078C0.705078 34.7992 1.15279 35.247 1.70508 35.247V34.247ZM1146.3 34.247V35.247C1146.85 35.247 1147.3 34.7992 1147.3 34.247H1146.3ZM51.4699 416.587H50.4699V417.587H51.4699V416.587ZM1096.53 416.587V417.587H1097.53V416.587H1096.53ZM1096.53 34.247H1097.53V33.247H1096.53V34.247ZM983.631 67.4939V66.4939H982.631V67.4939H983.631ZM1072.38 67.4939H1073.38V66.4939H1072.38V67.4939ZM1072.38 266.976V267.976H1073.38V266.976H1072.38ZM983.631 266.976H982.631V267.976H983.631V266.976ZM988.607 72.481V71.481H987.607V72.481H988.607ZM1067.4 72.481H1068.4V71.481H1067.4V72.481ZM1067.4 261.989V262.989H1068.4V261.989H1067.4ZM988.607 261.989H987.607V262.989H988.607V261.989ZM993.584 77.468V76.468H992.584V77.468H993.584ZM1062.42 77.468H1063.42V76.468H1062.42V77.468ZM1062.42 257.002V258.002H1063.42V257.002H1062.42ZM993.584 257.002H992.584V258.002H993.584V257.002ZM666.894 266.976V267.976H667.894V266.976H666.894ZM578.147 266.976H577.147V267.976H578.147V266.976ZM578.147 67.4939V66.4939H577.147V67.4939H578.147ZM666.894 67.4939H667.894V66.4939H666.894V67.4939ZM661.918 261.989V262.989H662.918V261.989H661.918ZM583.124 261.989H582.124V262.989H583.124V261.989ZM583.124 72.481V71.481H582.124V72.481H583.124ZM661.918 72.481H662.918V71.481H661.918V72.481ZM656.941 257.002V258.002H657.941V257.002H656.941ZM588.1 257.002H587.1V258.002H588.1V257.002ZM588.1 77.468V76.468H587.1V77.468H588.1ZM656.941 77.468H657.941V76.468H656.941V77.468ZM576.488 266.976V267.976H577.488V266.976H576.488ZM487.741 266.976H486.741V267.976H487.741V266.976ZM487.741 67.4939V66.4939H486.741V67.4939H487.741ZM576.488 67.4939H577.488V66.4939H576.488V67.4939ZM568.194 258.664V259.664H569.194V258.664H568.194ZM496.035 258.664H495.035V259.664H496.035V258.664ZM496.035 75.8057V74.8057H495.035V75.8057H496.035ZM568.194 75.8057H569.194V74.8057H568.194V75.8057ZM563.218 253.677V254.677H564.218V253.677H563.218ZM501.012 253.677H500.012V254.677H501.012V253.677ZM501.012 80.7927V79.7927H500.012V80.7927H501.012ZM563.218 80.7927H564.218V79.7927H563.218V80.7927ZM83.6677 150.611L82.6677 150.611L82.6669 151.611H83.6677V150.611ZM83.734 67.4939V66.4939H82.7348L82.734 67.4931L83.734 67.4939ZM272.907 67.4939L273.907 67.4947L273.907 66.4939H272.907V67.4939ZM264.546 142.3V143.3H265.545L265.546 142.301L264.546 142.3ZM91.9618 142.3L90.9618 142.299L90.9608 143.3H91.9618V142.3ZM92.0282 75.8057V74.8057H91.0292L91.0282 75.8047L92.0282 75.8057ZM264.612 75.8057L265.612 75.8067L265.613 74.8057H264.612V75.8057ZM259.57 137.313V138.313H260.568L260.57 137.314L259.57 137.313ZM96.9383 137.313L95.9383 137.311L95.9371 138.313H96.9383V137.313ZM97.0046 80.7927V79.7927H96.0058L96.0046 80.7915L97.0046 80.7927ZM259.636 80.7927L260.636 80.7939L260.637 79.7927H259.636V80.7927ZM51.2163 416.587C51.2163 417.139 51.664 417.587 52.2163 417.587C52.7686 417.587 53.2163 417.139 53.2163 416.587H51.2163ZM53.2163 34.247C53.2163 33.6947 52.7686 33.247 52.2163 33.247C51.664 33.247 51.2163 33.6947 51.2163 34.247H53.2163ZM71.7526 416.587C71.7526 417.139 72.2003 417.587 72.7526 417.587C73.3049 417.587 73.7526 417.139 73.7526 416.587H71.7526ZM73.7526 34.247C73.7526 33.6947 73.3049 33.247 72.7526 33.247C72.2003 33.247 71.7526 33.6947 71.7526 34.247H73.7526ZM92.2889 416.587C92.2889 417.139 92.7366 417.587 93.2889 417.587C93.8411 417.587 94.2889 417.139 94.2889 416.587H92.2889ZM94.2889 150.611C94.2889 150.059 93.8411 149.611 93.2889 149.611C92.7366 149.611 92.2889 150.059 92.2889 150.611H94.2889ZM92.2889 67.4939C92.2889 68.0462 92.7366 68.4939 93.2889 68.4939C93.8411 68.4939 94.2889 68.0462 94.2889 67.4939H92.2889ZM94.2889 34.247C94.2889 33.6947 93.8411 33.247 93.2889 33.247C92.7366 33.247 92.2889 33.6947 92.2889 34.247H94.2889ZM112.825 416.587C112.825 417.139 113.273 417.587 113.825 417.587C114.377 417.587 114.825 417.139 114.825 416.587H112.825ZM114.825 150.611C114.825 150.059 114.377 149.611 113.825 149.611C113.273 149.611 112.825 150.059 112.825 150.611H114.825ZM112.825 67.4939C112.825 68.0462 113.273 68.4939 113.825 68.4939C114.377 68.4939 114.825 68.0462 114.825 67.4939H112.825ZM114.825 34.247C114.825 33.6947 114.377 33.247 113.825 33.247C113.273 33.247 112.825 33.6947 112.825 34.247H114.825ZM133.361 416.587C133.361 417.139 133.809 417.587 134.361 417.587C134.914 417.587 135.361 417.139 135.361 416.587H133.361ZM135.361 150.611C135.361 150.059 134.914 149.611 134.361 149.611C133.809 149.611 133.361 150.059 133.361 150.611H135.361ZM133.361 67.4939C133.361 68.0462 133.809 68.4939 134.361 68.4939C134.914 68.4939 135.361 68.0462 135.361 67.4939H133.361ZM135.361 34.247C135.361 33.6947 134.914 33.247 134.361 33.247C133.809 33.247 133.361 33.6947 133.361 34.247H135.361ZM153.898 416.587C153.898 417.139 154.345 417.587 154.898 417.587C155.45 417.587 155.898 417.139 155.898 416.587H153.898ZM155.898 150.611C155.898 150.059 155.45 149.611 154.898 149.611C154.345 149.611 153.898 150.059 153.898 150.611H155.898ZM153.898 67.4939C153.898 68.0462 154.345 68.4939 154.898 68.4939C155.45 68.4939 155.898 68.0462 155.898 67.4939H153.898ZM155.898 34.247C155.898 33.6947 155.45 33.247 154.898 33.247C154.345 33.247 153.898 33.6947 153.898 34.247H155.898ZM174.434 416.587C174.434 417.139 174.882 417.587 175.434 417.587C175.986 417.587 176.434 417.139 176.434 416.587H174.434ZM176.434 150.611C176.434 150.059 175.986 149.611 175.434 149.611C174.882 149.611 174.434 150.059 174.434 150.611H176.434ZM174.434 67.4939C174.434 68.0462 174.882 68.4939 175.434 68.4939C175.986 68.4939 176.434 68.0462 176.434 67.4939H174.434ZM176.434 34.247C176.434 33.6947 175.986 33.247 175.434 33.247C174.882 33.247 174.434 33.6947 174.434 34.247H176.434ZM194.97 416.587C194.97 417.139 195.418 417.587 195.97 417.587C196.523 417.587 196.97 417.139 196.97 416.587H194.97ZM196.97 150.611C196.97 150.059 196.523 149.611 195.97 149.611C195.418 149.611 194.97 150.059 194.97 150.611H196.97ZM194.97 67.4939C194.97 68.0462 195.418 68.4939 195.97 68.4939C196.523 68.4939 196.97 68.0462 196.97 67.4939H194.97ZM196.97 34.247C196.97 33.6947 196.523 33.247 195.97 33.247C195.418 33.247 194.97 33.6947 194.97 34.247H196.97ZM215.506 416.587C215.506 417.139 215.954 417.587 216.506 417.587C217.059 417.587 217.506 417.139 217.506 416.587H215.506ZM217.506 150.611C217.506 150.059 217.059 149.611 216.506 149.611C215.954 149.611 215.506 150.059 215.506 150.611H217.506ZM215.506 67.4939C215.506 68.0462 215.954 68.4939 216.506 68.4939C217.059 68.4939 217.506 68.0462 217.506 67.4939H215.506ZM217.506 34.247C217.506 33.6947 217.059 33.247 216.506 33.247C215.954 33.247 215.506 33.6947 215.506 34.247H217.506ZM236.043 416.587C236.043 417.139 236.49 417.587 237.043 417.587C237.595 417.587 238.043 417.139 238.043 416.587H236.043ZM238.043 150.611C238.043 150.059 237.595 149.611 237.043 149.611C236.49 149.611 236.043 150.059 236.043 150.611H238.043ZM236.043 67.4939C236.043 68.0462 236.49 68.4939 237.043 68.4939C237.595 68.4939 238.043 68.0462 238.043 67.4939H236.043ZM238.043 34.247C238.043 33.6947 237.595 33.247 237.043 33.247C236.49 33.247 236.043 33.6947 236.043 34.247H238.043ZM256.579 416.587C256.579 417.139 257.027 417.587 257.579 417.587C258.131 417.587 258.579 417.139 258.579 416.587H256.579ZM258.579 150.611C258.579 150.059 258.131 149.611 257.579 149.611C257.027 149.611 256.579 150.059 256.579 150.611H258.579ZM256.579 67.4939C256.579 68.0462 257.027 68.4939 257.579 68.4939C258.131 68.4939 258.579 68.0462 258.579 67.4939H256.579ZM258.579 34.247C258.579 33.6947 258.131 33.247 257.579 33.247C257.027 33.247 256.579 33.6947 256.579 34.247H258.579ZM277.115 416.587C277.115 417.139 277.563 417.587 278.115 417.587C278.668 417.587 279.115 417.139 279.115 416.587H277.115ZM279.115 34.247C279.115 33.6947 278.668 33.247 278.115 33.247C277.563 33.247 277.115 33.6947 277.115 34.247H279.115ZM297.652 416.587C297.652 417.139 298.099 417.587 298.652 417.587C299.204 417.587 299.652 417.139 299.652 416.587H297.652ZM299.652 34.247C299.652 33.6947 299.204 33.247 298.652 33.247C298.099 33.247 297.652 33.6947 297.652 34.247H299.652ZM318.188 416.587C318.188 417.139 318.636 417.587 319.188 417.587C319.74 417.587 320.188 417.139 320.188 416.587H318.188ZM320.188 34.247C320.188 33.6947 319.74 33.247 319.188 33.247C318.636 33.247 318.188 33.6947 318.188 34.247H320.188ZM338.724 416.587C338.724 417.139 339.172 417.587 339.724 417.587C340.276 417.587 340.724 417.139 340.724 416.587H338.724ZM340.724 34.247C340.724 33.6947 340.276 33.247 339.724 33.247C339.172 33.247 338.724 33.6947 338.724 34.247H340.724ZM359.26 416.587C359.26 417.139 359.708 417.587 360.26 417.587C360.813 417.587 361.26 417.139 361.26 416.587H359.26ZM361.26 34.247C361.26 33.6947 360.813 33.247 360.26 33.247C359.708 33.247 359.26 33.6947 359.26 34.247H361.26ZM379.797 416.587C379.797 417.139 380.244 417.587 380.797 417.587C381.349 417.587 381.797 417.139 381.797 416.587H379.797ZM381.797 34.247C381.797 33.6947 381.349 33.247 380.797 33.247C380.244 33.247 379.797 33.6947 379.797 34.247H381.797ZM400.333 416.587C400.333 417.139 400.781 417.587 401.333 417.587C401.885 417.587 402.333 417.139 402.333 416.587H400.333ZM402.333 34.247C402.333 33.6947 401.885 33.247 401.333 33.247C400.781 33.247 400.333 33.6947 400.333 34.247H402.333ZM420.869 416.587C420.869 417.139 421.317 417.587 421.869 417.587C422.421 417.587 422.869 417.139 422.869 416.587H420.869ZM422.869 34.247C422.869 33.6947 422.421 33.247 421.869 33.247C421.317 33.247 420.869 33.6947 420.869 34.247H422.869ZM441.405 416.587C441.405 417.139 441.853 417.587 442.405 417.587C442.958 417.587 443.405 417.139 443.405 416.587H441.405ZM443.405 34.247C443.405 33.6947 442.958 33.247 442.405 33.247C441.853 33.247 441.405 33.6947 441.405 34.247H443.405ZM461.942 416.587C461.942 417.139 462.389 417.587 462.942 417.587C463.494 417.587 463.942 417.139 463.942 416.587H461.942ZM463.942 34.247C463.942 33.6947 463.494 33.247 462.942 33.247C462.389 33.247 461.942 33.6947 461.942 34.247H463.942ZM482.478 416.587C482.478 417.139 482.926 417.587 483.478 417.587C484.03 417.587 484.478 417.139 484.478 416.587H482.478ZM484.478 34.247C484.478 33.6947 484.03 33.247 483.478 33.247C482.926 33.247 482.478 33.6947 482.478 34.247H484.478ZM503.014 416.587C503.014 417.139 503.462 417.587 504.014 417.587C504.566 417.587 505.014 417.139 505.014 416.587H503.014ZM505.014 266.976C505.014 266.423 504.566 265.976 504.014 265.976C503.462 265.976 503.014 266.423 503.014 266.976H505.014ZM503.014 67.4939C503.014 68.0462 503.462 68.4939 504.014 68.4939C504.566 68.4939 505.014 68.0462 505.014 67.4939H503.014ZM505.014 34.247C505.014 33.6947 504.566 33.247 504.014 33.247C503.462 33.247 503.014 33.6947 503.014 34.247H505.014ZM523.55 416.587C523.55 417.139 523.998 417.587 524.55 417.587C525.103 417.587 525.55 417.139 525.55 416.587H523.55ZM525.55 266.976C525.55 266.423 525.103 265.976 524.55 265.976C523.998 265.976 523.55 266.423 523.55 266.976H525.55ZM523.55 67.4939C523.55 68.0462 523.998 68.4939 524.55 68.4939C525.103 68.4939 525.55 68.0462 525.55 67.4939H523.55ZM525.55 34.247C525.55 33.6947 525.103 33.247 524.55 33.247C523.998 33.247 523.55 33.6947 523.55 34.247H525.55ZM544.087 416.587C544.087 417.139 544.534 417.587 545.087 417.587C545.639 417.587 546.087 417.139 546.087 416.587H544.087ZM546.087 266.976C546.087 266.423 545.639 265.976 545.087 265.976C544.534 265.976 544.087 266.423 544.087 266.976H546.087ZM544.087 67.4939C544.087 68.0462 544.534 68.4939 545.087 68.4939C545.639 68.4939 546.087 68.0462 546.087 67.4939H544.087ZM546.087 34.247C546.087 33.6947 545.639 33.247 545.087 33.247C544.534 33.247 544.087 33.6947 544.087 34.247H546.087ZM564.623 416.587C564.623 417.139 565.071 417.587 565.623 417.587C566.175 417.587 566.623 417.139 566.623 416.587H564.623ZM566.623 266.976C566.623 266.423 566.175 265.976 565.623 265.976C565.071 265.976 564.623 266.423 564.623 266.976H566.623ZM564.623 67.4939C564.623 68.0462 565.071 68.4939 565.623 68.4939C566.175 68.4939 566.623 68.0462 566.623 67.4939H564.623ZM566.623 34.247C566.623 33.6947 566.175 33.247 565.623 33.247C565.071 33.247 564.623 33.6947 564.623 34.247H566.623ZM585.159 416.587C585.159 417.139 585.607 417.587 586.159 417.587C586.712 417.587 587.159 417.139 587.159 416.587H585.159ZM587.159 266.976C587.159 266.423 586.712 265.976 586.159 265.976C585.607 265.976 585.159 266.423 585.159 266.976H587.159ZM585.159 67.4939C585.159 68.0462 585.607 68.4939 586.159 68.4939C586.712 68.4939 587.159 68.0462 587.159 67.4939H585.159ZM587.159 34.247C587.159 33.6947 586.712 33.247 586.159 33.247C585.607 33.247 585.159 33.6947 585.159 34.247H587.159ZM605.696 416.587C605.696 417.139 606.143 417.587 606.696 417.587C607.248 417.587 607.696 417.139 607.696 416.587H605.696ZM607.696 266.976C607.696 266.423 607.248 265.976 606.696 265.976C606.143 265.976 605.696 266.423 605.696 266.976H607.696ZM605.696 67.4939C605.696 68.0462 606.143 68.4939 606.696 68.4939C607.248 68.4939 607.696 68.0462 607.696 67.4939H605.696ZM607.696 34.247C607.696 33.6947 607.248 33.247 606.696 33.247C606.143 33.247 605.696 33.6947 605.696 34.247H607.696ZM626.232 416.587C626.232 417.139 626.68 417.587 627.232 417.587C627.784 417.587 628.232 417.139 628.232 416.587H626.232ZM628.232 266.976C628.232 266.423 627.784 265.976 627.232 265.976C626.68 265.976 626.232 266.423 626.232 266.976H628.232ZM626.232 67.4939C626.232 68.0462 626.68 68.4939 627.232 68.4939C627.784 68.4939 628.232 68.0462 628.232 67.4939H626.232ZM628.232 34.247C628.232 33.6947 627.784 33.247 627.232 33.247C626.68 33.247 626.232 33.6947 626.232 34.247H628.232ZM646.768 416.587C646.768 417.139 647.216 417.587 647.768 417.587C648.32 417.587 648.768 417.139 648.768 416.587H646.768ZM648.768 266.976C648.768 266.423 648.32 265.976 647.768 265.976C647.216 265.976 646.768 266.423 646.768 266.976H648.768ZM646.768 67.4939C646.768 68.0462 647.216 68.4939 647.768 68.4939C648.32 68.4939 648.768 68.0462 648.768 67.4939H646.768ZM648.768 34.247C648.768 33.6947 648.32 33.247 647.768 33.247C647.216 33.247 646.768 33.6947 646.768 34.247H648.768ZM667.304 416.587C667.304 417.139 667.752 417.587 668.304 417.587C668.857 417.587 669.304 417.139 669.304 416.587H667.304ZM669.304 34.247C669.304 33.6947 668.857 33.247 668.304 33.247C667.752 33.247 667.304 33.6947 667.304 34.247H669.304ZM687.841 416.587C687.841 417.139 688.288 417.587 688.841 417.587C689.393 417.587 689.841 417.139 689.841 416.587H687.841ZM689.841 34.247C689.841 33.6947 689.393 33.247 688.841 33.247C688.288 33.247 687.841 33.6947 687.841 34.247H689.841ZM708.377 416.587C708.377 417.139 708.825 417.587 709.377 417.587C709.929 417.587 710.377 417.139 710.377 416.587H708.377ZM710.377 34.247C710.377 33.6947 709.929 33.247 709.377 33.247C708.825 33.247 708.377 33.6947 708.377 34.247H710.377ZM728.913 416.587C728.913 417.139 729.361 417.587 729.913 417.587C730.465 417.587 730.913 417.139 730.913 416.587H728.913ZM730.913 34.247C730.913 33.6947 730.465 33.247 729.913 33.247C729.361 33.247 728.913 33.6947 728.913 34.247H730.913ZM749.449 416.587C749.449 417.139 749.897 417.587 750.449 417.587C751.002 417.587 751.449 417.139 751.449 416.587H749.449ZM751.449 34.247C751.449 33.6947 751.002 33.247 750.449 33.247C749.897 33.247 749.449 33.6947 749.449 34.247H751.449ZM769.986 416.587C769.986 417.139 770.433 417.587 770.986 417.587C771.538 417.587 771.986 417.139 771.986 416.587H769.986ZM771.986 34.247C771.986 33.6947 771.538 33.247 770.986 33.247C770.433 33.247 769.986 33.6947 769.986 34.247H771.986ZM790.522 416.587C790.522 417.139 790.97 417.587 791.522 417.587C792.074 417.587 792.522 417.139 792.522 416.587H790.522ZM792.522 34.247C792.522 33.6947 792.074 33.247 791.522 33.247C790.97 33.247 790.522 33.6947 790.522 34.247H792.522ZM811.058 416.587C811.058 417.139 811.506 417.587 812.058 417.587C812.611 417.587 813.058 417.139 813.058 416.587H811.058ZM813.058 34.247C813.058 33.6947 812.611 33.247 812.058 33.247C811.506 33.247 811.058 33.6947 811.058 34.247H813.058ZM831.594 416.587C831.594 417.139 832.042 417.587 832.594 417.587C833.147 417.587 833.594 417.139 833.594 416.587H831.594ZM833.594 34.247C833.594 33.6947 833.147 33.247 832.594 33.247C832.042 33.247 831.594 33.6947 831.594 34.247H833.594ZM852.131 416.587C852.131 417.139 852.578 417.587 853.131 417.587C853.683 417.587 854.131 417.139 854.131 416.587H852.131ZM854.131 34.247C854.131 33.6947 853.683 33.247 853.131 33.247C852.578 33.247 852.131 33.6947 852.131 34.247H854.131ZM872.667 416.587C872.667 417.139 873.115 417.587 873.667 417.587C874.219 417.587 874.667 417.139 874.667 416.587H872.667ZM874.667 34.247C874.667 33.6947 874.219 33.247 873.667 33.247C873.115 33.247 872.667 33.6947 872.667 34.247H874.667ZM893.203 416.587C893.203 417.139 893.651 417.587 894.203 417.587C894.756 417.587 895.203 417.139 895.203 416.587H893.203ZM895.203 34.247C895.203 33.6947 894.756 33.247 894.203 33.247C893.651 33.247 893.203 33.6947 893.203 34.247H895.203ZM913.74 416.587C913.74 417.139 914.187 417.587 914.74 417.587C915.292 417.587 915.74 417.139 915.74 416.587H913.74ZM915.74 34.247C915.74 33.6947 915.292 33.247 914.74 33.247C914.187 33.247 913.74 33.6947 913.74 34.247H915.74ZM934.276 416.587C934.276 417.139 934.723 417.587 935.276 417.587C935.828 417.587 936.276 417.139 936.276 416.587H934.276ZM936.276 34.247C936.276 33.6947 935.828 33.247 935.276 33.247C934.723 33.247 934.276 33.6947 934.276 34.247H936.276ZM954.812 416.587C954.812 417.139 955.26 417.587 955.812 417.587C956.364 417.587 956.812 417.139 956.812 416.587H954.812ZM956.812 34.247C956.812 33.6947 956.364 33.247 955.812 33.247C955.26 33.247 954.812 33.6947 954.812 34.247H956.812ZM975.348 416.587C975.348 417.139 975.796 417.587 976.348 417.587C976.901 417.587 977.348 417.139 977.348 416.587H975.348ZM977.348 34.247C977.348 33.6947 976.901 33.247 976.348 33.247C975.796 33.247 975.348 33.6947 975.348 34.247H977.348ZM995.885 416.587C995.885 417.139 996.332 417.587 996.885 417.587C997.437 417.587 997.885 417.139 997.885 416.587H995.885ZM997.885 266.976C997.885 266.423 997.437 265.976 996.885 265.976C996.332 265.976 995.885 266.423 995.885 266.976H997.885ZM995.885 67.4939C995.885 68.0462 996.332 68.4939 996.885 68.4939C997.437 68.4939 997.885 68.0462 997.885 67.4939H995.885ZM997.885 34.247C997.885 33.6947 997.437 33.247 996.885 33.247C996.332 33.247 995.885 33.6947 995.885 34.247H997.885ZM1016.42 416.587C1016.42 417.139 1016.87 417.587 1017.42 417.587C1017.97 417.587 1018.42 417.139 1018.42 416.587H1016.42ZM1018.42 266.976C1018.42 266.423 1017.97 265.976 1017.42 265.976C1016.87 265.976 1016.42 266.423 1016.42 266.976H1018.42ZM1016.42 67.4939C1016.42 68.0462 1016.87 68.4939 1017.42 68.4939C1017.97 68.4939 1018.42 68.0462 1018.42 67.4939H1016.42ZM1018.42 34.247C1018.42 33.6947 1017.97 33.247 1017.42 33.247C1016.87 33.247 1016.42 33.6947 1016.42 34.247H1018.42ZM1036.96 416.587C1036.96 417.139 1037.4 417.587 1037.96 417.587C1038.51 417.587 1038.96 417.139 1038.96 416.587H1036.96ZM1038.96 266.976C1038.96 266.423 1038.51 265.976 1037.96 265.976C1037.4 265.976 1036.96 266.423 1036.96 266.976H1038.96ZM1036.96 67.4939C1036.96 68.0462 1037.4 68.4939 1037.96 68.4939C1038.51 68.4939 1038.96 68.0462 1038.96 67.4939H1036.96ZM1038.96 34.247C1038.96 33.6947 1038.51 33.247 1037.96 33.247C1037.4 33.247 1036.96 33.6947 1036.96 34.247H1038.96ZM1057.49 416.587C1057.49 417.139 1057.94 417.587 1058.49 417.587C1059.05 417.587 1059.49 417.139 1059.49 416.587H1057.49ZM1059.49 266.976C1059.49 266.423 1059.05 265.976 1058.49 265.976C1057.94 265.976 1057.49 266.423 1057.49 266.976H1059.49ZM1057.49 67.4939C1057.49 68.0462 1057.94 68.4939 1058.49 68.4939C1059.05 68.4939 1059.49 68.0462 1059.49 67.4939H1057.49ZM1059.49 34.247C1059.49 33.6947 1059.05 33.247 1058.49 33.247C1057.94 33.247 1057.49 33.6947 1057.49 34.247H1059.49ZM1078.03 416.587C1078.03 417.139 1078.48 417.587 1079.03 417.587C1079.58 417.587 1080.03 417.139 1080.03 416.587H1078.03ZM1080.03 34.247C1080.03 33.6947 1079.58 33.247 1079.03 33.247C1078.48 33.247 1078.03 33.6947 1078.03 34.247H1080.03ZM1146.3 1H1147.3C1147.3 0.447715 1146.85 0 1146.3 0V1ZM1.70508 1V0C1.43986 0 1.18551 0.105357 0.997971 0.292893C0.810435 0.48043 0.705078 0.734784 0.705078 1L1.70508 1ZM83.7009 67.4939V66.4939C83.1486 66.4939 82.7009 66.9416 82.7009 67.4939H83.7009ZM272.873 67.4939H273.873C273.873 66.9416 273.426 66.4939 272.873 66.4939V67.4939ZM272.873 150.611V151.611C273.426 151.611 273.873 151.164 273.873 150.611H272.873ZM83.7009 150.611H82.7009C82.7009 151.164 83.1486 151.611 83.7009 151.611V150.611ZM264.629 75.8057L265.629 75.8069C265.629 75.5415 265.524 75.2868 265.337 75.099C265.149 74.9112 264.894 74.8057 264.629 74.8057V75.8057ZM259.653 80.7927L260.653 80.7942C260.653 80.5287 260.548 80.274 260.36 80.0861C260.173 79.8983 259.918 79.7927 259.653 79.7927V80.7927ZM51.4699 33.247H1.70508V35.247H51.4699V33.247ZM2.70508 34.247V17.6235H0.705078V34.247H2.70508ZM1.70508 18.6235H1146.3V16.6235H1.70508V18.6235ZM1145.3 17.6235V34.247H1147.3V17.6235H1145.3ZM1146.3 33.247H51.4699V35.247H1146.3V33.247ZM50.4699 34.247V416.587H52.4699V34.247H50.4699ZM51.4699 417.587H1096.53V415.587H51.4699V417.587ZM1097.53 416.587V34.247H1095.53V416.587H1097.53ZM1096.53 33.247H51.4699V35.247H1096.53V33.247ZM983.631 68.4939H1072.38V66.4939H983.631V68.4939ZM1071.38 67.4939V266.976H1073.38V67.4939H1071.38ZM1072.38 265.976H983.631V267.976H1072.38V265.976ZM984.631 266.976V67.4939H982.631V266.976H984.631ZM988.607 73.481H1067.4V71.481H988.607V73.481ZM1066.4 72.481V261.989H1068.4V72.481H1066.4ZM1067.4 260.989H988.607V262.989H1067.4V260.989ZM989.607 261.989V72.481H987.607V261.989H989.607ZM993.584 78.468H1062.42V76.468H993.584V78.468ZM1061.42 77.468V257.002H1063.42V77.468H1061.42ZM1062.42 256.002H993.584V258.002H1062.42V256.002ZM994.584 257.002V77.468H992.584V257.002H994.584ZM666.894 265.976H578.147V267.976H666.894V265.976ZM579.147 266.976V67.4939H577.147V266.976H579.147ZM578.147 68.4939H666.894V66.4939H578.147V68.4939ZM665.894 67.4939V266.976H667.894V67.4939H665.894ZM661.918 260.989H583.124V262.989H661.918V260.989ZM584.124 261.989V72.481H582.124V261.989H584.124ZM583.124 73.481H661.918V71.481H583.124V73.481ZM660.918 72.481V261.989H662.918V72.481H660.918ZM656.941 256.002H588.1V258.002H656.941V256.002ZM589.1 257.002V77.468H587.1V257.002H589.1ZM588.1 78.468H656.941V76.468H588.1V78.468ZM655.941 77.468V257.002H657.941V77.468H655.941ZM576.488 265.976H487.741V267.976H576.488V265.976ZM488.741 266.976V67.4939H486.741V266.976H488.741ZM487.741 68.4939H576.488V66.4939H487.741V68.4939ZM575.488 67.4939V266.976H577.488V67.4939H575.488ZM568.194 257.664H496.035V259.664H568.194V257.664ZM497.035 258.664V75.8057H495.035V258.664H497.035ZM496.035 76.8057H568.194V74.8057H496.035V76.8057ZM567.194 75.8057V258.664H569.194V75.8057H567.194ZM563.218 252.677H501.012V254.677H563.218V252.677ZM502.012 253.677V80.7927H500.012V253.677H502.012ZM501.012 81.7927H563.218V79.7927H501.012V81.7927ZM562.218 80.7927V253.677H564.218V80.7927H562.218ZM272.857 149.611H83.6677V151.611H272.857V149.611ZM84.6677 150.612L84.734 67.4947L82.734 67.4931L82.6677 150.611L84.6677 150.612ZM83.734 68.4939H272.907V66.4939H83.734V68.4939ZM271.907 67.4931L271.84 150.611L273.84 150.612L273.907 67.4947L271.907 67.4931ZM264.546 141.3H91.9618V143.3H264.546V141.3ZM92.9618 142.301L93.0282 75.8067L91.0282 75.8047L90.9618 142.299L92.9618 142.301ZM92.0282 76.8057H264.612V74.8057H92.0282V76.8057ZM263.612 75.8047L263.546 142.299L265.546 142.301L265.612 75.8067L263.612 75.8047ZM259.57 136.313H96.9383V138.313H259.57V136.313ZM97.9383 137.314L98.0046 80.7939L96.0046 80.7915L95.9383 137.311L97.9383 137.314ZM97.0046 81.7927H259.636V79.7927H97.0046V81.7927ZM258.636 80.7915L258.57 137.311L260.57 137.314L260.636 80.7939L258.636 80.7915ZM53.2163 416.587V34.247H51.2163V416.587H53.2163ZM73.7526 416.587V34.247H71.7526V416.587H73.7526ZM94.2889 416.587V150.611H92.2889V416.587H94.2889ZM94.2889 67.4939V34.247H92.2889V67.4939H94.2889ZM114.825 416.587V150.611H112.825V416.587H114.825ZM114.825 67.4939V34.247H112.825V67.4939H114.825ZM135.361 416.587V150.611H133.361V416.587H135.361ZM135.361 67.4939V34.247H133.361V67.4939H135.361ZM155.898 416.587V150.611H153.898V416.587H155.898ZM155.898 67.4939V34.247H153.898V67.4939H155.898ZM176.434 416.587V150.611H174.434V416.587H176.434ZM176.434 67.4939V34.247H174.434V67.4939H176.434ZM196.97 416.587V150.611H194.97V416.587H196.97ZM196.97 67.4939V34.247H194.97V67.4939H196.97ZM217.506 416.587V150.611H215.506V416.587H217.506ZM217.506 67.4939V34.247H215.506V67.4939H217.506ZM238.043 416.587V150.611H236.043V416.587H238.043ZM238.043 67.4939V34.247H236.043V67.4939H238.043ZM258.579 416.587V150.611H256.579V416.587H258.579ZM258.579 67.4939V34.247H256.579V67.4939H258.579ZM279.115 416.587V34.247H277.115V416.587H279.115ZM299.652 416.587V34.247H297.652V416.587H299.652ZM320.188 416.587V34.247H318.188V416.587H320.188ZM340.724 416.587V34.247H338.724V416.587H340.724ZM361.26 416.587V34.247H359.26V416.587H361.26ZM381.797 416.587V34.247H379.797V416.587H381.797ZM402.333 416.587V34.247H400.333V416.587H402.333ZM422.869 416.587V34.247H420.869V416.587H422.869ZM443.405 416.587V34.247H441.405V416.587H443.405ZM463.942 416.587V34.247H461.942V416.587H463.942ZM484.478 416.587V34.247H482.478V416.587H484.478ZM505.014 416.587V266.976H503.014V416.587H505.014ZM505.014 67.4939V34.247H503.014V67.4939H505.014ZM525.55 416.587V266.976H523.55V416.587H525.55ZM525.55 67.4939V34.247H523.55V67.4939H525.55ZM546.087 416.587V266.976H544.087V416.587H546.087ZM546.087 67.4939V34.247H544.087V67.4939H546.087ZM566.623 416.587V266.976H564.623V416.587H566.623ZM566.623 67.4939V34.247H564.623V67.4939H566.623ZM587.159 416.587V266.976H585.159V416.587H587.159ZM587.159 67.4939V34.247H585.159V67.4939H587.159ZM607.696 416.587V266.976H605.696V416.587H607.696ZM607.696 67.4939V34.247H605.696V67.4939H607.696ZM628.232 416.587V266.976H626.232V416.587H628.232ZM628.232 67.4939V34.247H626.232V67.4939H628.232ZM648.768 416.587V266.976H646.768V416.587H648.768ZM648.768 67.4939V34.247H646.768V67.4939H648.768ZM669.304 416.587V34.247H667.304V416.587H669.304ZM689.841 416.587V34.247H687.841V416.587H689.841ZM710.377 416.587V34.247H708.377V416.587H710.377ZM730.913 416.587V34.247H728.913V416.587H730.913ZM751.449 416.587V34.247H749.449V416.587H751.449ZM771.986 416.587V34.247H769.986V416.587H771.986ZM792.522 416.587V34.247H790.522V416.587H792.522ZM813.058 416.587V34.247H811.058V416.587H813.058ZM833.594 416.587V34.247H831.594V416.587H833.594ZM854.131 416.587V34.247H852.131V416.587H854.131ZM874.667 416.587V34.247H872.667V416.587H874.667ZM895.203 416.587V34.247H893.203V416.587H895.203ZM915.74 416.587V34.247H913.74V416.587H915.74ZM936.276 416.587V34.247H934.276V416.587H936.276ZM956.812 416.587V34.247H954.812V416.587H956.812ZM977.348 416.587V34.247H975.348V416.587H977.348ZM997.885 416.587V266.976H995.885V416.587H997.885ZM997.885 67.4939V34.247H995.885V67.4939H997.885ZM1018.42 416.587V266.976H1016.42V416.587H1018.42ZM1018.42 67.4939V34.247H1016.42V67.4939H1018.42ZM1038.96 416.587V266.976H1036.96V416.587H1038.96ZM1038.96 67.4939V34.247H1036.96V67.4939H1038.96ZM1059.49 416.587V266.976H1057.49V416.587H1059.49ZM1059.49 67.4939V34.247H1057.49V67.4939H1059.49ZM1080.03 416.587V34.247H1078.03V416.587H1080.03ZM1147.3 17.6235V1H1145.3V17.6235H1147.3ZM1146.3 0H1.70508V2H1146.3V0ZM0.705078 1L0.705078 17.6235H2.70508V1L0.705078 1ZM83.7009 68.4939H272.873V66.4939H83.7009V68.4939ZM271.873 67.4939V150.611H273.873V67.4939H271.873ZM272.873 149.611H83.7009V151.611H272.873V149.611ZM84.7009 150.611V67.4939H82.7009V150.611H84.7009ZM92.0282 76.8057H264.629V74.8057H92.0282V76.8057ZM263.629 75.8044L263.546 142.298L265.546 142.301L265.629 75.8069L263.629 75.8044ZM97.0046 81.7927H259.653V79.7927H97.0046V81.7927ZM258.653 80.7912L258.57 137.311L260.57 137.314L260.653 80.7942L258.653 80.7912Z" fill="black"/>
</svg>
