<svg width="91" height="43" viewBox="0 0 91 43" fill="none" xmlns="http://www.w3.org/2000/svg">
<path d="M70.1309 42.3607C67.4367 42.3887 64.7656 41.8614 62.2835 40.8118C59.8014 39.7622 57.5613 38.2125 55.7024 36.2592L45.7629 25.9828L35.8233 36.2592C31.9445 40.1162 26.7004 42.2807 21.2346 42.2807C15.7688 42.2807 10.5247 40.1162 6.64585 36.2592C2.92774 32.1141 0.872027 26.738 0.874486 21.1658C0.837445 15.5267 3.02717 10.1015 6.96648 6.07238C8.85564 4.16465 11.1032 2.65044 13.5796 1.61711C16.056 0.58377 18.7122 0.0517578 21.3949 0.0517578C24.0776 0.0517578 26.7338 0.58377 29.2101 1.61711C31.6865 2.65044 33.9341 4.16465 35.8233 6.07238L45.7629 16.3487L55.7024 6.07238C57.5916 4.16465 59.8392 2.65044 62.3156 1.61711C64.792 0.58377 67.4481 0.0517578 70.1309 0.0517578C72.8136 0.0517578 75.4697 0.58377 77.9461 1.61711C80.4225 2.65044 82.6701 4.16465 84.5593 6.07238C88.4194 10.1466 90.5713 15.5491 90.5713 21.1658C90.5713 26.7824 88.4194 32.1849 84.5593 36.2592C80.7167 40.0825 75.5465 42.269 70.1309 42.3607ZM50.2517 21.1658L60.1913 31.7633C62.8365 34.3864 66.4084 35.8579 70.1309 35.8579C73.8533 35.8579 77.4252 34.3864 80.0704 31.7633C82.7011 28.8626 84.1586 25.0844 84.1586 21.1658C84.1586 17.2471 82.7011 13.4689 80.0704 10.5683C77.4252 7.94513 73.8533 6.47363 70.1309 6.47363C66.4084 6.47363 62.8365 7.94513 60.1913 10.5683L50.2517 21.1658ZM21.3949 6.39352C19.5393 6.3581 17.6967 6.71113 15.9851 7.43002C14.2735 8.1489 12.7307 9.2178 11.4553 10.5683C8.77637 13.4448 7.28657 17.2321 7.28657 21.1658C7.28657 25.0995 8.77637 28.8867 11.4553 31.7633C14.1005 34.3864 17.6725 35.8579 21.3949 35.8579C25.1173 35.8579 28.6893 34.3864 31.3345 31.7633L41.274 21.1658L31.3345 10.5683C28.6368 8.01478 25.1041 6.53098 21.3949 6.39352Z" fill="#212121"/>
</svg>
