<svg width="215" height="119" viewBox="0 0 215 119" fill="none" xmlns="http://www.w3.org/2000/svg">
<path d="M19.0886 5.38558L18.4327 2.51276L18.5412 2.48799L18.6512 2.47148L19.0886 5.38558ZM214.149 95.7379C215.234 96.9516 215.129 98.8144 213.915 99.8986L194.136 117.567C192.922 118.651 191.06 118.546 189.975 117.332C188.891 116.118 188.996 114.255 190.21 113.171L207.791 97.4664L192.086 79.8854C191.002 78.6717 191.107 76.8088 192.321 75.7247C193.534 74.6405 195.397 74.7455 196.481 75.9592L214.149 95.7379ZM3.94415 11.8662C2.35754 12.2285 0.777648 11.2359 0.415369 9.64933C0.0530914 8.06272 1.04561 6.48283 2.63222 6.12055L3.94415 11.8662ZM6.58234 5.21861C8.16895 4.85633 9.74884 5.84885 10.1111 7.43546C10.4734 9.02207 9.48088 10.602 7.89427 10.9642L6.58234 5.21861ZM15.7945 9.16035C14.2079 9.52262 12.628 8.53011 12.2657 6.94349C11.9034 5.35688 12.896 3.77699 14.4826 3.41471L15.7945 9.16035ZM23.0702 1.85976C24.6848 1.65541 26.1593 2.79862 26.3636 4.41319C26.568 6.02776 25.4248 7.50228 23.8102 7.70662L23.0702 1.85976ZM32.2056 6.84942C30.5829 6.97405 29.1664 5.75965 29.0418 4.13699C28.9172 2.51432 30.1316 1.09785 31.7542 0.973218L32.2056 6.84942ZM40.4879 0.539662C42.115 0.504609 43.4624 1.79519 43.4975 3.42226C43.5325 5.04933 42.242 6.39675 40.6149 6.43181L40.4879 0.539662ZM49.026 6.50467C47.3998 6.43964 46.1343 5.06867 46.1993 3.44252C46.2643 1.81637 47.6353 0.550838 49.2615 0.615864L49.026 6.50467ZM58.0453 1.26262C59.6632 1.43816 60.8325 2.89208 60.657 4.51003C60.4815 6.12798 59.0275 7.29729 57.4096 7.12175L58.0453 1.26262ZM65.7206 8.33332C64.1202 8.03806 63.0621 6.50129 63.3574 4.90085C63.6527 3.30041 65.1894 2.24235 66.7899 2.53761L65.7206 8.33332ZM75.429 4.48622C77.001 4.90769 77.9336 6.52365 77.5121 8.09558C77.0907 9.6675 75.4747 10.6001 73.9028 10.1787L75.429 4.48622ZM81.8959 12.679C80.3642 12.129 79.5684 10.4415 80.1183 8.90976C80.6683 7.37805 82.3558 6.58219 83.8875 7.13215L81.8959 12.679ZM92.0917 10.4705C93.5724 11.146 94.225 12.8939 93.5495 14.3745C92.874 15.8551 91.1261 16.5078 89.6455 15.8323L92.0917 10.4705ZM97.1101 19.6125C95.6888 18.8197 95.1793 17.0248 95.9721 15.6035C96.7649 14.1822 98.5597 13.6727 99.981 14.4655L97.1101 19.6125ZM107.517 19.054C108.874 19.9513 109.248 21.7794 108.35 23.1371C107.453 24.4949 105.625 24.8681 104.267 23.9708L107.517 19.054ZM111.123 28.8478C109.828 27.8615 109.578 26.0125 110.565 24.718C111.551 23.4234 113.4 23.1735 114.694 24.1598L111.123 28.8478ZM121.521 29.6847C122.757 30.743 122.902 32.6032 121.843 33.8395C120.785 35.0759 118.925 35.2202 117.688 34.1619L121.521 29.6847ZM123.995 39.8254C122.808 38.712 122.749 36.8472 123.862 35.6602C124.975 34.4732 126.84 34.4135 128.027 35.5269L123.995 39.8254ZM134.272 41.594C135.421 42.746 135.419 44.6118 134.267 45.7613C133.115 46.9108 131.249 46.9087 130.1 45.7567L134.272 41.594ZM136.076 51.8825C134.95 50.7075 134.99 48.8421 136.165 47.7161C137.34 46.5901 139.205 46.6298 140.331 47.8048L136.076 51.8825ZM146.276 54.0634C147.395 55.2457 147.343 57.1108 146.161 58.2292C144.978 59.3475 143.113 59.2957 141.995 58.1134L146.276 54.0634ZM147.944 64.3673C146.816 63.1942 146.853 61.3288 148.026 60.2008C149.199 59.0728 151.064 59.1094 152.192 60.2825L147.944 64.3673ZM158.183 66.3812C159.339 67.5267 159.348 69.3924 158.203 70.5485C157.057 71.7046 155.191 71.7133 154.035 70.5678L158.183 66.3812ZM160.357 76.592C159.154 75.4961 159.067 73.6324 160.163 72.4292C161.259 71.226 163.122 71.1389 164.326 72.2348L160.357 76.592ZM170.72 77.7268C171.989 78.7462 172.191 80.601 171.172 81.8696C170.152 83.1382 168.297 83.3402 167.029 82.3208L170.72 77.7268ZM174.145 87.5883C172.797 86.6775 172.442 84.8458 173.353 83.4971C174.263 82.1484 176.095 81.7934 177.444 82.7042L174.145 87.5883ZM184.546 86.9994C185.982 87.7661 186.524 89.5513 185.757 90.9869C184.99 92.4224 183.205 92.9647 181.77 92.198L184.546 86.9994ZM189.901 95.9439C188.385 95.3542 187.633 93.6466 188.223 92.1297C188.812 90.6128 190.52 89.8611 192.037 90.4508L189.901 95.9439ZM199.895 92.9406C201.474 93.3312 202.439 94.9286 202.048 96.5085C201.657 98.0884 200.06 99.0524 198.48 98.6618L199.895 92.9406ZM207.283 100.254C205.666 100.065 204.509 98.601 204.699 96.9846C204.888 95.3682 206.352 94.2113 207.968 94.4005L207.283 100.254ZM2.63222 6.12055L6.58234 5.21861L7.89427 10.9642L3.94415 11.8662L2.63222 6.12055ZM14.4826 3.41471L18.4327 2.51276L19.7446 8.2584L15.7945 9.16035L14.4826 3.41471ZM18.6512 2.47148C20.1415 2.24777 21.6144 2.04401 23.0702 1.85976L23.8102 7.70662C22.4001 7.88509 20.9722 8.08262 19.5261 8.29969L18.6512 2.47148ZM31.7542 0.973218C34.7399 0.743893 37.65 0.600805 40.4879 0.539662L40.6149 6.43181C37.8882 6.49055 35.0864 6.62816 32.2056 6.84942L31.7542 0.973218ZM49.2615 0.615864C52.2742 0.736349 55.2006 0.953974 58.0453 1.26262L57.4096 7.12175C54.7005 6.82782 51.9077 6.61991 49.026 6.50467L49.2615 0.615864ZM66.7899 2.53761C69.763 3.08611 72.6405 3.73856 75.429 4.48622L73.9028 10.1787C71.2657 9.47162 68.5407 8.85358 65.7206 8.33332L66.7899 2.53761ZM83.8875 7.13215C86.7179 8.14841 89.4497 9.2651 92.0917 10.4705L89.6455 15.8323C87.149 14.6933 84.5688 13.6387 81.8959 12.679L83.8875 7.13215ZM99.981 14.4655C102.581 15.9156 105.089 17.4498 107.517 19.054L104.267 23.9708C101.956 22.4434 99.5737 20.9866 97.1101 19.6125L99.981 14.4655ZM114.694 24.1598C117.041 25.9477 119.313 27.7946 121.521 29.6847L117.688 34.1619C115.556 32.3369 113.372 30.5612 111.123 28.8478L114.694 24.1598ZM128.027 35.5269C130.158 37.5254 132.235 39.5534 134.272 41.594L130.1 45.7567C128.1 43.7527 126.07 41.7711 123.995 39.8254L128.027 35.5269ZM140.331 47.8048C142.337 49.898 144.317 51.9924 146.276 54.0634L141.995 58.1134C140.032 56.0388 138.066 53.9592 136.076 51.8825L140.331 47.8048ZM152.192 60.2825C154.19 62.3601 156.181 64.3978 158.183 66.3812L154.035 70.5678C151.989 68.5405 149.963 66.4666 147.944 64.3673L152.192 60.2825ZM164.326 72.2348C166.429 74.1507 168.555 75.987 170.72 77.7268L167.029 82.3208C164.755 80.4933 162.536 78.5762 160.357 76.592L164.326 72.2348ZM177.444 82.7042C179.751 84.2621 182.112 85.6997 184.546 86.9994L181.77 92.198C179.141 90.7939 176.605 89.2492 174.145 87.5883L177.444 82.7042ZM192.037 90.4508C194.563 91.4328 197.177 92.2687 199.895 92.9406L198.48 98.6618C195.51 97.9276 192.656 97.0146 189.901 95.9439L192.037 90.4508ZM207.968 94.4005C209.324 94.5592 210.707 94.6794 212.118 94.7589L211.786 100.643C210.258 100.557 208.757 100.427 207.283 100.254L207.968 94.4005Z" fill="white"/>
</svg>
