<svg width="76" height="76" viewBox="0 0 76 76" fill="none" xmlns="http://www.w3.org/2000/svg">
<path d="M10.5827 6.15381H31.5214V13.1337H10.5827V6.15381ZM0.113281 20.1136H17.5623V27.0935H0.113281V20.1136ZM7.09287 61.9929H24.5418V68.9728H7.09287V61.9929ZM74.1318 60.6318L66.1751 46.2881C65.2115 44.6325 63.6299 43.4274 61.778 42.9378L52.4602 40.5995C52.3206 38.9593 51.9018 37.3888 51.0992 35.9579L64.9188 12.9592C67.1871 9.19006 65.9657 4.30414 62.1967 2.03568C60.7093 1.15557 58.9765 0.781851 57.2586 0.970642C55.5407 1.15943 53.9304 1.90054 52.6696 3.08266L40.6996 14.2854C39.3037 15.5767 38.501 17.4263 38.501 19.3458V31.2116C36.8608 31.8049 35.3951 32.7821 34.2086 34.0733H8.07001C3.60308 34.0733 0.113281 37.5633 0.113281 42.0304C0.113281 45.5901 2.45144 48.6962 5.87144 49.6734L21.6104 54.1754C22.2386 54.3499 22.9016 54.4546 23.5298 54.4546C24.7861 54.4546 26.0425 54.1056 27.1243 53.4425L35.0112 48.766C35.9535 49.6734 37.14 50.4063 38.501 50.8949V68.9728C34.6622 68.9728 31.5214 72.1137 31.5214 75.9526H52.4602C52.4602 72.1137 49.3194 68.9728 45.4806 68.9728V54.0358L61.5686 70.1244C63.139 71.6949 65.163 72.4627 67.1871 72.4627C69.2112 72.4627 71.2702 71.6949 72.8057 70.1244C75.3184 67.6117 75.8767 63.7379 74.1318 60.6318ZM23.5647 47.4747L7.79083 42.9727C7.37205 42.7982 7.09287 42.4492 7.09287 42.0304C7.09287 41.5069 7.54654 41.0532 8.07001 41.0532H31.5214C31.5214 41.5767 31.5214 42.1002 31.661 42.5888L23.5647 47.4747ZM41.9908 44.5432C40.0714 44.5432 38.501 42.9727 38.501 41.0532C38.501 39.1338 40.0714 37.5633 41.9908 37.5633C43.9102 37.5633 45.4806 39.1338 45.4806 41.0532C45.4806 42.9727 43.9102 44.5432 41.9908 44.5432ZM45.4806 31.072V19.3458L57.4506 8.14307C57.6949 7.89878 58.1137 7.72428 58.6371 8.00348C59.0908 8.28267 59.2653 8.87596 58.9861 9.32966L45.9343 31.1069L45.4806 31.072ZM67.8851 65.2036C67.7106 65.3781 67.0475 65.762 66.4194 65.2036L49.5637 48.2774C49.8429 48.0331 50.122 47.6492 50.4012 47.3002L60.1029 49.7781L68.0596 64.017C68.269 64.4009 68.1643 64.8895 67.8851 65.2036Z" fill="#212121"/>
</svg>
