<svg width="76" height="76" viewBox="0 0 76 76" fill="none" xmlns="http://www.w3.org/2000/svg">
<path d="M10.7252 6.02393H31.664V13.0038H10.7252V6.02393ZM0.255859 19.9837H17.7048V26.9636H0.255859V19.9837ZM7.23545 61.863H24.6844V68.8429H7.23545V61.863ZM74.2744 60.5019L66.3177 46.1583C65.3541 44.5026 63.7725 43.2975 61.9205 42.8079L52.6028 40.4696C52.4632 38.8294 52.0444 37.2589 51.2418 35.828L65.0613 12.8293C67.3297 9.06017 66.1083 4.17426 62.3393 1.90579C60.8519 1.02569 59.1191 0.651968 57.4012 0.840759C55.6833 1.02955 54.073 1.77066 52.8122 2.95278L40.8422 14.1555C39.4463 15.4468 38.6436 17.2964 38.6436 19.2159V31.0817C37.0034 31.675 35.5377 32.6522 34.3512 33.9435H8.21259C3.74565 33.9435 0.255859 37.4334 0.255859 41.9005C0.255859 45.4603 2.59402 48.5663 6.01402 49.5435L21.753 54.0455C22.3812 54.22 23.0442 54.3247 23.6724 54.3247C24.9287 54.3247 26.185 53.9757 27.2669 53.3126L35.1538 48.6361C36.0961 49.5435 37.2826 50.2764 38.6436 50.765V68.8429C34.8048 68.8429 31.664 71.9838 31.664 75.8228H52.6028C52.6028 71.9838 49.462 68.8429 45.6232 68.8429V53.9059L61.7111 69.9946C63.2816 71.565 65.3056 72.3328 67.3297 72.3328C69.3538 72.3328 71.4128 71.565 72.9483 69.9946C75.4609 67.4818 76.0193 63.608 74.2744 60.5019ZM23.7073 47.3448L7.93341 42.8428C7.51463 42.6683 7.23545 42.3193 7.23545 41.9005C7.23545 41.377 7.68912 40.9233 8.21259 40.9233H31.664C31.664 41.4468 31.664 41.9703 31.8036 42.4589L23.7073 47.3448ZM42.1334 44.4133C40.214 44.4133 38.6436 42.8428 38.6436 40.9233C38.6436 39.0039 40.214 37.4334 42.1334 37.4334C44.0528 37.4334 45.6232 39.0039 45.6232 40.9233C45.6232 42.8428 44.0528 44.4133 42.1334 44.4133ZM45.6232 30.9421V19.2159L57.5932 8.01319C57.8375 7.7689 58.2562 7.5944 58.7797 7.87359C59.2334 8.15279 59.4079 8.74608 59.1287 9.19977L46.0769 30.977L45.6232 30.9421ZM68.0277 65.0737C67.8532 65.2482 67.1901 65.6321 66.562 65.0737L49.7062 48.1475C49.9854 47.9032 50.2646 47.5193 50.5438 47.1703L60.2454 49.6482L68.2022 63.8872C68.4115 64.2711 68.3069 64.7596 68.0277 65.0737Z" fill="#212121"/>
</svg>
