<svg width="73" height="74" viewBox="0 0 73 74" fill="none" xmlns="http://www.w3.org/2000/svg">
<path d="M0.824341 34.5053C0.801131 25.852 4.07724 17.5229 9.97072 11.2519C15.8642 4.98094 23.921 1.25116 32.464 0.838969C41.007 0.426782 49.378 3.36395 55.8345 9.03908C62.2911 14.7142 66.3357 22.69 67.1264 31.3064C65.5008 30.8619 63.8585 30.4821 62.2034 30.168C61.2232 23.6324 58.0479 17.6379 53.2118 13.1932C52.7323 14.0578 52.1057 15.1481 51.3888 16.3057C49.7842 18.8995 47.4817 22.2618 45.1792 24.0054C45.1005 24.0603 45.0287 24.1248 44.9656 24.1975C44.9656 24.3272 45.0131 24.6826 45.3691 25.4944C45.521 25.845 45.7394 26.2869 45.9863 26.7913C46.4135 27.6655 46.9453 28.7414 47.4247 29.9374C45.8355 30.1842 44.2651 30.5421 42.7248 31.0086C42.4779 30.4692 42.2215 29.9343 41.9557 29.4043C41.6278 28.7526 41.3159 28.0927 41.0205 27.4253C40.6027 26.4647 40.147 25.2158 40.2277 23.8901C40.3226 22.3531 41.0917 21.1042 42.3308 20.1628C43.8357 19.0196 45.7299 16.4018 47.363 13.7552C48.1511 12.4919 48.8205 11.3055 49.2952 10.4409L49.4044 10.2392C44.8227 7.26356 39.491 5.68605 34.0466 5.69531H33.8187C34.2507 6.5599 34.7255 7.5926 35.1527 8.74058C36.3111 11.8435 37.3555 16.3874 35.4898 20.4029C33.776 24.1014 30.8184 25.0621 28.6061 25.6385L28.288 25.7202C26.1374 26.2821 25.2497 26.5127 24.604 27.4974C24.0059 28.4196 24.115 29.5772 24.7939 31.8203L24.9506 32.3247C25.2212 33.1988 25.544 34.2364 25.7102 35.2162C25.9191 36.4363 25.976 37.9637 25.2164 39.4431C24.5693 40.765 23.5392 41.8558 22.2636 42.57C21.2743 43.0781 20.2094 43.4188 19.1113 43.5787L18.7885 43.6364C17.0889 43.939 16.2249 44.0927 15.3941 44.9909C14.7437 45.697 14.3402 46.9218 14.1075 48.699C14.0126 49.4243 13.9509 50.1448 13.8939 50.8893L13.8607 51.2832C13.8089 52.1383 13.6994 52.9889 13.5331 53.8289L13.4144 54.3573C16.3513 57.4866 19.9447 59.9093 23.9299 61.4469C23.0374 62.7918 22.2113 64.1848 21.4423 65.6161C15.3433 63.0844 10.1263 58.7745 6.45487 53.2347C2.78346 47.6948 0.823529 41.1753 0.824341 34.5053ZM5.57173 34.5053C5.56318 39.5138 6.85132 44.4372 9.30793 48.7855L9.39338 48.065C9.64974 46.1197 10.1957 43.5835 11.919 41.7151C13.8892 39.5824 16.3008 39.1789 17.8437 38.9244L18.2805 38.8475C18.8731 38.7782 19.4504 38.611 19.9896 38.3528C20.4363 38.0922 20.7903 37.6955 21.0008 37.2192C21.072 37.0895 21.1574 36.7869 21.0292 36.0424C20.8822 35.3085 20.6887 34.5849 20.4501 33.8761C20.3831 33.6617 20.3166 33.4472 20.2507 33.2325C19.6335 31.1911 18.6698 27.8768 20.6352 24.8556C22.3443 22.2282 25.093 21.5605 26.8733 21.1234L27.4145 20.9889C29.2992 20.4942 30.4148 20.0283 31.1887 18.3615C32.1999 16.1905 31.7583 13.2605 30.7092 10.4361C30.1572 8.9673 29.4739 7.55247 28.6678 6.20926C22.1683 7.47609 16.3078 10.9935 12.093 16.1572C7.87829 21.3209 5.57247 27.8084 5.57173 34.5053ZM71.6792 38.0598C71.4671 37.711 71.1704 37.4229 70.8172 37.2228C70.4641 37.0227 70.0663 36.9173 69.6615 36.9166H69.6235C69.437 36.8934 69.2517 36.8613 69.0681 36.8205C68.5919 36.7061 68.1186 36.5796 67.6486 36.4411L67.1976 36.3162C65.8769 35.9287 64.5455 35.5795 63.2051 35.2691C58.6117 34.1995 53.8688 33.9508 49.1908 34.5342C43.4844 35.2546 39.1216 37.2144 36.1449 40.0195C33.1541 42.8486 31.6824 46.4415 31.6824 50.1064C31.6824 50.9854 31.7489 51.8211 31.8628 52.6041C36.8476 48.2043 42.9954 44.6451 49.7889 41.8928C50.0785 41.7755 50.3881 41.717 50.7 41.7207C51.012 41.7244 51.3201 41.7903 51.6069 41.9145C51.8936 42.0387 52.1534 42.2189 52.3713 42.4447C52.5893 42.6705 52.7612 42.9375 52.8771 43.2305C52.9931 43.5235 53.0509 43.8367 53.0472 44.1523C53.0435 44.4679 52.9784 44.7797 52.8556 45.0698C52.7329 45.3599 52.5548 45.6228 52.3316 45.8433C52.1085 46.0638 51.8446 46.2377 51.555 46.355C47.7713 47.8873 44.2725 49.6549 41.1202 51.6482C33.2775 56.2786 28.3924 62.225 24.8129 69.4684C24.662 69.7515 24.5689 70.0623 24.539 70.3826C24.5091 70.7028 24.5431 71.0258 24.639 71.3324C24.7348 71.6391 24.8906 71.9232 25.097 72.1678C25.3034 72.4124 25.5563 72.6125 25.8406 72.7564C26.125 72.9002 26.435 72.9848 26.7522 73.0051C27.0695 73.0254 27.3875 72.9811 27.6875 72.8747C27.9875 72.7683 28.2633 72.602 28.4986 72.3856C28.7339 72.1693 28.9238 71.9074 29.0571 71.6154C30.8801 67.9361 33.0591 64.6267 35.9313 61.6823C36.6938 63.0884 37.6233 64.3949 38.699 65.5729C40.9018 67.9745 44.4576 70.5395 49.4851 70.5395C52.5804 70.5395 55.1535 69.7422 57.2613 68.3492C59.3502 66.9755 60.8599 65.107 61.9897 63.1473C63.7368 60.1212 64.7385 56.5187 65.4791 53.8481C65.669 53.1757 65.8351 52.5656 65.9965 52.0373C66.8178 49.3282 68.0189 46.8978 69.1298 44.9092C69.69 43.9198 70.217 43.0504 70.6727 42.3107L70.7487 42.1858C71.1171 41.6028 71.4624 41.0051 71.7836 40.3942C71.9641 40.0282 72.0492 39.6218 72.0309 39.2132C72.0126 38.8047 71.8916 38.4077 71.6792 38.0598Z" fill="#212121"/>
</svg>
