<svg width="96" height="97" viewBox="0 0 96 97" fill="none" xmlns="http://www.w3.org/2000/svg">
<path d="M24.6819 4.87522C28.6764 1.76561 33.9021 0.0449219 39.0955 0.0449219C42.2003 0.0449219 44.7152 1.1117 46.6201 2.80612C47.135 3.26467 47.5932 3.75719 48.0001 4.26873C48.4069 3.75719 48.8646 3.26467 49.38 2.80612C51.2845 1.1117 53.7994 0.0449219 56.9042 0.0449219C62.0978 0.0449219 67.3237 1.76561 71.318 4.87522C74.4256 7.29453 76.8618 10.6295 77.8162 14.6634C79.8345 14.9971 81.6275 16.0258 83.0776 17.3865C85.3869 19.5534 87.0291 22.684 88.0633 25.9061C89.1132 29.1767 89.6387 32.8535 89.4802 36.3827C89.399 38.1895 89.1344 40.031 88.6276 41.7942C88.7333 41.8398 88.8385 41.8874 88.9432 41.9364C90.7213 42.775 92.1584 44.0877 93.2396 45.8298C95.2815 49.1186 96 53.8573 96 59.8944C96 66.8326 93.3482 71.544 89.937 74.4701C87.9576 76.168 85.7731 77.2204 83.8389 77.7824C83.1688 81.1091 81.493 84.8579 78.944 88.0472C75.4722 92.3907 70.0759 96.0613 62.8198 96.0613C57.0065 96.0613 52.4305 92.8466 49.491 89.7644C48.9535 89.2005 48.4554 88.6265 48.0001 88.0554C47.5443 88.6265 47.0466 89.2005 46.5087 89.7644C43.5692 92.8466 38.9932 96.0613 33.18 96.0613C25.924 96.0613 20.5279 92.3907 17.0561 88.0472C14.5069 84.8579 12.8312 81.1091 12.1611 77.7824C10.2269 77.2204 8.04237 76.168 6.06318 74.4701C2.65202 71.544 0 66.8326 0 59.8944C0 53.8573 0.718361 49.1186 2.76023 45.8298C3.84162 44.0877 5.27887 42.775 7.05676 41.9364C7.16152 41.8874 7.26671 41.8398 7.37233 41.7942C6.86559 40.031 6.60118 38.1895 6.51996 36.3827C6.36136 32.8535 6.88668 29.1767 7.93651 25.9061C8.97077 22.684 10.6129 19.5534 12.9222 17.3865C14.3723 16.0258 16.1657 14.9971 18.1838 14.6634C19.1383 10.6295 21.5741 7.29453 24.6819 4.87522ZM29.1076 10.5604C26.4863 12.6011 24.9513 15.3195 24.9513 18.4492C24.9513 19.6073 24.3945 20.6949 23.4549 21.3719C22.5153 22.0489 21.3075 22.2329 20.2089 21.8664C19.5489 21.6462 18.8544 21.6999 17.8523 22.6403C16.7416 23.6825 15.6109 25.571 14.7965 28.108C13.9978 30.5965 13.5988 33.419 13.7174 36.0592C13.8376 38.7327 14.4733 40.9469 15.4738 42.4489C15.6413 42.7006 15.7742 42.9681 15.8722 43.2452H21.0697C28.2944 43.2452 34.2118 48.8424 34.7229 55.9366C38.2629 57.3526 40.7636 60.8138 40.7636 64.8595C40.7636 70.165 36.4627 74.4658 31.1573 74.4658C25.8518 74.4658 21.5509 70.165 21.5509 64.8595C21.5509 60.8551 24.0012 57.4227 27.4842 55.9803C27.0229 52.8516 24.3267 50.45 21.0697 50.45H8.58143C8.54103 50.45 8.50083 50.4495 8.46077 50.4481C7.7438 52.1196 7.20474 55.0082 7.20474 59.8944C7.20474 64.798 8.98941 67.4878 10.7543 69.0022C12.6911 70.6636 14.8174 71.094 15.4334 71.094C17.423 71.094 19.0358 72.7069 19.0358 74.6964C19.0358 76.7094 20.1492 80.3775 22.684 83.5491C25.1278 86.6063 28.605 88.8566 33.18 88.8566C36.24 88.8566 39.0585 87.137 41.2949 84.7921C42.3842 83.6499 43.2301 82.4636 43.7848 81.501C44.0629 81.0188 44.2426 80.6364 44.3415 80.3828L44.3665 80.3175V68.5238C44.366 68.5032 44.366 68.4825 44.366 68.4618C44.366 68.4412 44.366 68.4205 44.3665 68.3999V34.8397H40.0652C38.6401 38.3602 35.1888 40.8437 31.1573 40.8437C25.8518 40.8437 21.5509 36.5428 21.5509 31.2373C21.5509 25.9319 25.8518 21.631 31.1573 21.631C35.1887 21.631 38.6401 24.1144 40.0652 27.6349H44.3665V15.5003L44.3655 15.4458C44.3641 15.3909 44.3612 15.298 44.3545 15.1726C44.341 14.9207 44.3127 14.5437 44.2555 14.085C44.1388 13.1488 43.9107 11.9647 43.4865 10.832C43.0562 9.68415 42.4966 8.78106 41.8309 8.18892C41.2401 7.66307 40.4274 7.24967 39.0955 7.24967C35.4156 7.24967 31.7681 8.48936 29.1076 10.5604ZM51.6337 72.0642V80.3175L51.6582 80.3828C51.7576 80.6364 51.9372 81.0188 52.2148 81.501C52.7696 82.4636 53.6155 83.6499 54.7048 84.7921C56.9416 87.137 59.7601 88.8566 62.8198 88.8566C67.3948 88.8566 70.8723 86.6063 73.3161 83.5491C75.8507 80.3775 76.9641 76.7094 76.9641 74.6964C76.9641 72.7069 78.577 71.094 80.5665 71.094C81.1827 71.094 83.3086 70.6636 85.2457 69.0022C87.0104 67.4878 88.7953 64.798 88.7953 59.8944C88.7953 54.0903 88.0344 51.1051 87.119 49.6301C86.7213 48.9898 86.3101 48.6603 85.8696 48.4528C85.3821 48.2228 84.654 48.0484 83.5243 48.0484C82.1962 48.0484 80.9757 47.3174 80.3484 46.1464C79.7216 44.9753 79.7898 43.5546 80.5261 42.4489C81.5266 40.9469 82.1626 38.7327 82.2826 36.0592C82.4013 33.419 82.0021 30.5965 81.2034 28.108C80.3892 25.571 79.2586 23.6825 78.1476 22.6403C77.1457 21.6999 76.4511 21.6462 75.7912 21.8664C74.6927 22.2329 73.4847 22.0489 72.5452 21.3719C71.6052 20.6949 71.0485 19.6073 71.0485 18.4492C71.0485 15.3195 69.5134 12.6011 66.8924 10.5604C64.2319 8.48936 60.5844 7.24967 56.9042 7.24967C55.5727 7.24967 54.76 7.66307 54.1688 8.18892C53.5035 8.78106 52.9435 9.68415 52.5136 10.832C52.0895 11.9647 51.8613 13.1488 51.7441 14.085C51.687 14.5437 51.6591 14.9207 51.6457 15.1726C51.6389 15.298 51.6361 15.3909 51.6346 15.4458L51.6337 15.5003V64.8595H54.6928C58.274 64.8595 61.1771 61.9564 61.1771 58.3752V49.7516C57.6564 48.3265 55.1731 44.875 55.1731 40.8437C55.1731 35.5382 59.4739 31.2373 64.7794 31.2373C70.085 31.2373 74.3858 35.5382 74.3858 40.8437C74.3858 44.875 71.9021 48.3265 68.3818 49.7516V58.3752C68.3818 65.9354 62.253 72.0642 54.6928 72.0642H51.6337ZM31.1573 28.8358C29.8309 28.8358 28.7557 29.911 28.7557 31.2373C28.7557 32.5637 29.8309 33.6389 31.1573 33.6389C32.4836 33.6389 33.5588 32.5637 33.5588 31.2373C33.5588 29.911 32.4836 28.8358 31.1573 28.8358ZM28.7557 64.8595C28.7557 66.1856 29.8309 67.2611 31.1573 67.2611C32.4836 67.2611 33.5588 66.1856 33.5588 64.8595C33.5588 63.5333 32.4836 62.4579 31.1573 62.4579C29.8309 62.4579 28.7557 63.5333 28.7557 64.8595ZM62.3779 40.8437C62.3779 42.1698 63.4528 43.2452 64.7794 43.2452C66.1056 43.2452 67.181 42.1698 67.181 40.8437C67.181 39.5175 66.1056 38.4421 64.7794 38.4421C63.4528 38.4421 62.3779 39.5175 62.3779 40.8437Z" fill="#212121"/>
</svg>
