<svg width="1148" height="419" viewBox="0 0 1148 419" fill="none" xmlns="http://www.w3.org/2000/svg">
<path d="M1.70508 35.0346H0.705078C0.705078 35.5868 1.15279 36.0346 1.70508 36.0346L1.70508 35.0346ZM1146.3 35.0346V36.0346C1146.85 36.0346 1147.3 35.5868 1147.3 35.0346H1146.3ZM51.4699 417.375H50.4699V418.375H51.4699V417.375ZM1096.53 417.375V418.375H1097.53V417.375H1096.53ZM1096.53 35.0346H1097.53V34.0346H1096.53V35.0346ZM983.631 68.2815V67.2815H982.631V68.2815H983.631ZM1072.38 68.2815H1073.38V67.2815H1072.38V68.2815ZM1072.38 267.763V268.763H1073.38V267.763H1072.38ZM983.631 267.763H982.631V268.763H983.631V267.763ZM988.607 73.2686V72.2686H987.607V73.2686H988.607ZM1067.4 73.2686H1068.4V72.2686H1067.4V73.2686ZM1067.4 262.776V263.776H1068.4V262.776H1067.4ZM988.607 262.776H987.607V263.776H988.607V262.776ZM993.584 78.2556V77.2556H992.584V78.2556H993.584ZM1062.42 78.2556H1063.42V77.2556H1062.42V78.2556ZM1062.42 257.789V258.789H1063.42V257.789H1062.42ZM993.584 257.789H992.584V258.789H993.584V257.789ZM666.894 267.763V268.763H667.894V267.763H666.894ZM578.147 267.763H577.147V268.763H578.147V267.763ZM578.147 68.2815V67.2815H577.147V68.2815H578.147ZM666.894 68.2815H667.894V67.2815H666.894V68.2815ZM661.918 262.776V263.776H662.918V262.776H661.918ZM583.124 262.776H582.124V263.776H583.124V262.776ZM583.124 73.2686V72.2686H582.124V73.2686H583.124ZM661.918 73.2686H662.918V72.2686H661.918V73.2686ZM656.941 257.789V258.789H657.941V257.789H656.941ZM588.1 257.789H587.1V258.789H588.1V257.789ZM588.1 78.2556V77.2556H587.1V78.2556H588.1ZM656.941 78.2556H657.941V77.2556H656.941V78.2556ZM576.488 267.763V268.763H577.488V267.763H576.488ZM487.741 267.763H486.741V268.763H487.741V267.763ZM487.741 68.2815V67.2815H486.741V68.2815H487.741ZM576.488 68.2815H577.488V67.2815H576.488V68.2815ZM568.194 259.452V260.452H569.194V259.452H568.194ZM496.035 259.452H495.035V260.452H496.035V259.452ZM496.035 76.5933V75.5933H495.035V76.5933H496.035ZM568.194 76.5933H569.194V75.5933H568.194V76.5933ZM563.218 254.464V255.464H564.218V254.464H563.218ZM501.012 254.464H500.012V255.464H501.012V254.464ZM501.012 81.5803V80.5803H500.012V81.5803H501.012ZM563.218 81.5803H564.218V80.5803H563.218V81.5803ZM83.6677 151.399L82.6677 151.398L82.6669 152.399H83.6677V151.399ZM83.734 68.2815V67.2815H82.7348L82.734 68.2807L83.734 68.2815ZM272.907 68.2815L273.907 68.2823L273.907 67.2815H272.907V68.2815ZM264.546 143.087V144.087H265.545L265.546 143.088L264.546 143.087ZM91.9618 143.087L90.9618 143.086L90.9608 144.087H91.9618V143.087ZM92.0282 76.5933V75.5933H91.0292L91.0282 76.5923L92.0282 76.5933ZM264.612 76.5933L265.612 76.5943L265.613 75.5933H264.612V76.5933ZM259.57 138.1V139.1H260.568L260.57 138.102L259.57 138.1ZM96.9383 138.1L95.9383 138.099L95.9371 139.1H96.9383V138.1ZM97.0046 81.5803V80.5803H96.0058L96.0046 81.5791L97.0046 81.5803ZM259.636 81.5803L260.636 81.5815L260.637 80.5803H259.636V81.5803ZM51.2163 417.375C51.2163 417.927 51.664 418.375 52.2163 418.375C52.7686 418.375 53.2163 417.927 53.2163 417.375H51.2163ZM53.2163 35.0346C53.2163 34.4823 52.7686 34.0346 52.2163 34.0346C51.664 34.0346 51.2163 34.4823 51.2163 35.0346H53.2163ZM71.7526 417.375C71.7526 417.927 72.2003 418.375 72.7526 418.375C73.3049 418.375 73.7526 417.927 73.7526 417.375H71.7526ZM73.7526 35.0346C73.7526 34.4823 73.3049 34.0346 72.7526 34.0346C72.2003 34.0346 71.7526 34.4823 71.7526 35.0346H73.7526ZM92.2889 417.375C92.2889 417.927 92.7366 418.375 93.2889 418.375C93.8411 418.375 94.2889 417.927 94.2889 417.375H92.2889ZM94.2889 151.399C94.2889 150.847 93.8411 150.399 93.2889 150.399C92.7366 150.399 92.2889 150.847 92.2889 151.399H94.2889ZM92.2889 68.2815C92.2889 68.8338 92.7366 69.2815 93.2889 69.2815C93.8411 69.2815 94.2889 68.8338 94.2889 68.2815H92.2889ZM94.2889 35.0346C94.2889 34.4823 93.8411 34.0346 93.2889 34.0346C92.7366 34.0346 92.2889 34.4823 92.2889 35.0346H94.2889ZM112.825 417.375C112.825 417.927 113.273 418.375 113.825 418.375C114.377 418.375 114.825 417.927 114.825 417.375H112.825ZM114.825 151.399C114.825 150.847 114.377 150.399 113.825 150.399C113.273 150.399 112.825 150.847 112.825 151.399H114.825ZM112.825 68.2815C112.825 68.8338 113.273 69.2815 113.825 69.2815C114.377 69.2815 114.825 68.8338 114.825 68.2815H112.825ZM114.825 35.0346C114.825 34.4823 114.377 34.0346 113.825 34.0346C113.273 34.0346 112.825 34.4823 112.825 35.0346H114.825ZM133.361 417.375C133.361 417.927 133.809 418.375 134.361 418.375C134.914 418.375 135.361 417.927 135.361 417.375H133.361ZM135.361 151.399C135.361 150.847 134.914 150.399 134.361 150.399C133.809 150.399 133.361 150.847 133.361 151.399H135.361ZM133.361 68.2815C133.361 68.8338 133.809 69.2815 134.361 69.2815C134.914 69.2815 135.361 68.8338 135.361 68.2815H133.361ZM135.361 35.0346C135.361 34.4823 134.914 34.0346 134.361 34.0346C133.809 34.0346 133.361 34.4823 133.361 35.0346H135.361ZM153.898 417.375C153.898 417.927 154.345 418.375 154.898 418.375C155.45 418.375 155.898 417.927 155.898 417.375H153.898ZM155.898 151.399C155.898 150.847 155.45 150.399 154.898 150.399C154.345 150.399 153.898 150.847 153.898 151.399H155.898ZM153.898 68.2815C153.898 68.8338 154.345 69.2815 154.898 69.2815C155.45 69.2815 155.898 68.8338 155.898 68.2815H153.898ZM155.898 35.0346C155.898 34.4823 155.45 34.0346 154.898 34.0346C154.345 34.0346 153.898 34.4823 153.898 35.0346H155.898ZM174.434 417.375C174.434 417.927 174.882 418.375 175.434 418.375C175.986 418.375 176.434 417.927 176.434 417.375H174.434ZM176.434 151.399C176.434 150.847 175.986 150.399 175.434 150.399C174.882 150.399 174.434 150.847 174.434 151.399H176.434ZM174.434 68.2815C174.434 68.8338 174.882 69.2815 175.434 69.2815C175.986 69.2815 176.434 68.8338 176.434 68.2815H174.434ZM176.434 35.0346C176.434 34.4823 175.986 34.0346 175.434 34.0346C174.882 34.0346 174.434 34.4823 174.434 35.0346H176.434ZM194.97 417.375C194.97 417.927 195.418 418.375 195.97 418.375C196.522 418.375 196.97 417.927 196.97 417.375H194.97ZM196.97 151.399C196.97 150.847 196.522 150.399 195.97 150.399C195.418 150.399 194.97 150.847 194.97 151.399H196.97ZM194.97 68.2815C194.97 68.8338 195.418 69.2815 195.97 69.2815C196.522 69.2815 196.97 68.8338 196.97 68.2815H194.97ZM196.97 35.0346C196.97 34.4823 196.522 34.0346 195.97 34.0346C195.418 34.0346 194.97 34.4823 194.97 35.0346H196.97ZM215.506 417.375C215.506 417.927 215.954 418.375 216.506 418.375C217.059 418.375 217.506 417.927 217.506 417.375H215.506ZM217.506 151.399C217.506 150.847 217.059 150.399 216.506 150.399C215.954 150.399 215.506 150.847 215.506 151.399H217.506ZM215.506 68.2815C215.506 68.8338 215.954 69.2815 216.506 69.2815C217.059 69.2815 217.506 68.8338 217.506 68.2815H215.506ZM217.506 35.0346C217.506 34.4823 217.059 34.0346 216.506 34.0346C215.954 34.0346 215.506 34.4823 215.506 35.0346H217.506ZM236.043 417.375C236.043 417.927 236.49 418.375 237.043 418.375C237.595 418.375 238.043 417.927 238.043 417.375H236.043ZM238.043 151.399C238.043 150.847 237.595 150.399 237.043 150.399C236.49 150.399 236.043 150.847 236.043 151.399H238.043ZM236.043 68.2815C236.043 68.8338 236.49 69.2815 237.043 69.2815C237.595 69.2815 238.043 68.8338 238.043 68.2815H236.043ZM238.043 35.0346C238.043 34.4823 237.595 34.0346 237.043 34.0346C236.49 34.0346 236.043 34.4823 236.043 35.0346H238.043ZM256.579 417.375C256.579 417.927 257.027 418.375 257.579 418.375C258.131 418.375 258.579 417.927 258.579 417.375H256.579ZM258.579 151.399C258.579 150.847 258.131 150.399 257.579 150.399C257.027 150.399 256.579 150.847 256.579 151.399H258.579ZM256.579 68.2815C256.579 68.8338 257.027 69.2815 257.579 69.2815C258.131 69.2815 258.579 68.8338 258.579 68.2815H256.579ZM258.579 35.0346C258.579 34.4823 258.131 34.0346 257.579 34.0346C257.027 34.0346 256.579 34.4823 256.579 35.0346H258.579ZM277.115 417.375C277.115 417.927 277.563 418.375 278.115 418.375C278.668 418.375 279.115 417.927 279.115 417.375H277.115ZM279.115 35.0346C279.115 34.4823 278.668 34.0346 278.115 34.0346C277.563 34.0346 277.115 34.4823 277.115 35.0346H279.115ZM297.652 417.375C297.652 417.927 298.099 418.375 298.652 418.375C299.204 418.375 299.652 417.927 299.652 417.375H297.652ZM299.652 35.0346C299.652 34.4823 299.204 34.0346 298.652 34.0346C298.099 34.0346 297.652 34.4823 297.652 35.0346H299.652ZM318.188 417.375C318.188 417.927 318.636 418.375 319.188 418.375C319.74 418.375 320.188 417.927 320.188 417.375H318.188ZM320.188 35.0346C320.188 34.4823 319.74 34.0346 319.188 34.0346C318.636 34.0346 318.188 34.4823 318.188 35.0346H320.188ZM338.724 417.375C338.724 417.927 339.172 418.375 339.724 418.375C340.276 418.375 340.724 417.927 340.724 417.375H338.724ZM340.724 35.0346C340.724 34.4823 340.276 34.0346 339.724 34.0346C339.172 34.0346 338.724 34.4823 338.724 35.0346H340.724ZM359.26 417.375C359.26 417.927 359.708 418.375 360.26 418.375C360.813 418.375 361.26 417.927 361.26 417.375H359.26ZM361.26 35.0346C361.26 34.4823 360.813 34.0346 360.26 34.0346C359.708 34.0346 359.26 34.4823 359.26 35.0346H361.26ZM379.797 417.375C379.797 417.927 380.244 418.375 380.797 418.375C381.349 418.375 381.797 417.927 381.797 417.375H379.797ZM381.797 35.0346C381.797 34.4823 381.349 34.0346 380.797 34.0346C380.244 34.0346 379.797 34.4823 379.797 35.0346H381.797ZM400.333 417.375C400.333 417.927 400.781 418.375 401.333 418.375C401.885 418.375 402.333 417.927 402.333 417.375H400.333ZM402.333 35.0346C402.333 34.4823 401.885 34.0346 401.333 34.0346C400.781 34.0346 400.333 34.4823 400.333 35.0346H402.333ZM420.869 417.375C420.869 417.927 421.317 418.375 421.869 418.375C422.421 418.375 422.869 417.927 422.869 417.375H420.869ZM422.869 35.0346C422.869 34.4823 422.421 34.0346 421.869 34.0346C421.317 34.0346 420.869 34.4823 420.869 35.0346H422.869ZM441.405 417.375C441.405 417.927 441.853 418.375 442.405 418.375C442.958 418.375 443.405 417.927 443.405 417.375H441.405ZM443.405 35.0346C443.405 34.4823 442.958 34.0346 442.405 34.0346C441.853 34.0346 441.405 34.4823 441.405 35.0346H443.405ZM461.942 417.375C461.942 417.927 462.389 418.375 462.942 418.375C463.494 418.375 463.942 417.927 463.942 417.375H461.942ZM463.942 35.0346C463.942 34.4823 463.494 34.0346 462.942 34.0346C462.389 34.0346 461.942 34.4823 461.942 35.0346H463.942ZM482.478 417.375C482.478 417.927 482.926 418.375 483.478 418.375C484.03 418.375 484.478 417.927 484.478 417.375H482.478ZM484.478 35.0346C484.478 34.4823 484.03 34.0346 483.478 34.0346C482.926 34.0346 482.478 34.4823 482.478 35.0346H484.478ZM503.014 417.375C503.014 417.927 503.462 418.375 504.014 418.375C504.566 418.375 505.014 417.927 505.014 417.375H503.014ZM505.014 267.763C505.014 267.211 504.566 266.763 504.014 266.763C503.462 266.763 503.014 267.211 503.014 267.763H505.014ZM503.014 68.2815C503.014 68.8338 503.462 69.2815 504.014 69.2815C504.566 69.2815 505.014 68.8338 505.014 68.2815H503.014ZM505.014 35.0346C505.014 34.4823 504.566 34.0346 504.014 34.0346C503.462 34.0346 503.014 34.4823 503.014 35.0346H505.014ZM523.55 417.375C523.55 417.927 523.998 418.375 524.55 418.375C525.103 418.375 525.55 417.927 525.55 417.375H523.55ZM525.55 267.763C525.55 267.211 525.103 266.763 524.55 266.763C523.998 266.763 523.55 267.211 523.55 267.763H525.55ZM523.55 68.2815C523.55 68.8338 523.998 69.2815 524.55 69.2815C525.103 69.2815 525.55 68.8338 525.55 68.2815H523.55ZM525.55 35.0346C525.55 34.4823 525.103 34.0346 524.55 34.0346C523.998 34.0346 523.55 34.4823 523.55 35.0346H525.55ZM544.087 417.375C544.087 417.927 544.534 418.375 545.087 418.375C545.639 418.375 546.087 417.927 546.087 417.375H544.087ZM546.087 267.763C546.087 267.211 545.639 266.763 545.087 266.763C544.534 266.763 544.087 267.211 544.087 267.763H546.087ZM544.087 68.2815C544.087 68.8338 544.534 69.2815 545.087 69.2815C545.639 69.2815 546.087 68.8338 546.087 68.2815H544.087ZM546.087 35.0346C546.087 34.4823 545.639 34.0346 545.087 34.0346C544.534 34.0346 544.087 34.4823 544.087 35.0346H546.087ZM564.623 417.375C564.623 417.927 565.071 418.375 565.623 418.375C566.175 418.375 566.623 417.927 566.623 417.375H564.623ZM566.623 267.763C566.623 267.211 566.175 266.763 565.623 266.763C565.071 266.763 564.623 267.211 564.623 267.763H566.623ZM564.623 68.2815C564.623 68.8338 565.071 69.2815 565.623 69.2815C566.175 69.2815 566.623 68.8338 566.623 68.2815H564.623ZM566.623 35.0346C566.623 34.4823 566.175 34.0346 565.623 34.0346C565.071 34.0346 564.623 34.4823 564.623 35.0346H566.623ZM585.159 417.375C585.159 417.927 585.607 418.375 586.159 418.375C586.712 418.375 587.159 417.927 587.159 417.375H585.159ZM587.159 267.763C587.159 267.211 586.712 266.763 586.159 266.763C585.607 266.763 585.159 267.211 585.159 267.763H587.159ZM585.159 68.2815C585.159 68.8338 585.607 69.2815 586.159 69.2815C586.712 69.2815 587.159 68.8338 587.159 68.2815H585.159ZM587.159 35.0346C587.159 34.4823 586.712 34.0346 586.159 34.0346C585.607 34.0346 585.159 34.4823 585.159 35.0346H587.159ZM605.696 417.375C605.696 417.927 606.143 418.375 606.696 418.375C607.248 418.375 607.696 417.927 607.696 417.375H605.696ZM607.696 267.763C607.696 267.211 607.248 266.763 606.696 266.763C606.143 266.763 605.696 267.211 605.696 267.763H607.696ZM605.696 68.2815C605.696 68.8338 606.143 69.2815 606.696 69.2815C607.248 69.2815 607.696 68.8338 607.696 68.2815H605.696ZM607.696 35.0346C607.696 34.4823 607.248 34.0346 606.696 34.0346C606.143 34.0346 605.696 34.4823 605.696 35.0346H607.696ZM626.232 417.375C626.232 417.927 626.68 418.375 627.232 418.375C627.784 418.375 628.232 417.927 628.232 417.375H626.232ZM628.232 267.763C628.232 267.211 627.784 266.763 627.232 266.763C626.68 266.763 626.232 267.211 626.232 267.763H628.232ZM626.232 68.2815C626.232 68.8338 626.68 69.2815 627.232 69.2815C627.784 69.2815 628.232 68.8338 628.232 68.2815H626.232ZM628.232 35.0346C628.232 34.4823 627.784 34.0346 627.232 34.0346C626.68 34.0346 626.232 34.4823 626.232 35.0346H628.232ZM646.768 417.375C646.768 417.927 647.216 418.375 647.768 418.375C648.32 418.375 648.768 417.927 648.768 417.375H646.768ZM648.768 267.763C648.768 267.211 648.32 266.763 647.768 266.763C647.216 266.763 646.768 267.211 646.768 267.763H648.768ZM646.768 68.2815C646.768 68.8338 647.216 69.2815 647.768 69.2815C648.32 69.2815 648.768 68.8338 648.768 68.2815H646.768ZM648.768 35.0346C648.768 34.4823 648.32 34.0346 647.768 34.0346C647.216 34.0346 646.768 34.4823 646.768 35.0346H648.768ZM667.304 417.375C667.304 417.927 667.752 418.375 668.304 418.375C668.857 418.375 669.304 417.927 669.304 417.375H667.304ZM669.304 35.0346C669.304 34.4823 668.857 34.0346 668.304 34.0346C667.752 34.0346 667.304 34.4823 667.304 35.0346H669.304ZM687.841 417.375C687.841 417.927 688.288 418.375 688.841 418.375C689.393 418.375 689.841 417.927 689.841 417.375H687.841ZM689.841 35.0346C689.841 34.4823 689.393 34.0346 688.841 34.0346C688.288 34.0346 687.841 34.4823 687.841 35.0346H689.841ZM708.377 417.375C708.377 417.927 708.825 418.375 709.377 418.375C709.929 418.375 710.377 417.927 710.377 417.375H708.377ZM710.377 35.0346C710.377 34.4823 709.929 34.0346 709.377 34.0346C708.825 34.0346 708.377 34.4823 708.377 35.0346H710.377ZM728.913 417.375C728.913 417.927 729.361 418.375 729.913 418.375C730.465 418.375 730.913 417.927 730.913 417.375H728.913ZM730.913 35.0346C730.913 34.4823 730.465 34.0346 729.913 34.0346C729.361 34.0346 728.913 34.4823 728.913 35.0346H730.913ZM749.449 417.375C749.449 417.927 749.897 418.375 750.449 418.375C751.002 418.375 751.449 417.927 751.449 417.375H749.449ZM751.449 35.0346C751.449 34.4823 751.002 34.0346 750.449 34.0346C749.897 34.0346 749.449 34.4823 749.449 35.0346H751.449ZM769.986 417.375C769.986 417.927 770.433 418.375 770.986 418.375C771.538 418.375 771.986 417.927 771.986 417.375H769.986ZM771.986 35.0346C771.986 34.4823 771.538 34.0346 770.986 34.0346C770.433 34.0346 769.986 34.4823 769.986 35.0346H771.986ZM790.522 417.375C790.522 417.927 790.97 418.375 791.522 418.375C792.074 418.375 792.522 417.927 792.522 417.375H790.522ZM792.522 35.0346C792.522 34.4823 792.074 34.0346 791.522 34.0346C790.97 34.0346 790.522 34.4823 790.522 35.0346H792.522ZM811.058 417.375C811.058 417.927 811.506 418.375 812.058 418.375C812.611 418.375 813.058 417.927 813.058 417.375H811.058ZM813.058 35.0346C813.058 34.4823 812.611 34.0346 812.058 34.0346C811.506 34.0346 811.058 34.4823 811.058 35.0346H813.058ZM831.594 417.375C831.594 417.927 832.042 418.375 832.594 418.375C833.147 418.375 833.594 417.927 833.594 417.375H831.594ZM833.594 35.0346C833.594 34.4823 833.147 34.0346 832.594 34.0346C832.042 34.0346 831.594 34.4823 831.594 35.0346H833.594ZM852.131 417.375C852.131 417.927 852.579 418.375 853.131 418.375C853.683 418.375 854.131 417.927 854.131 417.375H852.131ZM854.131 35.0346C854.131 34.4823 853.683 34.0346 853.131 34.0346C852.579 34.0346 852.131 34.4823 852.131 35.0346H854.131ZM872.667 417.375C872.667 417.927 873.115 418.375 873.667 418.375C874.219 418.375 874.667 417.927 874.667 417.375H872.667ZM874.667 35.0346C874.667 34.4823 874.219 34.0346 873.667 34.0346C873.115 34.0346 872.667 34.4823 872.667 35.0346H874.667ZM893.203 417.375C893.203 417.927 893.651 418.375 894.203 418.375C894.756 418.375 895.203 417.927 895.203 417.375H893.203ZM895.203 35.0346C895.203 34.4823 894.756 34.0346 894.203 34.0346C893.651 34.0346 893.203 34.4823 893.203 35.0346H895.203ZM913.74 417.375C913.74 417.927 914.187 418.375 914.74 418.375C915.292 418.375 915.74 417.927 915.74 417.375H913.74ZM915.74 35.0346C915.74 34.4823 915.292 34.0346 914.74 34.0346C914.187 34.0346 913.74 34.4823 913.74 35.0346H915.74ZM934.276 417.375C934.276 417.927 934.723 418.375 935.276 418.375C935.828 418.375 936.276 417.927 936.276 417.375H934.276ZM936.276 35.0346C936.276 34.4823 935.828 34.0346 935.276 34.0346C934.723 34.0346 934.276 34.4823 934.276 35.0346H936.276ZM954.812 417.375C954.812 417.927 955.26 418.375 955.812 418.375C956.364 418.375 956.812 417.927 956.812 417.375H954.812ZM956.812 35.0346C956.812 34.4823 956.364 34.0346 955.812 34.0346C955.26 34.0346 954.812 34.4823 954.812 35.0346H956.812ZM975.348 417.375C975.348 417.927 975.796 418.375 976.348 418.375C976.901 418.375 977.348 417.927 977.348 417.375H975.348ZM977.348 35.0346C977.348 34.4823 976.901 34.0346 976.348 34.0346C975.796 34.0346 975.348 34.4823 975.348 35.0346H977.348ZM995.885 417.375C995.885 417.927 996.332 418.375 996.885 418.375C997.437 418.375 997.885 417.927 997.885 417.375H995.885ZM997.885 267.763C997.885 267.211 997.437 266.763 996.885 266.763C996.332 266.763 995.885 267.211 995.885 267.763H997.885ZM995.885 68.2815C995.885 68.8338 996.332 69.2815 996.885 69.2815C997.437 69.2815 997.885 68.8338 997.885 68.2815H995.885ZM997.885 35.0346C997.885 34.4823 997.437 34.0346 996.885 34.0346C996.332 34.0346 995.885 34.4823 995.885 35.0346H997.885ZM1016.42 417.375C1016.42 417.927 1016.87 418.375 1017.42 418.375C1017.97 418.375 1018.42 417.927 1018.42 417.375H1016.42ZM1018.42 267.763C1018.42 267.211 1017.97 266.763 1017.42 266.763C1016.87 266.763 1016.42 267.211 1016.42 267.763H1018.42ZM1016.42 68.2815C1016.42 68.8338 1016.87 69.2815 1017.42 69.2815C1017.97 69.2815 1018.42 68.8338 1018.42 68.2815H1016.42ZM1018.42 35.0346C1018.42 34.4823 1017.97 34.0346 1017.42 34.0346C1016.87 34.0346 1016.42 34.4823 1016.42 35.0346H1018.42ZM1036.96 417.375C1036.96 417.927 1037.4 418.375 1037.96 418.375C1038.51 418.375 1038.96 417.927 1038.96 417.375H1036.96ZM1038.96 267.763C1038.96 267.211 1038.51 266.763 1037.96 266.763C1037.4 266.763 1036.96 267.211 1036.96 267.763H1038.96ZM1036.96 68.2815C1036.96 68.8338 1037.4 69.2815 1037.96 69.2815C1038.51 69.2815 1038.96 68.8338 1038.96 68.2815H1036.96ZM1038.96 35.0346C1038.96 34.4823 1038.51 34.0346 1037.96 34.0346C1037.4 34.0346 1036.96 34.4823 1036.96 35.0346H1038.96ZM1057.49 417.375C1057.49 417.927 1057.94 418.375 1058.49 418.375C1059.05 418.375 1059.49 417.927 1059.49 417.375H1057.49ZM1059.49 267.763C1059.49 267.211 1059.05 266.763 1058.49 266.763C1057.94 266.763 1057.49 267.211 1057.49 267.763H1059.49ZM1057.49 68.2815C1057.49 68.8338 1057.94 69.2815 1058.49 69.2815C1059.05 69.2815 1059.49 68.8338 1059.49 68.2815H1057.49ZM1059.49 35.0346C1059.49 34.4823 1059.05 34.0346 1058.49 34.0346C1057.94 34.0346 1057.49 34.4823 1057.49 35.0346H1059.49ZM1078.03 417.375C1078.03 417.927 1078.48 418.375 1079.03 418.375C1079.58 418.375 1080.03 417.927 1080.03 417.375H1078.03ZM1080.03 35.0346C1080.03 34.4823 1079.58 34.0346 1079.03 34.0346C1078.48 34.0346 1078.03 34.4823 1078.03 35.0346H1080.03ZM1146.3 1.7876H1147.3C1147.3 1.23531 1146.85 0.787598 1146.3 0.787598V1.7876ZM1.70508 1.7876V0.787598C1.43986 0.787598 1.18551 0.892954 0.997971 1.08049C0.810435 1.26803 0.705078 1.52238 0.705078 1.7876L1.70508 1.7876ZM83.7009 68.2815V67.2815C83.1486 67.2815 82.7009 67.7292 82.7009 68.2815H83.7009ZM272.873 68.2815H273.873C273.873 67.7292 273.426 67.2815 272.873 67.2815V68.2815ZM272.873 151.399V152.399C273.426 152.399 273.873 151.951 273.873 151.399H272.873ZM83.7009 151.399H82.7009C82.7009 151.951 83.1486 152.399 83.7009 152.399V151.399ZM264.629 76.5933L265.629 76.5945C265.629 76.3291 265.524 76.0744 265.337 75.8866C265.149 75.6988 264.894 75.5933 264.629 75.5933V76.5933ZM259.653 81.5803L260.653 81.5818C260.653 81.3163 260.548 81.0616 260.36 80.8737C260.173 80.6859 259.918 80.5803 259.653 80.5803V81.5803ZM51.4699 34.0346H1.70508V36.0346H51.4699V34.0346ZM2.70508 35.0346V18.4111H0.705078V35.0346H2.70508ZM1.70508 19.4111H1146.3V17.4111H1.70508V19.4111ZM1145.3 18.4111V35.0346H1147.3V18.4111H1145.3ZM1146.3 34.0346H51.4699V36.0346H1146.3V34.0346ZM50.4699 35.0346V417.375H52.4699V35.0346H50.4699ZM51.4699 418.375H1096.53V416.375H51.4699V418.375ZM1097.53 417.375V35.0346H1095.53V417.375H1097.53ZM1096.53 34.0346H51.4699V36.0346H1096.53V34.0346ZM983.631 69.2815H1072.38V67.2815H983.631V69.2815ZM1071.38 68.2815V267.763H1073.38V68.2815H1071.38ZM1072.38 266.763H983.631V268.763H1072.38V266.763ZM984.631 267.763V68.2815H982.631V267.763H984.631ZM988.607 74.2686H1067.4V72.2686H988.607V74.2686ZM1066.4 73.2686V262.776H1068.4V73.2686H1066.4ZM1067.4 261.776H988.607V263.776H1067.4V261.776ZM989.607 262.776V73.2686H987.607V262.776H989.607ZM993.584 79.2556H1062.42V77.2556H993.584V79.2556ZM1061.42 78.2556V257.789H1063.42V78.2556H1061.42ZM1062.42 256.789H993.584V258.789H1062.42V256.789ZM994.584 257.789V78.2556H992.584V257.789H994.584ZM666.894 266.763H578.147V268.763H666.894V266.763ZM579.147 267.763V68.2815H577.147V267.763H579.147ZM578.147 69.2815H666.894V67.2815H578.147V69.2815ZM665.894 68.2815V267.763H667.894V68.2815H665.894ZM661.918 261.776H583.124V263.776H661.918V261.776ZM584.124 262.776V73.2686H582.124V262.776H584.124ZM583.124 74.2686H661.918V72.2686H583.124V74.2686ZM660.918 73.2686V262.776H662.918V73.2686H660.918ZM656.941 256.789H588.1V258.789H656.941V256.789ZM589.1 257.789V78.2556H587.1V257.789H589.1ZM588.1 79.2556H656.941V77.2556H588.1V79.2556ZM655.941 78.2556V257.789H657.941V78.2556H655.941ZM576.488 266.763H487.741V268.763H576.488V266.763ZM488.741 267.763V68.2815H486.741V267.763H488.741ZM487.741 69.2815H576.488V67.2815H487.741V69.2815ZM575.488 68.2815V267.763H577.488V68.2815H575.488ZM568.194 258.452H496.035V260.452H568.194V258.452ZM497.035 259.452V76.5933H495.035V259.452H497.035ZM496.035 77.5933H568.194V75.5933H496.035V77.5933ZM567.194 76.5933V259.452H569.194V76.5933H567.194ZM563.218 253.464H501.012V255.464H563.218V253.464ZM502.012 254.464V81.5803H500.012V254.464H502.012ZM501.012 82.5803H563.218V80.5803H501.012V82.5803ZM562.218 81.5803V254.464H564.218V81.5803H562.218ZM272.857 150.399H83.6677V152.399H272.857V150.399ZM84.6677 151.4L84.734 68.2823L82.734 68.2807L82.6677 151.398L84.6677 151.4ZM83.734 69.2815H272.907V67.2815H83.734V69.2815ZM271.907 68.2807L271.84 151.398L273.84 151.4L273.907 68.2823L271.907 68.2807ZM264.546 142.087H91.9618V144.087H264.546V142.087ZM92.9618 143.088L93.0282 76.5943L91.0282 76.5923L90.9618 143.086L92.9618 143.088ZM92.0282 77.5933H264.612V75.5933H92.0282V77.5933ZM263.612 76.5923L263.546 143.086L265.546 143.088L265.612 76.5943L263.612 76.5923ZM259.57 137.1H96.9383V139.1H259.57V137.1ZM97.9383 138.101L98.0046 81.5815L96.0046 81.5791L95.9383 138.099L97.9383 138.101ZM97.0046 82.5803H259.636V80.5803H97.0046V82.5803ZM258.636 81.5791L258.57 138.099L260.57 138.101L260.636 81.5815L258.636 81.5791ZM53.2163 417.375V35.0346H51.2163V417.375H53.2163ZM73.7526 417.375V35.0346H71.7526V417.375H73.7526ZM94.2889 417.375V151.399H92.2889V417.375H94.2889ZM94.2889 68.2815V35.0346H92.2889V68.2815H94.2889ZM114.825 417.375V151.399H112.825V417.375H114.825ZM114.825 68.2815V35.0346H112.825V68.2815H114.825ZM135.361 417.375V151.399H133.361V417.375H135.361ZM135.361 68.2815V35.0346H133.361V68.2815H135.361ZM155.898 417.375V151.399H153.898V417.375H155.898ZM155.898 68.2815V35.0346H153.898V68.2815H155.898ZM176.434 417.375V151.399H174.434V417.375H176.434ZM176.434 68.2815V35.0346H174.434V68.2815H176.434ZM196.97 417.375V151.399H194.97V417.375H196.97ZM196.97 68.2815V35.0346H194.97V68.2815H196.97ZM217.506 417.375V151.399H215.506V417.375H217.506ZM217.506 68.2815V35.0346H215.506V68.2815H217.506ZM238.043 417.375V151.399H236.043V417.375H238.043ZM238.043 68.2815V35.0346H236.043V68.2815H238.043ZM258.579 417.375V151.399H256.579V417.375H258.579ZM258.579 68.2815V35.0346H256.579V68.2815H258.579ZM279.115 417.375V35.0346H277.115V417.375H279.115ZM299.652 417.375V35.0346H297.652V417.375H299.652ZM320.188 417.375V35.0346H318.188V417.375H320.188ZM340.724 417.375V35.0346H338.724V417.375H340.724ZM361.26 417.375V35.0346H359.26V417.375H361.26ZM381.797 417.375V35.0346H379.797V417.375H381.797ZM402.333 417.375V35.0346H400.333V417.375H402.333ZM422.869 417.375V35.0346H420.869V417.375H422.869ZM443.405 417.375V35.0346H441.405V417.375H443.405ZM463.942 417.375V35.0346H461.942V417.375H463.942ZM484.478 417.375V35.0346H482.478V417.375H484.478ZM505.014 417.375V267.763H503.014V417.375H505.014ZM505.014 68.2815V35.0346H503.014V68.2815H505.014ZM525.55 417.375V267.763H523.55V417.375H525.55ZM525.55 68.2815V35.0346H523.55V68.2815H525.55ZM546.087 417.375V267.763H544.087V417.375H546.087ZM546.087 68.2815V35.0346H544.087V68.2815H546.087ZM566.623 417.375V267.763H564.623V417.375H566.623ZM566.623 68.2815V35.0346H564.623V68.2815H566.623ZM587.159 417.375V267.763H585.159V417.375H587.159ZM587.159 68.2815V35.0346H585.159V68.2815H587.159ZM607.696 417.375V267.763H605.696V417.375H607.696ZM607.696 68.2815V35.0346H605.696V68.2815H607.696ZM628.232 417.375V267.763H626.232V417.375H628.232ZM628.232 68.2815V35.0346H626.232V68.2815H628.232ZM648.768 417.375V267.763H646.768V417.375H648.768ZM648.768 68.2815V35.0346H646.768V68.2815H648.768ZM669.304 417.375V35.0346H667.304V417.375H669.304ZM689.841 417.375V35.0346H687.841V417.375H689.841ZM710.377 417.375V35.0346H708.377V417.375H710.377ZM730.913 417.375V35.0346H728.913V417.375H730.913ZM751.449 417.375V35.0346H749.449V417.375H751.449ZM771.986 417.375V35.0346H769.986V417.375H771.986ZM792.522 417.375V35.0346H790.522V417.375H792.522ZM813.058 417.375V35.0346H811.058V417.375H813.058ZM833.594 417.375V35.0346H831.594V417.375H833.594ZM854.131 417.375V35.0346H852.131V417.375H854.131ZM874.667 417.375V35.0346H872.667V417.375H874.667ZM895.203 417.375V35.0346H893.203V417.375H895.203ZM915.74 417.375V35.0346H913.74V417.375H915.74ZM936.276 417.375V35.0346H934.276V417.375H936.276ZM956.812 417.375V35.0346H954.812V417.375H956.812ZM977.348 417.375V35.0346H975.348V417.375H977.348ZM997.885 417.375V267.763H995.885V417.375H997.885ZM997.885 68.2815V35.0346H995.885V68.2815H997.885ZM1018.42 417.375V267.763H1016.42V417.375H1018.42ZM1018.42 68.2815V35.0346H1016.42V68.2815H1018.42ZM1038.96 417.375V267.763H1036.96V417.375H1038.96ZM1038.96 68.2815V35.0346H1036.96V68.2815H1038.96ZM1059.49 417.375V267.763H1057.49V417.375H1059.49ZM1059.49 68.2815V35.0346H1057.49V68.2815H1059.49ZM1080.03 417.375V35.0346H1078.03V417.375H1080.03ZM1147.3 18.4111V1.7876H1145.3V18.4111H1147.3ZM1146.3 0.787598H1.70508V2.7876H1146.3V0.787598ZM0.705078 1.7876L0.705078 18.4111L2.70508 18.4111L2.70508 1.7876L0.705078 1.7876ZM83.7009 69.2815H272.873V67.2815H83.7009V69.2815ZM271.873 68.2815V151.399H273.873V68.2815H271.873ZM272.873 150.399H83.7009V152.399H272.873V150.399ZM84.7009 151.399V68.2815H82.7009V151.399H84.7009ZM92.0282 77.5933H264.629V75.5933H92.0282V77.5933ZM263.629 76.592L263.546 143.086L265.546 143.088L265.629 76.5945L263.629 76.592ZM97.0046 82.5803H259.653V80.5803H97.0046V82.5803ZM258.653 81.5788L258.57 138.099L260.57 138.102L260.653 81.5818L258.653 81.5788Z" fill="black"/>
</svg>
