<svg width="73" height="76" viewBox="0 0 73 76" fill="none" xmlns="http://www.w3.org/2000/svg">
<path d="M0 8.38731V75.4858H24.3333V69.1953H16.2222V62.9048H24.3333V56.6143H8.11111V50.3239H24.3333V44.0334H16.2222V37.7429H24.3333V31.4524H8.11111V25.1619H24.3333V8.38731H30.4167V25.1619H36.5V16.7746H42.5833V25.1619H48.6667V8.38731H54.75V25.1619H60.8333V16.7746H66.9167V25.1619H73V0H8.11111C5.95991 0 3.89682 0.88366 2.37569 2.45659C0.854561 4.02951 0 6.16286 0 8.38731ZM12.1667 16.7746C11.0911 16.7746 10.0595 16.3328 9.29896 15.5463C8.53839 14.7599 8.11111 13.6932 8.11111 12.581C8.11111 11.4687 8.53839 10.4021 9.29896 9.6156C10.0595 8.82914 11.0911 8.38731 12.1667 8.38731C13.2423 8.38731 14.2738 8.82914 15.0344 9.6156C15.7949 10.4021 16.2222 11.4687 16.2222 12.581C16.2222 13.6932 15.7949 14.7599 15.0344 15.5463C14.2738 16.3328 13.2423 16.7746 12.1667 16.7746Z" fill="#E58B57"/>
</svg>
