<svg width="79" height="81" viewBox="0 0 79 81" fill="none" xmlns="http://www.w3.org/2000/svg">
<path d="M41.9606 60.0728C52.8896 60.0728 61.7493 51.2131 61.7493 40.2841C61.7493 29.355 52.8896 20.4953 41.9606 20.4953C31.0315 20.4953 22.1718 29.355 22.1718 40.2841C22.1718 51.2131 31.0315 60.0728 41.9606 60.0728Z" stroke="#212121" stroke-width="3.82" stroke-linecap="round" stroke-linejoin="round"/>
<path d="M34.733 34.1605C43.6352 34.1605 50.8519 26.9439 50.8519 18.0417C50.8519 9.1395 43.6352 1.92285 34.733 1.92285C25.8308 1.92285 18.6142 9.1395 18.6142 18.0417C18.6142 26.9439 25.8308 34.1605 34.733 34.1605Z" stroke="#212121" stroke-width="3.82" stroke-linecap="round" stroke-linejoin="round"/>
<path d="M60.881 42.6571C69.7832 42.6571 76.9998 35.4405 76.9998 26.5383C76.9998 17.6361 69.7832 10.4194 60.881 10.4194C51.9788 10.4194 44.7622 17.6361 44.7622 26.5383C44.7622 35.4405 51.9788 42.6571 60.881 42.6571Z" stroke="#212121" stroke-width="3.82" stroke-linecap="round" stroke-linejoin="round"/>
<path d="M60.881 70.1488C69.7832 70.1488 76.9998 62.9321 76.9998 54.0299C76.9998 45.1277 69.7832 37.9111 60.881 37.9111C51.9788 37.9111 44.7622 45.1277 44.7622 54.0299C44.7622 62.9321 51.9788 70.1488 60.881 70.1488Z" stroke="#212121" stroke-width="3.82" stroke-linecap="round" stroke-linejoin="round"/>
<path d="M34.733 78.6445C43.6352 78.6445 50.8519 71.4279 50.8519 62.5257C50.8519 53.6235 43.6352 46.4068 34.733 46.4068C25.8308 46.4068 18.6142 53.6235 18.6142 62.5257C18.6142 71.4279 25.8308 78.6445 34.733 78.6445Z" stroke="#212121" stroke-width="3.82" stroke-linecap="round" stroke-linejoin="round"/>
<path d="M18.5749 56.4025C27.4771 56.4025 34.6937 49.1859 34.6937 40.2837C34.6937 31.3815 27.4771 24.1648 18.5749 24.1648C9.6727 24.1648 2.45605 31.3815 2.45605 40.2837C2.45605 49.1859 9.6727 56.4025 18.5749 56.4025Z" stroke="#212121" stroke-width="3.82" stroke-linecap="round" stroke-linejoin="round"/>
</svg>
