<svg width="92" height="146" viewBox="0 0 92 146" fill="none" xmlns="http://www.w3.org/2000/svg">
<path d="M24.8447 57.7125C21.4805 59.8569 18.2053 61.8872 15.0004 64.0228C13.33 65.1358 11.7297 66.3708 10.1934 67.6643C7.88521 69.6076 5.28909 70.7299 2.26694 70.823C1.28964 70.8531 0.498772 70.6375 0.43259 69.4159C0.369156 68.245 1.02318 67.7814 2.04265 67.7541C5.02392 67.6744 7.12177 65.9617 9.42524 64.2966C14.2208 60.8299 19.2436 57.6672 24.2705 54.536C26.163 53.3573 28.6472 54.1752 29.9472 55.9954C31.2292 57.7905 31.0693 60.2463 29.4482 61.8546C28.4893 62.8059 27.383 63.6085 26.0025 64.7626C27.9146 64.7626 29.4706 64.7626 31.0265 64.7626C34.0522 64.7626 37.078 64.762 40.1037 64.7627C44.4461 64.7637 46.0029 66.291 46.0338 70.6997C48.4239 71.0824 50.2457 72.2698 50.5761 74.8696C50.8877 77.3207 49.5038 78.8714 47.4551 79.872C47.7023 83.894 46.7488 85.2234 42.9152 86.2866C43.1841 90.4178 41.5286 92.1836 37.369 92.1864C31.4363 92.1905 25.4961 92.362 19.5739 92.1118C16.7334 91.9918 13.9294 91.0551 11.104 90.5132C8.73522 90.0588 6.36321 89.6183 3.9843 89.2215C3.34839 89.1154 2.6777 89.2367 2.03062 89.1743C1.03532 89.0784 0.160386 88.6089 0.504739 87.5041C0.68966 86.9108 1.56479 86.0791 2.07394 86.1156C4.94693 86.3216 7.94507 86.3302 10.6314 87.2194C14.4066 88.469 18.1335 89.2255 22.1055 89.1321C27.0863 89.015 32.0719 89.1046 37.0554 89.1026C37.5297 89.1024 38.1137 89.2552 38.4536 89.0366C39.0203 88.6719 39.7986 88.0654 39.8001 87.5586C39.8016 87.0835 38.9323 86.2216 38.4101 86.1933C35.6294 86.0423 32.8338 86.1778 30.0507 86.0519C28.6735 85.9896 26.3617 86.8773 26.3564 84.5822C26.3508 82.1563 28.7302 83.0446 30.1581 83.0053C33.9518 82.9008 37.7502 82.97 41.5468 82.9696C41.9621 82.9695 42.4725 83.119 42.7727 82.9322C43.3905 82.5477 43.896 81.9826 44.4476 81.4919C43.8877 81.0171 43.3436 80.1548 42.7653 80.1311C39.3297 79.9908 35.8863 80.0434 32.4455 80.0336C31.1403 80.03 29.835 80.0278 28.5298 80.0343C27.3678 80.0401 26.2497 79.8239 26.2829 78.3958C26.3136 77.0719 27.3876 76.9108 28.4836 76.9127C33.8226 76.9219 39.1617 76.9304 44.5006 76.8971C45.6658 76.8898 47.3465 77.3588 47.4142 75.5034C47.4879 73.4848 45.7222 73.9225 44.505 73.914C39.2267 73.8771 33.948 73.8926 28.6695 73.9026C27.5449 73.9047 26.3197 73.8666 26.2819 72.4317C26.2411 70.8851 27.4872 70.8015 28.6966 70.8074C32.6715 70.8266 36.6465 70.8053 40.6214 70.8202C41.7704 70.8245 42.8973 70.741 42.8727 69.2443C42.8491 67.8018 41.6917 67.846 40.6596 67.8481C34.4307 67.8608 28.2018 67.8821 21.9729 67.8864C21.2648 67.8869 20.4716 67.9805 19.874 67.6991C19.3422 67.4487 18.6928 66.7265 18.7099 66.2337C18.7271 65.737 19.424 64.9721 19.956 64.8329C23.1147 64.0066 24.907 61.3304 27.3166 59.5093C27.6116 59.2863 27.4998 57.859 27.3384 57.8123C26.5927 57.5964 25.7627 57.6714 24.8447 57.7125Z" fill="white"/>
<path d="M90.6368 6.70376C86.7055 6.99337 83.0872 6.42686 79.5051 5.105C77.4362 4.34156 75.1492 3.88512 72.9458 3.82485C66.7807 3.65623 60.608 3.76561 54.4383 3.76532C54.379 3.76532 54.3196 3.76742 54.2604 3.76591C53.2234 3.73949 52.2502 3.936 52.2489 5.20495C52.2477 6.39757 53.1007 6.76748 54.1946 6.76526C57.2792 6.759 60.3641 6.79811 63.4485 6.7755C64.5996 6.76705 65.7936 6.85334 65.8169 8.26108C65.842 9.77719 64.5749 9.90221 63.3778 9.90114C58.8696 9.89713 54.3613 9.90345 49.8531 9.89699C48.7925 9.89547 47.7116 9.90703 47.6977 11.3512C47.6837 12.8138 48.7955 12.8203 49.8369 12.8228C54.1082 12.8329 58.3795 12.8338 62.6507 12.8382C63.066 12.8386 63.4815 12.831 63.8965 12.842C64.9681 12.8702 65.8654 13.2939 65.829 14.4551C65.7928 15.6146 64.8778 15.958 63.8006 15.9565C58.4619 15.9492 53.1229 15.9349 47.7845 15.9824C46.5365 15.9936 44.6348 15.3915 44.6605 17.5008C44.6839 19.4192 46.4949 18.9487 47.7105 18.9584C52.7511 18.9985 57.7921 18.9751 62.833 18.9754C63.2482 18.9754 63.7644 18.822 64.0583 19.0117C64.7209 19.4395 65.2736 20.0377 65.8711 20.5665C65.245 21.0619 64.6407 21.9485 63.9891 21.9848C61.1504 22.1429 58.2978 22.0538 55.4503 22.0543C54.2045 22.0545 52.9586 22.0502 51.7129 22.0555C50.5857 22.0604 49.2299 21.8873 49.215 23.5377C49.1999 25.2247 50.5929 25.0198 51.699 25.0182C57.9272 25.0096 64.1553 24.9789 70.3834 24.9627C70.8569 24.9615 71.4275 24.8575 71.7826 25.077C72.4049 25.4614 72.895 26.0596 73.4405 26.5683C72.9073 27.0798 72.4155 27.6476 71.8253 28.0816C71.4755 28.3389 70.8888 28.2799 70.5489 28.5437C68.7223 29.9618 66.8736 31.3657 65.1865 32.9395C64.7403 33.3558 64.8387 34.3559 64.687 35.0879C65.4306 35.1744 66.4006 35.6082 66.883 35.2939C71.9398 31.9989 76.9791 28.669 81.8928 25.166C84.2774 23.4661 86.712 22.1696 89.6701 22.0496C90.6039 22.0117 91.4856 22.1052 91.6165 23.337C91.7505 24.5989 91.0198 25.0869 89.9378 25.1191C87.0171 25.2061 84.9726 26.9049 82.7173 28.5213C77.861 32.0021 72.8033 35.2125 67.7241 38.3662C65.8563 39.526 63.3227 38.6293 62.0799 36.7978C60.8125 34.93 61.1031 32.3765 62.8248 30.8153C63.7667 29.9612 64.7921 29.1993 66.1358 28.1063C61.1242 28.1063 56.5826 28.1068 52.0409 28.1062C47.5059 28.1056 46.0901 26.7296 46.0037 22.138C43.558 21.7812 41.7999 20.503 41.501 17.9118C41.2285 15.5498 42.5922 14.0277 44.5713 13.0334C44.5505 8.73511 45.3064 7.67276 48.8945 6.65587C49.216 5.30984 49.3005 3.96669 49.8577 2.86206C50.6285 1.33432 52.1119 0.676909 53.8575 0.680507C60.561 0.694329 67.266 0.618197 73.9671 0.749426C75.8275 0.785859 77.7921 1.14007 79.5055 1.84377C82.8137 3.20248 86.1591 3.8738 89.7224 3.71107C90.3112 3.68418 91.3723 4.16784 91.4315 4.54019C91.5359 5.1963 91.0361 5.94848 90.6368 6.70376Z" fill="white"/>
<path d="M6.44407 28.2606C6.57919 26.9909 7.32571 26.3791 8.26558 26.7743C8.81346 27.0047 9.34042 28.0036 9.35466 28.668C9.44984 33.1106 9.39544 37.5562 9.41479 42.0008C9.41759 42.6438 9.40177 43.3655 9.67941 43.9039C9.90047 44.3326 10.5645 44.7854 11.0163 44.7701C11.4508 44.7553 12.0437 44.2331 12.2435 43.7886C12.4961 43.2265 12.4761 42.5175 12.479 41.8715C12.4969 37.8977 12.488 33.9238 12.4882 29.9499C12.4882 29.5347 12.4875 29.1195 12.4901 28.7043C12.4967 27.672 12.7228 26.7324 13.9705 26.6823C15.3587 26.6266 15.5908 27.674 15.6082 28.7393C15.6449 30.9926 15.6212 33.2468 15.6216 35.5007C15.622 38.8211 15.6242 42.1415 15.6206 45.4618C15.6194 46.5497 15.5296 47.8383 17.0329 47.8445C18.5918 47.851 18.6041 46.5637 18.6013 45.3775C18.5888 40.0987 18.5957 34.82 18.5963 29.5412C18.5963 29.1261 18.4462 28.611 18.636 28.3166C19.0309 27.7041 19.607 27.2084 20.1087 26.6647C20.6241 27.2007 21.2348 27.6776 21.6175 28.2956C21.8315 28.6413 21.6713 29.2211 21.6731 29.6955C21.6876 33.5503 21.6922 37.4052 21.7196 41.2599C21.7271 42.3115 21.8408 43.4426 23.2617 43.3453C24.5963 43.2538 24.6808 42.1745 24.6778 41.0958C24.6606 34.9274 24.662 28.759 24.6594 22.5906C24.6591 21.9384 24.4958 21.2117 24.729 20.6538C24.987 20.0367 25.5765 19.2027 26.0916 19.1502C26.5926 19.0992 27.5291 19.8246 27.6758 20.37C28.5243 23.5245 31.1673 25.3419 33.0028 27.7464C33.2164 28.0262 34.2409 28.0531 34.5615 27.793C34.9695 27.462 35.1844 26.7258 35.2124 26.1511C35.2319 25.7518 34.8255 25.3103 34.5595 24.9218C31.0841 19.8457 27.6211 14.7608 24.1075 9.71115C22.6449 7.6091 21.7973 5.33659 21.6794 2.77526C21.6292 1.68413 21.9563 0.691834 23.1004 0.800676C23.6821 0.856009 24.5634 1.83971 24.6339 2.4783C24.9268 5.131 26.1905 7.18176 27.7189 9.3106C31.2715 14.2586 34.5998 19.3741 37.8598 24.5225C39.1234 26.5181 38.348 29.0049 36.4651 30.3395C34.5322 31.7095 32.0219 31.4171 30.3613 29.5812C29.5768 28.7139 28.8671 27.779 27.794 26.474C27.794 28.84 27.794 30.7523 27.794 32.6646C27.794 35.4522 27.8073 38.24 27.7907 41.0275C27.7677 44.8814 25.7967 46.6703 21.838 46.3315C21.3517 48.7085 20.3029 50.6712 17.53 50.935C15.1309 51.1633 13.6248 49.8894 12.65 47.8891C8.57943 48.0926 7.33378 47.2033 6.20152 43.2863C5.81227 43.3216 5.41 43.3795 5.00638 43.3912C2.46755 43.4651 0.451691 41.5483 0.445803 38.9935C0.429265 31.8168 0.371981 24.6389 0.491083 17.4641C0.51886 15.7906 0.976183 14.0459 1.59774 12.4774C2.79746 9.44986 3.50633 6.38608 3.32519 3.12407C3.25893 1.93067 3.37695 0.676879 4.95953 0.738569C6.40175 0.794789 6.41603 2.00982 6.44937 3.12413C6.55182 6.54837 5.84144 9.79015 4.72963 13.0327C3.95588 15.2894 3.46799 17.7392 3.39 20.1203C3.20178 25.8674 3.32811 31.6248 3.33008 37.378C3.33023 37.8521 3.17837 38.4368 3.39777 38.7753C3.76577 39.343 4.32064 40.0091 4.90459 40.1353C5.25727 40.2115 5.95517 39.4209 6.23573 38.883C6.48826 38.3989 6.42552 37.7285 6.42885 37.1399C6.44529 34.2338 6.43748 31.3276 6.44407 28.2606Z" fill="white"/>
<path d="M88.7229 54.3003C88.1755 53.6445 87.6325 53.1463 87.0895 52.6482C86.6599 53.245 85.8909 53.8242 85.8587 54.4417C85.7105 57.2815 85.7691 60.1321 85.7506 62.9788C85.7471 63.5122 85.9091 64.146 85.6787 64.5556C85.3241 65.186 84.7604 66.0203 84.1701 66.1264C83.102 66.3183 82.673 65.4449 82.6746 64.4062C82.6815 59.8981 82.6821 55.39 82.6709 50.8819C82.6694 50.294 82.7549 49.6117 82.4936 49.1446C82.2234 48.6615 81.578 48.1018 81.0995 48.1044C80.646 48.1069 80.0055 48.7115 79.7927 49.2014C79.524 49.8199 79.548 50.5901 79.5449 51.2953C79.526 55.5661 79.5289 59.8371 79.5402 64.1079C79.5429 65.1242 79.4581 66.1203 78.1711 66.1782C76.7968 66.24 76.5666 65.2521 76.5675 64.135C76.572 58.9185 76.5673 53.7021 76.5661 48.4856C76.566 48.0111 76.5659 47.5365 76.5682 47.062C76.5731 46.0099 76.2612 45.0541 75.0791 45.0184C73.7631 44.9787 73.4809 45.9877 73.4821 47.109C73.4874 52.0312 73.4838 56.9535 73.4835 61.8757C73.4834 62.5875 73.4804 63.2993 73.4837 64.0111C73.4886 65.0793 73.3959 66.1508 72.0024 66.1787C70.5799 66.2072 70.5065 65.153 70.5114 64.0662C70.5275 60.4479 70.5192 56.8295 70.5155 53.2111C70.515 52.6778 70.5439 52.1361 70.4629 51.6132C70.3097 50.6249 70.2484 49.4197 68.8309 49.5192C67.5081 49.612 67.3771 50.6681 67.3812 51.7559C67.3958 55.6115 67.3865 59.4672 67.3863 63.3228C67.3861 66.1107 67.3722 68.8988 67.393 71.6866C67.4008 72.7265 67.2243 73.6698 66.0092 73.7972C64.7627 73.9279 64.4402 73.0217 64.2913 71.9889C64.2343 71.5932 64.1177 71.1495 63.8784 70.8458C62.4477 69.0301 61.044 67.1823 59.4641 65.5025C59.0647 65.0778 58.0559 65.2263 57.3272 65.1115C57.2391 65.8019 56.8239 66.705 57.1132 67.1501C60.4032 72.211 63.6948 77.2781 67.2165 82.1778C68.8548 84.4571 70.1009 86.7721 70.4211 89.5581C70.448 89.7928 70.5325 90.0975 70.4244 90.2575C69.978 90.9176 69.4677 91.5345 68.9809 92.1672C68.4449 91.5819 67.4974 91.0317 67.444 90.4052C67.2096 87.6591 65.8246 85.6112 64.2661 83.4399C60.7139 78.4907 57.4013 73.3629 54.1522 68.2063C52.9636 66.32 53.7879 63.8502 55.6125 62.5414C57.4713 61.2081 59.9443 61.4274 61.6002 63.1478C62.412 63.9912 63.1117 64.9426 64.1334 66.1713C64.2126 65.3119 64.2942 64.8316 64.2954 64.3511C64.3057 60.2582 64.293 56.1652 64.3036 52.0723C64.3143 47.9773 66.1882 46.2409 70.3738 46.5315C70.6521 44.1804 71.7142 42.372 74.2553 41.9782C76.777 41.5875 78.4583 42.8049 79.4336 45.0481C83.2159 44.6413 84.7288 45.6639 85.8703 49.468C86.3396 49.468 86.8552 49.4483 87.3689 49.4713C89.8059 49.5803 91.6006 51.361 91.6086 53.809C91.6321 61.0456 91.6808 68.2837 91.5491 75.5181C91.5175 77.2486 91.0313 79.0499 90.3868 80.6727C89.2276 83.5913 88.5785 86.5459 88.7309 89.6817C88.7878 90.8519 88.7719 92.1646 87.1782 92.13C85.6117 92.096 85.6784 90.7567 85.6443 89.6083C85.5442 86.2442 86.2442 83.0591 87.3541 79.8761C88.12 77.6796 88.6023 75.2848 88.6689 72.9631C88.8455 66.7992 88.7279 60.6269 88.7229 54.3003Z" fill="white"/>
<path d="M48.9834 37.0874C51.5034 35.4279 53.9847 35.2585 56.4159 36.8686C59.1148 38.656 60.0502 41.3536 59.7064 44.4418C59.3239 47.8785 57.566 50.7702 55.1706 53.1092C52.7282 55.4942 49.9645 57.5602 47.2507 59.6479C46.7727 60.0156 45.6701 60.1098 45.158 59.8117C40.0466 56.8353 35.6983 53.0519 33.2259 47.5206C31.8916 44.5355 31.8573 41.5135 33.7707 38.7201C36.272 35.0685 41.0502 34.7742 44.2118 38.0245C44.8234 38.6532 45.3657 39.3494 45.7541 39.7993C46.8243 38.895 47.8497 38.0288 48.9834 37.0874ZM55.8667 40.5882C53.8132 38.2898 51.8827 38.1743 49.8947 40.451C48.9826 41.4955 48.4912 42.8964 47.6778 44.0427C47.2471 44.6496 46.574 45.3698 45.9375 45.4482C45.4907 45.5033 44.828 44.6265 44.425 44.0514C43.5171 42.756 42.8996 41.2071 41.8227 40.0905C39.7005 37.8901 36.4582 38.7138 35.7753 41.6981C35.4317 43.1994 35.5727 45.0699 36.1768 46.4815C38.0312 50.8152 41.4693 53.8429 45.3544 56.3626C45.6921 56.5815 46.4261 56.561 46.7731 56.3371C50.5626 53.8928 53.8045 50.9006 55.8394 46.7874C56.8033 44.8392 57.1098 42.847 55.8667 40.5882Z" fill="#FF3D3D"/>
<path d="M82.8314 110.377C83.8381 112.544 84.839 114.558 85.685 116.635C85.9152 117.2 85.6785 117.955 85.6561 118.624C84.8266 118.385 83.626 118.406 83.2404 117.856C82.2693 116.47 81.675 114.823 80.9085 113.291C80.7148 112.903 80.4421 112.556 79.8749 112.267C79.8749 113.885 79.8469 115.503 79.8857 117.12C79.9082 118.054 79.7808 118.789 78.6212 118.794C77.5876 118.798 77.1312 118.28 77.1278 117.257C77.1099 111.929 77.0726 106.602 77.0506 101.274C77.0466 100.324 77.3912 99.6694 78.4869 99.6615C79.6704 99.6529 79.9987 100.305 79.9713 101.37C79.9312 102.929 79.9609 104.489 80.3764 106.19C81.156 104.596 81.8709 102.964 82.7455 101.423C83.1238 100.757 83.7601 100.157 84.4206 99.7655C84.7383 99.5772 85.4918 99.8142 85.8402 100.106C86.0415 100.275 85.9499 100.991 85.7829 101.368C84.9231 103.313 83.8981 105.191 83.1358 107.171C82.7762 108.105 82.8758 109.216 82.8314 110.377Z" fill="white"/>
<path d="M66.3528 100.604C67.0971 100.233 67.818 99.8557 68.521 99.8866C68.7648 99.8973 69.1484 100.918 69.154 101.481C69.1886 104.978 69.1085 108.477 69.1258 111.975C69.1305 112.912 69.1947 113.902 69.5128 114.764C69.7093 115.296 70.4523 115.98 70.9225 115.96C71.4198 115.938 72.1118 115.245 72.3115 114.697C72.6267 113.831 72.7026 112.842 72.7032 111.905C72.7054 108.466 72.6359 105.028 72.5908 101.59C72.5774 100.575 72.6415 99.6323 74.031 99.657C75.3405 99.6802 75.5447 100.499 75.5113 101.581C75.3849 105.669 75.3842 109.764 75.1516 113.847C74.943 117.507 72.6499 119.393 69.6456 118.613C67.8648 118.15 66.6634 117.059 66.6054 115.156C66.4592 110.358 66.4102 105.558 66.3528 100.604Z" fill="white"/>
<path d="M53.751 118.14C50.0295 119.678 47.2915 118.02 47.1627 114.135C47.0212 109.868 47.0724 105.595 47.0173 101.325C47.0035 100.256 47.3473 99.6006 48.5384 99.6636C49.7398 99.7273 49.9315 100.482 49.92 101.499C49.8763 105.353 49.8345 109.207 49.8846 113.061C49.9 114.252 49.7933 115.888 51.4602 115.995C53.35 116.117 53.2725 114.311 53.3119 113.129C53.4244 109.755 53.3207 106.373 53.2966 102.994C53.292 102.342 53.0616 101.601 53.3004 101.063C53.5524 100.495 54.2411 99.7643 54.7389 99.7643C55.2183 99.7644 56.117 100.612 56.112 101.079C56.0627 105.64 55.9748 110.208 55.6266 114.753C55.5389 115.898 54.4804 116.968 53.751 118.14Z" fill="white"/>
<path d="M44.3494 127.124C44.6334 128.067 44.8556 128.955 44.9194 129.854C44.9959 130.934 44.9375 132.023 44.9375 133.108C45.0941 133.149 45.2508 133.19 45.4074 133.231C46.0814 131.841 46.7394 130.443 47.4368 129.065C47.7272 128.491 47.979 127.728 48.4692 127.469C49.0546 127.16 49.8767 127.3 50.5963 127.245C50.5621 127.781 50.6682 128.376 50.4691 128.841C49.6557 130.74 48.6115 132.551 47.9351 134.493C47.6005 135.454 47.6033 136.726 47.9403 137.686C48.6215 139.626 49.6969 141.425 50.4732 143.337C50.7028 143.903 50.4753 144.654 50.4573 145.321C49.6414 145.058 48.4824 145.042 48.079 144.483C47.1609 143.208 46.6197 141.663 45.9113 140.235C45.7342 139.878 45.5038 139.548 44.9207 139.236C44.9207 140.709 44.8996 142.181 44.9282 143.653C44.9468 144.614 44.9098 145.484 43.6195 145.483C42.4071 145.482 42.1939 144.714 42.1926 143.704C42.1866 138.733 42.1813 133.762 42.1191 128.792C42.0997 127.237 42.8064 126.778 44.3494 127.124Z" fill="white"/>
<path d="M22.6604 118.608C20.5849 118.86 19.3096 117.804 18.5961 116.214C16.5073 111.559 16.4871 106.815 18.5039 102.127C19.1354 100.66 20.2656 99.5704 22.021 99.5503C23.8591 99.5293 25.0312 100.655 25.6833 102.187C27.6537 106.817 27.6669 111.53 25.5845 116.1C25.1117 117.137 23.7449 117.767 22.6604 118.608ZM23.6884 114.46C24.684 110.92 24.803 107.353 23.732 103.83C23.516 103.119 22.6384 102.61 22.0658 102.007C21.4969 102.613 20.6361 103.125 20.4082 103.84C19.2648 107.424 19.3977 111.061 20.5431 114.623C20.7446 115.25 21.4839 116.071 22.026 116.111C22.5114 116.147 23.0672 115.23 23.6884 114.46Z" fill="white"/>
<path d="M58.3702 142.251C58.9698 142.518 59.4764 142.857 59.9541 142.821C60.5418 142.776 61.1054 142.416 61.6795 142.193C61.3701 141.685 61.1803 141.001 60.7325 140.696C57.0446 138.188 55.1492 134.976 56.3474 130.393C56.9791 127.977 58.6016 126.607 60.725 126.812C62.8218 127.016 64.0652 128.45 64.2061 131.02C64.2738 132.255 64.2709 133.532 64.0155 134.729C63.8809 135.36 63.1766 136.284 62.6564 136.336C61.422 136.458 61.6742 135.345 61.6706 134.533C61.6651 133.292 61.7576 132.03 61.553 130.82C61.4561 130.247 60.7678 129.774 60.3475 129.255C59.8933 129.745 59.1931 130.165 59.0281 130.738C58.3635 133.047 58.6399 135.217 60.5766 136.898C61.4253 137.635 62.3666 138.266 63.2156 139.003C64.5482 140.159 64.9309 141.871 64.2526 143.343C63.5673 144.83 61.5 145.763 59.544 145.468C57.7113 145.191 56.2094 143.904 56.0781 142.386C56.0425 141.974 56.3183 141.535 56.4511 141.108C57.0555 141.458 57.6599 141.808 58.3702 142.251Z" fill="white"/>
<path d="M36.3621 109.125C35.6666 110.926 34.5992 112.091 32.6838 112.157C31.6568 112.192 31.403 112.769 31.4343 113.678C31.4731 114.802 31.5972 115.959 31.3807 117.041C31.254 117.674 30.5355 118.189 30.0833 118.757C29.6281 118.179 28.7953 117.611 28.7793 117.021C28.6781 113.295 28.7742 109.563 28.7703 105.834C28.7687 104.354 28.6764 102.875 28.6287 101.396C28.5922 100.268 29.1351 99.6654 30.2518 99.449C32.8836 98.939 35.1759 99.9667 35.8503 102.55C36.3861 104.604 36.2401 106.835 36.3621 109.125ZM33.9211 105.267C33.581 104.286 33.2831 103.287 32.8712 102.338C32.7682 102.101 32.1824 101.822 32.0228 101.914C31.738 102.08 31.4515 102.508 31.4411 102.835C31.3871 104.539 31.3647 106.25 31.463 107.95C31.4864 108.354 31.9709 108.985 32.3238 109.046C32.6839 109.108 33.3942 108.678 33.509 108.322C33.7892 107.45 33.814 106.497 33.9211 105.267Z" fill="white"/>
<path d="M26.7968 136.321C27.2958 136.391 27.7108 136.356 27.9752 136.54C28.372 136.815 28.6632 137.242 28.9993 137.605C28.6005 137.891 28.237 138.265 27.7946 138.441C27.1644 138.691 25.9969 138.657 25.9028 138.987C25.6203 139.975 25.6614 141.089 25.7721 142.133C25.801 142.405 26.5199 142.703 26.965 142.81C27.7642 143.003 28.625 142.968 29.4012 143.214C29.7608 143.328 29.9822 143.878 30.2662 144.231C29.9268 144.499 29.6145 144.948 29.2431 145.004C27.7241 145.232 26.1827 145.469 24.659 145.419C24.1625 145.403 23.2877 144.531 23.2764 144.034C23.1573 138.82 23.1423 133.602 23.222 128.386C23.2292 127.914 24.0574 127.109 24.5691 127.054C26.0308 126.895 27.5308 126.984 29.0049 127.106C29.4346 127.141 29.8279 127.616 30.2379 127.89C29.9198 128.334 29.6574 128.839 29.2621 129.198C29.0337 129.405 28.5947 129.408 28.2442 129.45C25.7133 129.751 25.7128 129.746 25.7349 132.366C25.7424 133.255 25.6527 134.16 25.7956 135.027C25.8721 135.491 26.3491 135.888 26.7968 136.321Z" fill="white"/>
<path d="M6.40432 102.043C5.62156 100.471 5.93303 99.7669 7.40279 99.7311C9.77409 99.6734 12.1505 99.672 14.5191 99.7752C15.0385 99.7979 15.5344 100.36 16.0412 100.674C15.6013 101.162 15.147 102.082 14.7237 102.067C12.1208 101.981 12.1588 103.608 12.1916 105.456C12.259 109.252 12.2214 113.049 12.2252 116.845C12.2261 117.749 12.3066 118.767 11.008 118.79C9.68782 118.813 9.55359 117.843 9.56101 116.816C9.58847 113.02 9.64905 109.224 9.62135 105.428C9.59849 102.294 9.55103 102.294 6.40432 102.043Z" fill="white"/>
<path d="M57.795 103.594C57.7776 102.709 57.7696 101.997 57.7511 101.285C57.7258 100.316 58.0563 99.671 59.151 99.6549C60.3099 99.6379 60.6823 100.237 60.6617 101.334C60.5818 105.604 60.5957 109.876 60.4724 114.145C60.4308 115.585 60.8328 116.27 62.353 116.08C62.7513 116.03 63.2517 116.038 63.5661 116.239C64.1551 116.614 64.6425 117.148 65.1721 117.616C64.5555 117.923 63.9669 118.381 63.3158 118.502C62.2767 118.695 61.1915 118.623 60.134 118.738C58.3343 118.935 57.8068 118.486 57.8023 116.58C57.7921 112.31 57.7995 108.039 57.795 103.594Z" fill="white"/>
<path d="M45.052 118.497C43.4885 118.605 42.0709 118.649 40.6619 118.783C39.2137 118.922 38.571 118.3 38.5698 116.872C38.5655 111.725 38.5489 106.579 38.5221 101.432C38.5169 100.427 38.7327 99.6674 39.9515 99.6547C41.275 99.641 41.4549 100.442 41.4347 101.53C41.3564 105.729 41.3678 109.931 41.2501 114.129C41.2106 115.536 41.5522 116.245 43.1039 116.093C43.7258 116.032 44.448 116.142 45.0013 116.419C46.015 116.928 46.5296 117.656 45.052 118.497Z" fill="white"/>
<path d="M37.4298 144.597C36.8595 144.96 36.199 145.466 35.8034 145.308C35.3779 145.138 34.9615 144.35 34.9535 143.825C34.8931 139.856 34.8999 135.886 34.9603 131.918C34.9843 130.335 34.7052 129.267 32.754 129.356C32.3069 129.376 31.8254 128.642 31.3598 128.255C31.8868 127.855 32.3954 127.142 32.9442 127.11C35.1283 126.98 37.327 127.013 39.5154 127.103C40.05 127.125 40.566 127.597 41.0906 127.861C40.6852 128.356 40.2736 129.281 39.8755 129.275C37.2523 129.237 37.4198 130.915 37.4483 132.719C37.5102 136.627 37.4604 140.538 37.4298 144.597Z" fill="white"/>
<path d="M52.0633 129.978C52.2721 128.75 51.3114 127.036 53.4247 127.011C55.5167 126.986 54.8267 128.659 54.8348 129.759C54.8684 134.307 54.8299 138.856 54.8167 143.404C54.8134 144.536 54.7189 145.795 53.1682 145.333C52.6472 145.177 52.1473 143.989 52.1305 143.262C52.0297 138.892 52.0723 134.519 52.0633 129.978Z" fill="white"/>
<path d="M66.2673 135.974C66.2078 133.494 66.1461 131.191 66.0912 128.888C66.0668 127.863 66.1822 126.971 67.565 127.002C68.8666 127.031 68.8772 127.875 68.8711 128.829C68.8403 133.673 68.8309 138.518 68.8178 143.363C68.8153 144.315 68.9585 145.442 67.5677 145.437C66.1112 145.432 66.1942 144.266 66.2032 143.241C66.224 140.877 66.2463 138.514 66.2673 135.974Z" fill="white"/>
<path d="M52.3505 124.303C52.4892 123.543 52.6916 122.905 52.894 122.268C53.4427 122.475 54.1611 122.541 54.4869 122.933C54.7531 123.253 54.5505 123.963 54.5557 124.5C53.8419 124.476 53.1281 124.451 52.3505 124.303Z" fill="white"/>
<path d="M68.7087 123.044C68.4631 123.755 68.2519 124.447 67.7926 124.869C67.6394 125.01 66.5639 124.568 66.4237 124.197C66.2397 123.711 66.564 123.033 66.6697 122.437C67.3285 122.598 67.9874 122.758 68.7087 123.044Z" fill="white"/>
</svg>
